<?xml version="1.0" encoding="UTF-8" standalone="no"?>
<!DOCTYPE svg PUBLIC "-//W3C//DTD SVG 1.1//EN"
 "http://www.w3.org/Graphics/SVG/1.1/DTD/svg11.dtd">
<!-- Generated by graphviz version 2.38.0 (20140413.2041)
 -->
<!-- Title: Suchi.Screen Pages: 1 -->
<svg width="237pt" height="347pt"
 viewBox="0.00 0.00 237.00 347.00" xmlns="http://www.w3.org/2000/svg" xmlns:xlink="http://www.w3.org/1999/xlink">
<g id="graph0" class="graph" transform="scale(1 1) rotate(0) translate(4 343)">
<title>Suchi.Screen</title>
<!-- Node1 -->
<g id="node1" class="node"><title>Node1</title>
<polygon fill="#bfbfbf" stroke="black" points="47.5,-0.5 47.5,-167.5 155.5,-167.5 155.5,-0.5 47.5,-0.5"/>
<text text-anchor="middle" x="101.5" y="-155.5" font-family="Helvetica,sans-Serif" font-size="10.00">Suchi.Screen</text>
<polyline fill="none" stroke="black" points="47.5,-148.5 155.5,-148.5 "/>
<text text-anchor="middle" x="101.5" y="-136.5" font-family="Helvetica,sans-Serif" font-size="10.00"> </text>
<polyline fill="none" stroke="black" points="47.5,-129.5 155.5,-129.5 "/>
<text text-anchor="start" x="55.5" y="-117.5" font-family="Helvetica,sans-Serif" font-size="10.00">+ Screen()</text>
<text text-anchor="start" x="55.5" y="-106.5" font-family="Helvetica,sans-Serif" font-size="10.00">+ saveImage()</text>
<text text-anchor="start" x="55.5" y="-95.5" font-family="Helvetica,sans-Serif" font-size="10.00">+ lookHorizontal()</text>
<text text-anchor="start" x="55.5" y="-84.5" font-family="Helvetica,sans-Serif" font-size="10.00">+ lookVertical()</text>
<text text-anchor="start" x="55.5" y="-73.5" font-family="Helvetica,sans-Serif" font-size="10.00">+ getImg()</text>
<text text-anchor="start" x="55.5" y="-62.5" font-family="Helvetica,sans-Serif" font-size="10.00">+ getDepartGauche()</text>
<text text-anchor="start" x="55.5" y="-51.5" font-family="Helvetica,sans-Serif" font-size="10.00">+ getDepartDroit()</text>
<text text-anchor="start" x="55.5" y="-40.5" font-family="Helvetica,sans-Serif" font-size="10.00">+ getGameArea()</text>
<text text-anchor="start" x="55.5" y="-29.5" font-family="Helvetica,sans-Serif" font-size="10.00">+ saveGameArea()</text>
<text text-anchor="start" x="55.5" y="-18.5" font-family="Helvetica,sans-Serif" font-size="10.00">+ Screen()</text>
<text text-anchor="start" x="55.5" y="-7.5" font-family="Helvetica,sans-Serif" font-size="10.00">et 9 de plus...</text>
</g>
<!-- Node2 -->
<g id="node2" class="node"><title>Node2</title>
<polygon fill="none" stroke="#bfbfbf" points="0,-254 0,-311 43,-311 43,-254 0,-254"/>
<text text-anchor="middle" x="21.5" y="-299" font-family="Helvetica,sans-Serif" font-size="10.00">Robot</text>
<polyline fill="none" stroke="#bfbfbf" points="0,-292 43,-292 "/>
<text text-anchor="middle" x="21.5" y="-280" font-family="Helvetica,sans-Serif" font-size="10.00"> </text>
<polyline fill="none" stroke="#bfbfbf" points="0,-273 43,-273 "/>
<text text-anchor="middle" x="21.5" y="-261" font-family="Helvetica,sans-Serif" font-size="10.00"> </text>
</g>
<!-- Node2&#45;&gt;Node1 -->
<g id="edge1" class="edge"><title>Node2&#45;&gt;Node1</title>
<path fill="none" stroke="#404040" d="M32.7924,-253.763C40.8176,-234.051 52.1013,-206.336 63.209,-179.052"/>
<polygon fill="none" stroke="#404040" points="63.2562,-178.936 61.8139,-171.871 67.7811,-167.822 69.2234,-174.887 63.2562,-178.936"/>
<text text-anchor="middle" x="69.5" y="-194.5" font-family="Helvetica,sans-Serif" font-size="10.00"> &#45;bot</text>
</g>
<!-- Node3 -->
<g id="node3" class="node"><title>Node3</title>
<polygon fill="none" stroke="#bfbfbf" points="61.5,-254 61.5,-311 141.5,-311 141.5,-254 61.5,-254"/>
<text text-anchor="middle" x="101.5" y="-299" font-family="Helvetica,sans-Serif" font-size="10.00">BufferedImage</text>
<polyline fill="none" stroke="#bfbfbf" points="61.5,-292 141.5,-292 "/>
<text text-anchor="middle" x="101.5" y="-280" font-family="Helvetica,sans-Serif" font-size="10.00"> </text>
<polyline fill="none" stroke="#bfbfbf" points="61.5,-273 141.5,-273 "/>
<text text-anchor="middle" x="101.5" y="-261" font-family="Helvetica,sans-Serif" font-size="10.00"> </text>
</g>
<!-- Node3&#45;&gt;Node1 -->
<g id="edge2" class="edge"><title>Node3&#45;&gt;Node1</title>
<path fill="none" stroke="#404040" d="M101.5,-253.763C101.5,-234.314 101.5,-207.073 101.5,-180.144"/>
<polygon fill="none" stroke="#404040" points="101.5,-179.822 97.5,-173.822 101.5,-167.822 105.5,-173.822 101.5,-179.822"/>
<text text-anchor="middle" x="112.5" y="-194.5" font-family="Helvetica,sans-Serif" font-size="10.00"> &#45;img</text>
</g>
<!-- Node4 -->
<g id="node4" class="node"><title>Node4</title>
<g id="a_node4"><a xlink:href="classSuchi_1_1Dot.html" target="_top" xlink:title="{Suchi.Dot\n|+ x\l+ y\l|+ Dot()\l+ setPos()\l+ translate()\l+ Dot()\l+ setPos()\l}">
<polygon fill="none" stroke="black" points="160,-226.5 160,-338.5 229,-338.5 229,-226.5 160,-226.5"/>
<text text-anchor="middle" x="194.5" y="-326.5" font-family="Helvetica,sans-Serif" font-size="10.00">Suchi.Dot</text>
<polyline fill="none" stroke="black" points="160,-319.5 229,-319.5 "/>
<text text-anchor="start" x="168" y="-307.5" font-family="Helvetica,sans-Serif" font-size="10.00">+ x</text>
<text text-anchor="start" x="168" y="-296.5" font-family="Helvetica,sans-Serif" font-size="10.00">+ y</text>
<polyline fill="none" stroke="black" points="160,-289.5 229,-289.5 "/>
<text text-anchor="start" x="168" y="-277.5" font-family="Helvetica,sans-Serif" font-size="10.00">+ Dot()</text>
<text text-anchor="start" x="168" y="-266.5" font-family="Helvetica,sans-Serif" font-size="10.00">+ setPos()</text>
<text text-anchor="start" x="168" y="-255.5" font-family="Helvetica,sans-Serif" font-size="10.00">+ translate()</text>
<text text-anchor="start" x="168" y="-244.5" font-family="Helvetica,sans-Serif" font-size="10.00">+ Dot()</text>
<text text-anchor="start" x="168" y="-233.5" font-family="Helvetica,sans-Serif" font-size="10.00">+ setPos()</text>
</a>
</g>
</g>
<!-- Node4&#45;&gt;Node1 -->
<g id="edge3" class="edge"><title>Node4&#45;&gt;Node1</title>
<path fill="none" stroke="#404040" d="M168.347,-226.241C161.363,-211.484 153.616,-195.115 145.943,-178.904"/>
<polygon fill="none" stroke="#404040" points="145.788,-178.575 139.605,-174.863 140.654,-167.729 146.836,-171.441 145.788,-178.575"/>
<text text-anchor="middle" x="191.5" y="-200" font-family="Helvetica,sans-Serif" font-size="10.00"> &#45;departDroit</text>
<text text-anchor="middle" x="191.5" y="-189" font-family="Helvetica,sans-Serif" font-size="10.00">&#45;departGauche</text>
</g>
</g>
</svg>
