<?xml version="1.0" encoding="UTF-8" standalone="no"?>
<!DOCTYPE svg PUBLIC "-//W3C//DTD SVG 1.1//EN"
 "http://www.w3.org/Graphics/SVG/1.1/DTD/svg11.dtd">
<!-- Generated by graphviz version 2.38.0 (20140413.2041)
 -->
<!-- Title: main.Zone Pages: 1 -->
<svg width="185pt" height="309pt"
 viewBox="0.00 0.00 185.00 309.00" xmlns="http://www.w3.org/2000/svg" xmlns:xlink="http://www.w3.org/1999/xlink">
<g id="graph0" class="graph" transform="scale(1 1) rotate(0) translate(4 305)">
<title>main.Zone</title>
<!-- Node1 -->
<g id="node1" class="node"><title>Node1</title>
<polygon fill="#bfbfbf" stroke="black" points="26,-0.5 26,-90.5 122,-90.5 122,-0.5 26,-0.5"/>
<text text-anchor="middle" x="74" y="-78.5" font-family="Helvetica,sans-Serif" font-size="10.00">main.Zone</text>
<polyline fill="none" stroke="black" points="26,-71.5 122,-71.5 "/>
<text text-anchor="middle" x="74" y="-59.5" font-family="Helvetica,sans-Serif" font-size="10.00"> </text>
<polyline fill="none" stroke="black" points="26,-52.5 122,-52.5 "/>
<text text-anchor="start" x="34" y="-40.5" font-family="Helvetica,sans-Serif" font-size="10.00">+ Zone()</text>
<text text-anchor="start" x="34" y="-29.5" font-family="Helvetica,sans-Serif" font-size="10.00">+ addZone()</text>
<text text-anchor="start" x="34" y="-18.5" font-family="Helvetica,sans-Serif" font-size="10.00">+ addZone()</text>
<text text-anchor="start" x="34" y="-7.5" font-family="Helvetica,sans-Serif" font-size="10.00">+ getZonesTable()</text>
</g>
<!-- Node2 -->
<g id="node2" class="node"><title>Node2</title>
<polygon fill="none" stroke="#bfbfbf" points="0,-138.5 0,-195.5 148,-195.5 148,-138.5 0,-138.5"/>
<text text-anchor="middle" x="74" y="-183.5" font-family="Helvetica,sans-Serif" font-size="10.00">HashMap&lt; String, main.Dot &gt;</text>
<polyline fill="none" stroke="#bfbfbf" points="0,-176.5 148,-176.5 "/>
<text text-anchor="middle" x="74" y="-164.5" font-family="Helvetica,sans-Serif" font-size="10.00"> </text>
<polyline fill="none" stroke="#bfbfbf" points="0,-157.5 148,-157.5 "/>
<text text-anchor="middle" x="74" y="-145.5" font-family="Helvetica,sans-Serif" font-size="10.00"> </text>
</g>
<!-- Node2&#45;&gt;Node1 -->
<g id="edge1" class="edge"><title>Node2&#45;&gt;Node1</title>
<path fill="none" stroke="#404040" d="M74,-138.284C74,-127.735 74,-115.294 74,-103.035"/>
<polygon fill="none" stroke="#404040" points="74.0001,-102.912 70,-96.9125 74,-90.9125 78,-96.9124 74.0001,-102.912"/>
<text text-anchor="middle" x="125.5" y="-112" font-family="Helvetica,sans-Serif" font-size="10.00"> &#45;ensemblePointsZones</text>
</g>
<!-- Node3 -->
<g id="node3" class="node"><title>Node3</title>
<polygon fill="none" stroke="#bfbfbf" points="44.5,-243.5 44.5,-300.5 103.5,-300.5 103.5,-243.5 44.5,-243.5"/>
<text text-anchor="middle" x="74" y="-288.5" font-family="Helvetica,sans-Serif" font-size="10.00">HashMap</text>
<polyline fill="none" stroke="#bfbfbf" points="44.5,-281.5 103.5,-281.5 "/>
<text text-anchor="middle" x="74" y="-269.5" font-family="Helvetica,sans-Serif" font-size="10.00"> </text>
<polyline fill="none" stroke="#bfbfbf" points="44.5,-262.5 103.5,-262.5 "/>
<text text-anchor="middle" x="74" y="-250.5" font-family="Helvetica,sans-Serif" font-size="10.00"> </text>
</g>
<!-- Node3&#45;&gt;Node2 -->
<g id="edge2" class="edge"><title>Node3&#45;&gt;Node2</title>
<path fill="none" stroke="orange" d="M74,-233.286C74,-220.839 74,-207.233 74,-195.678"/>
<polygon fill="orange" stroke="orange" points="70.5001,-233.398 74,-243.398 77.5001,-233.398 70.5001,-233.398"/>
<text text-anchor="middle" x="122" y="-217" font-family="Helvetica,sans-Serif" font-size="10.00"> &lt; String, main::Dot &gt;</text>
</g>
</g>
</svg>
