<?xml version="1.0" encoding="UTF-8" standalone="no"?>
<!DOCTYPE svg PUBLIC "-//W3C//DTD SVG 1.1//EN"
 "http://www.w3.org/Graphics/SVG/1.1/DTD/svg11.dtd">
<!-- Generated by graphviz version 2.38.0 (20140413.2041)
 -->
<!-- Title: main.ToolBox Pages: 1 -->
<svg width="910pt" height="882pt"
 viewBox="0.00 0.00 909.50 882.00" xmlns="http://www.w3.org/2000/svg" xmlns:xlink="http://www.w3.org/1999/xlink">
<g id="graph0" class="graph" transform="scale(1 1) rotate(0) translate(4 878)">
<title>main.ToolBox</title>
<!-- Node1 -->
<g id="node1" class="node"><title>Node1</title>
<polygon fill="#bfbfbf" stroke="black" points="234,-430.5 234,-597.5 337,-597.5 337,-430.5 234,-430.5"/>
<text text-anchor="middle" x="285.5" y="-585.5" font-family="Helvetica,sans-Serif" font-size="10.00">main.ToolBox</text>
<polyline fill="none" stroke="black" points="234,-578.5 337,-578.5 "/>
<text text-anchor="start" x="242" y="-566.5" font-family="Helvetica,sans-Serif" font-size="10.00">&#45; w</text>
<text text-anchor="start" x="242" y="-555.5" font-family="Helvetica,sans-Serif" font-size="10.00">&#45; h</text>
<text text-anchor="start" x="242" y="-544.5" font-family="Helvetica,sans-Serif" font-size="10.00">&#45; countScreen</text>
<text text-anchor="start" x="242" y="-533.5" font-family="Helvetica,sans-Serif" font-size="10.00">&#45; serialVersionUID</text>
<polyline fill="none" stroke="black" points="234,-526.5 337,-526.5 "/>
<text text-anchor="start" x="242" y="-514.5" font-family="Helvetica,sans-Serif" font-size="10.00">+ ToolBox()</text>
<text text-anchor="start" x="242" y="-503.5" font-family="Helvetica,sans-Serif" font-size="10.00">+ ToolBox()</text>
<text text-anchor="start" x="242" y="-492.5" font-family="Helvetica,sans-Serif" font-size="10.00">+ Capture()</text>
<text text-anchor="start" x="242" y="-481.5" font-family="Helvetica,sans-Serif" font-size="10.00">+ CaptureGame()</text>
<text text-anchor="start" x="242" y="-470.5" font-family="Helvetica,sans-Serif" font-size="10.00">+ Launch()</text>
<text text-anchor="start" x="242" y="-459.5" font-family="Helvetica,sans-Serif" font-size="10.00">+ Run()</text>
<text text-anchor="start" x="242" y="-448.5" font-family="Helvetica,sans-Serif" font-size="10.00">+ Serve()</text>
<text text-anchor="start" x="242" y="-437.5" font-family="Helvetica,sans-Serif" font-size="10.00">+ actionPerformed()</text>
</g>
<!-- Node10 -->
<g id="node10" class="node"><title>Node10</title>
<g id="a_node10"><a xlink:href="classmain_1_1IA.html" target="_top" xlink:title="{main.IA\n|+ xOr\l+ yOr\l&#45; width\l&#45; height\l&#45; serialVersionUID\l&#45; spriteCount\l|+ IA()\l+ click()\l+ initiateGame()\l+ getZone()\l+ saveSprites()\l+ loadSprites()\l+ getSushi()\l}">
<polygon fill="none" stroke="black" points="369,-204.5 369,-382.5 466,-382.5 466,-204.5 369,-204.5"/>
<text text-anchor="middle" x="417.5" y="-370.5" font-family="Helvetica,sans-Serif" font-size="10.00">main.IA</text>
<polyline fill="none" stroke="black" points="369,-363.5 466,-363.5 "/>
<text text-anchor="start" x="377" y="-351.5" font-family="Helvetica,sans-Serif" font-size="10.00">+ xOr</text>
<text text-anchor="start" x="377" y="-340.5" font-family="Helvetica,sans-Serif" font-size="10.00">+ yOr</text>
<text text-anchor="start" x="377" y="-329.5" font-family="Helvetica,sans-Serif" font-size="10.00">&#45; width</text>
<text text-anchor="start" x="377" y="-318.5" font-family="Helvetica,sans-Serif" font-size="10.00">&#45; height</text>
<text text-anchor="start" x="377" y="-307.5" font-family="Helvetica,sans-Serif" font-size="10.00">&#45; serialVersionUID</text>
<text text-anchor="start" x="377" y="-296.5" font-family="Helvetica,sans-Serif" font-size="10.00">&#45; spriteCount</text>
<polyline fill="none" stroke="black" points="369,-289.5 466,-289.5 "/>
<text text-anchor="start" x="377" y="-277.5" font-family="Helvetica,sans-Serif" font-size="10.00">+ IA()</text>
<text text-anchor="start" x="377" y="-266.5" font-family="Helvetica,sans-Serif" font-size="10.00">+ click()</text>
<text text-anchor="start" x="377" y="-255.5" font-family="Helvetica,sans-Serif" font-size="10.00">+ initiateGame()</text>
<text text-anchor="start" x="377" y="-244.5" font-family="Helvetica,sans-Serif" font-size="10.00">+ getZone()</text>
<text text-anchor="start" x="377" y="-233.5" font-family="Helvetica,sans-Serif" font-size="10.00">+ saveSprites()</text>
<text text-anchor="start" x="377" y="-222.5" font-family="Helvetica,sans-Serif" font-size="10.00">+ loadSprites()</text>
<text text-anchor="start" x="377" y="-211.5" font-family="Helvetica,sans-Serif" font-size="10.00">+ getSushi()</text>
</a>
</g>
</g>
<!-- Node1&#45;&gt;Node10 -->
<g id="edge10" class="edge"><title>Node1&#45;&gt;Node10</title>
<path fill="none" stroke="midnightblue" d="M340.578,-421.829C349.957,-406.304 359.639,-390.277 368.837,-375.052"/>
<polygon fill="none" stroke="midnightblue" points="337.579,-420.025 335.404,-430.395 343.57,-423.645 337.579,-420.025"/>
</g>
<!-- Node2 -->
<g id="node2" class="node"><title>Node2</title>
<polygon fill="none" stroke="#bfbfbf" points="79.5,-711.5 79.5,-768.5 129.5,-768.5 129.5,-711.5 79.5,-711.5"/>
<text text-anchor="middle" x="104.5" y="-756.5" font-family="Helvetica,sans-Serif" font-size="10.00">JFrame</text>
<polyline fill="none" stroke="#bfbfbf" points="79.5,-749.5 129.5,-749.5 "/>
<text text-anchor="middle" x="104.5" y="-737.5" font-family="Helvetica,sans-Serif" font-size="10.00"> </text>
<polyline fill="none" stroke="#bfbfbf" points="79.5,-730.5 129.5,-730.5 "/>
<text text-anchor="middle" x="104.5" y="-718.5" font-family="Helvetica,sans-Serif" font-size="10.00"> </text>
</g>
<!-- Node2&#45;&gt;Node1 -->
<g id="edge1" class="edge"><title>Node2&#45;&gt;Node1</title>
<path fill="none" stroke="midnightblue" d="M131.992,-703.158C151.693,-678.076 179.273,-644.155 205.5,-616 213.429,-607.488 216.803,-606.721 224.5,-598 227.577,-594.514 230.658,-590.88 233.71,-587.164"/>
<polygon fill="none" stroke="midnightblue" points="129.026,-701.269 125.627,-711.304 134.542,-705.579 129.026,-701.269"/>
</g>
<!-- Node3 -->
<g id="node3" class="node"><title>Node3</title>
<polygon fill="none" stroke="#bfbfbf" points="148,-711.5 148,-768.5 227,-768.5 227,-711.5 148,-711.5"/>
<text text-anchor="middle" x="187.5" y="-756.5" font-family="Helvetica,sans-Serif" font-size="10.00">ActionListener</text>
<polyline fill="none" stroke="#bfbfbf" points="148,-749.5 227,-749.5 "/>
<text text-anchor="middle" x="187.5" y="-737.5" font-family="Helvetica,sans-Serif" font-size="10.00"> </text>
<polyline fill="none" stroke="#bfbfbf" points="148,-730.5 227,-730.5 "/>
<text text-anchor="middle" x="187.5" y="-718.5" font-family="Helvetica,sans-Serif" font-size="10.00"> </text>
</g>
<!-- Node3&#45;&gt;Node1 -->
<g id="edge2" class="edge"><title>Node3&#45;&gt;Node1</title>
<path fill="none" stroke="midnightblue" d="M203.861,-701.604C216.216,-673.364 233.648,-633.518 249.234,-597.893"/>
<polygon fill="none" stroke="midnightblue" points="200.515,-700.519 199.714,-711.083 206.928,-703.324 200.515,-700.519"/>
</g>
<!-- Node4 -->
<g id="node4" class="node"><title>Node4</title>
<polygon fill="none" stroke="#bfbfbf" points="245.5,-711.5 245.5,-768.5 295.5,-768.5 295.5,-711.5 245.5,-711.5"/>
<text text-anchor="middle" x="270.5" y="-756.5" font-family="Helvetica,sans-Serif" font-size="10.00">JButton</text>
<polyline fill="none" stroke="#bfbfbf" points="245.5,-749.5 295.5,-749.5 "/>
<text text-anchor="middle" x="270.5" y="-737.5" font-family="Helvetica,sans-Serif" font-size="10.00"> </text>
<polyline fill="none" stroke="#bfbfbf" points="245.5,-730.5 295.5,-730.5 "/>
<text text-anchor="middle" x="270.5" y="-718.5" font-family="Helvetica,sans-Serif" font-size="10.00"> </text>
</g>
<!-- Node4&#45;&gt;Node1 -->
<g id="edge3" class="edge"><title>Node4&#45;&gt;Node1</title>
<path fill="none" stroke="#404040" d="M269.8,-711.271C269.675,-705.248 269.564,-698.911 269.5,-693 269.128,-658.78 266.814,-650.117 269.5,-616 269.663,-613.931 269.844,-611.841 270.042,-609.736"/>
<polygon fill="none" stroke="#404040" points="270.069,-609.485 266.727,-603.095 271.34,-597.553 274.682,-603.943 270.069,-609.485"/>
<text text-anchor="middle" x="297" y="-685" font-family="Helvetica,sans-Serif" font-size="10.00"> &#45;launch</text>
<text text-anchor="middle" x="297" y="-674" font-family="Helvetica,sans-Serif" font-size="10.00">&#45;detect</text>
<text text-anchor="middle" x="297" y="-663" font-family="Helvetica,sans-Serif" font-size="10.00">&#45;saveSprites</text>
<text text-anchor="middle" x="297" y="-652" font-family="Helvetica,sans-Serif" font-size="10.00">&#45;snap</text>
<text text-anchor="middle" x="297" y="-641" font-family="Helvetica,sans-Serif" font-size="10.00">&#45;makeSushi</text>
<text text-anchor="middle" x="297" y="-630" font-family="Helvetica,sans-Serif" font-size="10.00">&#45;startBot</text>
<text text-anchor="middle" x="297" y="-619" font-family="Helvetica,sans-Serif" font-size="10.00">&#45;Auto</text>
</g>
<!-- Node5 -->
<g id="node5" class="node"><title>Node5</title>
<polygon fill="none" stroke="#bfbfbf" points="313.5,-711.5 313.5,-768.5 375.5,-768.5 375.5,-711.5 313.5,-711.5"/>
<text text-anchor="middle" x="344.5" y="-756.5" font-family="Helvetica,sans-Serif" font-size="10.00">JTextField</text>
<polyline fill="none" stroke="#bfbfbf" points="313.5,-749.5 375.5,-749.5 "/>
<text text-anchor="middle" x="344.5" y="-737.5" font-family="Helvetica,sans-Serif" font-size="10.00"> </text>
<polyline fill="none" stroke="#bfbfbf" points="313.5,-730.5 375.5,-730.5 "/>
<text text-anchor="middle" x="344.5" y="-718.5" font-family="Helvetica,sans-Serif" font-size="10.00"> </text>
</g>
<!-- Node5&#45;&gt;Node1 -->
<g id="edge4" class="edge"><title>Node5&#45;&gt;Node1</title>
<path fill="none" stroke="#404040" d="M341.658,-711.295C338.687,-686.135 333.221,-648.156 324.5,-616 323.916,-613.849 323.303,-611.68 322.665,-609.5"/>
<polygon fill="none" stroke="#404040" points="322.581,-609.231 316.984,-604.685 319.027,-597.77 324.625,-602.316 322.581,-609.231"/>
<text text-anchor="middle" x="348.5" y="-652" font-family="Helvetica,sans-Serif" font-size="10.00"> &#45;txt</text>
</g>
<!-- Node6 -->
<g id="node6" class="node"><title>Node6</title>
<polygon fill="none" stroke="#bfbfbf" points="0,-711.5 0,-768.5 61,-768.5 61,-711.5 0,-711.5"/>
<text text-anchor="middle" x="30.5" y="-756.5" font-family="Helvetica,sans-Serif" font-size="10.00">Rectangle</text>
<polyline fill="none" stroke="#bfbfbf" points="0,-749.5 61,-749.5 "/>
<text text-anchor="middle" x="30.5" y="-737.5" font-family="Helvetica,sans-Serif" font-size="10.00"> </text>
<polyline fill="none" stroke="#bfbfbf" points="0,-730.5 61,-730.5 "/>
<text text-anchor="middle" x="30.5" y="-718.5" font-family="Helvetica,sans-Serif" font-size="10.00"> </text>
</g>
<!-- Node6&#45;&gt;Node1 -->
<g id="edge5" class="edge"><title>Node6&#45;&gt;Node1</title>
<path fill="none" stroke="#404040" d="M42.4096,-711.346C56.3034,-682.625 82.1047,-638.767 118.5,-616 156.005,-592.539 180.057,-618.588 223.028,-597.471"/>
<polygon fill="none" stroke="#404040" points="223.29,-597.323 226.554,-590.893 233.745,-591.433 230.481,-597.863 223.29,-597.323"/>
<text text-anchor="middle" x="128.5" y="-652" font-family="Helvetica,sans-Serif" font-size="10.00"> +ga</text>
</g>
<!-- Node7 -->
<g id="node7" class="node"><title>Node7</title>
<g id="a_node7"><a xlink:href="classmain_1_1Manager.html" target="_top" xlink:title="{main.Manager\n|&#45; cash\l&#45; cashPile\l&#45; bar\l|+ Manager()\l+ CheckBar()\l&#45; makeSushi()\l}">
<polygon fill="none" stroke="black" points="295.5,-0.5 295.5,-101.5 373.5,-101.5 373.5,-0.5 295.5,-0.5"/>
<text text-anchor="middle" x="334.5" y="-89.5" font-family="Helvetica,sans-Serif" font-size="10.00">main.Manager</text>
<polyline fill="none" stroke="black" points="295.5,-82.5 373.5,-82.5 "/>
<text text-anchor="start" x="303.5" y="-70.5" font-family="Helvetica,sans-Serif" font-size="10.00">&#45; cash</text>
<text text-anchor="start" x="303.5" y="-59.5" font-family="Helvetica,sans-Serif" font-size="10.00">&#45; cashPile</text>
<text text-anchor="start" x="303.5" y="-48.5" font-family="Helvetica,sans-Serif" font-size="10.00">&#45; bar</text>
<polyline fill="none" stroke="black" points="295.5,-41.5 373.5,-41.5 "/>
<text text-anchor="start" x="303.5" y="-29.5" font-family="Helvetica,sans-Serif" font-size="10.00">+ Manager()</text>
<text text-anchor="start" x="303.5" y="-18.5" font-family="Helvetica,sans-Serif" font-size="10.00">+ CheckBar()</text>
<text text-anchor="start" x="303.5" y="-7.5" font-family="Helvetica,sans-Serif" font-size="10.00">&#45; makeSushi()</text>
</a>
</g>
</g>
<!-- Node7&#45;&gt;Node1 -->
<g id="edge6" class="edge"><title>Node7&#45;&gt;Node1</title>
<path fill="none" stroke="#404040" d="M327.951,-101.59C324.118,-131.276 319.3,-169.771 315.5,-204 307.527,-275.816 299.677,-357.155 294.008,-418.349"/>
<polygon fill="none" stroke="#404040" points="294.007,-418.361 297.439,-424.703 292.904,-430.31 289.473,-423.968 294.007,-418.361"/>
<text text-anchor="middle" x="337.5" y="-291" font-family="Helvetica,sans-Serif" font-size="10.00"> &#45;manager</text>
</g>
<!-- Node8 -->
<g id="node8" class="node"><title>Node8</title>
<g id="a_node8"><a xlink:href="classmain_1_1Service.html" target="_top" xlink:title="{main.Service\n||+ Service()\l+ run()\l}">
<polygon fill="none" stroke="black" points="166.5,-259.5 166.5,-327.5 240.5,-327.5 240.5,-259.5 166.5,-259.5"/>
<text text-anchor="middle" x="203.5" y="-315.5" font-family="Helvetica,sans-Serif" font-size="10.00">main.Service</text>
<polyline fill="none" stroke="black" points="166.5,-308.5 240.5,-308.5 "/>
<text text-anchor="middle" x="203.5" y="-296.5" font-family="Helvetica,sans-Serif" font-size="10.00"> </text>
<polyline fill="none" stroke="black" points="166.5,-289.5 240.5,-289.5 "/>
<text text-anchor="start" x="174.5" y="-277.5" font-family="Helvetica,sans-Serif" font-size="10.00">+ Service()</text>
<text text-anchor="start" x="174.5" y="-266.5" font-family="Helvetica,sans-Serif" font-size="10.00">+ run()</text>
</a>
</g>
</g>
<!-- Node8&#45;&gt;Node7 -->
<g id="edge7" class="edge"><title>Node8&#45;&gt;Node7</title>
<path fill="none" stroke="#404040" d="M209.853,-259.254C217.9,-222.883 234.241,-163.918 262.5,-120 269.129,-109.698 277.645,-99.863 286.485,-91.0332"/>
<polygon fill="none" stroke="#404040" points="286.689,-90.8387 288.271,-83.8034 295.374,-82.5584 293.791,-89.5937 286.689,-90.8387"/>
<text text-anchor="middle" x="272.5" y="-178" font-family="Helvetica,sans-Serif" font-size="10.00"> ~s2</text>
<text text-anchor="middle" x="272.5" y="-167" font-family="Helvetica,sans-Serif" font-size="10.00">~s3</text>
<text text-anchor="middle" x="272.5" y="-156" font-family="Helvetica,sans-Serif" font-size="10.00">~s4</text>
<text text-anchor="middle" x="272.5" y="-145" font-family="Helvetica,sans-Serif" font-size="10.00">~s5</text>
<text text-anchor="middle" x="272.5" y="-134" font-family="Helvetica,sans-Serif" font-size="10.00">&#45;s1</text>
<text text-anchor="middle" x="272.5" y="-123" font-family="Helvetica,sans-Serif" font-size="10.00">~s6</text>
</g>
<!-- Node9 -->
<g id="node9" class="node"><title>Node9</title>
<polygon fill="none" stroke="#bfbfbf" points="169,-485.5 169,-542.5 216,-542.5 216,-485.5 169,-485.5"/>
<text text-anchor="middle" x="192.5" y="-530.5" font-family="Helvetica,sans-Serif" font-size="10.00">Thread</text>
<polyline fill="none" stroke="#bfbfbf" points="169,-523.5 216,-523.5 "/>
<text text-anchor="middle" x="192.5" y="-511.5" font-family="Helvetica,sans-Serif" font-size="10.00"> </text>
<polyline fill="none" stroke="#bfbfbf" points="169,-504.5 216,-504.5 "/>
<text text-anchor="middle" x="192.5" y="-492.5" font-family="Helvetica,sans-Serif" font-size="10.00"> </text>
</g>
<!-- Node9&#45;&gt;Node8 -->
<g id="edge8" class="edge"><title>Node9&#45;&gt;Node8</title>
<path fill="none" stroke="midnightblue" d="M194.397,-475.311C196.492,-433.699 199.832,-367.355 201.831,-327.652"/>
<polygon fill="none" stroke="midnightblue" points="190.9,-475.163 193.893,-485.327 197.892,-475.515 190.9,-475.163"/>
</g>
<!-- Node10&#45;&gt;Node7 -->
<g id="edge9" class="edge"><title>Node10&#45;&gt;Node7</title>
<path fill="none" stroke="#404040" d="M387.065,-204.312C376.621,-174.048 365.167,-140.861 355.625,-113.213"/>
<polygon fill="none" stroke="#404040" points="355.576,-113.07 349.838,-108.704 351.661,-101.727 357.4,-106.094 355.576,-113.07"/>
<text text-anchor="middle" x="385.5" y="-150.5" font-family="Helvetica,sans-Serif" font-size="10.00"> &#45;ia</text>
</g>
<!-- Node11 -->
<g id="node11" class="node"><title>Node11</title>
<polygon fill="none" stroke="#bfbfbf" points="498.5,-620.5 498.5,-688.5 632.5,-688.5 632.5,-620.5 498.5,-620.5"/>
<text text-anchor="start" x="506.5" y="-676.5" font-family="Helvetica,sans-Serif" font-size="10.00">HashMap&lt; BufferedImage,</text>
<text text-anchor="middle" x="565.5" y="-665.5" font-family="Helvetica,sans-Serif" font-size="10.00"> String &gt;</text>
<polyline fill="none" stroke="#bfbfbf" points="498.5,-658.5 632.5,-658.5 "/>
<text text-anchor="middle" x="565.5" y="-646.5" font-family="Helvetica,sans-Serif" font-size="10.00"> </text>
<polyline fill="none" stroke="#bfbfbf" points="498.5,-639.5 632.5,-639.5 "/>
<text text-anchor="middle" x="565.5" y="-627.5" font-family="Helvetica,sans-Serif" font-size="10.00"> </text>
</g>
<!-- Node11&#45;&gt;Node10 -->
<g id="edge11" class="edge"><title>Node11&#45;&gt;Node10</title>
<path fill="none" stroke="#404040" d="M533.506,-620.206C527.941,-613.243 522.625,-605.674 518.5,-598 481.674,-529.493 494.343,-503.703 469.5,-430 465.566,-418.329 461.239,-406.175 456.811,-394.148"/>
<polygon fill="none" stroke="#404040" points="456.728,-393.924 450.888,-389.694 452.546,-382.676 458.386,-386.906 456.728,-393.924"/>
<text text-anchor="middle" x="556" y="-511.5" font-family="Helvetica,sans-Serif" font-size="10.00"> &#45;sushiReference</text>
</g>
<!-- Node12 -->
<g id="node12" class="node"><title>Node12</title>
<polygon fill="none" stroke="#bfbfbf" points="614,-816.5 614,-873.5 673,-873.5 673,-816.5 614,-816.5"/>
<text text-anchor="middle" x="643.5" y="-861.5" font-family="Helvetica,sans-Serif" font-size="10.00">HashMap</text>
<polyline fill="none" stroke="#bfbfbf" points="614,-854.5 673,-854.5 "/>
<text text-anchor="middle" x="643.5" y="-842.5" font-family="Helvetica,sans-Serif" font-size="10.00"> </text>
<polyline fill="none" stroke="#bfbfbf" points="614,-835.5 673,-835.5 "/>
<text text-anchor="middle" x="643.5" y="-823.5" font-family="Helvetica,sans-Serif" font-size="10.00"> </text>
</g>
<!-- Node12&#45;&gt;Node11 -->
<g id="edge12" class="edge"><title>Node12&#45;&gt;Node11</title>
<path fill="none" stroke="orange" d="M604.756,-828.72C591.558,-821.472 578.205,-811.4 570.5,-798 551.313,-764.629 553.591,-719.221 558.336,-688.713"/>
<polygon fill="orange" stroke="orange" points="603.293,-831.903 613.796,-833.294 606.453,-825.657 603.293,-831.903"/>
<text text-anchor="middle" x="629" y="-790" font-family="Helvetica,sans-Serif" font-size="10.00"> &lt; BufferedImage, String &gt;</text>
</g>
<!-- Node14 -->
<g id="node14" class="node"><title>Node14</title>
<polygon fill="none" stroke="#bfbfbf" points="620.5,-711.5 620.5,-768.5 768.5,-768.5 768.5,-711.5 620.5,-711.5"/>
<text text-anchor="middle" x="694.5" y="-756.5" font-family="Helvetica,sans-Serif" font-size="10.00">HashMap&lt; String, main.Dot &gt;</text>
<polyline fill="none" stroke="#bfbfbf" points="620.5,-749.5 768.5,-749.5 "/>
<text text-anchor="middle" x="694.5" y="-737.5" font-family="Helvetica,sans-Serif" font-size="10.00"> </text>
<polyline fill="none" stroke="#bfbfbf" points="620.5,-730.5 768.5,-730.5 "/>
<text text-anchor="middle" x="694.5" y="-718.5" font-family="Helvetica,sans-Serif" font-size="10.00"> </text>
</g>
<!-- Node12&#45;&gt;Node14 -->
<g id="edge15" class="edge"><title>Node12&#45;&gt;Node14</title>
<path fill="none" stroke="orange" d="M680.583,-814.518C684.937,-809.469 688.787,-803.922 691.5,-798 695.628,-788.991 696.988,-778.323 697.114,-768.666"/>
<polygon fill="orange" stroke="orange" points="677.791,-812.374 673.419,-822.024 682.855,-817.207 677.791,-812.374"/>
<text text-anchor="middle" x="743.5" y="-790" font-family="Helvetica,sans-Serif" font-size="10.00"> &lt; String, main::Dot &gt;</text>
</g>
<!-- Node16 -->
<g id="node16" class="node"><title>Node16</title>
<polygon fill="none" stroke="#bfbfbf" points="393.5,-711.5 393.5,-768.5 545.5,-768.5 545.5,-711.5 393.5,-711.5"/>
<text text-anchor="middle" x="469.5" y="-756.5" font-family="Helvetica,sans-Serif" font-size="10.00">HashMap&lt; String, Rectangle &gt;</text>
<polyline fill="none" stroke="#bfbfbf" points="393.5,-749.5 545.5,-749.5 "/>
<text text-anchor="middle" x="469.5" y="-737.5" font-family="Helvetica,sans-Serif" font-size="10.00"> </text>
<polyline fill="none" stroke="#bfbfbf" points="393.5,-730.5 545.5,-730.5 "/>
<text text-anchor="middle" x="469.5" y="-718.5" font-family="Helvetica,sans-Serif" font-size="10.00"> </text>
</g>
<!-- Node12&#45;&gt;Node16 -->
<g id="edge18" class="edge"><title>Node12&#45;&gt;Node16</title>
<path fill="none" stroke="orange" d="M603.836,-840.034C553.984,-834.137 472.714,-821.178 454.5,-798 447.925,-789.632 449.167,-778.656 452.961,-768.572"/>
<polygon fill="orange" stroke="orange" points="603.631,-843.534 613.962,-841.187 604.422,-836.579 603.631,-843.534"/>
<text text-anchor="middle" x="503" y="-790" font-family="Helvetica,sans-Serif" font-size="10.00"> &lt; String, Rectangle &gt;</text>
</g>
<!-- Node17 -->
<g id="node17" class="node"><title>Node17</title>
<polygon fill="none" stroke="#bfbfbf" points="763.5,-626 763.5,-683 901.5,-683 901.5,-626 763.5,-626"/>
<text text-anchor="middle" x="832.5" y="-671" font-family="Helvetica,sans-Serif" font-size="10.00">HashMap&lt; String, Integer &gt;</text>
<polyline fill="none" stroke="#bfbfbf" points="763.5,-664 901.5,-664 "/>
<text text-anchor="middle" x="832.5" y="-652" font-family="Helvetica,sans-Serif" font-size="10.00"> </text>
<polyline fill="none" stroke="#bfbfbf" points="763.5,-645 901.5,-645 "/>
<text text-anchor="middle" x="832.5" y="-633" font-family="Helvetica,sans-Serif" font-size="10.00"> </text>
</g>
<!-- Node12&#45;&gt;Node17 -->
<g id="edge20" class="edge"><title>Node12&#45;&gt;Node17</title>
<path fill="none" stroke="orange" d="M683.218,-842.435C717.588,-838.928 766.242,-828.447 795.5,-798 825.342,-766.946 831.929,-715.036 832.946,-683.179"/>
<polygon fill="orange" stroke="orange" points="682.709,-838.966 673.047,-843.314 683.311,-845.94 682.709,-838.966"/>
<text text-anchor="middle" x="845" y="-790" font-family="Helvetica,sans-Serif" font-size="10.00"> &lt; String, Integer &gt;</text>
</g>
<!-- Node13 -->
<g id="node13" class="node"><title>Node13</title>
<g id="a_node13"><a xlink:href="classmain_1_1Zone.html" target="_top" xlink:title="{main.Zone\n||+ Zone()\l+ addZone()\l+ addZone()\l+ getZonesTable()\l}">
<polygon fill="none" stroke="black" points="602.5,-469 602.5,-559 698.5,-559 698.5,-469 602.5,-469"/>
<text text-anchor="middle" x="650.5" y="-547" font-family="Helvetica,sans-Serif" font-size="10.00">main.Zone</text>
<polyline fill="none" stroke="black" points="602.5,-540 698.5,-540 "/>
<text text-anchor="middle" x="650.5" y="-528" font-family="Helvetica,sans-Serif" font-size="10.00"> </text>
<polyline fill="none" stroke="black" points="602.5,-521 698.5,-521 "/>
<text text-anchor="start" x="610.5" y="-509" font-family="Helvetica,sans-Serif" font-size="10.00">+ Zone()</text>
<text text-anchor="start" x="610.5" y="-498" font-family="Helvetica,sans-Serif" font-size="10.00">+ addZone()</text>
<text text-anchor="start" x="610.5" y="-487" font-family="Helvetica,sans-Serif" font-size="10.00">+ addZone()</text>
<text text-anchor="start" x="610.5" y="-476" font-family="Helvetica,sans-Serif" font-size="10.00">+ getZonesTable()</text>
</a>
</g>
</g>
<!-- Node13&#45;&gt;Node10 -->
<g id="edge13" class="edge"><title>Node13&#45;&gt;Node10</title>
<path fill="none" stroke="#404040" d="M618.281,-468.843C608.035,-455.833 596.288,-441.904 584.5,-430 550.906,-396.074 509.204,-362.231 475.877,-336.854"/>
<polygon fill="none" stroke="#404040" points="475.842,-336.828 468.644,-336.403 466.268,-329.595 473.466,-330.02 475.842,-336.828"/>
<text text-anchor="middle" x="580" y="-404" font-family="Helvetica,sans-Serif" font-size="10.00"> &#45;zones</text>
</g>
<!-- Node14&#45;&gt;Node13 -->
<g id="edge14" class="edge"><title>Node14&#45;&gt;Node13</title>
<path fill="none" stroke="#404040" d="M662.795,-711.417C658.192,-705.818 654.127,-699.602 651.5,-693 636.171,-654.472 636.636,-607.431 640.55,-571.386"/>
<polygon fill="none" stroke="#404040" points="640.593,-571.037 637.356,-564.594 642.058,-559.127 645.296,-565.571 640.593,-571.037"/>
<text text-anchor="middle" x="703" y="-652" font-family="Helvetica,sans-Serif" font-size="10.00"> &#45;ensemblePointsZones</text>
</g>
<!-- Node15 -->
<g id="node15" class="node"><title>Node15</title>
<g id="a_node15"><a xlink:href="classmain_1_1ReadZone.html" target="_top" xlink:title="{main.ReadZone\n||+ ReadZone()\l+ addZone()\l+ getZones()\l}">
<polygon fill="none" stroke="black" points="374.5,-474.5 374.5,-553.5 460.5,-553.5 460.5,-474.5 374.5,-474.5"/>
<text text-anchor="middle" x="417.5" y="-541.5" font-family="Helvetica,sans-Serif" font-size="10.00">main.ReadZone</text>
<polyline fill="none" stroke="black" points="374.5,-534.5 460.5,-534.5 "/>
<text text-anchor="middle" x="417.5" y="-522.5" font-family="Helvetica,sans-Serif" font-size="10.00"> </text>
<polyline fill="none" stroke="black" points="374.5,-515.5 460.5,-515.5 "/>
<text text-anchor="start" x="382.5" y="-503.5" font-family="Helvetica,sans-Serif" font-size="10.00">+ ReadZone()</text>
<text text-anchor="start" x="382.5" y="-492.5" font-family="Helvetica,sans-Serif" font-size="10.00">+ addZone()</text>
<text text-anchor="start" x="382.5" y="-481.5" font-family="Helvetica,sans-Serif" font-size="10.00">+ getZones()</text>
</a>
</g>
</g>
<!-- Node15&#45;&gt;Node10 -->
<g id="edge16" class="edge"><title>Node15&#45;&gt;Node10</title>
<path fill="none" stroke="#404040" d="M417.5,-474.44C417.5,-452.142 417.5,-422.96 417.5,-394.605"/>
<polygon fill="none" stroke="#404040" points="417.5,-394.526 413.5,-388.526 417.5,-382.526 421.5,-388.526 417.5,-394.526"/>
<text text-anchor="middle" x="433.5" y="-404" font-family="Helvetica,sans-Serif" font-size="10.00"> &#45;bulles</text>
</g>
<!-- Node16&#45;&gt;Node15 -->
<g id="edge17" class="edge"><title>Node16&#45;&gt;Node15</title>
<path fill="none" stroke="#404040" d="M426.96,-711.398C421.516,-705.978 416.726,-699.825 413.5,-693 394.689,-653.205 398.043,-602.605 404.724,-565.534"/>
<polygon fill="none" stroke="#404040" points="404.772,-565.29 402.006,-558.631 407.09,-553.516 409.856,-560.176 404.772,-565.29"/>
<text text-anchor="middle" x="451.5" y="-652" font-family="Helvetica,sans-Serif" font-size="10.00"> &#45;ensembleZones</text>
</g>
<!-- Node17&#45;&gt;Node7 -->
<g id="edge19" class="edge"><title>Node17&#45;&gt;Node7</title>
<path fill="none" stroke="#404040" d="M820.059,-625.927C799.715,-582.249 756.637,-495.402 707.5,-430 605.931,-294.811 458.446,-159.313 382.969,-93.3364"/>
<polygon fill="none" stroke="#404040" points="382.74,-93.1371 375.588,-92.2146 373.688,-85.258 380.84,-86.1805 382.74,-93.1371"/>
<text text-anchor="middle" x="719.5" y="-404" font-family="Helvetica,sans-Serif" font-size="10.00"> &#45;ingredients</text>
</g>
</g>
</svg>
