<?xml version="1.0" encoding="UTF-8" standalone="no"?>
<!DOCTYPE svg PUBLIC "-//W3C//DTD SVG 1.1//EN"
 "http://www.w3.org/Graphics/SVG/1.1/DTD/svg11.dtd">
<!-- Generated by graphviz version 2.38.0 (20140413.2041)
 -->
<!-- Title: Stop Pages: 1 -->
<svg width="218pt" height="204pt"
 viewBox="0.00 0.00 217.50 204.00" xmlns="http://www.w3.org/2000/svg" xmlns:xlink="http://www.w3.org/1999/xlink">
<g id="graph0" class="graph" transform="scale(1 1) rotate(0) translate(4 200)">
<title>Stop</title>
<!-- Node1 -->
<g id="node1" class="node"><title>Node1</title>
<polygon fill="#bfbfbf" stroke="black" points="55,-0.5 55,-101.5 144,-101.5 144,-0.5 55,-0.5"/>
<text text-anchor="middle" x="99.5" y="-89.5" font-family="Helvetica,sans-Serif" font-size="10.00">Stop</text>
<polyline fill="none" stroke="black" points="55,-82.5 144,-82.5 "/>
<text text-anchor="middle" x="99.5" y="-70.5" font-family="Helvetica,sans-Serif" font-size="10.00"> </text>
<polyline fill="none" stroke="black" points="55,-63.5 144,-63.5 "/>
<text text-anchor="start" x="63" y="-51.5" font-family="Helvetica,sans-Serif" font-size="10.00">+ Stop()</text>
<text text-anchor="start" x="63" y="-40.5" font-family="Helvetica,sans-Serif" font-size="10.00">+ run()</text>
<text text-anchor="start" x="63" y="-29.5" font-family="Helvetica,sans-Serif" font-size="10.00">+ keyPressed()</text>
<text text-anchor="start" x="63" y="-18.5" font-family="Helvetica,sans-Serif" font-size="10.00">+ keyReleased()</text>
<text text-anchor="start" x="63" y="-7.5" font-family="Helvetica,sans-Serif" font-size="10.00">+ keyTyped()</text>
</g>
<!-- Node2 -->
<g id="node2" class="node"><title>Node2</title>
<polygon fill="none" stroke="#bfbfbf" points="0,-138.5 0,-195.5 47,-195.5 47,-138.5 0,-138.5"/>
<text text-anchor="middle" x="23.5" y="-183.5" font-family="Helvetica,sans-Serif" font-size="10.00">JPanel</text>
<polyline fill="none" stroke="#bfbfbf" points="0,-176.5 47,-176.5 "/>
<text text-anchor="middle" x="23.5" y="-164.5" font-family="Helvetica,sans-Serif" font-size="10.00"> </text>
<polyline fill="none" stroke="#bfbfbf" points="0,-157.5 47,-157.5 "/>
<text text-anchor="middle" x="23.5" y="-145.5" font-family="Helvetica,sans-Serif" font-size="10.00"> </text>
</g>
<!-- Node2&#45;&gt;Node1 -->
<g id="edge1" class="edge"><title>Node2&#45;&gt;Node1</title>
<path fill="none" stroke="midnightblue" d="M47.4748,-130.038C53.4915,-121.013 60.0537,-111.169 66.4278,-101.608"/>
<polygon fill="none" stroke="midnightblue" points="44.5323,-128.142 41.8975,-138.404 50.3567,-132.025 44.5323,-128.142"/>
</g>
<!-- Node3 -->
<g id="node3" class="node"><title>Node3</title>
<polygon fill="none" stroke="#bfbfbf" points="65.5,-138.5 65.5,-195.5 133.5,-195.5 133.5,-138.5 65.5,-138.5"/>
<text text-anchor="middle" x="99.5" y="-183.5" font-family="Helvetica,sans-Serif" font-size="10.00">KeyListener</text>
<polyline fill="none" stroke="#bfbfbf" points="65.5,-176.5 133.5,-176.5 "/>
<text text-anchor="middle" x="99.5" y="-164.5" font-family="Helvetica,sans-Serif" font-size="10.00"> </text>
<polyline fill="none" stroke="#bfbfbf" points="65.5,-157.5 133.5,-157.5 "/>
<text text-anchor="middle" x="99.5" y="-145.5" font-family="Helvetica,sans-Serif" font-size="10.00"> </text>
</g>
<!-- Node3&#45;&gt;Node1 -->
<g id="edge2" class="edge"><title>Node3&#45;&gt;Node1</title>
<path fill="none" stroke="midnightblue" d="M99.5,-128.354C99.5,-119.796 99.5,-110.578 99.5,-101.608"/>
<polygon fill="none" stroke="midnightblue" points="96.0001,-128.404 99.5,-138.404 103,-128.404 96.0001,-128.404"/>
</g>
<!-- Node4 -->
<g id="node4" class="node"><title>Node4</title>
<polygon fill="none" stroke="#bfbfbf" points="151.5,-138.5 151.5,-195.5 209.5,-195.5 209.5,-138.5 151.5,-138.5"/>
<text text-anchor="middle" x="180.5" y="-183.5" font-family="Helvetica,sans-Serif" font-size="10.00">Runnable</text>
<polyline fill="none" stroke="#bfbfbf" points="151.5,-176.5 209.5,-176.5 "/>
<text text-anchor="middle" x="180.5" y="-164.5" font-family="Helvetica,sans-Serif" font-size="10.00"> </text>
<polyline fill="none" stroke="#bfbfbf" points="151.5,-157.5 209.5,-157.5 "/>
<text text-anchor="middle" x="180.5" y="-145.5" font-family="Helvetica,sans-Serif" font-size="10.00"> </text>
</g>
<!-- Node4&#45;&gt;Node1 -->
<g id="edge3" class="edge"><title>Node4&#45;&gt;Node1</title>
<path fill="none" stroke="midnightblue" d="M154.948,-130.038C148.535,-121.013 141.541,-111.169 134.748,-101.608"/>
<polygon fill="none" stroke="midnightblue" points="152.247,-132.279 160.892,-138.404 157.953,-128.225 152.247,-132.279"/>
</g>
</g>
</svg>
