<?xml version="1.0" encoding="UTF-8" standalone="no"?>
<!DOCTYPE svg PUBLIC "-//W3C//DTD SVG 1.1//EN"
 "http://www.w3.org/Graphics/SVG/1.1/DTD/svg11.dtd">
<!-- Generated by graphviz version 2.38.0 (20140413.2041)
 -->
<!-- Title: Suchi.Client Pages: 1 -->
<svg width="831pt" height="821pt"
 viewBox="0.00 0.00 830.50 821.00" xmlns="http://www.w3.org/2000/svg" xmlns:xlink="http://www.w3.org/1999/xlink">
<g id="graph0" class="graph" transform="scale(1 1) rotate(0) translate(4 817)">
<title>Suchi.Client</title>
<!-- Node1 -->
<g id="node1" class="node"><title>Node1</title>
<polygon fill="#bfbfbf" stroke="black" points="640.5,-0.5 640.5,-277.5 749.5,-277.5 749.5,-0.5 640.5,-0.5"/>
<text text-anchor="middle" x="695" y="-265.5" font-family="Helvetica,sans-Serif" font-size="10.00">Suchi.Client</text>
<polyline fill="none" stroke="black" points="640.5,-258.5 749.5,-258.5 "/>
<text text-anchor="start" x="648.5" y="-246.5" font-family="Helvetica,sans-Serif" font-size="10.00">~ maki</text>
<text text-anchor="start" x="648.5" y="-235.5" font-family="Helvetica,sans-Serif" font-size="10.00">~ california</text>
<text text-anchor="start" x="648.5" y="-224.5" font-family="Helvetica,sans-Serif" font-size="10.00">~ salmonRolls</text>
<text text-anchor="start" x="648.5" y="-213.5" font-family="Helvetica,sans-Serif" font-size="10.00">~ shrimp</text>
<text text-anchor="start" x="648.5" y="-202.5" font-family="Helvetica,sans-Serif" font-size="10.00">~ first</text>
<text text-anchor="start" x="648.5" y="-191.5" font-family="Helvetica,sans-Serif" font-size="10.00">~ delaiDeCommande</text>
<text text-anchor="start" x="648.5" y="-180.5" font-family="Helvetica,sans-Serif" font-size="10.00">&#45; served</text>
<text text-anchor="start" x="648.5" y="-169.5" font-family="Helvetica,sans-Serif" font-size="10.00">&#45; onigiri</text>
<text text-anchor="start" x="648.5" y="-158.5" font-family="Helvetica,sans-Serif" font-size="10.00">&#45; compteurs</text>
<text text-anchor="start" x="648.5" y="-147.5" font-family="Helvetica,sans-Serif" font-size="10.00">&#45; clearTime</text>
<text text-anchor="start" x="648.5" y="-136.5" font-family="Helvetica,sans-Serif" font-size="10.00">&#45; oldClearTime</text>
<text text-anchor="start" x="648.5" y="-125.5" font-family="Helvetica,sans-Serif" font-size="10.00">&#45; oni</text>
<text text-anchor="start" x="648.5" y="-114.5" font-family="Helvetica,sans-Serif" font-size="10.00">&#45; compteurs</text>
<polyline fill="none" stroke="black" points="640.5,-107.5 749.5,-107.5 "/>
<text text-anchor="start" x="648.5" y="-95.5" font-family="Helvetica,sans-Serif" font-size="10.00">+ update()</text>
<text text-anchor="start" x="648.5" y="-84.5" font-family="Helvetica,sans-Serif" font-size="10.00">+ check()</text>
<text text-anchor="start" x="648.5" y="-73.5" font-family="Helvetica,sans-Serif" font-size="10.00">+ update()</text>
<text text-anchor="start" x="648.5" y="-62.5" font-family="Helvetica,sans-Serif" font-size="10.00">+ check()</text>
<text text-anchor="start" x="648.5" y="-51.5" font-family="Helvetica,sans-Serif" font-size="10.00">+ makeS()</text>
<text text-anchor="start" x="648.5" y="-40.5" font-family="Helvetica,sans-Serif" font-size="10.00">+ clearTable()</text>
<text text-anchor="start" x="648.5" y="-29.5" font-family="Helvetica,sans-Serif" font-size="10.00">~ Client()</text>
<text text-anchor="start" x="648.5" y="-18.5" font-family="Helvetica,sans-Serif" font-size="10.00">~ Client()</text>
<text text-anchor="start" x="648.5" y="-7.5" font-family="Helvetica,sans-Serif" font-size="10.00">&#45; makeSushi()</text>
</g>
<!-- Node2 -->
<g id="node2" class="node"><title>Node2</title>
<g id="a_node2"><a xlink:href="classSuchi_1_1Ia.html" target="_top" xlink:title="{Suchi.Ia\n|~ height\l&#45; width\l|+ Ia()\l+ loadCommandes()\l+ clearTable()\l+ saveSprites()\l+ fillGreyTable()\l+ initGreyReference()\l+ fillCommandes()\l+ getZone()\l+ clickZone()\l+ resetIngredients()\l+ useIngredient()\l+ checkIngredients()\l+ buyIngredient()\l}">
<polygon fill="none" stroke="black" points="345,-380.5 345,-580.5 455,-580.5 455,-380.5 345,-380.5"/>
<text text-anchor="middle" x="400" y="-568.5" font-family="Helvetica,sans-Serif" font-size="10.00">Suchi.Ia</text>
<polyline fill="none" stroke="black" points="345,-561.5 455,-561.5 "/>
<text text-anchor="start" x="353" y="-549.5" font-family="Helvetica,sans-Serif" font-size="10.00">~ height</text>
<text text-anchor="start" x="353" y="-538.5" font-family="Helvetica,sans-Serif" font-size="10.00">&#45; width</text>
<polyline fill="none" stroke="black" points="345,-531.5 455,-531.5 "/>
<text text-anchor="start" x="353" y="-519.5" font-family="Helvetica,sans-Serif" font-size="10.00">+ Ia()</text>
<text text-anchor="start" x="353" y="-508.5" font-family="Helvetica,sans-Serif" font-size="10.00">+ loadCommandes()</text>
<text text-anchor="start" x="353" y="-497.5" font-family="Helvetica,sans-Serif" font-size="10.00">+ clearTable()</text>
<text text-anchor="start" x="353" y="-486.5" font-family="Helvetica,sans-Serif" font-size="10.00">+ saveSprites()</text>
<text text-anchor="start" x="353" y="-475.5" font-family="Helvetica,sans-Serif" font-size="10.00">+ fillGreyTable()</text>
<text text-anchor="start" x="353" y="-464.5" font-family="Helvetica,sans-Serif" font-size="10.00">+ initGreyReference()</text>
<text text-anchor="start" x="353" y="-453.5" font-family="Helvetica,sans-Serif" font-size="10.00">+ fillCommandes()</text>
<text text-anchor="start" x="353" y="-442.5" font-family="Helvetica,sans-Serif" font-size="10.00">+ getZone()</text>
<text text-anchor="start" x="353" y="-431.5" font-family="Helvetica,sans-Serif" font-size="10.00">+ clickZone()</text>
<text text-anchor="start" x="353" y="-420.5" font-family="Helvetica,sans-Serif" font-size="10.00">+ resetIngredients()</text>
<text text-anchor="start" x="353" y="-409.5" font-family="Helvetica,sans-Serif" font-size="10.00">+ useIngredient()</text>
<text text-anchor="start" x="353" y="-398.5" font-family="Helvetica,sans-Serif" font-size="10.00">+ checkIngredients()</text>
<text text-anchor="start" x="353" y="-387.5" font-family="Helvetica,sans-Serif" font-size="10.00">+ buyIngredient()</text>
</a>
</g>
</g>
<!-- Node2&#45;&gt;Node1 -->
<g id="edge1" class="edge"><title>Node2&#45;&gt;Node1</title>
<path fill="none" stroke="#404040" d="M455.141,-416.041C505.504,-358.081 579.904,-272.458 632.463,-211.97"/>
<polygon fill="none" stroke="#404040" points="632.508,-211.919 633.424,-204.766 640.379,-202.861 639.463,-210.013 632.508,-211.919"/>
<text text-anchor="middle" x="564" y="-326.5" font-family="Helvetica,sans-Serif" font-size="10.00"> &#45;ia</text>
</g>
<!-- Node3 -->
<g id="node3" class="node"><title>Node3</title>
<polygon fill="none" stroke="#bfbfbf" points="0,-645 0,-702 152,-702 152,-645 0,-645"/>
<text text-anchor="middle" x="76" y="-690" font-family="Helvetica,sans-Serif" font-size="10.00">HashMap&lt; String, Suchi.Dot &gt;</text>
<polyline fill="none" stroke="#bfbfbf" points="0,-683 152,-683 "/>
<text text-anchor="middle" x="76" y="-671" font-family="Helvetica,sans-Serif" font-size="10.00"> </text>
<polyline fill="none" stroke="#bfbfbf" points="0,-664 152,-664 "/>
<text text-anchor="middle" x="76" y="-652" font-family="Helvetica,sans-Serif" font-size="10.00"> </text>
</g>
<!-- Node3&#45;&gt;Node2 -->
<g id="edge2" class="edge"><title>Node3&#45;&gt;Node2</title>
<path fill="none" stroke="#404040" d="M122.766,-644.931C178.346,-612.167 271.445,-557.284 334.255,-520.257"/>
<polygon fill="none" stroke="#404040" points="334.501,-520.112 337.639,-513.619 344.839,-514.018 341.701,-520.511 334.501,-520.112"/>
<text text-anchor="middle" x="216.5" y="-607.5" font-family="Helvetica,sans-Serif" font-size="10.00"> &#45;zones</text>
</g>
<!-- Node4 -->
<g id="node4" class="node"><title>Node4</title>
<polygon fill="none" stroke="#bfbfbf" points="288.5,-755.5 288.5,-812.5 347.5,-812.5 347.5,-755.5 288.5,-755.5"/>
<text text-anchor="middle" x="318" y="-800.5" font-family="Helvetica,sans-Serif" font-size="10.00">HashMap</text>
<polyline fill="none" stroke="#bfbfbf" points="288.5,-793.5 347.5,-793.5 "/>
<text text-anchor="middle" x="318" y="-781.5" font-family="Helvetica,sans-Serif" font-size="10.00"> </text>
<polyline fill="none" stroke="#bfbfbf" points="288.5,-774.5 347.5,-774.5 "/>
<text text-anchor="middle" x="318" y="-762.5" font-family="Helvetica,sans-Serif" font-size="10.00"> </text>
</g>
<!-- Node4&#45;&gt;Node3 -->
<g id="edge3" class="edge"><title>Node4&#45;&gt;Node3</title>
<path fill="none" stroke="orange" d="M278.302,-777.767C242.129,-771.782 188.084,-759.723 146,-737 129.371,-728.021 113.439,-714.347 100.987,-702.076"/>
<polygon fill="orange" stroke="orange" points="278.041,-781.269 288.464,-779.367 279.129,-774.354 278.041,-781.269"/>
<text text-anchor="middle" x="196" y="-729" font-family="Helvetica,sans-Serif" font-size="10.00"> &lt; String, Suchi::Dot &gt;</text>
</g>
<!-- Node5 -->
<g id="node5" class="node"><title>Node5</title>
<polygon fill="none" stroke="#bfbfbf" points="170,-639.5 170,-707.5 306,-707.5 306,-639.5 170,-639.5"/>
<text text-anchor="start" x="178" y="-695.5" font-family="Helvetica,sans-Serif" font-size="10.00">HashMap&lt; String, Buffered</text>
<text text-anchor="middle" x="238" y="-684.5" font-family="Helvetica,sans-Serif" font-size="10.00">Image &gt;</text>
<polyline fill="none" stroke="#bfbfbf" points="170,-677.5 306,-677.5 "/>
<text text-anchor="middle" x="238" y="-665.5" font-family="Helvetica,sans-Serif" font-size="10.00"> </text>
<polyline fill="none" stroke="#bfbfbf" points="170,-658.5 306,-658.5 "/>
<text text-anchor="middle" x="238" y="-646.5" font-family="Helvetica,sans-Serif" font-size="10.00"> </text>
</g>
<!-- Node4&#45;&gt;Node5 -->
<g id="edge5" class="edge"><title>Node4&#45;&gt;Node5</title>
<path fill="none" stroke="orange" d="M279.955,-761.535C270.661,-754.736 261.526,-746.48 255,-737 249.071,-728.386 245.206,-717.782 242.688,-707.771"/>
<polygon fill="orange" stroke="orange" points="278.236,-764.6 288.465,-767.363 282.192,-758.824 278.236,-764.6"/>
<text text-anchor="middle" x="313.5" y="-729" font-family="Helvetica,sans-Serif" font-size="10.00"> &lt; String, BufferedImage &gt;</text>
</g>
<!-- Node6 -->
<g id="node6" class="node"><title>Node6</title>
<polygon fill="none" stroke="#bfbfbf" points="324,-645 324,-702 476,-702 476,-645 324,-645"/>
<text text-anchor="middle" x="400" y="-690" font-family="Helvetica,sans-Serif" font-size="10.00">HashMap&lt; String, Rectangle &gt;</text>
<polyline fill="none" stroke="#bfbfbf" points="324,-683 476,-683 "/>
<text text-anchor="middle" x="400" y="-671" font-family="Helvetica,sans-Serif" font-size="10.00"> </text>
<polyline fill="none" stroke="#bfbfbf" points="324,-664 476,-664 "/>
<text text-anchor="middle" x="400" y="-652" font-family="Helvetica,sans-Serif" font-size="10.00"> </text>
</g>
<!-- Node4&#45;&gt;Node6 -->
<g id="edge7" class="edge"><title>Node4&#45;&gt;Node6</title>
<path fill="none" stroke="orange" d="M355.393,-755.007C361.411,-749.465 367.222,-743.375 372,-737 379.844,-726.535 386.117,-713.524 390.72,-702.087"/>
<polygon fill="orange" stroke="orange" points="352.947,-752.497 347.724,-761.715 357.555,-757.766 352.947,-752.497"/>
<text text-anchor="middle" x="428.5" y="-729" font-family="Helvetica,sans-Serif" font-size="10.00"> &lt; String, Rectangle &gt;</text>
</g>
<!-- Node7 -->
<g id="node7" class="node"><title>Node7</title>
<polygon fill="none" stroke="#bfbfbf" points="494,-645 494,-702 632,-702 632,-645 494,-645"/>
<text text-anchor="middle" x="563" y="-690" font-family="Helvetica,sans-Serif" font-size="10.00">HashMap&lt; String, Integer &gt;</text>
<polyline fill="none" stroke="#bfbfbf" points="494,-683 632,-683 "/>
<text text-anchor="middle" x="563" y="-671" font-family="Helvetica,sans-Serif" font-size="10.00"> </text>
<polyline fill="none" stroke="#bfbfbf" points="494,-664 632,-664 "/>
<text text-anchor="middle" x="563" y="-652" font-family="Helvetica,sans-Serif" font-size="10.00"> </text>
</g>
<!-- Node4&#45;&gt;Node7 -->
<g id="edge9" class="edge"><title>Node4&#45;&gt;Node7</title>
<path fill="none" stroke="orange" d="M357.796,-776.129C391.777,-769.258 441.307,-756.822 481,-737 499.416,-727.803 517.834,-714.257 532.536,-702.125"/>
<polygon fill="orange" stroke="orange" points="356.922,-772.733 347.778,-778.084 358.263,-779.604 356.922,-772.733"/>
<text text-anchor="middle" x="540.5" y="-729" font-family="Helvetica,sans-Serif" font-size="10.00"> &lt; String, Integer &gt;</text>
</g>
<!-- Node5&#45;&gt;Node2 -->
<g id="edge4" class="edge"><title>Node5&#45;&gt;Node2</title>
<path fill="none" stroke="#404040" d="M266.218,-639.23C285.768,-616.18 312.584,-584.564 337.077,-555.687"/>
<polygon fill="none" stroke="#404040" points="337.173,-555.574 338.004,-548.41 344.935,-546.422 344.105,-553.585 337.173,-555.574"/>
<text text-anchor="middle" x="335" y="-607.5" font-family="Helvetica,sans-Serif" font-size="10.00"> &#45;greyReference</text>
</g>
<!-- Node6&#45;&gt;Node2 -->
<g id="edge6" class="edge"><title>Node6&#45;&gt;Node2</title>
<path fill="none" stroke="#404040" d="M400,-644.727C400,-630.504 400,-612.152 400,-592.913"/>
<polygon fill="none" stroke="#404040" points="400,-592.848 396,-586.848 400,-580.848 404,-586.848 400,-592.848"/>
<text text-anchor="middle" x="436.5" y="-613" font-family="Helvetica,sans-Serif" font-size="10.00"> &#45;greyIngredients</text>
<text text-anchor="middle" x="436.5" y="-602" font-family="Helvetica,sans-Serif" font-size="10.00">&#45;commandes</text>
</g>
<!-- Node7&#45;&gt;Node2 -->
<g id="edge8" class="edge"><title>Node7&#45;&gt;Node2</title>
<path fill="none" stroke="#404040" d="M539.298,-644.727C519.288,-621.279 489.7,-586.609 462.934,-555.245"/>
<polygon fill="none" stroke="#404040" points="462.892,-555.195 455.954,-553.228 455.102,-546.067 462.039,-548.034 462.892,-555.195"/>
<text text-anchor="middle" x="542" y="-607.5" font-family="Helvetica,sans-Serif" font-size="10.00"> &#45;ingredients</text>
</g>
<!-- Node8 -->
<g id="node8" class="node"><title>Node8</title>
<polygon fill="none" stroke="#bfbfbf" points="545.5,-446.5 545.5,-514.5 666.5,-514.5 666.5,-446.5 545.5,-446.5"/>
<text text-anchor="start" x="553.5" y="-502.5" font-family="Helvetica,sans-Serif" font-size="10.00">ArrayList&lt; Suchi.Client.</text>
<text text-anchor="middle" x="606" y="-491.5" font-family="Helvetica,sans-Serif" font-size="10.00">Sushis &gt;</text>
<polyline fill="none" stroke="#bfbfbf" points="545.5,-484.5 666.5,-484.5 "/>
<text text-anchor="middle" x="606" y="-472.5" font-family="Helvetica,sans-Serif" font-size="10.00"> </text>
<polyline fill="none" stroke="#bfbfbf" points="545.5,-465.5 666.5,-465.5 "/>
<text text-anchor="middle" x="606" y="-453.5" font-family="Helvetica,sans-Serif" font-size="10.00"> </text>
</g>
<!-- Node8&#45;&gt;Node1 -->
<g id="edge10" class="edge"><title>Node8&#45;&gt;Node1</title>
<path fill="none" stroke="#404040" d="M614.696,-446.329C624.332,-409.57 640.544,-347.727 655.889,-289.193"/>
<polygon fill="none" stroke="#404040" points="655.901,-289.147 653.553,-282.329 658.944,-277.539 661.292,-284.357 655.901,-289.147"/>
<text text-anchor="middle" x="668" y="-326.5" font-family="Helvetica,sans-Serif" font-size="10.00"> &#45;toDo</text>
</g>
<!-- Node9 -->
<g id="node9" class="node"><title>Node9</title>
<polygon fill="none" stroke="#bfbfbf" points="650,-645 650,-702 706,-702 706,-645 650,-645"/>
<text text-anchor="middle" x="678" y="-690" font-family="Helvetica,sans-Serif" font-size="10.00">ArrayList</text>
<polyline fill="none" stroke="#bfbfbf" points="650,-683 706,-683 "/>
<text text-anchor="middle" x="678" y="-671" font-family="Helvetica,sans-Serif" font-size="10.00"> </text>
<polyline fill="none" stroke="#bfbfbf" points="650,-664 706,-664 "/>
<text text-anchor="middle" x="678" y="-652" font-family="Helvetica,sans-Serif" font-size="10.00"> </text>
</g>
<!-- Node9&#45;&gt;Node8 -->
<g id="edge11" class="edge"><title>Node9&#45;&gt;Node8</title>
<path fill="none" stroke="orange" d="M663.991,-635.337C650.802,-600.349 631.229,-548.426 618.541,-514.769"/>
<polygon fill="orange" stroke="orange" points="660.728,-636.604 667.531,-644.727 667.278,-634.135 660.728,-636.604"/>
<text text-anchor="middle" x="714" y="-607.5" font-family="Helvetica,sans-Serif" font-size="10.00"> &lt; Suchi::Client::Sushis &gt;</text>
</g>
<!-- Node10 -->
<g id="node10" class="node"><title>Node10</title>
<polygon fill="none" stroke="#bfbfbf" points="685,-452 685,-509 765,-509 765,-452 685,-452"/>
<text text-anchor="middle" x="725" y="-497" font-family="Helvetica,sans-Serif" font-size="10.00">BufferedImage</text>
<polyline fill="none" stroke="#bfbfbf" points="685,-490 765,-490 "/>
<text text-anchor="middle" x="725" y="-478" font-family="Helvetica,sans-Serif" font-size="10.00"> </text>
<polyline fill="none" stroke="#bfbfbf" points="685,-471 765,-471 "/>
<text text-anchor="middle" x="725" y="-459" font-family="Helvetica,sans-Serif" font-size="10.00"> </text>
</g>
<!-- Node10&#45;&gt;Node1 -->
<g id="edge12" class="edge"><title>Node10&#45;&gt;Node1</title>
<path fill="none" stroke="#404040" d="M722.545,-451.717C719.39,-416.011 713.672,-351.303 708.26,-290.06"/>
<polygon fill="none" stroke="#404040" points="708.239,-289.821 703.726,-284.197 707.183,-277.868 711.695,-283.492 708.239,-289.821"/>
<text text-anchor="middle" x="738.5" y="-326.5" font-family="Helvetica,sans-Serif" font-size="10.00"> &#45;customer</text>
</g>
<!-- Node11 -->
<g id="node11" class="node"><title>Node11</title>
<polygon fill="none" stroke="#bfbfbf" points="783.5,-452 783.5,-509 822.5,-509 822.5,-452 783.5,-452"/>
<text text-anchor="middle" x="803" y="-497" font-family="Helvetica,sans-Serif" font-size="10.00">Point</text>
<polyline fill="none" stroke="#bfbfbf" points="783.5,-490 822.5,-490 "/>
<text text-anchor="middle" x="803" y="-478" font-family="Helvetica,sans-Serif" font-size="10.00"> </text>
<polyline fill="none" stroke="#bfbfbf" points="783.5,-471 822.5,-471 "/>
<text text-anchor="middle" x="803" y="-459" font-family="Helvetica,sans-Serif" font-size="10.00"> </text>
</g>
<!-- Node11&#45;&gt;Node1 -->
<g id="edge13" class="edge"><title>Node11&#45;&gt;Node1</title>
<path fill="none" stroke="#404040" d="M799.448,-451.952C794.311,-415.614 783.464,-349.954 766,-296 762.497,-285.179 758.458,-274.112 754.12,-263.113"/>
<polygon fill="none" stroke="#404040" points="753.999,-262.814 748.042,-258.751 749.502,-251.689 755.459,-255.752 753.999,-262.814"/>
<text text-anchor="middle" x="792.5" y="-354" font-family="Helvetica,sans-Serif" font-size="10.00"> &#45;a4</text>
<text text-anchor="middle" x="792.5" y="-343" font-family="Helvetica,sans-Serif" font-size="10.00">&#45;a5</text>
<text text-anchor="middle" x="792.5" y="-332" font-family="Helvetica,sans-Serif" font-size="10.00">&#45;a6</text>
<text text-anchor="middle" x="792.5" y="-321" font-family="Helvetica,sans-Serif" font-size="10.00">&#45;a1</text>
<text text-anchor="middle" x="792.5" y="-310" font-family="Helvetica,sans-Serif" font-size="10.00">&#45;a2</text>
<text text-anchor="middle" x="792.5" y="-299" font-family="Helvetica,sans-Serif" font-size="10.00">&#45;a3</text>
</g>
</g>
</svg>
