<?xml version="1.0" encoding="UTF-8" standalone="no"?>
<!DOCTYPE svg PUBLIC "-//W3C//DTD SVG 1.1//EN"
 "http://www.w3.org/Graphics/SVG/1.1/DTD/svg11.dtd">
<!-- Generated by graphviz version 2.38.0 (20140413.2041)
 -->
<!-- Title: TestSushi.src.Suchi.Salmon Pages: 1 -->
<svg width="244pt" height="673pt"
 viewBox="0.00 0.00 244.00 673.00" xmlns="http://www.w3.org/2000/svg" xmlns:xlink="http://www.w3.org/1999/xlink">
<g id="graph0" class="graph" transform="scale(1 1) rotate(0) translate(4 669)">
<title>TestSushi.src.Suchi.Salmon</title>
<!-- Node1 -->
<g id="node1" class="node"><title>Node1</title>
<polygon fill="#bfbfbf" stroke="black" points="0,-0.5 0,-79.5 141,-79.5 141,-0.5 0,-0.5"/>
<text text-anchor="middle" x="70.5" y="-67.5" font-family="Helvetica,sans-Serif" font-size="10.00">TestSushi.src.Suchi.Salmon</text>
<polyline fill="none" stroke="black" points="0,-60.5 141,-60.5 "/>
<text text-anchor="middle" x="70.5" y="-48.5" font-family="Helvetica,sans-Serif" font-size="10.00"> </text>
<polyline fill="none" stroke="black" points="0,-41.5 141,-41.5 "/>
<text text-anchor="start" x="8" y="-29.5" font-family="Helvetica,sans-Serif" font-size="10.00">+ make()</text>
<text text-anchor="start" x="8" y="-18.5" font-family="Helvetica,sans-Serif" font-size="10.00">+ validate()</text>
<text text-anchor="start" x="8" y="-7.5" font-family="Helvetica,sans-Serif" font-size="10.00">~ Salmon()</text>
</g>
<!-- Node2 -->
<g id="node2" class="node"><title>Node2</title>
<g id="a_node2"><a xlink:href="classTestSushi_1_1src_1_1Suchi_1_1Recette.html" target="_top" xlink:title="{TestSushi.src.Suchi.Recette\n|# egggris\l# norigris\l# saumongris\l# ricegris\l# shrimpGris\l# time\l# phoneTime\l# timeTapis\l# Rice\l# Roe\l# Noori\l# salmon\l# shrimp\l|+ useRice()\l+ useRoe()\l+ useNoori()\l+ useSalmon()\l+ useShrimp()\l+ checkAliment()\l+ phoneClick()\l+ validatePhone()\l+ buyRice()\l+ buyRoe()\l+ buyNoori()\l+ buySalmon()\l+ buyShrimp()\l+ resetAliments()\l}">
<polygon fill="none" stroke="black" points="93,-117.5 93,-449.5 236,-449.5 236,-117.5 93,-117.5"/>
<text text-anchor="middle" x="164.5" y="-437.5" font-family="Helvetica,sans-Serif" font-size="10.00">TestSushi.src.Suchi.Recette</text>
<polyline fill="none" stroke="black" points="93,-430.5 236,-430.5 "/>
<text text-anchor="start" x="101" y="-418.5" font-family="Helvetica,sans-Serif" font-size="10.00"># egggris</text>
<text text-anchor="start" x="101" y="-407.5" font-family="Helvetica,sans-Serif" font-size="10.00"># norigris</text>
<text text-anchor="start" x="101" y="-396.5" font-family="Helvetica,sans-Serif" font-size="10.00"># saumongris</text>
<text text-anchor="start" x="101" y="-385.5" font-family="Helvetica,sans-Serif" font-size="10.00"># ricegris</text>
<text text-anchor="start" x="101" y="-374.5" font-family="Helvetica,sans-Serif" font-size="10.00"># shrimpGris</text>
<text text-anchor="start" x="101" y="-363.5" font-family="Helvetica,sans-Serif" font-size="10.00"># time</text>
<text text-anchor="start" x="101" y="-352.5" font-family="Helvetica,sans-Serif" font-size="10.00"># phoneTime</text>
<text text-anchor="start" x="101" y="-341.5" font-family="Helvetica,sans-Serif" font-size="10.00"># timeTapis</text>
<text text-anchor="start" x="101" y="-330.5" font-family="Helvetica,sans-Serif" font-size="10.00"># Rice</text>
<text text-anchor="start" x="101" y="-319.5" font-family="Helvetica,sans-Serif" font-size="10.00"># Roe</text>
<text text-anchor="start" x="101" y="-308.5" font-family="Helvetica,sans-Serif" font-size="10.00"># Noori</text>
<text text-anchor="start" x="101" y="-297.5" font-family="Helvetica,sans-Serif" font-size="10.00"># salmon</text>
<text text-anchor="start" x="101" y="-286.5" font-family="Helvetica,sans-Serif" font-size="10.00"># shrimp</text>
<polyline fill="none" stroke="black" points="93,-279.5 236,-279.5 "/>
<text text-anchor="start" x="101" y="-267.5" font-family="Helvetica,sans-Serif" font-size="10.00">+ useRice()</text>
<text text-anchor="start" x="101" y="-256.5" font-family="Helvetica,sans-Serif" font-size="10.00">+ useRoe()</text>
<text text-anchor="start" x="101" y="-245.5" font-family="Helvetica,sans-Serif" font-size="10.00">+ useNoori()</text>
<text text-anchor="start" x="101" y="-234.5" font-family="Helvetica,sans-Serif" font-size="10.00">+ useSalmon()</text>
<text text-anchor="start" x="101" y="-223.5" font-family="Helvetica,sans-Serif" font-size="10.00">+ useShrimp()</text>
<text text-anchor="start" x="101" y="-212.5" font-family="Helvetica,sans-Serif" font-size="10.00">+ checkAliment()</text>
<text text-anchor="start" x="101" y="-201.5" font-family="Helvetica,sans-Serif" font-size="10.00">+ phoneClick()</text>
<text text-anchor="start" x="101" y="-190.5" font-family="Helvetica,sans-Serif" font-size="10.00">+ validatePhone()</text>
<text text-anchor="start" x="101" y="-179.5" font-family="Helvetica,sans-Serif" font-size="10.00">+ buyRice()</text>
<text text-anchor="start" x="101" y="-168.5" font-family="Helvetica,sans-Serif" font-size="10.00">+ buyRoe()</text>
<text text-anchor="start" x="101" y="-157.5" font-family="Helvetica,sans-Serif" font-size="10.00">+ buyNoori()</text>
<text text-anchor="start" x="101" y="-146.5" font-family="Helvetica,sans-Serif" font-size="10.00">+ buySalmon()</text>
<text text-anchor="start" x="101" y="-135.5" font-family="Helvetica,sans-Serif" font-size="10.00">+ buyShrimp()</text>
<text text-anchor="start" x="101" y="-124.5" font-family="Helvetica,sans-Serif" font-size="10.00">+ resetAliments()</text>
</a>
</g>
</g>
<!-- Node2&#45;&gt;Node1 -->
<g id="edge1" class="edge"><title>Node2&#45;&gt;Node1</title>
<path fill="none" stroke="midnightblue" d="M96.537,-107.893C92.5743,-97.7121 88.8616,-88.1736 85.5506,-79.6672"/>
<polygon fill="none" stroke="midnightblue" points="93.3532,-109.363 100.242,-117.412 99.8765,-106.824 93.3532,-109.363"/>
</g>
<!-- Node3 -->
<g id="node3" class="node"><title>Node3</title>
<polygon fill="none" stroke="#bfbfbf" points="53,-607.5 53,-664.5 92,-664.5 92,-607.5 53,-607.5"/>
<text text-anchor="middle" x="72.5" y="-652.5" font-family="Helvetica,sans-Serif" font-size="10.00">Point</text>
<polyline fill="none" stroke="#bfbfbf" points="53,-645.5 92,-645.5 "/>
<text text-anchor="middle" x="72.5" y="-633.5" font-family="Helvetica,sans-Serif" font-size="10.00"> </text>
<polyline fill="none" stroke="#bfbfbf" points="53,-626.5 92,-626.5 "/>
<text text-anchor="middle" x="72.5" y="-614.5" font-family="Helvetica,sans-Serif" font-size="10.00"> </text>
</g>
<!-- Node3&#45;&gt;Node1 -->
<g id="edge3" class="edge"><title>Node3&#45;&gt;Node1</title>
<path fill="none" stroke="#404040" d="M66.3762,-607.287C58.7586,-571.267 46.185,-506.307 41.5,-450 29.2282,-302.51 14.6742,-262.549 41.5,-117 43.0839,-108.407 45.5962,-99.5273 48.4957,-91.0025"/>
<polygon fill="none" stroke="#404040" points="48.5223,-90.9295 46.8232,-83.9214 52.6387,-79.6576 54.3378,-86.6656 48.5223,-90.9295"/>
<text text-anchor="middle" x="63" y="-292" font-family="Helvetica,sans-Serif" font-size="10.00"> &#45;Rice</text>
<text text-anchor="middle" x="63" y="-281" font-family="Helvetica,sans-Serif" font-size="10.00">~Noori</text>
<text text-anchor="middle" x="63" y="-270" font-family="Helvetica,sans-Serif" font-size="10.00">~Saumon</text>
</g>
<!-- Node3&#45;&gt;Node2 -->
<g id="edge2" class="edge"><title>Node3&#45;&gt;Node2</title>
<path fill="none" stroke="#404040" d="M79.7191,-607.497C88.2196,-575.112 103.081,-518.494 118.01,-461.615"/>
<polygon fill="none" stroke="#404040" points="118.048,-461.47 115.703,-454.651 121.095,-449.863 123.441,-456.682 118.048,-461.47"/>
<text text-anchor="middle" x="146" y="-581" font-family="Helvetica,sans-Serif" font-size="10.00"> #RiceC</text>
<text text-anchor="middle" x="146" y="-570" font-family="Helvetica,sans-Serif" font-size="10.00">#phone</text>
<text text-anchor="middle" x="146" y="-559" font-family="Helvetica,sans-Serif" font-size="10.00">#saumon</text>
<text text-anchor="middle" x="146" y="-548" font-family="Helvetica,sans-Serif" font-size="10.00">#exitPhone</text>
<text text-anchor="middle" x="146" y="-537" font-family="Helvetica,sans-Serif" font-size="10.00">#shrimpCoord</text>
<text text-anchor="middle" x="146" y="-526" font-family="Helvetica,sans-Serif" font-size="10.00">#nori</text>
<text text-anchor="middle" x="146" y="-515" font-family="Helvetica,sans-Serif" font-size="10.00">#RiceCbuy</text>
<text text-anchor="middle" x="146" y="-504" font-family="Helvetica,sans-Serif" font-size="10.00">#validate</text>
<text text-anchor="middle" x="146" y="-493" font-family="Helvetica,sans-Serif" font-size="10.00">#fishEggs</text>
<text text-anchor="middle" x="146" y="-482" font-family="Helvetica,sans-Serif" font-size="10.00">#Topping</text>
<text text-anchor="middle" x="146" y="-471" font-family="Helvetica,sans-Serif" font-size="10.00">...</text>
</g>
</g>
</svg>
