<?xml version="1.0" encoding="UTF-8" standalone="no"?>
<!DOCTYPE svg PUBLIC "-//W3C//DTD SVG 1.1//EN"
 "http://www.w3.org/Graphics/SVG/1.1/DTD/svg11.dtd">
<!-- Generated by graphviz version 2.38.0 (20140413.2041)
 -->
<!-- Title: Pictures.Recon Pages: 1 -->
<svg width="181pt" height="386pt"
 viewBox="0.00 0.00 181.00 386.00" xmlns="http://www.w3.org/2000/svg" xmlns:xlink="http://www.w3.org/1999/xlink">
<g id="graph0" class="graph" transform="scale(1 1) rotate(0) translate(4 382)">
<title>Pictures.Recon</title>
<!-- Node1 -->
<g id="node1" class="node"><title>Node1</title>
<polygon fill="#bfbfbf" stroke="black" points="9,-0.5 9,-167.5 143,-167.5 143,-0.5 9,-0.5"/>
<text text-anchor="middle" x="76" y="-155.5" font-family="Helvetica,sans-Serif" font-size="10.00">Pictures.Recon</text>
<polyline fill="none" stroke="black" points="9,-148.5 143,-148.5 "/>
<text text-anchor="start" x="17" y="-136.5" font-family="Helvetica,sans-Serif" font-size="10.00">~ width</text>
<text text-anchor="start" x="17" y="-125.5" font-family="Helvetica,sans-Serif" font-size="10.00">&#45; height</text>
<polyline fill="none" stroke="black" points="9,-118.5 143,-118.5 "/>
<text text-anchor="start" x="17" y="-106.5" font-family="Helvetica,sans-Serif" font-size="10.00">+ Recon()</text>
<text text-anchor="start" x="17" y="-95.5" font-family="Helvetica,sans-Serif" font-size="10.00">+ addZone()</text>
<text text-anchor="start" x="17" y="-84.5" font-family="Helvetica,sans-Serif" font-size="10.00">+ chargerZone()</text>
<text text-anchor="start" x="17" y="-73.5" font-family="Helvetica,sans-Serif" font-size="10.00">+ sontEgales()</text>
<text text-anchor="start" x="17" y="-62.5" font-family="Helvetica,sans-Serif" font-size="10.00">+ chargerImg()</text>
<text text-anchor="start" x="17" y="-51.5" font-family="Helvetica,sans-Serif" font-size="10.00">+ testEq()</text>
<text text-anchor="start" x="17" y="-40.5" font-family="Helvetica,sans-Serif" font-size="10.00">+ moyenneRGB()</text>
<text text-anchor="start" x="17" y="-29.5" font-family="Helvetica,sans-Serif" font-size="10.00">+ mosaique()</text>
<text text-anchor="start" x="17" y="-18.5" font-family="Helvetica,sans-Serif" font-size="10.00">+ loadSingleSpriteByPath()</text>
<text text-anchor="start" x="17" y="-7.5" font-family="Helvetica,sans-Serif" font-size="10.00">+ writeImage()</text>
</g>
<!-- Node2 -->
<g id="node2" class="node"><title>Node2</title>
<polygon fill="none" stroke="#bfbfbf" points="0,-215.5 0,-272.5 152,-272.5 152,-215.5 0,-215.5"/>
<text text-anchor="middle" x="76" y="-260.5" font-family="Helvetica,sans-Serif" font-size="10.00">HashMap&lt; String, Rectangle &gt;</text>
<polyline fill="none" stroke="#bfbfbf" points="0,-253.5 152,-253.5 "/>
<text text-anchor="middle" x="76" y="-241.5" font-family="Helvetica,sans-Serif" font-size="10.00"> </text>
<polyline fill="none" stroke="#bfbfbf" points="0,-234.5 152,-234.5 "/>
<text text-anchor="middle" x="76" y="-222.5" font-family="Helvetica,sans-Serif" font-size="10.00"> </text>
</g>
<!-- Node2&#45;&gt;Node1 -->
<g id="edge1" class="edge"><title>Node2&#45;&gt;Node1</title>
<path fill="none" stroke="#404040" d="M76,-215.479C76,-205.122 76,-192.674 76,-179.634"/>
<polygon fill="none" stroke="#404040" points="76.0001,-179.536 72,-173.536 76,-167.536 80,-173.536 76.0001,-179.536"/>
<text text-anchor="middle" x="105" y="-189" font-family="Helvetica,sans-Serif" font-size="10.00"> &#45;reconZones</text>
</g>
<!-- Node3 -->
<g id="node3" class="node"><title>Node3</title>
<polygon fill="none" stroke="#bfbfbf" points="46.5,-320.5 46.5,-377.5 105.5,-377.5 105.5,-320.5 46.5,-320.5"/>
<text text-anchor="middle" x="76" y="-365.5" font-family="Helvetica,sans-Serif" font-size="10.00">HashMap</text>
<polyline fill="none" stroke="#bfbfbf" points="46.5,-358.5 105.5,-358.5 "/>
<text text-anchor="middle" x="76" y="-346.5" font-family="Helvetica,sans-Serif" font-size="10.00"> </text>
<polyline fill="none" stroke="#bfbfbf" points="46.5,-339.5 105.5,-339.5 "/>
<text text-anchor="middle" x="76" y="-327.5" font-family="Helvetica,sans-Serif" font-size="10.00"> </text>
</g>
<!-- Node3&#45;&gt;Node2 -->
<g id="edge2" class="edge"><title>Node3&#45;&gt;Node2</title>
<path fill="none" stroke="orange" d="M76,-310.286C76,-297.839 76,-284.233 76,-272.678"/>
<polygon fill="orange" stroke="orange" points="72.5001,-310.398 76,-320.398 79.5001,-310.398 72.5001,-310.398"/>
<text text-anchor="middle" x="124.5" y="-294" font-family="Helvetica,sans-Serif" font-size="10.00"> &lt; String, Rectangle &gt;</text>
</g>
</g>
</svg>
