<?xml version="1.0" encoding="UTF-8" standalone="no"?>
<!DOCTYPE svg PUBLIC "-//W3C//DTD SVG 1.1//EN"
 "http://www.w3.org/Graphics/SVG/1.1/DTD/svg11.dtd">
<!-- Generated by graphviz version 2.38.0 (20140413.2041)
 -->
<!-- Title: TestSushi.src.Suchi.ShrimpSh Pages: 1 -->
<svg width="244pt" height="673pt"
 viewBox="0.00 0.00 244.00 673.00" xmlns="http://www.w3.org/2000/svg" xmlns:xlink="http://www.w3.org/1999/xlink">
<g id="graph0" class="graph" transform="scale(1 1) rotate(0) translate(4 669)">
<title>TestSushi.src.Suchi.ShrimpSh</title>
<!-- Node1 -->
<g id="node1" class="node"><title>Node1</title>
<polygon fill="#bfbfbf" stroke="black" points="0,-0.5 0,-79.5 151,-79.5 151,-0.5 0,-0.5"/>
<text text-anchor="middle" x="75.5" y="-67.5" font-family="Helvetica,sans-Serif" font-size="10.00">TestSushi.src.Suchi.ShrimpSh</text>
<polyline fill="none" stroke="black" points="0,-60.5 151,-60.5 "/>
<text text-anchor="middle" x="75.5" y="-48.5" font-family="Helvetica,sans-Serif" font-size="10.00"> </text>
<polyline fill="none" stroke="black" points="0,-41.5 151,-41.5 "/>
<text text-anchor="start" x="8" y="-29.5" font-family="Helvetica,sans-Serif" font-size="10.00">+ ShrimpSh()</text>
<text text-anchor="start" x="8" y="-18.5" font-family="Helvetica,sans-Serif" font-size="10.00">+ make()</text>
<text text-anchor="start" x="8" y="-7.5" font-family="Helvetica,sans-Serif" font-size="10.00">+ validate()</text>
</g>
<!-- Node2 -->
<g id="node2" class="node"><title>Node2</title>
<g id="a_node2"><a xlink:href="classTestSushi_1_1src_1_1Suchi_1_1Recette.html" target="_top" xlink:title="{TestSushi.src.Suchi.Recette\n|# egggris\l# norigris\l# saumongris\l# ricegris\l# shrimpGris\l# time\l# phoneTime\l# timeTapis\l# Rice\l# Roe\l# Noori\l# salmon\l# shrimp\l|+ useRice()\l+ useRoe()\l+ useNoori()\l+ useSalmon()\l+ useShrimp()\l+ checkAliment()\l+ phoneClick()\l+ validatePhone()\l+ buyRice()\l+ buyRoe()\l+ buyNoori()\l+ buySalmon()\l+ buyShrimp()\l+ resetAliments()\l}">
<polygon fill="none" stroke="black" points="93,-117.5 93,-449.5 236,-449.5 236,-117.5 93,-117.5"/>
<text text-anchor="middle" x="164.5" y="-437.5" font-family="Helvetica,sans-Serif" font-size="10.00">TestSushi.src.Suchi.Recette</text>
<polyline fill="none" stroke="black" points="93,-430.5 236,-430.5 "/>
<text text-anchor="start" x="101" y="-418.5" font-family="Helvetica,sans-Serif" font-size="10.00"># egggris</text>
<text text-anchor="start" x="101" y="-407.5" font-family="Helvetica,sans-Serif" font-size="10.00"># norigris</text>
<text text-anchor="start" x="101" y="-396.5" font-family="Helvetica,sans-Serif" font-size="10.00"># saumongris</text>
<text text-anchor="start" x="101" y="-385.5" font-family="Helvetica,sans-Serif" font-size="10.00"># ricegris</text>
<text text-anchor="start" x="101" y="-374.5" font-family="Helvetica,sans-Serif" font-size="10.00"># shrimpGris</text>
<text text-anchor="start" x="101" y="-363.5" font-family="Helvetica,sans-Serif" font-size="10.00"># time</text>
<text text-anchor="start" x="101" y="-352.5" font-family="Helvetica,sans-Serif" font-size="10.00"># phoneTime</text>
<text text-anchor="start" x="101" y="-341.5" font-family="Helvetica,sans-Serif" font-size="10.00"># timeTapis</text>
<text text-anchor="start" x="101" y="-330.5" font-family="Helvetica,sans-Serif" font-size="10.00"># Rice</text>
<text text-anchor="start" x="101" y="-319.5" font-family="Helvetica,sans-Serif" font-size="10.00"># Roe</text>
<text text-anchor="start" x="101" y="-308.5" font-family="Helvetica,sans-Serif" font-size="10.00"># Noori</text>
<text text-anchor="start" x="101" y="-297.5" font-family="Helvetica,sans-Serif" font-size="10.00"># salmon</text>
<text text-anchor="start" x="101" y="-286.5" font-family="Helvetica,sans-Serif" font-size="10.00"># shrimp</text>
<polyline fill="none" stroke="black" points="93,-279.5 236,-279.5 "/>
<text text-anchor="start" x="101" y="-267.5" font-family="Helvetica,sans-Serif" font-size="10.00">+ useRice()</text>
<text text-anchor="start" x="101" y="-256.5" font-family="Helvetica,sans-Serif" font-size="10.00">+ useRoe()</text>
<text text-anchor="start" x="101" y="-245.5" font-family="Helvetica,sans-Serif" font-size="10.00">+ useNoori()</text>
<text text-anchor="start" x="101" y="-234.5" font-family="Helvetica,sans-Serif" font-size="10.00">+ useSalmon()</text>
<text text-anchor="start" x="101" y="-223.5" font-family="Helvetica,sans-Serif" font-size="10.00">+ useShrimp()</text>
<text text-anchor="start" x="101" y="-212.5" font-family="Helvetica,sans-Serif" font-size="10.00">+ checkAliment()</text>
<text text-anchor="start" x="101" y="-201.5" font-family="Helvetica,sans-Serif" font-size="10.00">+ phoneClick()</text>
<text text-anchor="start" x="101" y="-190.5" font-family="Helvetica,sans-Serif" font-size="10.00">+ validatePhone()</text>
<text text-anchor="start" x="101" y="-179.5" font-family="Helvetica,sans-Serif" font-size="10.00">+ buyRice()</text>
<text text-anchor="start" x="101" y="-168.5" font-family="Helvetica,sans-Serif" font-size="10.00">+ buyRoe()</text>
<text text-anchor="start" x="101" y="-157.5" font-family="Helvetica,sans-Serif" font-size="10.00">+ buyNoori()</text>
<text text-anchor="start" x="101" y="-146.5" font-family="Helvetica,sans-Serif" font-size="10.00">+ buySalmon()</text>
<text text-anchor="start" x="101" y="-135.5" font-family="Helvetica,sans-Serif" font-size="10.00">+ buyShrimp()</text>
<text text-anchor="start" x="101" y="-124.5" font-family="Helvetica,sans-Serif" font-size="10.00">+ resetAliments()</text>
</a>
</g>
</g>
<!-- Node2&#45;&gt;Node1 -->
<g id="edge1" class="edge"><title>Node2&#45;&gt;Node1</title>
<path fill="none" stroke="midnightblue" d="M100.152,-107.893C96.4001,-97.7121 92.8849,-88.1736 89.75,-79.6672"/>
<polygon fill="none" stroke="midnightblue" points="96.9181,-109.239 103.66,-117.412 103.486,-106.819 96.9181,-109.239"/>
</g>
<!-- Node3 -->
<g id="node3" class="node"><title>Node3</title>
<polygon fill="none" stroke="#bfbfbf" points="58,-607.5 58,-664.5 97,-664.5 97,-607.5 58,-607.5"/>
<text text-anchor="middle" x="77.5" y="-652.5" font-family="Helvetica,sans-Serif" font-size="10.00">Point</text>
<polyline fill="none" stroke="#bfbfbf" points="58,-645.5 97,-645.5 "/>
<text text-anchor="middle" x="77.5" y="-633.5" font-family="Helvetica,sans-Serif" font-size="10.00"> </text>
<polyline fill="none" stroke="#bfbfbf" points="58,-626.5 97,-626.5 "/>
<text text-anchor="middle" x="77.5" y="-614.5" font-family="Helvetica,sans-Serif" font-size="10.00"> </text>
</g>
<!-- Node3&#45;&gt;Node1 -->
<g id="edge3" class="edge"><title>Node3&#45;&gt;Node1</title>
<path fill="none" stroke="#404040" d="M71.7707,-607.265C64.644,-571.22 52.8809,-506.235 48.5,-450 37.0052,-302.447 23.3621,-262.85 48.5,-117 49.9549,-108.559 52.2561,-99.8125 54.9161,-91.3884"/>
<polygon fill="none" stroke="#404040" points="55.0065,-91.122 53.1481,-84.1545 58.8649,-79.7592 60.7233,-86.7268 55.0065,-91.122"/>
<text text-anchor="middle" x="66.5" y="-292" font-family="Helvetica,sans-Serif" font-size="10.00"> &#45;Rice</text>
<text text-anchor="middle" x="66.5" y="-281" font-family="Helvetica,sans-Serif" font-size="10.00">~shrimp</text>
<text text-anchor="middle" x="66.5" y="-270" font-family="Helvetica,sans-Serif" font-size="10.00">~Noori</text>
</g>
<!-- Node3&#45;&gt;Node2 -->
<g id="edge2" class="edge"><title>Node3&#45;&gt;Node2</title>
<path fill="none" stroke="#404040" d="M84.3267,-607.497C92.3653,-575.112 106.419,-518.494 120.537,-461.615"/>
<polygon fill="none" stroke="#404040" points="120.563,-461.51 118.126,-454.723 123.454,-449.863 125.891,-456.65 120.563,-461.51"/>
<text text-anchor="middle" x="148" y="-581" font-family="Helvetica,sans-Serif" font-size="10.00"> #RiceC</text>
<text text-anchor="middle" x="148" y="-570" font-family="Helvetica,sans-Serif" font-size="10.00">#phone</text>
<text text-anchor="middle" x="148" y="-559" font-family="Helvetica,sans-Serif" font-size="10.00">#saumon</text>
<text text-anchor="middle" x="148" y="-548" font-family="Helvetica,sans-Serif" font-size="10.00">#exitPhone</text>
<text text-anchor="middle" x="148" y="-537" font-family="Helvetica,sans-Serif" font-size="10.00">#shrimpCoord</text>
<text text-anchor="middle" x="148" y="-526" font-family="Helvetica,sans-Serif" font-size="10.00">#nori</text>
<text text-anchor="middle" x="148" y="-515" font-family="Helvetica,sans-Serif" font-size="10.00">#RiceCbuy</text>
<text text-anchor="middle" x="148" y="-504" font-family="Helvetica,sans-Serif" font-size="10.00">#validate</text>
<text text-anchor="middle" x="148" y="-493" font-family="Helvetica,sans-Serif" font-size="10.00">#fishEggs</text>
<text text-anchor="middle" x="148" y="-482" font-family="Helvetica,sans-Serif" font-size="10.00">#Topping</text>
<text text-anchor="middle" x="148" y="-471" font-family="Helvetica,sans-Serif" font-size="10.00">...</text>
</g>
</g>
</svg>
