<?xml version="1.0" encoding="UTF-8" standalone="no"?>
<!DOCTYPE svg PUBLIC "-//W3C//DTD SVG 1.1//EN"
 "http://www.w3.org/Graphics/SVG/1.1/DTD/svg11.dtd">
<!-- Generated by graphviz version 2.38.0 (20140413.2041)
 -->
<!-- Title: Suchi.ToolBox Pages: 1 -->
<svg width="414pt" height="347pt"
 viewBox="0.00 0.00 413.50 347.00" xmlns="http://www.w3.org/2000/svg" xmlns:xlink="http://www.w3.org/1999/xlink">
<g id="graph0" class="graph" transform="scale(1 1) rotate(0) translate(4 343)">
<title>Suchi.ToolBox</title>
<!-- Node1 -->
<g id="node1" class="node"><title>Node1</title>
<polygon fill="#bfbfbf" stroke="black" points="139.5,-0.5 139.5,-123.5 242.5,-123.5 242.5,-0.5 139.5,-0.5"/>
<text text-anchor="middle" x="191" y="-111.5" font-family="Helvetica,sans-Serif" font-size="10.00">Suchi.ToolBox</text>
<polyline fill="none" stroke="black" points="139.5,-104.5 242.5,-104.5 "/>
<text text-anchor="start" x="147.5" y="-92.5" font-family="Helvetica,sans-Serif" font-size="10.00">&#45; w</text>
<text text-anchor="start" x="147.5" y="-81.5" font-family="Helvetica,sans-Serif" font-size="10.00">&#45; h</text>
<text text-anchor="start" x="147.5" y="-70.5" font-family="Helvetica,sans-Serif" font-size="10.00">&#45; countScreen</text>
<polyline fill="none" stroke="black" points="139.5,-63.5 242.5,-63.5 "/>
<text text-anchor="start" x="147.5" y="-51.5" font-family="Helvetica,sans-Serif" font-size="10.00">+ ToolBox()</text>
<text text-anchor="start" x="147.5" y="-40.5" font-family="Helvetica,sans-Serif" font-size="10.00">+ Capture()</text>
<text text-anchor="start" x="147.5" y="-29.5" font-family="Helvetica,sans-Serif" font-size="10.00">+ CaptureGame()</text>
<text text-anchor="start" x="147.5" y="-18.5" font-family="Helvetica,sans-Serif" font-size="10.00">+ Launch()</text>
<text text-anchor="start" x="147.5" y="-7.5" font-family="Helvetica,sans-Serif" font-size="10.00">+ actionPerformed()</text>
</g>
<!-- Node2 -->
<g id="node2" class="node"><title>Node2</title>
<polygon fill="none" stroke="#bfbfbf" points="0,-243 0,-300 50,-300 50,-243 0,-243"/>
<text text-anchor="middle" x="25" y="-288" font-family="Helvetica,sans-Serif" font-size="10.00">JFrame</text>
<polyline fill="none" stroke="#bfbfbf" points="0,-281 50,-281 "/>
<text text-anchor="middle" x="25" y="-269" font-family="Helvetica,sans-Serif" font-size="10.00"> </text>
<polyline fill="none" stroke="#bfbfbf" points="0,-262 50,-262 "/>
<text text-anchor="middle" x="25" y="-250" font-family="Helvetica,sans-Serif" font-size="10.00"> </text>
</g>
<!-- Node2&#45;&gt;Node1 -->
<g id="edge1" class="edge"><title>Node2&#45;&gt;Node1</title>
<path fill="none" stroke="midnightblue" d="M41.3594,-233.985C46.471,-223.936 52.4931,-213.26 59,-204 82.4241,-170.666 113.347,-137.212 139.375,-111.261"/>
<polygon fill="none" stroke="midnightblue" points="38.208,-232.462 36.9333,-242.98 44.4888,-235.553 38.208,-232.462"/>
</g>
<!-- Node3 -->
<g id="node3" class="node"><title>Node3</title>
<polygon fill="none" stroke="#bfbfbf" points="68.5,-243 68.5,-300 147.5,-300 147.5,-243 68.5,-243"/>
<text text-anchor="middle" x="108" y="-288" font-family="Helvetica,sans-Serif" font-size="10.00">ActionListener</text>
<polyline fill="none" stroke="#bfbfbf" points="68.5,-281 147.5,-281 "/>
<text text-anchor="middle" x="108" y="-269" font-family="Helvetica,sans-Serif" font-size="10.00"> </text>
<polyline fill="none" stroke="#bfbfbf" points="68.5,-262 147.5,-262 "/>
<text text-anchor="middle" x="108" y="-250" font-family="Helvetica,sans-Serif" font-size="10.00"> </text>
</g>
<!-- Node3&#45;&gt;Node1 -->
<g id="edge2" class="edge"><title>Node3&#45;&gt;Node1</title>
<path fill="none" stroke="midnightblue" d="M122.77,-233.574C134.926,-203.184 152.408,-159.479 166.633,-123.918"/>
<polygon fill="none" stroke="midnightblue" points="119.486,-232.361 119.022,-242.946 125.985,-234.961 119.486,-232.361"/>
</g>
<!-- Node4 -->
<g id="node4" class="node"><title>Node4</title>
<polygon fill="none" stroke="#bfbfbf" points="166,-243 166,-300 216,-300 216,-243 166,-243"/>
<text text-anchor="middle" x="191" y="-288" font-family="Helvetica,sans-Serif" font-size="10.00">JButton</text>
<polyline fill="none" stroke="#bfbfbf" points="166,-281 216,-281 "/>
<text text-anchor="middle" x="191" y="-269" font-family="Helvetica,sans-Serif" font-size="10.00"> </text>
<polyline fill="none" stroke="#bfbfbf" points="166,-262 216,-262 "/>
<text text-anchor="middle" x="191" y="-250" font-family="Helvetica,sans-Serif" font-size="10.00"> </text>
</g>
<!-- Node4&#45;&gt;Node1 -->
<g id="edge3" class="edge"><title>Node4&#45;&gt;Node1</title>
<path fill="none" stroke="#404040" d="M191,-242.946C191,-215.807 191,-173.167 191,-136.205"/>
<polygon fill="none" stroke="#404040" points="191,-135.918 187,-129.918 191,-123.918 195,-129.918 191,-135.918"/>
<text text-anchor="middle" x="208.5" y="-178" font-family="Helvetica,sans-Serif" font-size="10.00"> &#45;launch</text>
<text text-anchor="middle" x="208.5" y="-167" font-family="Helvetica,sans-Serif" font-size="10.00">&#45;detect</text>
<text text-anchor="middle" x="208.5" y="-156" font-family="Helvetica,sans-Serif" font-size="10.00">&#45;snap</text>
<text text-anchor="middle" x="208.5" y="-145" font-family="Helvetica,sans-Serif" font-size="10.00">&#45;Auto</text>
</g>
<!-- Node5 -->
<g id="node5" class="node"><title>Node5</title>
<polygon fill="none" stroke="#bfbfbf" points="234,-243 234,-300 296,-300 296,-243 234,-243"/>
<text text-anchor="middle" x="265" y="-288" font-family="Helvetica,sans-Serif" font-size="10.00">JTextField</text>
<polyline fill="none" stroke="#bfbfbf" points="234,-281 296,-281 "/>
<text text-anchor="middle" x="265" y="-269" font-family="Helvetica,sans-Serif" font-size="10.00"> </text>
<polyline fill="none" stroke="#bfbfbf" points="234,-262 296,-262 "/>
<text text-anchor="middle" x="265" y="-250" font-family="Helvetica,sans-Serif" font-size="10.00"> </text>
</g>
<!-- Node5&#45;&gt;Node1 -->
<g id="edge4" class="edge"><title>Node5&#45;&gt;Node1</title>
<path fill="none" stroke="#404040" d="M259.117,-242.941C253.114,-216.585 242.864,-175.945 230,-142 229.111,-139.653 228.175,-137.283 227.203,-134.902"/>
<polygon fill="none" stroke="#404040" points="227.142,-134.758 221.105,-130.815 222.423,-123.725 228.46,-127.669 227.142,-134.758"/>
<text text-anchor="middle" x="253" y="-161.5" font-family="Helvetica,sans-Serif" font-size="10.00"> &#45;txt</text>
</g>
<!-- Node6 -->
<g id="node6" class="node"><title>Node6</title>
<g id="a_node6"><a xlink:href="classSuchi_1_1GameArea.html" target="_top" xlink:title="{Suchi.GameArea\n|&#45; x\l&#45; y\l&#45; height\l&#45; width\l|+ GameArea()\l+ getX()\l+ getY()\l+ getHeight()\l+ getWidth()\l}">
<polygon fill="none" stroke="black" points="314.5,-204.5 314.5,-338.5 405.5,-338.5 405.5,-204.5 314.5,-204.5"/>
<text text-anchor="middle" x="360" y="-326.5" font-family="Helvetica,sans-Serif" font-size="10.00">Suchi.GameArea</text>
<polyline fill="none" stroke="black" points="314.5,-319.5 405.5,-319.5 "/>
<text text-anchor="start" x="322.5" y="-307.5" font-family="Helvetica,sans-Serif" font-size="10.00">&#45; x</text>
<text text-anchor="start" x="322.5" y="-296.5" font-family="Helvetica,sans-Serif" font-size="10.00">&#45; y</text>
<text text-anchor="start" x="322.5" y="-285.5" font-family="Helvetica,sans-Serif" font-size="10.00">&#45; height</text>
<text text-anchor="start" x="322.5" y="-274.5" font-family="Helvetica,sans-Serif" font-size="10.00">&#45; width</text>
<polyline fill="none" stroke="black" points="314.5,-267.5 405.5,-267.5 "/>
<text text-anchor="start" x="322.5" y="-255.5" font-family="Helvetica,sans-Serif" font-size="10.00">+ GameArea()</text>
<text text-anchor="start" x="322.5" y="-244.5" font-family="Helvetica,sans-Serif" font-size="10.00">+ getX()</text>
<text text-anchor="start" x="322.5" y="-233.5" font-family="Helvetica,sans-Serif" font-size="10.00">+ getY()</text>
<text text-anchor="start" x="322.5" y="-222.5" font-family="Helvetica,sans-Serif" font-size="10.00">+ getHeight()</text>
<text text-anchor="start" x="322.5" y="-211.5" font-family="Helvetica,sans-Serif" font-size="10.00">+ getWidth()</text>
</a>
</g>
</g>
<!-- Node6&#45;&gt;Node1 -->
<g id="edge5" class="edge"><title>Node6&#45;&gt;Node1</title>
<path fill="none" stroke="#404040" d="M314.476,-204.887C299.563,-184.331 282.56,-161.841 266,-142 261.229,-136.283 256.151,-130.456 250.973,-124.688"/>
<polygon fill="none" stroke="#404040" points="250.865,-124.569 243.868,-122.825 242.786,-115.696 249.783,-117.439 250.865,-124.569"/>
<text text-anchor="middle" x="307.5" y="-161.5" font-family="Helvetica,sans-Serif" font-size="10.00"> &#45;ga</text>
</g>
</g>
</svg>
