<?xml version="1.0" encoding="UTF-8" standalone="no"?>
<!DOCTYPE svg PUBLIC "-//W3C//DTD SVG 1.1//EN"
 "http://www.w3.org/Graphics/SVG/1.1/DTD/svg11.dtd">
<!-- Generated by graphviz version 2.38.0 (20140413.2041)
 -->
<!-- Title: ClicButton Pages: 1 -->
<svg width="206pt" height="419pt"
 viewBox="0.00 0.00 205.50 419.00" xmlns="http://www.w3.org/2000/svg" xmlns:xlink="http://www.w3.org/1999/xlink">
<g id="graph0" class="graph" transform="scale(1 1) rotate(0) translate(4 415)">
<title>ClicButton</title>
<!-- Node1 -->
<g id="node1" class="node"><title>Node1</title>
<polygon fill="#bfbfbf" stroke="black" points="66,-0.5 66,-101.5 146,-101.5 146,-0.5 66,-0.5"/>
<text text-anchor="middle" x="106" y="-89.5" font-family="Helvetica,sans-Serif" font-size="10.00">ClicButton</text>
<polyline fill="none" stroke="black" points="66,-82.5 146,-82.5 "/>
<text text-anchor="middle" x="106" y="-70.5" font-family="Helvetica,sans-Serif" font-size="10.00"> </text>
<polyline fill="none" stroke="black" points="66,-63.5 146,-63.5 "/>
<text text-anchor="start" x="74" y="-51.5" font-family="Helvetica,sans-Serif" font-size="10.00">+ ClicButton()</text>
<text text-anchor="start" x="74" y="-40.5" font-family="Helvetica,sans-Serif" font-size="10.00">+ clique()</text>
<text text-anchor="start" x="74" y="-29.5" font-family="Helvetica,sans-Serif" font-size="10.00">+ findX()</text>
<text text-anchor="start" x="74" y="-18.5" font-family="Helvetica,sans-Serif" font-size="10.00">+ findY()</text>
<text text-anchor="start" x="74" y="-7.5" font-family="Helvetica,sans-Serif" font-size="10.00">+ getWindow()</text>
</g>
<!-- Node2 -->
<g id="node2" class="node"><title>Node2</title>
<g id="a_node2"><a xlink:href="classSearchRatio.html" target="_top" xlink:title="{SearchRatio\n|~ config\l~ ratioX\l~ ratioY\l|+ SearchRatio()\l+ read()\l+ findR()\l}">
<polygon fill="none" stroke="black" points="0,-177 0,-278 86,-278 86,-177 0,-177"/>
<text text-anchor="middle" x="43" y="-266" font-family="Helvetica,sans-Serif" font-size="10.00">SearchRatio</text>
<polyline fill="none" stroke="black" points="0,-259 86,-259 "/>
<text text-anchor="start" x="8" y="-247" font-family="Helvetica,sans-Serif" font-size="10.00">~ config</text>
<text text-anchor="start" x="8" y="-236" font-family="Helvetica,sans-Serif" font-size="10.00">~ ratioX</text>
<text text-anchor="start" x="8" y="-225" font-family="Helvetica,sans-Serif" font-size="10.00">~ ratioY</text>
<polyline fill="none" stroke="black" points="0,-218 86,-218 "/>
<text text-anchor="start" x="8" y="-206" font-family="Helvetica,sans-Serif" font-size="10.00">+ SearchRatio()</text>
<text text-anchor="start" x="8" y="-195" font-family="Helvetica,sans-Serif" font-size="10.00">+ read()</text>
<text text-anchor="start" x="8" y="-184" font-family="Helvetica,sans-Serif" font-size="10.00">+ findR()</text>
</a>
</g>
</g>
<!-- Node2&#45;&gt;Node1 -->
<g id="edge1" class="edge"><title>Node2&#45;&gt;Node1</title>
<path fill="none" stroke="midnightblue" d="M64.3557,-167.348C72.0658,-145.992 80.6836,-122.122 88.0705,-101.662"/>
<polygon fill="none" stroke="midnightblue" points="60.9886,-166.368 60.8848,-176.962 67.5726,-168.745 60.9886,-166.368"/>
</g>
<!-- Node3 -->
<g id="node3" class="node"><title>Node3</title>
<polygon fill="none" stroke="#bfbfbf" points="27,-353.5 27,-410.5 59,-410.5 59,-353.5 27,-353.5"/>
<text text-anchor="middle" x="43" y="-398.5" font-family="Helvetica,sans-Serif" font-size="10.00">File</text>
<polyline fill="none" stroke="#bfbfbf" points="27,-391.5 59,-391.5 "/>
<text text-anchor="middle" x="43" y="-379.5" font-family="Helvetica,sans-Serif" font-size="10.00"> </text>
<polyline fill="none" stroke="#bfbfbf" points="27,-372.5 59,-372.5 "/>
<text text-anchor="middle" x="43" y="-360.5" font-family="Helvetica,sans-Serif" font-size="10.00"> </text>
</g>
<!-- Node3&#45;&gt;Node2 -->
<g id="edge2" class="edge"><title>Node3&#45;&gt;Node2</title>
<path fill="none" stroke="#404040" d="M43,-353.383C43,-335.794 43,-312.28 43,-290.401"/>
<polygon fill="none" stroke="#404040" points="43.0001,-290.114 39,-284.114 43,-278.114 47,-284.114 43.0001,-290.114"/>
<text text-anchor="middle" x="54" y="-327" font-family="Helvetica,sans-Serif" font-size="10.00"> ~file</text>
</g>
<!-- Node4 -->
<g id="node4" class="node"><title>Node4</title>
<g id="a_node4"><a xlink:href="classGameWindow.html" target="_top" xlink:title="{GameWindow\n||+ GameWindow()\l+ xGauche()\l+ xDroit()\l+ yHaut()\l+ returnCropped()\l+ getImg()\l+ getWindowH()\l+ getWindowW()\l+ getDepart()\l+ main()\l}">
<polygon fill="none" stroke="black" points="104.5,-149.5 104.5,-305.5 197.5,-305.5 197.5,-149.5 104.5,-149.5"/>
<text text-anchor="middle" x="151" y="-293.5" font-family="Helvetica,sans-Serif" font-size="10.00">GameWindow</text>
<polyline fill="none" stroke="black" points="104.5,-286.5 197.5,-286.5 "/>
<text text-anchor="middle" x="151" y="-274.5" font-family="Helvetica,sans-Serif" font-size="10.00"> </text>
<polyline fill="none" stroke="black" points="104.5,-267.5 197.5,-267.5 "/>
<text text-anchor="start" x="112.5" y="-255.5" font-family="Helvetica,sans-Serif" font-size="10.00">+ GameWindow()</text>
<text text-anchor="start" x="112.5" y="-244.5" font-family="Helvetica,sans-Serif" font-size="10.00">+ xGauche()</text>
<text text-anchor="start" x="112.5" y="-233.5" font-family="Helvetica,sans-Serif" font-size="10.00">+ xDroit()</text>
<text text-anchor="start" x="112.5" y="-222.5" font-family="Helvetica,sans-Serif" font-size="10.00">+ yHaut()</text>
<text text-anchor="start" x="112.5" y="-211.5" font-family="Helvetica,sans-Serif" font-size="10.00">+ returnCropped()</text>
<text text-anchor="start" x="112.5" y="-200.5" font-family="Helvetica,sans-Serif" font-size="10.00">+ getImg()</text>
<text text-anchor="start" x="112.5" y="-189.5" font-family="Helvetica,sans-Serif" font-size="10.00">+ getWindowH()</text>
<text text-anchor="start" x="112.5" y="-178.5" font-family="Helvetica,sans-Serif" font-size="10.00">+ getWindowW()</text>
<text text-anchor="start" x="112.5" y="-167.5" font-family="Helvetica,sans-Serif" font-size="10.00">+ getDepart()</text>
<text text-anchor="start" x="112.5" y="-156.5" font-family="Helvetica,sans-Serif" font-size="10.00">+ main()</text>
</a>
</g>
</g>
<!-- Node4&#45;&gt;Node1 -->
<g id="edge3" class="edge"><title>Node4&#45;&gt;Node1</title>
<path fill="none" stroke="#404040" d="M131.131,-149.454C128.021,-137.392 124.842,-125.067 121.838,-113.417"/>
<polygon fill="none" stroke="#404040" points="121.777,-113.18 116.405,-108.369 118.78,-101.56 124.152,-106.371 121.777,-113.18"/>
<text text-anchor="middle" x="147.5" y="-123" font-family="Helvetica,sans-Serif" font-size="10.00"> ~window</text>
</g>
<!-- Node5 -->
<g id="node5" class="node"><title>Node5</title>
<polygon fill="none" stroke="#bfbfbf" points="111,-353.5 111,-410.5 191,-410.5 191,-353.5 111,-353.5"/>
<text text-anchor="middle" x="151" y="-398.5" font-family="Helvetica,sans-Serif" font-size="10.00">BufferedImage</text>
<polyline fill="none" stroke="#bfbfbf" points="111,-391.5 191,-391.5 "/>
<text text-anchor="middle" x="151" y="-379.5" font-family="Helvetica,sans-Serif" font-size="10.00"> </text>
<polyline fill="none" stroke="#bfbfbf" points="111,-372.5 191,-372.5 "/>
<text text-anchor="middle" x="151" y="-360.5" font-family="Helvetica,sans-Serif" font-size="10.00"> </text>
</g>
<!-- Node5&#45;&gt;Node4 -->
<g id="edge4" class="edge"><title>Node5&#45;&gt;Node4</title>
<path fill="none" stroke="#404040" d="M151,-353.383C151,-343.106 151,-330.806 151,-317.991"/>
<polygon fill="none" stroke="#404040" points="151,-317.596 147,-311.596 151,-305.596 155,-311.596 151,-317.596"/>
<text text-anchor="middle" x="162" y="-327" font-family="Helvetica,sans-Serif" font-size="10.00"> &#45;img</text>
</g>
</g>
</svg>
