<?xml version="1.0" encoding="UTF-8" standalone="no"?>
<!DOCTYPE svg PUBLIC "-//W3C//DTD SVG 1.1//EN"
 "http://www.w3.org/Graphics/SVG/1.1/DTD/svg11.dtd">
<!-- Generated by graphviz version 2.38.0 (20140413.2041)
 -->
<!-- Title: main.Service Pages: 1 -->
<svg width="82pt" height="171pt"
 viewBox="0.00 0.00 82.00 171.00" xmlns="http://www.w3.org/2000/svg" xmlns:xlink="http://www.w3.org/1999/xlink">
<g id="graph0" class="graph" transform="scale(1 1) rotate(0) translate(4 167)">
<title>main.Service</title>
<!-- Node1 -->
<g id="node1" class="node"><title>Node1</title>
<polygon fill="#bfbfbf" stroke="black" points="0,-0.5 0,-68.5 74,-68.5 74,-0.5 0,-0.5"/>
<text text-anchor="middle" x="37" y="-56.5" font-family="Helvetica,sans-Serif" font-size="10.00">main.Service</text>
<polyline fill="none" stroke="black" points="0,-49.5 74,-49.5 "/>
<text text-anchor="middle" x="37" y="-37.5" font-family="Helvetica,sans-Serif" font-size="10.00"> </text>
<polyline fill="none" stroke="black" points="0,-30.5 74,-30.5 "/>
<text text-anchor="start" x="8" y="-18.5" font-family="Helvetica,sans-Serif" font-size="10.00">+ Service()</text>
<text text-anchor="start" x="8" y="-7.5" font-family="Helvetica,sans-Serif" font-size="10.00">+ run()</text>
</g>
<!-- Node2 -->
<g id="node2" class="node"><title>Node2</title>
<polygon fill="none" stroke="#bfbfbf" points="13.5,-105.5 13.5,-162.5 60.5,-162.5 60.5,-105.5 13.5,-105.5"/>
<text text-anchor="middle" x="37" y="-150.5" font-family="Helvetica,sans-Serif" font-size="10.00">Thread</text>
<polyline fill="none" stroke="#bfbfbf" points="13.5,-143.5 60.5,-143.5 "/>
<text text-anchor="middle" x="37" y="-131.5" font-family="Helvetica,sans-Serif" font-size="10.00"> </text>
<polyline fill="none" stroke="#bfbfbf" points="13.5,-124.5 60.5,-124.5 "/>
<text text-anchor="middle" x="37" y="-112.5" font-family="Helvetica,sans-Serif" font-size="10.00"> </text>
</g>
<!-- Node2&#45;&gt;Node1 -->
<g id="edge1" class="edge"><title>Node2&#45;&gt;Node1</title>
<path fill="none" stroke="midnightblue" d="M37,-95.0631C37,-86.3933 37,-77.2431 37,-68.7855"/>
<polygon fill="none" stroke="midnightblue" points="33.5001,-95.3212 37,-105.321 40.5001,-95.3212 33.5001,-95.3212"/>
</g>
</g>
</svg>
