<?xml version="1.0" encoding="UTF-8" standalone="no"?>
<!DOCTYPE svg PUBLIC "-//W3C//DTD SVG 1.1//EN"
 "http://www.w3.org/Graphics/SVG/1.1/DTD/svg11.dtd">
<!-- Generated by graphviz version 2.38.0 (20140413.2041)
 -->
<!-- Title: TestSushi.src.Suchi.Recette Pages: 1 -->
<svg width="787pt" height="512pt"
 viewBox="0.00 0.00 787.00 512.00" xmlns="http://www.w3.org/2000/svg" xmlns:xlink="http://www.w3.org/1999/xlink">
<g id="graph0" class="graph" transform="scale(1 1) rotate(0) translate(4 508)">
<title>TestSushi.src.Suchi.Recette</title>
<!-- Node1 -->
<g id="node1" class="node"><title>Node1</title>
<polygon fill="#bfbfbf" stroke="black" points="311,-138.5 311,-503.5 454,-503.5 454,-138.5 311,-138.5"/>
<text text-anchor="middle" x="382.5" y="-491.5" font-family="Helvetica,sans-Serif" font-size="10.00">TestSushi.src.Suchi.Recette</text>
<polyline fill="none" stroke="black" points="311,-484.5 454,-484.5 "/>
<text text-anchor="start" x="319" y="-472.5" font-family="Helvetica,sans-Serif" font-size="10.00"># egggris</text>
<text text-anchor="start" x="319" y="-461.5" font-family="Helvetica,sans-Serif" font-size="10.00"># norigris</text>
<text text-anchor="start" x="319" y="-450.5" font-family="Helvetica,sans-Serif" font-size="10.00"># saumongris</text>
<text text-anchor="start" x="319" y="-439.5" font-family="Helvetica,sans-Serif" font-size="10.00"># ricegris</text>
<text text-anchor="start" x="319" y="-428.5" font-family="Helvetica,sans-Serif" font-size="10.00"># shrimpGris</text>
<text text-anchor="start" x="319" y="-417.5" font-family="Helvetica,sans-Serif" font-size="10.00"># phone</text>
<text text-anchor="start" x="319" y="-406.5" font-family="Helvetica,sans-Serif" font-size="10.00"># exitPhone</text>
<text text-anchor="start" x="319" y="-395.5" font-family="Helvetica,sans-Serif" font-size="10.00"># RiceC</text>
<text text-anchor="start" x="319" y="-384.5" font-family="Helvetica,sans-Serif" font-size="10.00"># RiceCbuy</text>
<text text-anchor="start" x="319" y="-373.5" font-family="Helvetica,sans-Serif" font-size="10.00"># Topping</text>
<text text-anchor="start" x="319" y="-362.5" font-family="Helvetica,sans-Serif" font-size="10.00">et 8 de plus...</text>
<text text-anchor="start" x="319" y="-351.5" font-family="Helvetica,sans-Serif" font-size="10.00"># Rice</text>
<text text-anchor="start" x="319" y="-340.5" font-family="Helvetica,sans-Serif" font-size="10.00"># Roe</text>
<text text-anchor="start" x="319" y="-329.5" font-family="Helvetica,sans-Serif" font-size="10.00"># Noori</text>
<text text-anchor="start" x="319" y="-318.5" font-family="Helvetica,sans-Serif" font-size="10.00"># salmon</text>
<text text-anchor="start" x="319" y="-307.5" font-family="Helvetica,sans-Serif" font-size="10.00"># shrimp</text>
<polyline fill="none" stroke="black" points="311,-300.5 454,-300.5 "/>
<text text-anchor="start" x="319" y="-288.5" font-family="Helvetica,sans-Serif" font-size="10.00">+ useRice()</text>
<text text-anchor="start" x="319" y="-277.5" font-family="Helvetica,sans-Serif" font-size="10.00">+ useRoe()</text>
<text text-anchor="start" x="319" y="-266.5" font-family="Helvetica,sans-Serif" font-size="10.00">+ useNoori()</text>
<text text-anchor="start" x="319" y="-255.5" font-family="Helvetica,sans-Serif" font-size="10.00">+ useSalmon()</text>
<text text-anchor="start" x="319" y="-244.5" font-family="Helvetica,sans-Serif" font-size="10.00">+ useShrimp()</text>
<text text-anchor="start" x="319" y="-233.5" font-family="Helvetica,sans-Serif" font-size="10.00">+ checkAliment()</text>
<text text-anchor="start" x="319" y="-222.5" font-family="Helvetica,sans-Serif" font-size="10.00">+ phoneClick()</text>
<text text-anchor="start" x="319" y="-211.5" font-family="Helvetica,sans-Serif" font-size="10.00">+ validatePhone()</text>
<text text-anchor="start" x="319" y="-200.5" font-family="Helvetica,sans-Serif" font-size="10.00">+ buyRice()</text>
<text text-anchor="start" x="319" y="-189.5" font-family="Helvetica,sans-Serif" font-size="10.00">+ buyRoe()</text>
<text text-anchor="start" x="319" y="-178.5" font-family="Helvetica,sans-Serif" font-size="10.00">+ buyNoori()</text>
<text text-anchor="start" x="319" y="-167.5" font-family="Helvetica,sans-Serif" font-size="10.00">+ buySalmon()</text>
<text text-anchor="start" x="319" y="-156.5" font-family="Helvetica,sans-Serif" font-size="10.00">+ buyShrimp()</text>
<text text-anchor="start" x="319" y="-145.5" font-family="Helvetica,sans-Serif" font-size="10.00">+ resetAliments()</text>
</g>
<!-- Node2 -->
<g id="node2" class="node"><title>Node2</title>
<g id="a_node2"><a xlink:href="classTestSushi_1_1src_1_1Suchi_1_1California.html" target="_top" xlink:title="{TestSushi.src.Suchi.California\n|~ Noori\l~ Roe\l&#45; Rice\l|+ make()\l+ validate()\l~ California()\l}">
<polygon fill="none" stroke="black" points="0,-0.5 0,-101.5 149,-101.5 149,-0.5 0,-0.5"/>
<text text-anchor="middle" x="74.5" y="-89.5" font-family="Helvetica,sans-Serif" font-size="10.00">TestSushi.src.Suchi.California</text>
<polyline fill="none" stroke="black" points="0,-82.5 149,-82.5 "/>
<text text-anchor="start" x="8" y="-70.5" font-family="Helvetica,sans-Serif" font-size="10.00">~ Noori</text>
<text text-anchor="start" x="8" y="-59.5" font-family="Helvetica,sans-Serif" font-size="10.00">~ Roe</text>
<text text-anchor="start" x="8" y="-48.5" font-family="Helvetica,sans-Serif" font-size="10.00">&#45; Rice</text>
<polyline fill="none" stroke="black" points="0,-41.5 149,-41.5 "/>
<text text-anchor="start" x="8" y="-29.5" font-family="Helvetica,sans-Serif" font-size="10.00">+ make()</text>
<text text-anchor="start" x="8" y="-18.5" font-family="Helvetica,sans-Serif" font-size="10.00">+ validate()</text>
<text text-anchor="start" x="8" y="-7.5" font-family="Helvetica,sans-Serif" font-size="10.00">~ California()</text>
</a>
</g>
</g>
<!-- Node1&#45;&gt;Node2 -->
<g id="edge1" class="edge"><title>Node1&#45;&gt;Node2</title>
<path fill="none" stroke="midnightblue" d="M302.878,-250.719C249.215,-204.025 179.695,-143.533 131.522,-101.616"/>
<polygon fill="none" stroke="midnightblue" points="300.835,-253.58 310.676,-257.504 305.43,-248.3 300.835,-253.58"/>
</g>
<!-- Node3 -->
<g id="node3" class="node"><title>Node3</title>
<g id="a_node3"><a xlink:href="classTestSushi_1_1src_1_1Suchi_1_1Maki.html" target="_top" xlink:title="{TestSushi.src.Suchi.Maki\n|~ Noori\l~ Roe\l&#45; Rice\l|+ make()\l+ validate()\l~ Maki()\l}">
<polygon fill="none" stroke="black" points="167,-0.5 167,-101.5 296,-101.5 296,-0.5 167,-0.5"/>
<text text-anchor="middle" x="231.5" y="-89.5" font-family="Helvetica,sans-Serif" font-size="10.00">TestSushi.src.Suchi.Maki</text>
<polyline fill="none" stroke="black" points="167,-82.5 296,-82.5 "/>
<text text-anchor="start" x="175" y="-70.5" font-family="Helvetica,sans-Serif" font-size="10.00">~ Noori</text>
<text text-anchor="start" x="175" y="-59.5" font-family="Helvetica,sans-Serif" font-size="10.00">~ Roe</text>
<text text-anchor="start" x="175" y="-48.5" font-family="Helvetica,sans-Serif" font-size="10.00">&#45; Rice</text>
<polyline fill="none" stroke="black" points="167,-41.5 296,-41.5 "/>
<text text-anchor="start" x="175" y="-29.5" font-family="Helvetica,sans-Serif" font-size="10.00">+ make()</text>
<text text-anchor="start" x="175" y="-18.5" font-family="Helvetica,sans-Serif" font-size="10.00">+ validate()</text>
<text text-anchor="start" x="175" y="-7.5" font-family="Helvetica,sans-Serif" font-size="10.00">~ Maki()</text>
</a>
</g>
</g>
<!-- Node1&#45;&gt;Node3 -->
<g id="edge2" class="edge"><title>Node1&#45;&gt;Node3</title>
<path fill="none" stroke="midnightblue" d="M306.044,-184.304C289.374,-154.716 272.765,-125.239 259.471,-101.644"/>
<polygon fill="none" stroke="midnightblue" points="303.022,-186.069 310.98,-193.063 309.12,-182.633 303.022,-186.069"/>
</g>
<!-- Node4 -->
<g id="node4" class="node"><title>Node4</title>
<g id="a_node4"><a xlink:href="classTestSushi_1_1src_1_1Suchi_1_1Onigiri.html" target="_top" xlink:title="{TestSushi.src.Suchi.Onigiri\n|~ Noori\l&#45; Rice\l|+ Onigiri()\l+ make()\l+ validate()\l}">
<polygon fill="none" stroke="black" points="314.5,-6 314.5,-96 450.5,-96 450.5,-6 314.5,-6"/>
<text text-anchor="middle" x="382.5" y="-84" font-family="Helvetica,sans-Serif" font-size="10.00">TestSushi.src.Suchi.Onigiri</text>
<polyline fill="none" stroke="black" points="314.5,-77 450.5,-77 "/>
<text text-anchor="start" x="322.5" y="-65" font-family="Helvetica,sans-Serif" font-size="10.00">~ Noori</text>
<text text-anchor="start" x="322.5" y="-54" font-family="Helvetica,sans-Serif" font-size="10.00">&#45; Rice</text>
<polyline fill="none" stroke="black" points="314.5,-47 450.5,-47 "/>
<text text-anchor="start" x="322.5" y="-35" font-family="Helvetica,sans-Serif" font-size="10.00">+ Onigiri()</text>
<text text-anchor="start" x="322.5" y="-24" font-family="Helvetica,sans-Serif" font-size="10.00">+ make()</text>
<text text-anchor="start" x="322.5" y="-13" font-family="Helvetica,sans-Serif" font-size="10.00">+ validate()</text>
</a>
</g>
</g>
<!-- Node1&#45;&gt;Node4 -->
<g id="edge3" class="edge"><title>Node1&#45;&gt;Node4</title>
<path fill="none" stroke="midnightblue" d="M382.5,-128.025C382.5,-116.557 382.5,-105.791 382.5,-96.1703"/>
<polygon fill="none" stroke="midnightblue" points="379,-128.272 382.5,-138.272 386,-128.272 379,-128.272"/>
</g>
<!-- Node5 -->
<g id="node5" class="node"><title>Node5</title>
<g id="a_node5"><a xlink:href="classTestSushi_1_1src_1_1Suchi_1_1Salmon.html" target="_top" xlink:title="{TestSushi.src.Suchi.Salmon\n|~ Noori\l~ Saumon\l&#45; Rice\l|+ make()\l+ validate()\l~ Salmon()\l}">
<polygon fill="none" stroke="black" points="469,-0.5 469,-101.5 610,-101.5 610,-0.5 469,-0.5"/>
<text text-anchor="middle" x="539.5" y="-89.5" font-family="Helvetica,sans-Serif" font-size="10.00">TestSushi.src.Suchi.Salmon</text>
<polyline fill="none" stroke="black" points="469,-82.5 610,-82.5 "/>
<text text-anchor="start" x="477" y="-70.5" font-family="Helvetica,sans-Serif" font-size="10.00">~ Noori</text>
<text text-anchor="start" x="477" y="-59.5" font-family="Helvetica,sans-Serif" font-size="10.00">~ Saumon</text>
<text text-anchor="start" x="477" y="-48.5" font-family="Helvetica,sans-Serif" font-size="10.00">&#45; Rice</text>
<polyline fill="none" stroke="black" points="469,-41.5 610,-41.5 "/>
<text text-anchor="start" x="477" y="-29.5" font-family="Helvetica,sans-Serif" font-size="10.00">+ make()</text>
<text text-anchor="start" x="477" y="-18.5" font-family="Helvetica,sans-Serif" font-size="10.00">+ validate()</text>
<text text-anchor="start" x="477" y="-7.5" font-family="Helvetica,sans-Serif" font-size="10.00">~ Salmon()</text>
</a>
</g>
</g>
<!-- Node1&#45;&gt;Node5 -->
<g id="edge4" class="edge"><title>Node1&#45;&gt;Node5</title>
<path fill="none" stroke="midnightblue" d="M459.248,-188.991C477.491,-157.849 495.861,-126.492 510.413,-101.651"/>
<polygon fill="none" stroke="midnightblue" points="456.143,-187.366 454.108,-197.764 462.183,-190.905 456.143,-187.366"/>
</g>
<!-- Node6 -->
<g id="node6" class="node"><title>Node6</title>
<g id="a_node6"><a xlink:href="classTestSushi_1_1src_1_1Suchi_1_1ShrimpSh.html" target="_top" xlink:title="{TestSushi.src.Suchi.ShrimpSh\n|~ Noori\l~ shrimp\l&#45; Rice\l|+ ShrimpSh()\l+ make()\l+ validate()\l}">
<polygon fill="none" stroke="black" points="628,-0.5 628,-101.5 779,-101.5 779,-0.5 628,-0.5"/>
<text text-anchor="middle" x="703.5" y="-89.5" font-family="Helvetica,sans-Serif" font-size="10.00">TestSushi.src.Suchi.ShrimpSh</text>
<polyline fill="none" stroke="black" points="628,-82.5 779,-82.5 "/>
<text text-anchor="start" x="636" y="-70.5" font-family="Helvetica,sans-Serif" font-size="10.00">~ Noori</text>
<text text-anchor="start" x="636" y="-59.5" font-family="Helvetica,sans-Serif" font-size="10.00">~ shrimp</text>
<text text-anchor="start" x="636" y="-48.5" font-family="Helvetica,sans-Serif" font-size="10.00">&#45; Rice</text>
<polyline fill="none" stroke="black" points="628,-41.5 779,-41.5 "/>
<text text-anchor="start" x="636" y="-29.5" font-family="Helvetica,sans-Serif" font-size="10.00">+ ShrimpSh()</text>
<text text-anchor="start" x="636" y="-18.5" font-family="Helvetica,sans-Serif" font-size="10.00">+ make()</text>
<text text-anchor="start" x="636" y="-7.5" font-family="Helvetica,sans-Serif" font-size="10.00">+ validate()</text>
</a>
</g>
</g>
<!-- Node1&#45;&gt;Node6 -->
<g id="edge5" class="edge"><title>Node1&#45;&gt;Node6</title>
<path fill="none" stroke="midnightblue" d="M461.975,-253.647C518.389,-206.548 592.907,-144.333 644.172,-101.532"/>
<polygon fill="none" stroke="midnightblue" points="459.572,-251.093 454.139,-260.189 464.059,-256.467 459.572,-251.093"/>
</g>
</g>
</svg>
