<?xml version="1.0" encoding="UTF-8" standalone="no"?>
<!DOCTYPE svg PUBLIC "-//W3C//DTD SVG 1.1//EN"
 "http://www.w3.org/Graphics/SVG/1.1/DTD/svg11.dtd">
<!-- Generated by graphviz version 2.38.0 (20140413.2041)
 -->
<!-- Title: Suchi.Toolbox Pages: 1 -->
<svg width="365pt" height="617pt"
 viewBox="0.00 0.00 365.00 617.00" xmlns="http://www.w3.org/2000/svg" xmlns:xlink="http://www.w3.org/1999/xlink">
<g id="graph0" class="graph" transform="scale(1 1) rotate(0) translate(4 613)">
<title>Suchi.Toolbox</title>
<!-- Node1 -->
<g id="node1" class="node"><title>Node1</title>
<polygon fill="#bfbfbf" stroke="black" points="95.5,-0.5 95.5,-123.5 202.5,-123.5 202.5,-0.5 95.5,-0.5"/>
<text text-anchor="middle" x="149" y="-111.5" font-family="Helvetica,sans-Serif" font-size="10.00">Suchi.Toolbox</text>
<polyline fill="none" stroke="black" points="95.5,-104.5 202.5,-104.5 "/>
<text text-anchor="start" x="103.5" y="-92.5" font-family="Helvetica,sans-Serif" font-size="10.00">~ height</text>
<text text-anchor="start" x="103.5" y="-81.5" font-family="Helvetica,sans-Serif" font-size="10.00">&#45; width</text>
<text text-anchor="start" x="103.5" y="-70.5" font-family="Helvetica,sans-Serif" font-size="10.00">&#45; serialVersionUID</text>
<polyline fill="none" stroke="black" points="95.5,-63.5 202.5,-63.5 "/>
<text text-anchor="start" x="103.5" y="-51.5" font-family="Helvetica,sans-Serif" font-size="10.00">+ Toolbox()</text>
<text text-anchor="start" x="103.5" y="-40.5" font-family="Helvetica,sans-Serif" font-size="10.00">+ launch()</text>
<text text-anchor="start" x="103.5" y="-29.5" font-family="Helvetica,sans-Serif" font-size="10.00">+ gameRoutine()</text>
<text text-anchor="start" x="103.5" y="-18.5" font-family="Helvetica,sans-Serif" font-size="10.00">+ detectGameZone()</text>
<text text-anchor="start" x="103.5" y="-7.5" font-family="Helvetica,sans-Serif" font-size="10.00">+ actionPerformed()</text>
</g>
<!-- Node2 -->
<g id="node2" class="node"><title>Node2</title>
<polygon fill="none" stroke="#bfbfbf" points="0,-303.5 0,-360.5 50,-360.5 50,-303.5 0,-303.5"/>
<text text-anchor="middle" x="25" y="-348.5" font-family="Helvetica,sans-Serif" font-size="10.00">JFrame</text>
<polyline fill="none" stroke="#bfbfbf" points="0,-341.5 50,-341.5 "/>
<text text-anchor="middle" x="25" y="-329.5" font-family="Helvetica,sans-Serif" font-size="10.00"> </text>
<polyline fill="none" stroke="#bfbfbf" points="0,-322.5 50,-322.5 "/>
<text text-anchor="middle" x="25" y="-310.5" font-family="Helvetica,sans-Serif" font-size="10.00"> </text>
</g>
<!-- Node2&#45;&gt;Node1 -->
<g id="edge1" class="edge"><title>Node2&#45;&gt;Node1</title>
<path fill="none" stroke="midnightblue" d="M27.8695,-293.086C31.5887,-259.568 40.0271,-210.071 59,-171 68.3288,-151.789 81.7948,-133.094 95.4799,-116.805"/>
<polygon fill="none" stroke="midnightblue" points="24.3531,-293.07 26.8204,-303.374 31.3169,-293.78 24.3531,-293.07"/>
</g>
<!-- Node3 -->
<g id="node3" class="node"><title>Node3</title>
<polygon fill="none" stroke="#bfbfbf" points="68.5,-303.5 68.5,-360.5 147.5,-360.5 147.5,-303.5 68.5,-303.5"/>
<text text-anchor="middle" x="108" y="-348.5" font-family="Helvetica,sans-Serif" font-size="10.00">ActionListener</text>
<polyline fill="none" stroke="#bfbfbf" points="68.5,-341.5 147.5,-341.5 "/>
<text text-anchor="middle" x="108" y="-329.5" font-family="Helvetica,sans-Serif" font-size="10.00"> </text>
<polyline fill="none" stroke="#bfbfbf" points="68.5,-322.5 147.5,-322.5 "/>
<text text-anchor="middle" x="108" y="-310.5" font-family="Helvetica,sans-Serif" font-size="10.00"> </text>
</g>
<!-- Node3&#45;&gt;Node1 -->
<g id="edge2" class="edge"><title>Node3&#45;&gt;Node1</title>
<path fill="none" stroke="midnightblue" d="M113.763,-293.328C120.502,-249.277 131.749,-175.765 139.722,-123.649"/>
<polygon fill="none" stroke="midnightblue" points="110.286,-292.914 112.233,-303.329 117.205,-293.973 110.286,-292.914"/>
</g>
<!-- Node4 -->
<g id="node4" class="node"><title>Node4</title>
<polygon fill="none" stroke="#bfbfbf" points="166,-303.5 166,-360.5 216,-360.5 216,-303.5 166,-303.5"/>
<text text-anchor="middle" x="191" y="-348.5" font-family="Helvetica,sans-Serif" font-size="10.00">JButton</text>
<polyline fill="none" stroke="#bfbfbf" points="166,-341.5 216,-341.5 "/>
<text text-anchor="middle" x="191" y="-329.5" font-family="Helvetica,sans-Serif" font-size="10.00"> </text>
<polyline fill="none" stroke="#bfbfbf" points="166,-322.5 216,-322.5 "/>
<text text-anchor="middle" x="191" y="-310.5" font-family="Helvetica,sans-Serif" font-size="10.00"> </text>
</g>
<!-- Node4&#45;&gt;Node1 -->
<g id="edge3" class="edge"><title>Node4&#45;&gt;Node1</title>
<path fill="none" stroke="#404040" d="M186.663,-303.329C180.513,-264.081 169.039,-190.87 160.366,-135.523"/>
<polygon fill="none" stroke="#404040" points="160.363,-135.504 155.482,-130.195 158.505,-123.649 163.385,-128.957 160.363,-135.504"/>
<text text-anchor="middle" x="180" y="-145" font-family="Helvetica,sans-Serif" font-size="10.00"> &#45;detect</text>
</g>
<!-- Node5 -->
<g id="node5" class="node"><title>Node5</title>
<g id="a_node5"><a xlink:href="classSuchi_1_1Game.html" target="_top" xlink:title="{Suchi.Game\n|&#45; youwin1\l&#45; youwin2\l&#45; youwin\l|+ Game()\l+ startGame()\l+ youWinLevel1()\l+ youWinLevel2()\l+ startLevel1()\l+ startLevel2()\l+ startLevel3()\l+ Game()\l+ createScreenImage()\l+ start()\l+ continuee()\l+ continue2()\l+ skip()\l+ youWin()\l+ getGame()\l+ setZoneWin()\l+ getOrigin()\l+ setOrigin()\l+ getGameZone()\l+ setGameZone()\l+ main()\l+ getScreen()\l+ main()\l}">
<polygon fill="none" stroke="black" points="234,-171.5 234,-492.5 350,-492.5 350,-171.5 234,-171.5"/>
<text text-anchor="middle" x="292" y="-480.5" font-family="Helvetica,sans-Serif" font-size="10.00">Suchi.Game</text>
<polyline fill="none" stroke="black" points="234,-473.5 350,-473.5 "/>
<text text-anchor="start" x="242" y="-461.5" font-family="Helvetica,sans-Serif" font-size="10.00">&#45; youwin1</text>
<text text-anchor="start" x="242" y="-450.5" font-family="Helvetica,sans-Serif" font-size="10.00">&#45; youwin2</text>
<text text-anchor="start" x="242" y="-439.5" font-family="Helvetica,sans-Serif" font-size="10.00">&#45; youwin</text>
<polyline fill="none" stroke="black" points="234,-432.5 350,-432.5 "/>
<text text-anchor="start" x="242" y="-420.5" font-family="Helvetica,sans-Serif" font-size="10.00">+ Game()</text>
<text text-anchor="start" x="242" y="-409.5" font-family="Helvetica,sans-Serif" font-size="10.00">+ startGame()</text>
<text text-anchor="start" x="242" y="-398.5" font-family="Helvetica,sans-Serif" font-size="10.00">+ youWinLevel1()</text>
<text text-anchor="start" x="242" y="-387.5" font-family="Helvetica,sans-Serif" font-size="10.00">+ youWinLevel2()</text>
<text text-anchor="start" x="242" y="-376.5" font-family="Helvetica,sans-Serif" font-size="10.00">+ startLevel1()</text>
<text text-anchor="start" x="242" y="-365.5" font-family="Helvetica,sans-Serif" font-size="10.00">+ startLevel2()</text>
<text text-anchor="start" x="242" y="-354.5" font-family="Helvetica,sans-Serif" font-size="10.00">+ startLevel3()</text>
<text text-anchor="start" x="242" y="-343.5" font-family="Helvetica,sans-Serif" font-size="10.00">+ Game()</text>
<text text-anchor="start" x="242" y="-332.5" font-family="Helvetica,sans-Serif" font-size="10.00">+ createScreenImage()</text>
<text text-anchor="start" x="242" y="-321.5" font-family="Helvetica,sans-Serif" font-size="10.00">+ start()</text>
<text text-anchor="start" x="242" y="-310.5" font-family="Helvetica,sans-Serif" font-size="10.00">+ continuee()</text>
<text text-anchor="start" x="242" y="-299.5" font-family="Helvetica,sans-Serif" font-size="10.00">+ continue2()</text>
<text text-anchor="start" x="242" y="-288.5" font-family="Helvetica,sans-Serif" font-size="10.00">+ skip()</text>
<text text-anchor="start" x="242" y="-277.5" font-family="Helvetica,sans-Serif" font-size="10.00">+ youWin()</text>
<text text-anchor="start" x="242" y="-266.5" font-family="Helvetica,sans-Serif" font-size="10.00">+ getGame()</text>
<text text-anchor="start" x="242" y="-255.5" font-family="Helvetica,sans-Serif" font-size="10.00">+ setZoneWin()</text>
<text text-anchor="start" x="242" y="-244.5" font-family="Helvetica,sans-Serif" font-size="10.00">+ getOrigin()</text>
<text text-anchor="start" x="242" y="-233.5" font-family="Helvetica,sans-Serif" font-size="10.00">+ setOrigin()</text>
<text text-anchor="start" x="242" y="-222.5" font-family="Helvetica,sans-Serif" font-size="10.00">+ getGameZone()</text>
<text text-anchor="start" x="242" y="-211.5" font-family="Helvetica,sans-Serif" font-size="10.00">+ setGameZone()</text>
<text text-anchor="start" x="242" y="-200.5" font-family="Helvetica,sans-Serif" font-size="10.00">+ main()</text>
<text text-anchor="start" x="242" y="-189.5" font-family="Helvetica,sans-Serif" font-size="10.00">+ getScreen()</text>
<text text-anchor="start" x="242" y="-178.5" font-family="Helvetica,sans-Serif" font-size="10.00">+ main()</text>
</a>
</g>
</g>
<!-- Node5&#45;&gt;Node1 -->
<g id="edge4" class="edge"><title>Node5&#45;&gt;Node1</title>
<path fill="none" stroke="#404040" d="M233.801,-187.631C230.924,-181.967 227.986,-176.403 225,-171 218.155,-158.615 210.194,-145.925 202.051,-133.796"/>
<polygon fill="none" stroke="#404040" points="201.962,-133.665 195.274,-130.969 195.19,-123.759 201.878,-126.454 201.962,-133.665"/>
<text text-anchor="middle" x="220" y="-145" font-family="Helvetica,sans-Serif" font-size="10.00"> &#45;g</text>
</g>
<!-- Node6 -->
<g id="node6" class="node"><title>Node6</title>
<polygon fill="none" stroke="#bfbfbf" points="217.5,-551.5 217.5,-608.5 278.5,-608.5 278.5,-551.5 217.5,-551.5"/>
<text text-anchor="middle" x="248" y="-596.5" font-family="Helvetica,sans-Serif" font-size="10.00">Rectangle</text>
<polyline fill="none" stroke="#bfbfbf" points="217.5,-589.5 278.5,-589.5 "/>
<text text-anchor="middle" x="248" y="-577.5" font-family="Helvetica,sans-Serif" font-size="10.00"> </text>
<polyline fill="none" stroke="#bfbfbf" points="217.5,-570.5 278.5,-570.5 "/>
<text text-anchor="middle" x="248" y="-558.5" font-family="Helvetica,sans-Serif" font-size="10.00"> </text>
</g>
<!-- Node6&#45;&gt;Node5 -->
<g id="edge5" class="edge"><title>Node6&#45;&gt;Node5</title>
<path fill="none" stroke="#404040" d="M247.02,-551.441C246.934,-539.036 247.325,-524.236 249,-511 249.261,-508.94 249.536,-506.869 249.825,-504.79"/>
<polygon fill="none" stroke="#404040" points="249.844,-504.663 246.779,-498.136 251.625,-492.796 254.69,-499.323 249.844,-504.663"/>
<text text-anchor="middle" x="281.5" y="-525" font-family="Helvetica,sans-Serif" font-size="10.00"> +zoneYouWin</text>
<text text-anchor="middle" x="281.5" y="-514" font-family="Helvetica,sans-Serif" font-size="10.00">&#45;gameZone</text>
</g>
<!-- Node7 -->
<g id="node7" class="node"><title>Node7</title>
<polygon fill="none" stroke="#bfbfbf" points="316.5,-551.5 316.5,-608.5 355.5,-608.5 355.5,-551.5 316.5,-551.5"/>
<text text-anchor="middle" x="336" y="-596.5" font-family="Helvetica,sans-Serif" font-size="10.00">Point</text>
<polyline fill="none" stroke="#bfbfbf" points="316.5,-589.5 355.5,-589.5 "/>
<text text-anchor="middle" x="336" y="-577.5" font-family="Helvetica,sans-Serif" font-size="10.00"> </text>
<polyline fill="none" stroke="#bfbfbf" points="316.5,-570.5 355.5,-570.5 "/>
<text text-anchor="middle" x="336" y="-558.5" font-family="Helvetica,sans-Serif" font-size="10.00"> </text>
</g>
<!-- Node7&#45;&gt;Node5 -->
<g id="edge6" class="edge"><title>Node7&#45;&gt;Node5</title>
<path fill="none" stroke="#404040" d="M331.038,-551.259C328.77,-538.58 325.881,-522.423 322.702,-504.65"/>
<polygon fill="none" stroke="#404040" points="322.687,-504.57 317.693,-499.368 320.574,-492.757 325.568,-497.959 322.687,-504.57"/>
<text text-anchor="middle" x="342" y="-519.5" font-family="Helvetica,sans-Serif" font-size="10.00"> &#45;origin</text>
</g>
</g>
</svg>
