<?xml version="1.0" encoding="UTF-8" standalone="no"?>
<!DOCTYPE svg PUBLIC "-//W3C//DTD SVG 1.1//EN"
 "http://www.w3.org/Graphics/SVG/1.1/DTD/svg11.dtd">
<!-- Generated by graphviz version 2.38.0 (20140413.2041)
 -->
<!-- Title: Zone Pages: 1 -->
<svg width="173pt" height="309pt"
 viewBox="0.00 0.00 173.00 309.00" xmlns="http://www.w3.org/2000/svg" xmlns:xlink="http://www.w3.org/1999/xlink">
<g id="graph0" class="graph" transform="scale(1 1) rotate(0) translate(4 305)">
<title>Zone</title>
<!-- Node1 -->
<g id="node1" class="node"><title>Node1</title>
<polygon fill="#bfbfbf" stroke="black" points="14,-0.5 14,-90.5 110,-90.5 110,-0.5 14,-0.5"/>
<text text-anchor="middle" x="62" y="-78.5" font-family="Helvetica,sans-Serif" font-size="10.00">Zone</text>
<polyline fill="none" stroke="black" points="14,-71.5 110,-71.5 "/>
<text text-anchor="middle" x="62" y="-59.5" font-family="Helvetica,sans-Serif" font-size="10.00"> </text>
<polyline fill="none" stroke="black" points="14,-52.5 110,-52.5 "/>
<text text-anchor="start" x="22" y="-40.5" font-family="Helvetica,sans-Serif" font-size="10.00">+ Zone()</text>
<text text-anchor="start" x="22" y="-29.5" font-family="Helvetica,sans-Serif" font-size="10.00">+ addZone()</text>
<text text-anchor="start" x="22" y="-18.5" font-family="Helvetica,sans-Serif" font-size="10.00">+ addZone()</text>
<text text-anchor="start" x="22" y="-7.5" font-family="Helvetica,sans-Serif" font-size="10.00">+ getZonesTable()</text>
</g>
<!-- Node2 -->
<g id="node2" class="node"><title>Node2</title>
<polygon fill="none" stroke="#bfbfbf" points="-7.10543e-15,-138.5 -7.10543e-15,-195.5 124,-195.5 124,-138.5 -7.10543e-15,-138.5"/>
<text text-anchor="middle" x="62" y="-183.5" font-family="Helvetica,sans-Serif" font-size="10.00">HashMap&lt; String, Dot &gt;</text>
<polyline fill="none" stroke="#bfbfbf" points="-7.10543e-15,-176.5 124,-176.5 "/>
<text text-anchor="middle" x="62" y="-164.5" font-family="Helvetica,sans-Serif" font-size="10.00"> </text>
<polyline fill="none" stroke="#bfbfbf" points="-7.10543e-15,-157.5 124,-157.5 "/>
<text text-anchor="middle" x="62" y="-145.5" font-family="Helvetica,sans-Serif" font-size="10.00"> </text>
</g>
<!-- Node2&#45;&gt;Node1 -->
<g id="edge1" class="edge"><title>Node2&#45;&gt;Node1</title>
<path fill="none" stroke="#404040" d="M62,-138.284C62,-127.735 62,-115.294 62,-103.035"/>
<polygon fill="none" stroke="#404040" points="62.0001,-102.912 58,-96.9125 62,-90.9125 66,-96.9124 62.0001,-102.912"/>
<text text-anchor="middle" x="113.5" y="-112" font-family="Helvetica,sans-Serif" font-size="10.00"> &#45;ensemblePointsZones</text>
</g>
<!-- Node3 -->
<g id="node3" class="node"><title>Node3</title>
<polygon fill="none" stroke="#bfbfbf" points="32.5,-243.5 32.5,-300.5 91.5,-300.5 91.5,-243.5 32.5,-243.5"/>
<text text-anchor="middle" x="62" y="-288.5" font-family="Helvetica,sans-Serif" font-size="10.00">HashMap</text>
<polyline fill="none" stroke="#bfbfbf" points="32.5,-281.5 91.5,-281.5 "/>
<text text-anchor="middle" x="62" y="-269.5" font-family="Helvetica,sans-Serif" font-size="10.00"> </text>
<polyline fill="none" stroke="#bfbfbf" points="32.5,-262.5 91.5,-262.5 "/>
<text text-anchor="middle" x="62" y="-250.5" font-family="Helvetica,sans-Serif" font-size="10.00"> </text>
</g>
<!-- Node3&#45;&gt;Node2 -->
<g id="edge2" class="edge"><title>Node3&#45;&gt;Node2</title>
<path fill="none" stroke="orange" d="M62,-233.286C62,-220.839 62,-207.233 62,-195.678"/>
<polygon fill="orange" stroke="orange" points="58.5001,-233.398 62,-243.398 65.5001,-233.398 58.5001,-233.398"/>
<text text-anchor="middle" x="96.5" y="-217" font-family="Helvetica,sans-Serif" font-size="10.00"> &lt; String, Dot &gt;</text>
</g>
</g>
</svg>
