<?xml version="1.0" encoding="UTF-8" standalone="no"?>
<!DOCTYPE svg PUBLIC "-//W3C//DTD SVG 1.1//EN"
 "http://www.w3.org/Graphics/SVG/1.1/DTD/svg11.dtd">
<!-- Generated by graphviz version 2.38.0 (20140413.2041)
 -->
<!-- Title: TestSushi.src.Suchi.Screen Pages: 1 -->
<svg width="229pt" height="281pt"
 viewBox="0.00 0.00 228.50 281.00" xmlns="http://www.w3.org/2000/svg" xmlns:xlink="http://www.w3.org/1999/xlink">
<g id="graph0" class="graph" transform="scale(1 1) rotate(0) translate(4 277)">
<title>TestSushi.src.Suchi.Screen</title>
<!-- Node1 -->
<g id="node1" class="node"><title>Node1</title>
<polygon fill="#bfbfbf" stroke="black" points="32,-0.5 32,-156.5 171,-156.5 171,-0.5 32,-0.5"/>
<text text-anchor="middle" x="101.5" y="-144.5" font-family="Helvetica,sans-Serif" font-size="10.00">TestSushi.src.Suchi.Screen</text>
<polyline fill="none" stroke="black" points="32,-137.5 171,-137.5 "/>
<text text-anchor="middle" x="101.5" y="-125.5" font-family="Helvetica,sans-Serif" font-size="10.00"> </text>
<polyline fill="none" stroke="black" points="32,-118.5 171,-118.5 "/>
<text text-anchor="start" x="40" y="-106.5" font-family="Helvetica,sans-Serif" font-size="10.00">+ Screen()</text>
<text text-anchor="start" x="40" y="-95.5" font-family="Helvetica,sans-Serif" font-size="10.00">+ getPixelARGB()</text>
<text text-anchor="start" x="40" y="-84.5" font-family="Helvetica,sans-Serif" font-size="10.00">+ saveImage()</text>
<text text-anchor="start" x="40" y="-73.5" font-family="Helvetica,sans-Serif" font-size="10.00">+ lookHorizontal()</text>
<text text-anchor="start" x="40" y="-62.5" font-family="Helvetica,sans-Serif" font-size="10.00">+ lookVertical()</text>
<text text-anchor="start" x="40" y="-51.5" font-family="Helvetica,sans-Serif" font-size="10.00">+ getImg()</text>
<text text-anchor="start" x="40" y="-40.5" font-family="Helvetica,sans-Serif" font-size="10.00">+ getDepartGauche()</text>
<text text-anchor="start" x="40" y="-29.5" font-family="Helvetica,sans-Serif" font-size="10.00">+ getDepartDroit()</text>
<text text-anchor="start" x="40" y="-18.5" font-family="Helvetica,sans-Serif" font-size="10.00">+ getGameArea()</text>
<text text-anchor="start" x="40" y="-7.5" font-family="Helvetica,sans-Serif" font-size="10.00">+ saveGameArea()</text>
</g>
<!-- Node2 -->
<g id="node2" class="node"><title>Node2</title>
<polygon fill="none" stroke="#bfbfbf" points="0,-215.5 0,-272.5 43,-272.5 43,-215.5 0,-215.5"/>
<text text-anchor="middle" x="21.5" y="-260.5" font-family="Helvetica,sans-Serif" font-size="10.00">Robot</text>
<polyline fill="none" stroke="#bfbfbf" points="0,-253.5 43,-253.5 "/>
<text text-anchor="middle" x="21.5" y="-241.5" font-family="Helvetica,sans-Serif" font-size="10.00"> </text>
<polyline fill="none" stroke="#bfbfbf" points="0,-234.5 43,-234.5 "/>
<text text-anchor="middle" x="21.5" y="-222.5" font-family="Helvetica,sans-Serif" font-size="10.00"> </text>
</g>
<!-- Node2&#45;&gt;Node1 -->
<g id="edge1" class="edge"><title>Node2&#45;&gt;Node1</title>
<path fill="none" stroke="#404040" d="M35.0709,-215.264C41.6421,-201.835 49.9357,-184.884 58.4154,-167.554"/>
<polygon fill="none" stroke="#404040" points="58.4313,-167.522 57.4754,-160.374 63.7054,-156.743 64.6613,-163.89 58.4313,-167.522"/>
<text text-anchor="middle" x="64.5" y="-183.5" font-family="Helvetica,sans-Serif" font-size="10.00"> &#45;bot</text>
</g>
<!-- Node3 -->
<g id="node3" class="node"><title>Node3</title>
<polygon fill="none" stroke="#bfbfbf" points="61.5,-215.5 61.5,-272.5 141.5,-272.5 141.5,-215.5 61.5,-215.5"/>
<text text-anchor="middle" x="101.5" y="-260.5" font-family="Helvetica,sans-Serif" font-size="10.00">BufferedImage</text>
<polyline fill="none" stroke="#bfbfbf" points="61.5,-253.5 141.5,-253.5 "/>
<text text-anchor="middle" x="101.5" y="-241.5" font-family="Helvetica,sans-Serif" font-size="10.00"> </text>
<polyline fill="none" stroke="#bfbfbf" points="61.5,-234.5 141.5,-234.5 "/>
<text text-anchor="middle" x="101.5" y="-222.5" font-family="Helvetica,sans-Serif" font-size="10.00"> </text>
</g>
<!-- Node3&#45;&gt;Node1 -->
<g id="edge2" class="edge"><title>Node3&#45;&gt;Node1</title>
<path fill="none" stroke="#404040" d="M101.5,-215.264C101.5,-202.215 101.5,-185.841 101.5,-169.025"/>
<polygon fill="none" stroke="#404040" points="101.5,-168.743 97.5,-162.743 101.5,-156.743 105.5,-162.743 101.5,-168.743"/>
<text text-anchor="middle" x="112.5" y="-183.5" font-family="Helvetica,sans-Serif" font-size="10.00"> &#45;img</text>
</g>
<!-- Node4 -->
<g id="node4" class="node"><title>Node4</title>
<polygon fill="none" stroke="#bfbfbf" points="160,-215.5 160,-272.5 199,-272.5 199,-215.5 160,-215.5"/>
<text text-anchor="middle" x="179.5" y="-260.5" font-family="Helvetica,sans-Serif" font-size="10.00">Point</text>
<polyline fill="none" stroke="#bfbfbf" points="160,-253.5 199,-253.5 "/>
<text text-anchor="middle" x="179.5" y="-241.5" font-family="Helvetica,sans-Serif" font-size="10.00"> </text>
<polyline fill="none" stroke="#bfbfbf" points="160,-234.5 199,-234.5 "/>
<text text-anchor="middle" x="179.5" y="-222.5" font-family="Helvetica,sans-Serif" font-size="10.00"> </text>
</g>
<!-- Node4&#45;&gt;Node1 -->
<g id="edge3" class="edge"><title>Node4&#45;&gt;Node1</title>
<path fill="none" stroke="#404040" d="M166.268,-215.264C159.922,-201.961 151.928,-185.204 143.741,-168.045"/>
<polygon fill="none" stroke="#404040" points="143.517,-167.573 137.323,-163.88 138.35,-156.743 144.543,-160.436 143.517,-167.573"/>
<text text-anchor="middle" x="188.5" y="-189" font-family="Helvetica,sans-Serif" font-size="10.00"> &#45;departDroit</text>
<text text-anchor="middle" x="188.5" y="-178" font-family="Helvetica,sans-Serif" font-size="10.00">&#45;departGauche</text>
</g>
</g>
</svg>
