<?xml version="1.0" encoding="UTF-8" standalone="no"?>
<!DOCTYPE svg PUBLIC "-//W3C//DTD SVG 1.1//EN"
 "http://www.w3.org/Graphics/SVG/1.1/DTD/svg11.dtd">
<!-- Generated by graphviz version 2.38.0 (20140413.2041)
 -->
<!-- Title: Suchi.Ia Pages: 1 -->
<svg width="640pt" height="441pt"
 viewBox="0.00 0.00 640.00 441.00" xmlns="http://www.w3.org/2000/svg" xmlns:xlink="http://www.w3.org/1999/xlink">
<g id="graph0" class="graph" transform="scale(1 1) rotate(0) translate(4 437)">
<title>Suchi.Ia</title>
<!-- Node1 -->
<g id="node1" class="node"><title>Node1</title>
<polygon fill="#bfbfbf" stroke="black" points="263,-0.5 263,-200.5 373,-200.5 373,-0.5 263,-0.5"/>
<text text-anchor="middle" x="318" y="-188.5" font-family="Helvetica,sans-Serif" font-size="10.00">Suchi.Ia</text>
<polyline fill="none" stroke="black" points="263,-181.5 373,-181.5 "/>
<text text-anchor="start" x="271" y="-169.5" font-family="Helvetica,sans-Serif" font-size="10.00">~ height</text>
<text text-anchor="start" x="271" y="-158.5" font-family="Helvetica,sans-Serif" font-size="10.00">&#45; width</text>
<polyline fill="none" stroke="black" points="263,-151.5 373,-151.5 "/>
<text text-anchor="start" x="271" y="-139.5" font-family="Helvetica,sans-Serif" font-size="10.00">+ Ia()</text>
<text text-anchor="start" x="271" y="-128.5" font-family="Helvetica,sans-Serif" font-size="10.00">+ loadCommandes()</text>
<text text-anchor="start" x="271" y="-117.5" font-family="Helvetica,sans-Serif" font-size="10.00">+ clearTable()</text>
<text text-anchor="start" x="271" y="-106.5" font-family="Helvetica,sans-Serif" font-size="10.00">+ saveSprites()</text>
<text text-anchor="start" x="271" y="-95.5" font-family="Helvetica,sans-Serif" font-size="10.00">+ fillGreyTable()</text>
<text text-anchor="start" x="271" y="-84.5" font-family="Helvetica,sans-Serif" font-size="10.00">+ initGreyReference()</text>
<text text-anchor="start" x="271" y="-73.5" font-family="Helvetica,sans-Serif" font-size="10.00">+ fillCommandes()</text>
<text text-anchor="start" x="271" y="-62.5" font-family="Helvetica,sans-Serif" font-size="10.00">+ getZone()</text>
<text text-anchor="start" x="271" y="-51.5" font-family="Helvetica,sans-Serif" font-size="10.00">+ clickZone()</text>
<text text-anchor="start" x="271" y="-40.5" font-family="Helvetica,sans-Serif" font-size="10.00">+ resetIngredients()</text>
<text text-anchor="start" x="271" y="-29.5" font-family="Helvetica,sans-Serif" font-size="10.00">+ useIngredient()</text>
<text text-anchor="start" x="271" y="-18.5" font-family="Helvetica,sans-Serif" font-size="10.00">+ checkIngredients()</text>
<text text-anchor="start" x="271" y="-7.5" font-family="Helvetica,sans-Serif" font-size="10.00">+ buyIngredient()</text>
</g>
<!-- Node2 -->
<g id="node2" class="node"><title>Node2</title>
<polygon fill="none" stroke="#bfbfbf" points="0,-265 0,-322 152,-322 152,-265 0,-265"/>
<text text-anchor="middle" x="76" y="-310" font-family="Helvetica,sans-Serif" font-size="10.00">HashMap&lt; String, Suchi.Dot &gt;</text>
<polyline fill="none" stroke="#bfbfbf" points="0,-303 152,-303 "/>
<text text-anchor="middle" x="76" y="-291" font-family="Helvetica,sans-Serif" font-size="10.00"> </text>
<polyline fill="none" stroke="#bfbfbf" points="0,-284 152,-284 "/>
<text text-anchor="middle" x="76" y="-272" font-family="Helvetica,sans-Serif" font-size="10.00"> </text>
</g>
<!-- Node2&#45;&gt;Node1 -->
<g id="edge1" class="edge"><title>Node2&#45;&gt;Node1</title>
<path fill="none" stroke="#404040" d="M110.93,-264.931C148.08,-235.611 207.67,-188.578 253.408,-152.48"/>
<polygon fill="none" stroke="#404040" points="253.525,-152.387 255.757,-145.53 262.945,-144.953 260.713,-151.81 253.525,-152.387"/>
<text text-anchor="middle" x="185.5" y="-227.5" font-family="Helvetica,sans-Serif" font-size="10.00"> &#45;zones</text>
</g>
<!-- Node3 -->
<g id="node3" class="node"><title>Node3</title>
<polygon fill="none" stroke="#bfbfbf" points="288.5,-375.5 288.5,-432.5 347.5,-432.5 347.5,-375.5 288.5,-375.5"/>
<text text-anchor="middle" x="318" y="-420.5" font-family="Helvetica,sans-Serif" font-size="10.00">HashMap</text>
<polyline fill="none" stroke="#bfbfbf" points="288.5,-413.5 347.5,-413.5 "/>
<text text-anchor="middle" x="318" y="-401.5" font-family="Helvetica,sans-Serif" font-size="10.00"> </text>
<polyline fill="none" stroke="#bfbfbf" points="288.5,-394.5 347.5,-394.5 "/>
<text text-anchor="middle" x="318" y="-382.5" font-family="Helvetica,sans-Serif" font-size="10.00"> </text>
</g>
<!-- Node3&#45;&gt;Node2 -->
<g id="edge2" class="edge"><title>Node3&#45;&gt;Node2</title>
<path fill="none" stroke="orange" d="M278.302,-397.767C242.129,-391.782 188.084,-379.723 146,-357 129.371,-348.021 113.439,-334.347 100.987,-322.076"/>
<polygon fill="orange" stroke="orange" points="278.041,-401.269 288.464,-399.367 279.129,-394.354 278.041,-401.269"/>
<text text-anchor="middle" x="196" y="-349" font-family="Helvetica,sans-Serif" font-size="10.00"> &lt; String, Suchi::Dot &gt;</text>
</g>
<!-- Node4 -->
<g id="node4" class="node"><title>Node4</title>
<polygon fill="none" stroke="#bfbfbf" points="170,-259.5 170,-327.5 306,-327.5 306,-259.5 170,-259.5"/>
<text text-anchor="start" x="178" y="-315.5" font-family="Helvetica,sans-Serif" font-size="10.00">HashMap&lt; String, Buffered</text>
<text text-anchor="middle" x="238" y="-304.5" font-family="Helvetica,sans-Serif" font-size="10.00">Image &gt;</text>
<polyline fill="none" stroke="#bfbfbf" points="170,-297.5 306,-297.5 "/>
<text text-anchor="middle" x="238" y="-285.5" font-family="Helvetica,sans-Serif" font-size="10.00"> </text>
<polyline fill="none" stroke="#bfbfbf" points="170,-278.5 306,-278.5 "/>
<text text-anchor="middle" x="238" y="-266.5" font-family="Helvetica,sans-Serif" font-size="10.00"> </text>
</g>
<!-- Node3&#45;&gt;Node4 -->
<g id="edge4" class="edge"><title>Node3&#45;&gt;Node4</title>
<path fill="none" stroke="orange" d="M279.955,-381.535C270.661,-374.736 261.526,-366.48 255,-357 249.071,-348.386 245.206,-337.782 242.688,-327.771"/>
<polygon fill="orange" stroke="orange" points="278.236,-384.6 288.465,-387.363 282.192,-378.824 278.236,-384.6"/>
<text text-anchor="middle" x="313.5" y="-349" font-family="Helvetica,sans-Serif" font-size="10.00"> &lt; String, BufferedImage &gt;</text>
</g>
<!-- Node5 -->
<g id="node5" class="node"><title>Node5</title>
<polygon fill="none" stroke="#bfbfbf" points="324,-265 324,-322 476,-322 476,-265 324,-265"/>
<text text-anchor="middle" x="400" y="-310" font-family="Helvetica,sans-Serif" font-size="10.00">HashMap&lt; String, Rectangle &gt;</text>
<polyline fill="none" stroke="#bfbfbf" points="324,-303 476,-303 "/>
<text text-anchor="middle" x="400" y="-291" font-family="Helvetica,sans-Serif" font-size="10.00"> </text>
<polyline fill="none" stroke="#bfbfbf" points="324,-284 476,-284 "/>
<text text-anchor="middle" x="400" y="-272" font-family="Helvetica,sans-Serif" font-size="10.00"> </text>
</g>
<!-- Node3&#45;&gt;Node5 -->
<g id="edge6" class="edge"><title>Node3&#45;&gt;Node5</title>
<path fill="none" stroke="orange" d="M355.393,-375.007C361.411,-369.465 367.222,-363.375 372,-357 379.844,-346.535 386.117,-333.524 390.72,-322.087"/>
<polygon fill="orange" stroke="orange" points="352.947,-372.497 347.724,-381.715 357.555,-377.766 352.947,-372.497"/>
<text text-anchor="middle" x="427.5" y="-349" font-family="Helvetica,sans-Serif" font-size="10.00"> &lt; String, Rectangle &gt;</text>
</g>
<!-- Node6 -->
<g id="node6" class="node"><title>Node6</title>
<polygon fill="none" stroke="#bfbfbf" points="494,-265 494,-322 632,-322 632,-265 494,-265"/>
<text text-anchor="middle" x="563" y="-310" font-family="Helvetica,sans-Serif" font-size="10.00">HashMap&lt; String, Integer &gt;</text>
<polyline fill="none" stroke="#bfbfbf" points="494,-303 632,-303 "/>
<text text-anchor="middle" x="563" y="-291" font-family="Helvetica,sans-Serif" font-size="10.00"> </text>
<polyline fill="none" stroke="#bfbfbf" points="494,-284 632,-284 "/>
<text text-anchor="middle" x="563" y="-272" font-family="Helvetica,sans-Serif" font-size="10.00"> </text>
</g>
<!-- Node3&#45;&gt;Node6 -->
<g id="edge8" class="edge"><title>Node3&#45;&gt;Node6</title>
<path fill="none" stroke="orange" d="M357.522,-396.03C391.275,-389.098 440.491,-376.626 480,-357 498.578,-347.771 517.214,-334.222 532.107,-322.096"/>
<polygon fill="orange" stroke="orange" points="356.698,-392.625 347.571,-398.005 358.061,-399.491 356.698,-392.625"/>
<text text-anchor="middle" x="538.5" y="-349" font-family="Helvetica,sans-Serif" font-size="10.00"> &lt; String, Integer &gt;</text>
</g>
<!-- Node4&#45;&gt;Node1 -->
<g id="edge3" class="edge"><title>Node4&#45;&gt;Node1</title>
<path fill="none" stroke="#404040" d="M251.935,-259.23C257.59,-245.728 264.477,-229.287 271.643,-212.178"/>
<polygon fill="none" stroke="#404040" points="271.746,-211.932 270.374,-204.852 276.382,-200.864 277.753,-207.943 271.746,-211.932"/>
<text text-anchor="middle" x="304" y="-227.5" font-family="Helvetica,sans-Serif" font-size="10.00"> &#45;greyReference</text>
</g>
<!-- Node5&#45;&gt;Node1 -->
<g id="edge5" class="edge"><title>Node5&#45;&gt;Node1</title>
<path fill="none" stroke="#404040" d="M388.076,-264.727C381.884,-250.303 373.868,-231.631 365.481,-212.096"/>
<polygon fill="none" stroke="#404040" points="365.386,-211.875 359.344,-207.94 360.652,-200.848 366.695,-204.784 365.386,-211.875"/>
<text text-anchor="middle" x="411.5" y="-233" font-family="Helvetica,sans-Serif" font-size="10.00"> &#45;greyIngredients</text>
<text text-anchor="middle" x="411.5" y="-222" font-family="Helvetica,sans-Serif" font-size="10.00">&#45;commandes</text>
</g>
<!-- Node6&#45;&gt;Node1 -->
<g id="edge7" class="edge"><title>Node6&#45;&gt;Node1</title>
<path fill="none" stroke="#404040" d="M527.637,-264.931C489.903,-235.514 429.3,-188.269 382.936,-152.124"/>
<polygon fill="none" stroke="#404040" points="382.736,-151.968 375.545,-151.433 373.272,-144.59 380.463,-145.124 382.736,-151.968"/>
<text text-anchor="middle" x="517" y="-227.5" font-family="Helvetica,sans-Serif" font-size="10.00"> &#45;ingredients</text>
</g>
</g>
</svg>
