<?xml version="1.0" encoding="UTF-8" standalone="no"?>
<!DOCTYPE svg PUBLIC "-//W3C//DTD SVG 1.1//EN"
 "http://www.w3.org/Graphics/SVG/1.1/DTD/svg11.dtd">
<!-- Generated by graphviz version 2.38.0 (20140413.2041)
 -->
<!-- Title: IA Pages: 1 -->
<svg width="956pt" height="1078pt"
 viewBox="0.00 0.00 956.00 1078.00" xmlns="http://www.w3.org/2000/svg" xmlns:xlink="http://www.w3.org/1999/xlink">
<g id="graph0" class="graph" transform="scale(1 1) rotate(0) translate(4 1074)">
<title>IA</title>
<!-- Node1 -->
<g id="node1" class="node"><title>Node1</title>
<polygon fill="#bfbfbf" stroke="black" points="543.5,-463.5 543.5,-641.5 640.5,-641.5 640.5,-463.5 543.5,-463.5"/>
<text text-anchor="middle" x="592" y="-629.5" font-family="Helvetica,sans-Serif" font-size="10.00">IA</text>
<polyline fill="none" stroke="black" points="543.5,-622.5 640.5,-622.5 "/>
<text text-anchor="start" x="551.5" y="-610.5" font-family="Helvetica,sans-Serif" font-size="10.00">+ xOr</text>
<text text-anchor="start" x="551.5" y="-599.5" font-family="Helvetica,sans-Serif" font-size="10.00">+ yOr</text>
<text text-anchor="start" x="551.5" y="-588.5" font-family="Helvetica,sans-Serif" font-size="10.00">&#45; width</text>
<text text-anchor="start" x="551.5" y="-577.5" font-family="Helvetica,sans-Serif" font-size="10.00">&#45; height</text>
<text text-anchor="start" x="551.5" y="-566.5" font-family="Helvetica,sans-Serif" font-size="10.00">&#45; serialVersionUID</text>
<text text-anchor="start" x="551.5" y="-555.5" font-family="Helvetica,sans-Serif" font-size="10.00">&#45; spriteCount</text>
<polyline fill="none" stroke="black" points="543.5,-548.5 640.5,-548.5 "/>
<text text-anchor="start" x="551.5" y="-536.5" font-family="Helvetica,sans-Serif" font-size="10.00">+ IA()</text>
<text text-anchor="start" x="551.5" y="-525.5" font-family="Helvetica,sans-Serif" font-size="10.00">+ click()</text>
<text text-anchor="start" x="551.5" y="-514.5" font-family="Helvetica,sans-Serif" font-size="10.00">+ initiateGame()</text>
<text text-anchor="start" x="551.5" y="-503.5" font-family="Helvetica,sans-Serif" font-size="10.00">+ getZone()</text>
<text text-anchor="start" x="551.5" y="-492.5" font-family="Helvetica,sans-Serif" font-size="10.00">+ saveSprites()</text>
<text text-anchor="start" x="551.5" y="-481.5" font-family="Helvetica,sans-Serif" font-size="10.00">+ loadSprites()</text>
<text text-anchor="start" x="551.5" y="-470.5" font-family="Helvetica,sans-Serif" font-size="10.00">+ getSushi()</text>
</g>
<!-- Node9 -->
<g id="node9" class="node"><title>Node9</title>
<g id="a_node9"><a xlink:href="classManager.html" target="_top" xlink:title="{Manager\n|&#45; cash\l&#45; cashPile\l&#45; bar\l|+ Manager()\l+ CheckBar()\l+ buyComponent()\l&#45; makeSushi()\l}">
<polygon fill="none" stroke="black" points="466,-303.5 466,-415.5 564,-415.5 564,-303.5 466,-303.5"/>
<text text-anchor="middle" x="515" y="-403.5" font-family="Helvetica,sans-Serif" font-size="10.00">Manager</text>
<polyline fill="none" stroke="black" points="466,-396.5 564,-396.5 "/>
<text text-anchor="start" x="474" y="-384.5" font-family="Helvetica,sans-Serif" font-size="10.00">&#45; cash</text>
<text text-anchor="start" x="474" y="-373.5" font-family="Helvetica,sans-Serif" font-size="10.00">&#45; cashPile</text>
<text text-anchor="start" x="474" y="-362.5" font-family="Helvetica,sans-Serif" font-size="10.00">&#45; bar</text>
<polyline fill="none" stroke="black" points="466,-355.5 564,-355.5 "/>
<text text-anchor="start" x="474" y="-343.5" font-family="Helvetica,sans-Serif" font-size="10.00">+ Manager()</text>
<text text-anchor="start" x="474" y="-332.5" font-family="Helvetica,sans-Serif" font-size="10.00">+ CheckBar()</text>
<text text-anchor="start" x="474" y="-321.5" font-family="Helvetica,sans-Serif" font-size="10.00">+ buyComponent()</text>
<text text-anchor="start" x="474" y="-310.5" font-family="Helvetica,sans-Serif" font-size="10.00">&#45; makeSushi()</text>
</a>
</g>
</g>
<!-- Node1&#45;&gt;Node9 -->
<g id="edge9" class="edge"><title>Node1&#45;&gt;Node9</title>
<path fill="none" stroke="#404040" d="M556.43,-463.268C551.524,-451.099 546.554,-438.771 541.842,-427.082"/>
<polygon fill="none" stroke="#404040" points="541.714,-426.765 535.761,-422.695 537.227,-415.635 543.18,-419.704 541.714,-426.765"/>
<text text-anchor="middle" x="555" y="-437" font-family="Helvetica,sans-Serif" font-size="10.00"> &#45;ia</text>
</g>
<!-- Node2 -->
<g id="node2" class="node"><title>Node2</title>
<g id="a_node2"><a xlink:href="classToolBox.html" target="_top" xlink:title="{ToolBox\n|~ terminate\l&#45; w\l&#45; h\l&#45; countScreen\l&#45; serialVersionUID\l|+ ToolBox()\l+ ToolBox()\l+ Capture()\l+ CaptureGame()\l+ Launch()\l+ Run()\l+ Serve()\l+ actionPerformed()\l+ clicBar()\l}">
<polygon fill="none" stroke="black" points="251.5,-0.5 251.5,-189.5 354.5,-189.5 354.5,-0.5 251.5,-0.5"/>
<text text-anchor="middle" x="303" y="-177.5" font-family="Helvetica,sans-Serif" font-size="10.00">ToolBox</text>
<polyline fill="none" stroke="black" points="251.5,-170.5 354.5,-170.5 "/>
<text text-anchor="start" x="259.5" y="-158.5" font-family="Helvetica,sans-Serif" font-size="10.00">~ terminate</text>
<text text-anchor="start" x="259.5" y="-147.5" font-family="Helvetica,sans-Serif" font-size="10.00">&#45; w</text>
<text text-anchor="start" x="259.5" y="-136.5" font-family="Helvetica,sans-Serif" font-size="10.00">&#45; h</text>
<text text-anchor="start" x="259.5" y="-125.5" font-family="Helvetica,sans-Serif" font-size="10.00">&#45; countScreen</text>
<text text-anchor="start" x="259.5" y="-114.5" font-family="Helvetica,sans-Serif" font-size="10.00">&#45; serialVersionUID</text>
<polyline fill="none" stroke="black" points="251.5,-107.5 354.5,-107.5 "/>
<text text-anchor="start" x="259.5" y="-95.5" font-family="Helvetica,sans-Serif" font-size="10.00">+ ToolBox()</text>
<text text-anchor="start" x="259.5" y="-84.5" font-family="Helvetica,sans-Serif" font-size="10.00">+ ToolBox()</text>
<text text-anchor="start" x="259.5" y="-73.5" font-family="Helvetica,sans-Serif" font-size="10.00">+ Capture()</text>
<text text-anchor="start" x="259.5" y="-62.5" font-family="Helvetica,sans-Serif" font-size="10.00">+ CaptureGame()</text>
<text text-anchor="start" x="259.5" y="-51.5" font-family="Helvetica,sans-Serif" font-size="10.00">+ Launch()</text>
<text text-anchor="start" x="259.5" y="-40.5" font-family="Helvetica,sans-Serif" font-size="10.00">+ Run()</text>
<text text-anchor="start" x="259.5" y="-29.5" font-family="Helvetica,sans-Serif" font-size="10.00">+ Serve()</text>
<text text-anchor="start" x="259.5" y="-18.5" font-family="Helvetica,sans-Serif" font-size="10.00">+ actionPerformed()</text>
<text text-anchor="start" x="259.5" y="-7.5" font-family="Helvetica,sans-Serif" font-size="10.00">+ clicBar()</text>
</a>
</g>
</g>
<!-- Node2&#45;&gt;Node1 -->
<g id="edge1" class="edge"><title>Node2&#45;&gt;Node1</title>
<path fill="none" stroke="midnightblue" d="M364.038,-118.571C409.003,-137.416 469.622,-167.693 513,-208 549.583,-241.993 557.3,-255.594 573,-303 590.004,-354.343 594.932,-414.793 595.524,-463.216"/>
<polygon fill="none" stroke="midnightblue" points="365.272,-115.294 354.692,-114.723 362.607,-121.767 365.272,-115.294"/>
</g>
<!-- Node3 -->
<g id="node3" class="node"><title>Node3</title>
<polygon fill="none" stroke="#bfbfbf" points="0,-331 0,-388 50,-388 50,-331 0,-331"/>
<text text-anchor="middle" x="25" y="-376" font-family="Helvetica,sans-Serif" font-size="10.00">JFrame</text>
<polyline fill="none" stroke="#bfbfbf" points="0,-369 50,-369 "/>
<text text-anchor="middle" x="25" y="-357" font-family="Helvetica,sans-Serif" font-size="10.00"> </text>
<polyline fill="none" stroke="#bfbfbf" points="0,-350 50,-350 "/>
<text text-anchor="middle" x="25" y="-338" font-family="Helvetica,sans-Serif" font-size="10.00"> </text>
</g>
<!-- Node3&#45;&gt;Node2 -->
<g id="edge2" class="edge"><title>Node3&#45;&gt;Node2</title>
<path fill="none" stroke="midnightblue" d="M46.1162,-322.117C50.2104,-315.628 54.6011,-309.022 59,-303 91.8987,-257.96 99.5048,-245.27 141,-208 175.214,-177.27 218.194,-147.914 251.285,-126.972"/>
<polygon fill="none" stroke="midnightblue" points="43.0152,-320.477 40.744,-330.826 48.9729,-324.152 43.0152,-320.477"/>
</g>
<!-- Node4 -->
<g id="node4" class="node"><title>Node4</title>
<polygon fill="none" stroke="#bfbfbf" points="68.5,-331 68.5,-388 147.5,-388 147.5,-331 68.5,-331"/>
<text text-anchor="middle" x="108" y="-376" font-family="Helvetica,sans-Serif" font-size="10.00">ActionListener</text>
<polyline fill="none" stroke="#bfbfbf" points="68.5,-369 147.5,-369 "/>
<text text-anchor="middle" x="108" y="-357" font-family="Helvetica,sans-Serif" font-size="10.00"> </text>
<polyline fill="none" stroke="#bfbfbf" points="68.5,-350 147.5,-350 "/>
<text text-anchor="middle" x="108" y="-338" font-family="Helvetica,sans-Serif" font-size="10.00"> </text>
</g>
<!-- Node4&#45;&gt;Node2 -->
<g id="edge3" class="edge"><title>Node4&#45;&gt;Node2</title>
<path fill="none" stroke="midnightblue" d="M125.126,-321.468C140.527,-289.913 164.856,-244.08 192,-208 209.446,-184.811 231.475,-161.623 251.301,-142.411"/>
<polygon fill="none" stroke="midnightblue" points="121.829,-320.247 120.639,-330.775 128.134,-323.287 121.829,-320.247"/>
</g>
<!-- Node5 -->
<g id="node5" class="node"><title>Node5</title>
<polygon fill="none" stroke="#bfbfbf" points="166,-331 166,-388 216,-388 216,-331 166,-331"/>
<text text-anchor="middle" x="191" y="-376" font-family="Helvetica,sans-Serif" font-size="10.00">JButton</text>
<polyline fill="none" stroke="#bfbfbf" points="166,-369 216,-369 "/>
<text text-anchor="middle" x="191" y="-357" font-family="Helvetica,sans-Serif" font-size="10.00"> </text>
<polyline fill="none" stroke="#bfbfbf" points="166,-350 216,-350 "/>
<text text-anchor="middle" x="191" y="-338" font-family="Helvetica,sans-Serif" font-size="10.00"> </text>
</g>
<!-- Node5&#45;&gt;Node2 -->
<g id="edge4" class="edge"><title>Node5&#45;&gt;Node2</title>
<path fill="none" stroke="#404040" d="M191.28,-330.978C192.511,-299.888 197.357,-248.366 215,-208 222.352,-191.179 232.841,-174.695 244.028,-159.767"/>
<polygon fill="none" stroke="#404040" points="244.099,-159.675 244.617,-152.483 251.455,-150.194 250.937,-157.387 244.099,-159.675"/>
<text text-anchor="middle" x="242.5" y="-277" font-family="Helvetica,sans-Serif" font-size="10.00"> &#45;launch</text>
<text text-anchor="middle" x="242.5" y="-266" font-family="Helvetica,sans-Serif" font-size="10.00">&#45;detect</text>
<text text-anchor="middle" x="242.5" y="-255" font-family="Helvetica,sans-Serif" font-size="10.00">&#45;saveSprites</text>
<text text-anchor="middle" x="242.5" y="-244" font-family="Helvetica,sans-Serif" font-size="10.00">&#45;snap</text>
<text text-anchor="middle" x="242.5" y="-233" font-family="Helvetica,sans-Serif" font-size="10.00">&#45;makeSushi</text>
<text text-anchor="middle" x="242.5" y="-222" font-family="Helvetica,sans-Serif" font-size="10.00">&#45;startBot</text>
<text text-anchor="middle" x="242.5" y="-211" font-family="Helvetica,sans-Serif" font-size="10.00">&#45;Auto</text>
</g>
<!-- Node6 -->
<g id="node6" class="node"><title>Node6</title>
<polygon fill="none" stroke="#bfbfbf" points="234.5,-331 234.5,-388 287.5,-388 287.5,-331 234.5,-331"/>
<text text-anchor="middle" x="261" y="-376" font-family="Helvetica,sans-Serif" font-size="10.00">Scanner</text>
<polyline fill="none" stroke="#bfbfbf" points="234.5,-369 287.5,-369 "/>
<text text-anchor="middle" x="261" y="-357" font-family="Helvetica,sans-Serif" font-size="10.00"> </text>
<polyline fill="none" stroke="#bfbfbf" points="234.5,-350 287.5,-350 "/>
<text text-anchor="middle" x="261" y="-338" font-family="Helvetica,sans-Serif" font-size="10.00"> </text>
</g>
<!-- Node6&#45;&gt;Node2 -->
<g id="edge5" class="edge"><title>Node6&#45;&gt;Node2</title>
<path fill="none" stroke="#404040" d="M265.415,-330.904C270.327,-300.207 278.561,-248.742 286.073,-201.795"/>
<polygon fill="none" stroke="#404040" points="286.119,-201.504 283.118,-194.947 288.015,-189.655 291.017,-196.211 286.119,-201.504"/>
<text text-anchor="middle" x="299" y="-244" font-family="Helvetica,sans-Serif" font-size="10.00"> &#45;scan</text>
</g>
<!-- Node7 -->
<g id="node7" class="node"><title>Node7</title>
<polygon fill="none" stroke="#bfbfbf" points="306,-331 306,-388 368,-388 368,-331 306,-331"/>
<text text-anchor="middle" x="337" y="-376" font-family="Helvetica,sans-Serif" font-size="10.00">JTextField</text>
<polyline fill="none" stroke="#bfbfbf" points="306,-369 368,-369 "/>
<text text-anchor="middle" x="337" y="-357" font-family="Helvetica,sans-Serif" font-size="10.00"> </text>
<polyline fill="none" stroke="#bfbfbf" points="306,-350 368,-350 "/>
<text text-anchor="middle" x="337" y="-338" font-family="Helvetica,sans-Serif" font-size="10.00"> </text>
</g>
<!-- Node7&#45;&gt;Node2 -->
<g id="edge6" class="edge"><title>Node7&#45;&gt;Node2</title>
<path fill="none" stroke="#404040" d="M333.426,-330.904C329.45,-300.207 322.784,-248.742 316.703,-201.795"/>
<polygon fill="none" stroke="#404040" points="316.672,-201.555 311.934,-196.119 315.131,-189.655 319.868,-195.091 316.672,-201.555"/>
<text text-anchor="middle" x="336" y="-244" font-family="Helvetica,sans-Serif" font-size="10.00"> &#45;txt</text>
</g>
<!-- Node8 -->
<g id="node8" class="node"><title>Node8</title>
<polygon fill="none" stroke="#bfbfbf" points="386.5,-331 386.5,-388 447.5,-388 447.5,-331 386.5,-331"/>
<text text-anchor="middle" x="417" y="-376" font-family="Helvetica,sans-Serif" font-size="10.00">Rectangle</text>
<polyline fill="none" stroke="#bfbfbf" points="386.5,-369 447.5,-369 "/>
<text text-anchor="middle" x="417" y="-357" font-family="Helvetica,sans-Serif" font-size="10.00"> </text>
<polyline fill="none" stroke="#bfbfbf" points="386.5,-350 447.5,-350 "/>
<text text-anchor="middle" x="417" y="-338" font-family="Helvetica,sans-Serif" font-size="10.00"> </text>
</g>
<!-- Node8&#45;&gt;Node2 -->
<g id="edge7" class="edge"><title>Node8&#45;&gt;Node2</title>
<path fill="none" stroke="#404040" d="M405.015,-330.904C391.599,-300.012 369.049,-248.086 348.556,-200.899"/>
<polygon fill="none" stroke="#404040" points="348.453,-200.661 342.394,-196.751 343.673,-189.655 349.732,-193.565 348.453,-200.661"/>
<text text-anchor="middle" x="394" y="-244" font-family="Helvetica,sans-Serif" font-size="10.00"> +ga</text>
</g>
<!-- Node9&#45;&gt;Node2 -->
<g id="edge8" class="edge"><title>Node9&#45;&gt;Node2</title>
<path fill="none" stroke="#404040" d="M478.339,-303.203C458.434,-274.166 432.865,-238.398 408,-208 394.046,-190.941 378.152,-173.217 363.027,-157.038"/>
<polygon fill="none" stroke="#404040" points="362.95,-156.956 355.924,-155.333 354.721,-148.223 361.747,-149.846 362.95,-156.956"/>
<text text-anchor="middle" x="487" y="-244" font-family="Helvetica,sans-Serif" font-size="10.00"> &#45;manager</text>
</g>
<!-- Node10 -->
<g id="node10" class="node"><title>Node10</title>
<polygon fill="none" stroke="#bfbfbf" points="394,-826 394,-883 532,-883 532,-826 394,-826"/>
<text text-anchor="middle" x="463" y="-871" font-family="Helvetica,sans-Serif" font-size="10.00">HashMap&lt; String, Integer &gt;</text>
<polyline fill="none" stroke="#bfbfbf" points="394,-864 532,-864 "/>
<text text-anchor="middle" x="463" y="-852" font-family="Helvetica,sans-Serif" font-size="10.00"> </text>
<polyline fill="none" stroke="#bfbfbf" points="394,-845 532,-845 "/>
<text text-anchor="middle" x="463" y="-833" font-family="Helvetica,sans-Serif" font-size="10.00"> </text>
</g>
<!-- Node10&#45;&gt;Node9 -->
<g id="edge10" class="edge"><title>Node10&#45;&gt;Node9</title>
<path fill="none" stroke="#404040" d="M465.907,-825.938C473.888,-750.277 496.309,-537.708 507.885,-427.957"/>
<polygon fill="none" stroke="#404040" points="507.915,-427.673 504.566,-421.287 509.174,-415.74 512.522,-422.126 507.915,-427.673"/>
<text text-anchor="middle" x="508.5" y="-685" font-family="Helvetica,sans-Serif" font-size="10.00"> &#45;orders</text>
<text text-anchor="middle" x="508.5" y="-674" font-family="Helvetica,sans-Serif" font-size="10.00">&#45;prices</text>
<text text-anchor="middle" x="508.5" y="-663" font-family="Helvetica,sans-Serif" font-size="10.00">&#45;ingredients</text>
</g>
<!-- Node11 -->
<g id="node11" class="node"><title>Node11</title>
<polygon fill="none" stroke="#bfbfbf" points="625.5,-1012.5 625.5,-1069.5 684.5,-1069.5 684.5,-1012.5 625.5,-1012.5"/>
<text text-anchor="middle" x="655" y="-1057.5" font-family="Helvetica,sans-Serif" font-size="10.00">HashMap</text>
<polyline fill="none" stroke="#bfbfbf" points="625.5,-1050.5 684.5,-1050.5 "/>
<text text-anchor="middle" x="655" y="-1038.5" font-family="Helvetica,sans-Serif" font-size="10.00"> </text>
<polyline fill="none" stroke="#bfbfbf" points="625.5,-1031.5 684.5,-1031.5 "/>
<text text-anchor="middle" x="655" y="-1019.5" font-family="Helvetica,sans-Serif" font-size="10.00"> </text>
</g>
<!-- Node11&#45;&gt;Node10 -->
<g id="edge11" class="edge"><title>Node11&#45;&gt;Node10</title>
<path fill="none" stroke="orange" d="M615.084,-1040.12C577.353,-1037.96 521.907,-1028.55 490,-994 462.242,-963.947 459.209,-914.165 460.456,-883.183"/>
<polygon fill="orange" stroke="orange" points="615.082,-1043.62 625.222,-1040.55 615.379,-1036.63 615.082,-1043.62"/>
<text text-anchor="middle" x="531.5" y="-986" font-family="Helvetica,sans-Serif" font-size="10.00"> &lt; String, Integer &gt;</text>
</g>
<!-- Node12 -->
<g id="node12" class="node"><title>Node12</title>
<polygon fill="none" stroke="#bfbfbf" points="537,-820.5 537,-888.5 671,-888.5 671,-820.5 537,-820.5"/>
<text text-anchor="start" x="545" y="-876.5" font-family="Helvetica,sans-Serif" font-size="10.00">HashMap&lt; BufferedImage,</text>
<text text-anchor="middle" x="604" y="-865.5" font-family="Helvetica,sans-Serif" font-size="10.00"> String &gt;</text>
<polyline fill="none" stroke="#bfbfbf" points="537,-858.5 671,-858.5 "/>
<text text-anchor="middle" x="604" y="-846.5" font-family="Helvetica,sans-Serif" font-size="10.00"> </text>
<polyline fill="none" stroke="#bfbfbf" points="537,-839.5 671,-839.5 "/>
<text text-anchor="middle" x="604" y="-827.5" font-family="Helvetica,sans-Serif" font-size="10.00"> </text>
</g>
<!-- Node11&#45;&gt;Node12 -->
<g id="edge13" class="edge"><title>Node11&#45;&gt;Node12</title>
<path fill="none" stroke="orange" d="M616.316,-1025.03C602.986,-1017.79 589.527,-1007.64 582,-994 563.943,-961.28 575.45,-918.003 587.56,-888.593"/>
<polygon fill="orange" stroke="orange" points="614.938,-1028.26 625.448,-1029.59 618.063,-1021.99 614.938,-1028.26"/>
<text text-anchor="middle" x="640.5" y="-986" font-family="Helvetica,sans-Serif" font-size="10.00"> &lt; BufferedImage, String &gt;</text>
</g>
<!-- Node14 -->
<g id="node14" class="node"><title>Node14</title>
<polygon fill="none" stroke="#bfbfbf" points="621,-907.5 621,-964.5 773,-964.5 773,-907.5 621,-907.5"/>
<text text-anchor="middle" x="697" y="-952.5" font-family="Helvetica,sans-Serif" font-size="10.00">HashMap&lt; String, Rectangle &gt;</text>
<polyline fill="none" stroke="#bfbfbf" points="621,-945.5 773,-945.5 "/>
<text text-anchor="middle" x="697" y="-933.5" font-family="Helvetica,sans-Serif" font-size="10.00"> </text>
<polyline fill="none" stroke="#bfbfbf" points="621,-926.5 773,-926.5 "/>
<text text-anchor="middle" x="697" y="-914.5" font-family="Helvetica,sans-Serif" font-size="10.00"> </text>
</g>
<!-- Node11&#45;&gt;Node14 -->
<g id="edge16" class="edge"><title>Node11&#45;&gt;Node14</title>
<path fill="none" stroke="orange" d="M691.749,-1011.36C696.32,-1006.11 700.322,-1000.28 703,-994 706.905,-984.848 706.844,-974.148 705.319,-964.507"/>
<polygon fill="orange" stroke="orange" points="689.155,-1009.01 684.733,-1018.64 694.194,-1013.87 689.155,-1009.01"/>
<text text-anchor="middle" x="753.5" y="-986" font-family="Helvetica,sans-Serif" font-size="10.00"> &lt; String, Rectangle &gt;</text>
</g>
<!-- Node16 -->
<g id="node16" class="node"><title>Node16</title>
<polygon fill="none" stroke="#bfbfbf" points="791,-907.5 791,-964.5 915,-964.5 915,-907.5 791,-907.5"/>
<text text-anchor="middle" x="853" y="-952.5" font-family="Helvetica,sans-Serif" font-size="10.00">HashMap&lt; String, Dot &gt;</text>
<polyline fill="none" stroke="#bfbfbf" points="791,-945.5 915,-945.5 "/>
<text text-anchor="middle" x="853" y="-933.5" font-family="Helvetica,sans-Serif" font-size="10.00"> </text>
<polyline fill="none" stroke="#bfbfbf" points="791,-926.5 915,-926.5 "/>
<text text-anchor="middle" x="853" y="-914.5" font-family="Helvetica,sans-Serif" font-size="10.00"> </text>
</g>
<!-- Node11&#45;&gt;Node16 -->
<g id="edge19" class="edge"><title>Node11&#45;&gt;Node16</title>
<path fill="none" stroke="orange" d="M694.652,-1034.42C726.8,-1028.44 772.164,-1016.58 806,-994 817.415,-986.382 827.499,-975.174 835.37,-964.709"/>
<polygon fill="orange" stroke="orange" points="693.957,-1030.99 684.71,-1036.16 695.164,-1037.88 693.957,-1030.99"/>
<text text-anchor="middle" x="852.5" y="-986" font-family="Helvetica,sans-Serif" font-size="10.00"> &lt; String, Dot &gt;</text>
</g>
<!-- Node12&#45;&gt;Node1 -->
<g id="edge12" class="edge"><title>Node12&#45;&gt;Node1</title>
<path fill="none" stroke="#404040" d="M587.543,-820.334C585.246,-814.363 583.248,-808.096 582,-802 572.146,-753.85 573.032,-699.389 577.056,-653.749"/>
<polygon fill="none" stroke="#404040" points="577.062,-653.681 573.651,-647.328 578.204,-641.736 581.615,-648.089 577.062,-653.681"/>
<text text-anchor="middle" x="619.5" y="-754" font-family="Helvetica,sans-Serif" font-size="10.00"> &#45;sushiReference</text>
</g>
<!-- Node13 -->
<g id="node13" class="node"><title>Node13</title>
<g id="a_node13"><a xlink:href="classReadZone.html" target="_top" xlink:title="{ReadZone\n||+ ReadZone()\l+ addZone()\l+ getZones()\l}">
<polygon fill="none" stroke="black" points="665.5,-717 665.5,-796 742.5,-796 742.5,-717 665.5,-717"/>
<text text-anchor="middle" x="704" y="-784" font-family="Helvetica,sans-Serif" font-size="10.00">ReadZone</text>
<polyline fill="none" stroke="black" points="665.5,-777 742.5,-777 "/>
<text text-anchor="middle" x="704" y="-765" font-family="Helvetica,sans-Serif" font-size="10.00"> </text>
<polyline fill="none" stroke="black" points="665.5,-758 742.5,-758 "/>
<text text-anchor="start" x="673.5" y="-746" font-family="Helvetica,sans-Serif" font-size="10.00">+ ReadZone()</text>
<text text-anchor="start" x="673.5" y="-735" font-family="Helvetica,sans-Serif" font-size="10.00">+ addZone()</text>
<text text-anchor="start" x="673.5" y="-724" font-family="Helvetica,sans-Serif" font-size="10.00">+ getZones()</text>
</a>
</g>
</g>
<!-- Node13&#45;&gt;Node1 -->
<g id="edge14" class="edge"><title>Node13&#45;&gt;Node1</title>
<path fill="none" stroke="#404040" d="M682.405,-716.552C672.097,-697.961 659.25,-674.789 646.505,-651.804"/>
<polygon fill="none" stroke="#404040" points="646.486,-651.769 640.078,-648.461 640.667,-641.274 647.074,-644.582 646.486,-651.769"/>
<text text-anchor="middle" x="683" y="-674" font-family="Helvetica,sans-Serif" font-size="10.00"> &#45;bulles</text>
</g>
<!-- Node14&#45;&gt;Node13 -->
<g id="edge15" class="edge"><title>Node14&#45;&gt;Node13</title>
<path fill="none" stroke="#404040" d="M698.094,-907.266C699.132,-880.926 700.719,-840.689 701.987,-808.552"/>
<polygon fill="none" stroke="#404040" points="702,-808.224 698.239,-802.071 702.472,-796.234 706.233,-802.387 702,-808.224"/>
<text text-anchor="middle" x="739" y="-852" font-family="Helvetica,sans-Serif" font-size="10.00"> &#45;ensembleZones</text>
</g>
<!-- Node15 -->
<g id="node15" class="node"><title>Node15</title>
<g id="a_node15"><a xlink:href="classZone.html" target="_top" xlink:title="{Zone\n||+ Zone()\l+ addZone()\l+ addZone()\l+ getZonesTable()\l}">
<polygon fill="none" stroke="black" points="776,-711.5 776,-801.5 872,-801.5 872,-711.5 776,-711.5"/>
<text text-anchor="middle" x="824" y="-789.5" font-family="Helvetica,sans-Serif" font-size="10.00">Zone</text>
<polyline fill="none" stroke="black" points="776,-782.5 872,-782.5 "/>
<text text-anchor="middle" x="824" y="-770.5" font-family="Helvetica,sans-Serif" font-size="10.00"> </text>
<polyline fill="none" stroke="black" points="776,-763.5 872,-763.5 "/>
<text text-anchor="start" x="784" y="-751.5" font-family="Helvetica,sans-Serif" font-size="10.00">+ Zone()</text>
<text text-anchor="start" x="784" y="-740.5" font-family="Helvetica,sans-Serif" font-size="10.00">+ addZone()</text>
<text text-anchor="start" x="784" y="-729.5" font-family="Helvetica,sans-Serif" font-size="10.00">+ addZone()</text>
<text text-anchor="start" x="784" y="-718.5" font-family="Helvetica,sans-Serif" font-size="10.00">+ getZonesTable()</text>
</a>
</g>
</g>
<!-- Node15&#45;&gt;Node1 -->
<g id="edge17" class="edge"><title>Node15&#45;&gt;Node1</title>
<path fill="none" stroke="#404040" d="M775.929,-713.645C739.313,-681.764 688.755,-637.743 649.91,-603.922"/>
<polygon fill="none" stroke="#404040" points="649.857,-603.876 642.706,-602.953 640.807,-595.996 647.959,-596.919 649.857,-603.876"/>
<text text-anchor="middle" x="764.5" y="-674" font-family="Helvetica,sans-Serif" font-size="10.00"> &#45;zones</text>
</g>
<!-- Node16&#45;&gt;Node15 -->
<g id="edge18" class="edge"><title>Node16&#45;&gt;Node15</title>
<path fill="none" stroke="#404040" d="M848.469,-907.266C844.39,-882.303 838.273,-844.859 833.175,-813.656"/>
<polygon fill="none" stroke="#404040" points="833.141,-813.447 828.226,-808.171 831.206,-801.604 836.121,-806.881 833.141,-813.447"/>
<text text-anchor="middle" x="896.5" y="-852" font-family="Helvetica,sans-Serif" font-size="10.00"> &#45;ensemblePointsZones</text>
</g>
</g>
</svg>
