<?xml version="1.0" encoding="UTF-8" standalone="no"?>
<!DOCTYPE svg PUBLIC "-//W3C//DTD SVG 1.1//EN"
 "http://www.w3.org/Graphics/SVG/1.1/DTD/svg11.dtd">
<!-- Generated by graphviz version 2.38.0 (20140413.2041)
 -->
<!-- Title: TestSushi.src.Suchi.Client Pages: 1 -->
<svg width="187pt" height="303pt"
 viewBox="0.00 0.00 187.00 303.00" xmlns="http://www.w3.org/2000/svg" xmlns:xlink="http://www.w3.org/1999/xlink">
<g id="graph0" class="graph" transform="scale(1 1) rotate(0) translate(4 299)">
<title>TestSushi.src.Suchi.Client</title>
<!-- Node1 -->
<g id="node1" class="node"><title>Node1</title>
<polygon fill="#bfbfbf" stroke="black" points="12,-0.5 12,-189.5 146,-189.5 146,-0.5 12,-0.5"/>
<text text-anchor="middle" x="79" y="-177.5" font-family="Helvetica,sans-Serif" font-size="10.00">TestSushi.src.Suchi.Client</text>
<polyline fill="none" stroke="black" points="12,-170.5 146,-170.5 "/>
<text text-anchor="start" x="20" y="-158.5" font-family="Helvetica,sans-Serif" font-size="10.00">~ maki</text>
<text text-anchor="start" x="20" y="-147.5" font-family="Helvetica,sans-Serif" font-size="10.00">~ california</text>
<text text-anchor="start" x="20" y="-136.5" font-family="Helvetica,sans-Serif" font-size="10.00">~ salmonRolls</text>
<text text-anchor="start" x="20" y="-125.5" font-family="Helvetica,sans-Serif" font-size="10.00">~ shrimp</text>
<text text-anchor="start" x="20" y="-114.5" font-family="Helvetica,sans-Serif" font-size="10.00">~ delaiDeCommande</text>
<text text-anchor="start" x="20" y="-103.5" font-family="Helvetica,sans-Serif" font-size="10.00">&#45; served</text>
<text text-anchor="start" x="20" y="-92.5" font-family="Helvetica,sans-Serif" font-size="10.00">&#45; oni</text>
<text text-anchor="start" x="20" y="-81.5" font-family="Helvetica,sans-Serif" font-size="10.00">&#45; compteurs</text>
<text text-anchor="start" x="20" y="-70.5" font-family="Helvetica,sans-Serif" font-size="10.00">&#45; oldDelaiDebarasser</text>
<text text-anchor="start" x="20" y="-59.5" font-family="Helvetica,sans-Serif" font-size="10.00">&#45; delaiDebarasser</text>
<polyline fill="none" stroke="black" points="12,-52.5 146,-52.5 "/>
<text text-anchor="start" x="20" y="-40.5" font-family="Helvetica,sans-Serif" font-size="10.00">+ update()</text>
<text text-anchor="start" x="20" y="-29.5" font-family="Helvetica,sans-Serif" font-size="10.00">+ check()</text>
<text text-anchor="start" x="20" y="-18.5" font-family="Helvetica,sans-Serif" font-size="10.00">+ clearTable()</text>
<text text-anchor="start" x="20" y="-7.5" font-family="Helvetica,sans-Serif" font-size="10.00">~ Client()</text>
</g>
<!-- Node2 -->
<g id="node2" class="node"><title>Node2</title>
<polygon fill="none" stroke="#bfbfbf" points="0,-237.5 0,-294.5 80,-294.5 80,-237.5 0,-237.5"/>
<text text-anchor="middle" x="40" y="-282.5" font-family="Helvetica,sans-Serif" font-size="10.00">BufferedImage</text>
<polyline fill="none" stroke="#bfbfbf" points="0,-275.5 80,-275.5 "/>
<text text-anchor="middle" x="40" y="-263.5" font-family="Helvetica,sans-Serif" font-size="10.00"> </text>
<polyline fill="none" stroke="#bfbfbf" points="0,-256.5 80,-256.5 "/>
<text text-anchor="middle" x="40" y="-244.5" font-family="Helvetica,sans-Serif" font-size="10.00"> </text>
</g>
<!-- Node2&#45;&gt;Node1 -->
<g id="edge1" class="edge"><title>Node2&#45;&gt;Node1</title>
<path fill="none" stroke="#404040" d="M43.7677,-237.35C45.2014,-227.992 46.9822,-217.506 49,-208 49.4581,-205.842 49.932,-203.663 50.4195,-201.469"/>
<polygon fill="none" stroke="#404040" points="50.4528,-201.324 47.9,-194.58 53.1435,-189.629 55.6963,-196.374 50.4528,-201.324"/>
<text text-anchor="middle" x="72.5" y="-211" font-family="Helvetica,sans-Serif" font-size="10.00"> &#45;customer</text>
</g>
<!-- Node3 -->
<g id="node3" class="node"><title>Node3</title>
<polygon fill="none" stroke="#bfbfbf" points="98.5,-237.5 98.5,-294.5 137.5,-294.5 137.5,-237.5 98.5,-237.5"/>
<text text-anchor="middle" x="118" y="-282.5" font-family="Helvetica,sans-Serif" font-size="10.00">Point</text>
<polyline fill="none" stroke="#bfbfbf" points="98.5,-275.5 137.5,-275.5 "/>
<text text-anchor="middle" x="118" y="-263.5" font-family="Helvetica,sans-Serif" font-size="10.00"> </text>
<polyline fill="none" stroke="#bfbfbf" points="98.5,-256.5 137.5,-256.5 "/>
<text text-anchor="middle" x="118" y="-244.5" font-family="Helvetica,sans-Serif" font-size="10.00"> </text>
</g>
<!-- Node3&#45;&gt;Node1 -->
<g id="edge2" class="edge"><title>Node3&#45;&gt;Node1</title>
<path fill="none" stroke="#404040" d="M111.647,-237.471C109.26,-227.126 106.381,-214.649 103.333,-201.444"/>
<polygon fill="none" stroke="#404040" points="103.318,-201.38 98.0717,-196.433 100.62,-189.687 105.867,-194.634 103.318,-201.38"/>
<text text-anchor="middle" x="143" y="-211" font-family="Helvetica,sans-Serif" font-size="10.00"> &#45;coordAssiettes</text>
</g>
</g>
</svg>
