<?xml version="1.0" encoding="UTF-8" standalone="no"?>
<!DOCTYPE svg PUBLIC "-//W3C//DTD SVG 1.1//EN"
 "http://www.w3.org/Graphics/SVG/1.1/DTD/svg11.dtd">
<!-- Generated by graphviz version 2.38.0 (20140413.2041)
 -->
<!-- Title: Sushis.src.ToolBox Pages: 1 -->
<svg width="156pt" height="628pt"
 viewBox="0.00 0.00 155.50 628.00" xmlns="http://www.w3.org/2000/svg" xmlns:xlink="http://www.w3.org/1999/xlink">
<g id="graph0" class="graph" transform="scale(1 1) rotate(0) translate(4 624)">
<title>Sushis.src.ToolBox</title>
<!-- Node1 -->
<g id="node1" class="node"><title>Node1</title>
<polygon fill="#bfbfbf" stroke="black" points="14.5,-248.5 14.5,-525.5 117.5,-525.5 117.5,-248.5 14.5,-248.5"/>
<text text-anchor="middle" x="66" y="-513.5" font-family="Helvetica,sans-Serif" font-size="10.00">Sushis.src.ToolBox</text>
<polyline fill="none" stroke="black" points="14.5,-506.5 117.5,-506.5 "/>
<text text-anchor="start" x="22.5" y="-494.5" font-family="Helvetica,sans-Serif" font-size="10.00">+ ga</text>
<text text-anchor="start" x="22.5" y="-483.5" font-family="Helvetica,sans-Serif" font-size="10.00">&#45; w</text>
<text text-anchor="start" x="22.5" y="-472.5" font-family="Helvetica,sans-Serif" font-size="10.00">&#45; h</text>
<text text-anchor="start" x="22.5" y="-461.5" font-family="Helvetica,sans-Serif" font-size="10.00">&#45; snap</text>
<text text-anchor="start" x="22.5" y="-450.5" font-family="Helvetica,sans-Serif" font-size="10.00">&#45; detect</text>
<text text-anchor="start" x="22.5" y="-439.5" font-family="Helvetica,sans-Serif" font-size="10.00">&#45; launch</text>
<text text-anchor="start" x="22.5" y="-428.5" font-family="Helvetica,sans-Serif" font-size="10.00">&#45; Auto</text>
<text text-anchor="start" x="22.5" y="-417.5" font-family="Helvetica,sans-Serif" font-size="10.00">&#45; startBot</text>
<text text-anchor="start" x="22.5" y="-406.5" font-family="Helvetica,sans-Serif" font-size="10.00">&#45; saveSprites</text>
<text text-anchor="start" x="22.5" y="-395.5" font-family="Helvetica,sans-Serif" font-size="10.00">&#45; makeSushi</text>
<text text-anchor="start" x="22.5" y="-384.5" font-family="Helvetica,sans-Serif" font-size="10.00">&#45; txt</text>
<text text-anchor="start" x="22.5" y="-373.5" font-family="Helvetica,sans-Serif" font-size="10.00">&#45; countScreen</text>
<text text-anchor="start" x="22.5" y="-362.5" font-family="Helvetica,sans-Serif" font-size="10.00">&#45; manager</text>
<text text-anchor="start" x="22.5" y="-351.5" font-family="Helvetica,sans-Serif" font-size="10.00">&#45; serialVersionUID</text>
<polyline fill="none" stroke="black" points="14.5,-344.5 117.5,-344.5 "/>
<text text-anchor="start" x="22.5" y="-332.5" font-family="Helvetica,sans-Serif" font-size="10.00">+ ToolBox()</text>
<text text-anchor="start" x="22.5" y="-321.5" font-family="Helvetica,sans-Serif" font-size="10.00">+ ToolBox()</text>
<text text-anchor="start" x="22.5" y="-310.5" font-family="Helvetica,sans-Serif" font-size="10.00">+ Capture()</text>
<text text-anchor="start" x="22.5" y="-299.5" font-family="Helvetica,sans-Serif" font-size="10.00">+ CaptureGame()</text>
<text text-anchor="start" x="22.5" y="-288.5" font-family="Helvetica,sans-Serif" font-size="10.00">+ Launch()</text>
<text text-anchor="start" x="22.5" y="-277.5" font-family="Helvetica,sans-Serif" font-size="10.00">+ Run()</text>
<text text-anchor="start" x="22.5" y="-266.5" font-family="Helvetica,sans-Serif" font-size="10.00">+ Serve()</text>
<text text-anchor="start" x="22.5" y="-255.5" font-family="Helvetica,sans-Serif" font-size="10.00">+ actionPerformed()</text>
</g>
<!-- Node4 -->
<g id="node4" class="node"><title>Node4</title>
<g id="a_node4"><a xlink:href="classSushis_1_1src_1_1IA.html" target="_top" xlink:title="{Sushis.src.IA\n|+ xOr\l+ yOr\l&#45; width\l&#45; height\l&#45; zones\l&#45; bulles\l&#45; sushiReference\l&#45; serialVersionUID\l&#45; spriteCount\l|+ IA()\l+ click()\l+ initiateGame()\l+ getZone()\l+ saveSprites()\l+ loadSprites()\l+ getSushi()\l}">
<polygon fill="none" stroke="black" points="17.5,-0.5 17.5,-211.5 114.5,-211.5 114.5,-0.5 17.5,-0.5"/>
<text text-anchor="middle" x="66" y="-199.5" font-family="Helvetica,sans-Serif" font-size="10.00">Sushis.src.IA</text>
<polyline fill="none" stroke="black" points="17.5,-192.5 114.5,-192.5 "/>
<text text-anchor="start" x="25.5" y="-180.5" font-family="Helvetica,sans-Serif" font-size="10.00">+ xOr</text>
<text text-anchor="start" x="25.5" y="-169.5" font-family="Helvetica,sans-Serif" font-size="10.00">+ yOr</text>
<text text-anchor="start" x="25.5" y="-158.5" font-family="Helvetica,sans-Serif" font-size="10.00">&#45; width</text>
<text text-anchor="start" x="25.5" y="-147.5" font-family="Helvetica,sans-Serif" font-size="10.00">&#45; height</text>
<text text-anchor="start" x="25.5" y="-136.5" font-family="Helvetica,sans-Serif" font-size="10.00">&#45; zones</text>
<text text-anchor="start" x="25.5" y="-125.5" font-family="Helvetica,sans-Serif" font-size="10.00">&#45; bulles</text>
<text text-anchor="start" x="25.5" y="-114.5" font-family="Helvetica,sans-Serif" font-size="10.00">&#45; sushiReference</text>
<text text-anchor="start" x="25.5" y="-103.5" font-family="Helvetica,sans-Serif" font-size="10.00">&#45; serialVersionUID</text>
<text text-anchor="start" x="25.5" y="-92.5" font-family="Helvetica,sans-Serif" font-size="10.00">&#45; spriteCount</text>
<polyline fill="none" stroke="black" points="17.5,-85.5 114.5,-85.5 "/>
<text text-anchor="start" x="25.5" y="-73.5" font-family="Helvetica,sans-Serif" font-size="10.00">+ IA()</text>
<text text-anchor="start" x="25.5" y="-62.5" font-family="Helvetica,sans-Serif" font-size="10.00">+ click()</text>
<text text-anchor="start" x="25.5" y="-51.5" font-family="Helvetica,sans-Serif" font-size="10.00">+ initiateGame()</text>
<text text-anchor="start" x="25.5" y="-40.5" font-family="Helvetica,sans-Serif" font-size="10.00">+ getZone()</text>
<text text-anchor="start" x="25.5" y="-29.5" font-family="Helvetica,sans-Serif" font-size="10.00">+ saveSprites()</text>
<text text-anchor="start" x="25.5" y="-18.5" font-family="Helvetica,sans-Serif" font-size="10.00">+ loadSprites()</text>
<text text-anchor="start" x="25.5" y="-7.5" font-family="Helvetica,sans-Serif" font-size="10.00">+ getSushi()</text>
</a>
</g>
</g>
<!-- Node1&#45;&gt;Node4 -->
<g id="edge3" class="edge"><title>Node1&#45;&gt;Node4</title>
<path fill="none" stroke="midnightblue" d="M66,-238.116C66,-229.252 66,-220.433 66,-211.804"/>
<polygon fill="none" stroke="midnightblue" points="62.5001,-238.135 66,-248.135 69.5001,-238.135 62.5001,-238.135"/>
</g>
<!-- Node2 -->
<g id="node2" class="node"><title>Node2</title>
<polygon fill="none" stroke="#bfbfbf" points="0,-562.5 0,-619.5 50,-619.5 50,-562.5 0,-562.5"/>
<text text-anchor="middle" x="25" y="-607.5" font-family="Helvetica,sans-Serif" font-size="10.00">JFrame</text>
<polyline fill="none" stroke="#bfbfbf" points="0,-600.5 50,-600.5 "/>
<text text-anchor="middle" x="25" y="-588.5" font-family="Helvetica,sans-Serif" font-size="10.00"> </text>
<polyline fill="none" stroke="#bfbfbf" points="0,-581.5 50,-581.5 "/>
<text text-anchor="middle" x="25" y="-569.5" font-family="Helvetica,sans-Serif" font-size="10.00"> </text>
</g>
<!-- Node2&#45;&gt;Node1 -->
<g id="edge1" class="edge"><title>Node2&#45;&gt;Node1</title>
<path fill="none" stroke="midnightblue" d="M32.659,-552.265C34.2998,-544.182 36.1242,-535.193 38.0501,-525.704"/>
<polygon fill="none" stroke="midnightblue" points="29.1741,-551.84 30.6149,-562.336 36.0342,-553.232 29.1741,-551.84"/>
</g>
<!-- Node3 -->
<g id="node3" class="node"><title>Node3</title>
<polygon fill="none" stroke="#bfbfbf" points="68.5,-562.5 68.5,-619.5 147.5,-619.5 147.5,-562.5 68.5,-562.5"/>
<text text-anchor="middle" x="108" y="-607.5" font-family="Helvetica,sans-Serif" font-size="10.00">ActionListener</text>
<polyline fill="none" stroke="#bfbfbf" points="68.5,-600.5 147.5,-600.5 "/>
<text text-anchor="middle" x="108" y="-588.5" font-family="Helvetica,sans-Serif" font-size="10.00"> </text>
<polyline fill="none" stroke="#bfbfbf" points="68.5,-581.5 147.5,-581.5 "/>
<text text-anchor="middle" x="108" y="-569.5" font-family="Helvetica,sans-Serif" font-size="10.00"> </text>
</g>
<!-- Node3&#45;&gt;Node1 -->
<g id="edge2" class="edge"><title>Node3&#45;&gt;Node1</title>
<path fill="none" stroke="midnightblue" d="M100.211,-552.537C98.5154,-544.384 96.6267,-535.3 94.6316,-525.704"/>
<polygon fill="none" stroke="midnightblue" points="96.7857,-553.258 102.248,-562.336 103.639,-551.833 96.7857,-553.258"/>
</g>
</g>
</svg>
