<?xml version="1.0" encoding="UTF-8" standalone="no"?>
<!DOCTYPE svg PUBLIC "-//W3C//DTD SVG 1.1//EN"
 "http://www.w3.org/Graphics/SVG/1.1/DTD/svg11.dtd">
<!-- Generated by graphviz version 2.38.0 (20140413.2041)
 -->
<!-- Title: Suchi.ScreenMouse Pages: 1 -->
<svg width="149pt" height="171pt"
 viewBox="0.00 0.00 148.50 171.00" xmlns="http://www.w3.org/2000/svg" xmlns:xlink="http://www.w3.org/1999/xlink">
<g id="graph0" class="graph" transform="scale(1 1) rotate(0) translate(4 167)">
<title>Suchi.ScreenMouse</title>
<!-- Node1 -->
<g id="node1" class="node"><title>Node1</title>
<polygon fill="#bfbfbf" stroke="black" points="9,-0.5 9,-68.5 113,-68.5 113,-0.5 9,-0.5"/>
<text text-anchor="middle" x="61" y="-56.5" font-family="Helvetica,sans-Serif" font-size="10.00">Suchi.ScreenMouse</text>
<polyline fill="none" stroke="black" points="9,-49.5 113,-49.5 "/>
<text text-anchor="middle" x="61" y="-37.5" font-family="Helvetica,sans-Serif" font-size="10.00"> </text>
<polyline fill="none" stroke="black" points="9,-30.5 113,-30.5 "/>
<text text-anchor="start" x="17" y="-18.5" font-family="Helvetica,sans-Serif" font-size="10.00">+ actionPerformed()</text>
<text text-anchor="start" x="17" y="-7.5" font-family="Helvetica,sans-Serif" font-size="10.00">+ init()</text>
</g>
<!-- Node2 -->
<g id="node2" class="node"><title>Node2</title>
<polygon fill="none" stroke="#bfbfbf" points="0,-105.5 0,-162.5 44,-162.5 44,-105.5 0,-105.5"/>
<text text-anchor="middle" x="22" y="-150.5" font-family="Helvetica,sans-Serif" font-size="10.00">Applet</text>
<polyline fill="none" stroke="#bfbfbf" points="0,-143.5 44,-143.5 "/>
<text text-anchor="middle" x="22" y="-131.5" font-family="Helvetica,sans-Serif" font-size="10.00"> </text>
<polyline fill="none" stroke="#bfbfbf" points="0,-124.5 44,-124.5 "/>
<text text-anchor="middle" x="22" y="-112.5" font-family="Helvetica,sans-Serif" font-size="10.00"> </text>
</g>
<!-- Node2&#45;&gt;Node1 -->
<g id="edge1" class="edge"><title>Node2&#45;&gt;Node1</title>
<path fill="none" stroke="midnightblue" d="M36.8324,-95.919C40.401,-86.9974 44.1912,-77.5219 47.6858,-68.7855"/>
<polygon fill="none" stroke="midnightblue" points="33.5358,-94.7365 33.0715,-105.321 40.0352,-97.3363 33.5358,-94.7365"/>
</g>
<!-- Node3 -->
<g id="node3" class="node"><title>Node3</title>
<polygon fill="none" stroke="#bfbfbf" points="61.5,-105.5 61.5,-162.5 140.5,-162.5 140.5,-105.5 61.5,-105.5"/>
<text text-anchor="middle" x="101" y="-150.5" font-family="Helvetica,sans-Serif" font-size="10.00">ActionListener</text>
<polyline fill="none" stroke="#bfbfbf" points="61.5,-143.5 140.5,-143.5 "/>
<text text-anchor="middle" x="101" y="-131.5" font-family="Helvetica,sans-Serif" font-size="10.00"> </text>
<polyline fill="none" stroke="#bfbfbf" points="61.5,-124.5 140.5,-124.5 "/>
<text text-anchor="middle" x="101" y="-112.5" font-family="Helvetica,sans-Serif" font-size="10.00"> </text>
</g>
<!-- Node3&#45;&gt;Node1 -->
<g id="edge2" class="edge"><title>Node3&#45;&gt;Node1</title>
<path fill="none" stroke="midnightblue" d="M85.7873,-95.919C82.1271,-86.9974 78.2397,-77.5219 74.6556,-68.7855"/>
<polygon fill="none" stroke="midnightblue" points="82.6109,-97.398 89.6446,-105.321 89.0871,-94.7411 82.6109,-97.398"/>
</g>
</g>
</svg>
