<?xml version="1.0" encoding="UTF-8" standalone="no"?>
<!DOCTYPE svg PUBLIC "-//W3C//DTD SVG 1.1//EN"
 "http://www.w3.org/Graphics/SVG/1.1/DTD/svg11.dtd">
<!-- Generated by graphviz version 2.38.0 (20140413.2041)
 -->
<!-- Title: Sushis.src.IA Pages: 1 -->
<svg width="883pt" height="1012pt"
 viewBox="0.00 0.00 883.00 1012.00" xmlns="http://www.w3.org/2000/svg" xmlns:xlink="http://www.w3.org/1999/xlink">
<g id="graph0" class="graph" transform="scale(1 1) rotate(0) translate(4 1008)">
<title>Sushis.src.IA</title>
<!-- Node1 -->
<g id="node1" class="node"><title>Node1</title>
<polygon fill="#bfbfbf" stroke="black" points="477.5,-419.5 477.5,-597.5 574.5,-597.5 574.5,-419.5 477.5,-419.5"/>
<text text-anchor="middle" x="526" y="-585.5" font-family="Helvetica,sans-Serif" font-size="10.00">Sushis.src.IA</text>
<polyline fill="none" stroke="black" points="477.5,-578.5 574.5,-578.5 "/>
<text text-anchor="start" x="485.5" y="-566.5" font-family="Helvetica,sans-Serif" font-size="10.00">+ xOr</text>
<text text-anchor="start" x="485.5" y="-555.5" font-family="Helvetica,sans-Serif" font-size="10.00">+ yOr</text>
<text text-anchor="start" x="485.5" y="-544.5" font-family="Helvetica,sans-Serif" font-size="10.00">&#45; width</text>
<text text-anchor="start" x="485.5" y="-533.5" font-family="Helvetica,sans-Serif" font-size="10.00">&#45; height</text>
<text text-anchor="start" x="485.5" y="-522.5" font-family="Helvetica,sans-Serif" font-size="10.00">&#45; serialVersionUID</text>
<text text-anchor="start" x="485.5" y="-511.5" font-family="Helvetica,sans-Serif" font-size="10.00">&#45; spriteCount</text>
<polyline fill="none" stroke="black" points="477.5,-504.5 574.5,-504.5 "/>
<text text-anchor="start" x="485.5" y="-492.5" font-family="Helvetica,sans-Serif" font-size="10.00">+ IA()</text>
<text text-anchor="start" x="485.5" y="-481.5" font-family="Helvetica,sans-Serif" font-size="10.00">+ click()</text>
<text text-anchor="start" x="485.5" y="-470.5" font-family="Helvetica,sans-Serif" font-size="10.00">+ initiateGame()</text>
<text text-anchor="start" x="485.5" y="-459.5" font-family="Helvetica,sans-Serif" font-size="10.00">+ getZone()</text>
<text text-anchor="start" x="485.5" y="-448.5" font-family="Helvetica,sans-Serif" font-size="10.00">+ saveSprites()</text>
<text text-anchor="start" x="485.5" y="-437.5" font-family="Helvetica,sans-Serif" font-size="10.00">+ loadSprites()</text>
<text text-anchor="start" x="485.5" y="-426.5" font-family="Helvetica,sans-Serif" font-size="10.00">+ getSushi()</text>
</g>
<!-- Node6 -->
<g id="node6" class="node"><title>Node6</title>
<g id="a_node6"><a xlink:href="classSushis_1_1src_1_1Manager.html" target="_top" xlink:title="{Sushis.src.Manager\n|&#45; cash\l&#45; bar\l|+ Manager()\l+ CheckBar()\l&#45; makeSushi()\l}">
<polygon fill="none" stroke="black" points="394,-281.5 394,-371.5 498,-371.5 498,-281.5 394,-281.5"/>
<text text-anchor="middle" x="446" y="-359.5" font-family="Helvetica,sans-Serif" font-size="10.00">Sushis.src.Manager</text>
<polyline fill="none" stroke="black" points="394,-352.5 498,-352.5 "/>
<text text-anchor="start" x="402" y="-340.5" font-family="Helvetica,sans-Serif" font-size="10.00">&#45; cash</text>
<text text-anchor="start" x="402" y="-329.5" font-family="Helvetica,sans-Serif" font-size="10.00">&#45; bar</text>
<polyline fill="none" stroke="black" points="394,-322.5 498,-322.5 "/>
<text text-anchor="start" x="402" y="-310.5" font-family="Helvetica,sans-Serif" font-size="10.00">+ Manager()</text>
<text text-anchor="start" x="402" y="-299.5" font-family="Helvetica,sans-Serif" font-size="10.00">+ CheckBar()</text>
<text text-anchor="start" x="402" y="-288.5" font-family="Helvetica,sans-Serif" font-size="10.00">&#45; makeSushi()</text>
</a>
</g>
</g>
<!-- Node1&#45;&gt;Node6 -->
<g id="edge6" class="edge"><title>Node1&#45;&gt;Node6</title>
<path fill="none" stroke="#404040" d="M486.82,-419.346C481.298,-406.92 475.754,-394.447 470.611,-382.875"/>
<polygon fill="none" stroke="#404040" points="470.491,-382.604 464.399,-378.746 465.617,-371.638 471.709,-375.497 470.491,-382.604"/>
<text text-anchor="middle" x="483" y="-393" font-family="Helvetica,sans-Serif" font-size="10.00"> &#45;ia</text>
</g>
<!-- Node2 -->
<g id="node2" class="node"><title>Node2</title>
<g id="a_node2"><a xlink:href="classSushis_1_1src_1_1ToolBox.html" target="_top" xlink:title="{Sushis.src.ToolBox\n|&#45; w\l&#45; h\l&#45; countScreen\l&#45; serialVersionUID\l|+ ToolBox()\l+ ToolBox()\l+ Capture()\l+ CaptureGame()\l+ Launch()\l+ Run()\l+ Serve()\l+ actionPerformed()\l}">
<polygon fill="none" stroke="black" points="217.5,-0.5 217.5,-167.5 320.5,-167.5 320.5,-0.5 217.5,-0.5"/>
<text text-anchor="middle" x="269" y="-155.5" font-family="Helvetica,sans-Serif" font-size="10.00">Sushis.src.ToolBox</text>
<polyline fill="none" stroke="black" points="217.5,-148.5 320.5,-148.5 "/>
<text text-anchor="start" x="225.5" y="-136.5" font-family="Helvetica,sans-Serif" font-size="10.00">&#45; w</text>
<text text-anchor="start" x="225.5" y="-125.5" font-family="Helvetica,sans-Serif" font-size="10.00">&#45; h</text>
<text text-anchor="start" x="225.5" y="-114.5" font-family="Helvetica,sans-Serif" font-size="10.00">&#45; countScreen</text>
<text text-anchor="start" x="225.5" y="-103.5" font-family="Helvetica,sans-Serif" font-size="10.00">&#45; serialVersionUID</text>
<polyline fill="none" stroke="black" points="217.5,-96.5 320.5,-96.5 "/>
<text text-anchor="start" x="225.5" y="-84.5" font-family="Helvetica,sans-Serif" font-size="10.00">+ ToolBox()</text>
<text text-anchor="start" x="225.5" y="-73.5" font-family="Helvetica,sans-Serif" font-size="10.00">+ ToolBox()</text>
<text text-anchor="start" x="225.5" y="-62.5" font-family="Helvetica,sans-Serif" font-size="10.00">+ Capture()</text>
<text text-anchor="start" x="225.5" y="-51.5" font-family="Helvetica,sans-Serif" font-size="10.00">+ CaptureGame()</text>
<text text-anchor="start" x="225.5" y="-40.5" font-family="Helvetica,sans-Serif" font-size="10.00">+ Launch()</text>
<text text-anchor="start" x="225.5" y="-29.5" font-family="Helvetica,sans-Serif" font-size="10.00">+ Run()</text>
<text text-anchor="start" x="225.5" y="-18.5" font-family="Helvetica,sans-Serif" font-size="10.00">+ Serve()</text>
<text text-anchor="start" x="225.5" y="-7.5" font-family="Helvetica,sans-Serif" font-size="10.00">+ actionPerformed()</text>
</a>
</g>
</g>
<!-- Node2&#45;&gt;Node1 -->
<g id="edge1" class="edge"><title>Node2&#45;&gt;Node1</title>
<path fill="none" stroke="midnightblue" d="M330.218,-109.395C367.968,-126.652 415.576,-152.641 450,-186 485.36,-220.266 491.883,-234.139 507,-281 521.266,-325.221 526.428,-376.682 527.843,-419.366"/>
<polygon fill="none" stroke="midnightblue" points="331.404,-106.091 320.847,-105.196 328.542,-112.479 331.404,-106.091"/>
</g>
<!-- Node3 -->
<g id="node3" class="node"><title>Node3</title>
<polygon fill="none" stroke="#bfbfbf" points="0,-298 0,-355 50,-355 50,-298 0,-298"/>
<text text-anchor="middle" x="25" y="-343" font-family="Helvetica,sans-Serif" font-size="10.00">JFrame</text>
<polyline fill="none" stroke="#bfbfbf" points="0,-336 50,-336 "/>
<text text-anchor="middle" x="25" y="-324" font-family="Helvetica,sans-Serif" font-size="10.00"> </text>
<polyline fill="none" stroke="#bfbfbf" points="0,-317 50,-317 "/>
<text text-anchor="middle" x="25" y="-305" font-family="Helvetica,sans-Serif" font-size="10.00"> </text>
</g>
<!-- Node3&#45;&gt;Node2 -->
<g id="edge2" class="edge"><title>Node3&#45;&gt;Node2</title>
<path fill="none" stroke="midnightblue" d="M52.2829,-289.449C54.5368,-286.575 56.7955,-283.73 59,-281 93.8559,-237.828 99.9546,-224.407 140,-186 164.018,-162.965 193.027,-139.888 217.449,-121.62"/>
<polygon fill="none" stroke="midnightblue" points="49.3623,-287.503 45.9931,-297.548 54.891,-291.797 49.3623,-287.503"/>
</g>
<!-- Node4 -->
<g id="node4" class="node"><title>Node4</title>
<polygon fill="none" stroke="#bfbfbf" points="68.5,-298 68.5,-355 147.5,-355 147.5,-298 68.5,-298"/>
<text text-anchor="middle" x="108" y="-343" font-family="Helvetica,sans-Serif" font-size="10.00">ActionListener</text>
<polyline fill="none" stroke="#bfbfbf" points="68.5,-336 147.5,-336 "/>
<text text-anchor="middle" x="108" y="-324" font-family="Helvetica,sans-Serif" font-size="10.00"> </text>
<polyline fill="none" stroke="#bfbfbf" points="68.5,-317 147.5,-317 "/>
<text text-anchor="middle" x="108" y="-305" font-family="Helvetica,sans-Serif" font-size="10.00"> </text>
</g>
<!-- Node4&#45;&gt;Node2 -->
<g id="edge3" class="edge"><title>Node4&#45;&gt;Node2</title>
<path fill="none" stroke="midnightblue" d="M127.715,-288.987C143.584,-260.361 166.965,-219.844 190,-186 198.455,-173.578 207.943,-160.684 217.333,-148.432"/>
<polygon fill="none" stroke="midnightblue" points="124.597,-287.392 122.836,-297.84 130.728,-290.771 124.597,-287.392"/>
</g>
<!-- Node5 -->
<g id="node5" class="node"><title>Node5</title>
<polygon fill="none" stroke="#bfbfbf" points="166,-298 166,-355 216,-355 216,-298 166,-298"/>
<text text-anchor="middle" x="191" y="-343" font-family="Helvetica,sans-Serif" font-size="10.00">JButton</text>
<polyline fill="none" stroke="#bfbfbf" points="166,-336 216,-336 "/>
<text text-anchor="middle" x="191" y="-324" font-family="Helvetica,sans-Serif" font-size="10.00"> </text>
<polyline fill="none" stroke="#bfbfbf" points="166,-317 216,-317 "/>
<text text-anchor="middle" x="191" y="-305" font-family="Helvetica,sans-Serif" font-size="10.00"> </text>
</g>
<!-- Node5&#45;&gt;Node2 -->
<g id="edge4" class="edge"><title>Node5&#45;&gt;Node2</title>
<path fill="none" stroke="#404040" d="M190.978,-298C191.724,-269.301 195.106,-223.362 208,-186 209.303,-182.224 210.762,-178.437 212.344,-174.663"/>
<polygon fill="none" stroke="#404040" points="212.491,-174.338 211.317,-167.223 217.434,-163.403 218.607,-170.518 212.491,-174.338"/>
<text text-anchor="middle" x="235.5" y="-255" font-family="Helvetica,sans-Serif" font-size="10.00"> &#45;launch</text>
<text text-anchor="middle" x="235.5" y="-244" font-family="Helvetica,sans-Serif" font-size="10.00">&#45;detect</text>
<text text-anchor="middle" x="235.5" y="-233" font-family="Helvetica,sans-Serif" font-size="10.00">&#45;saveSprites</text>
<text text-anchor="middle" x="235.5" y="-222" font-family="Helvetica,sans-Serif" font-size="10.00">&#45;snap</text>
<text text-anchor="middle" x="235.5" y="-211" font-family="Helvetica,sans-Serif" font-size="10.00">&#45;makeSushi</text>
<text text-anchor="middle" x="235.5" y="-200" font-family="Helvetica,sans-Serif" font-size="10.00">&#45;startBot</text>
<text text-anchor="middle" x="235.5" y="-189" font-family="Helvetica,sans-Serif" font-size="10.00">&#45;Auto</text>
</g>
<!-- Node6&#45;&gt;Node2 -->
<g id="edge5" class="edge"><title>Node6&#45;&gt;Node2</title>
<path fill="none" stroke="#404040" d="M416.326,-281.336C397.468,-253.646 372.302,-217.379 349,-186 342.319,-177.003 335.189,-167.66 328.042,-158.45"/>
<polygon fill="none" stroke="#404040" points="327.988,-158.381 321.144,-156.111 320.606,-148.92 327.45,-151.19 327.988,-158.381"/>
<text text-anchor="middle" x="424" y="-222" font-family="Helvetica,sans-Serif" font-size="10.00"> &#45;manager</text>
</g>
<!-- Node7 -->
<g id="node7" class="node"><title>Node7</title>
<polygon fill="none" stroke="#bfbfbf" points="342,-760 342,-817 480,-817 480,-760 342,-760"/>
<text text-anchor="middle" x="411" y="-805" font-family="Helvetica,sans-Serif" font-size="10.00">HashMap&lt; String, Integer &gt;</text>
<polyline fill="none" stroke="#bfbfbf" points="342,-798 480,-798 "/>
<text text-anchor="middle" x="411" y="-786" font-family="Helvetica,sans-Serif" font-size="10.00"> </text>
<polyline fill="none" stroke="#bfbfbf" points="342,-779 480,-779 "/>
<text text-anchor="middle" x="411" y="-767" font-family="Helvetica,sans-Serif" font-size="10.00"> </text>
</g>
<!-- Node7&#45;&gt;Node6 -->
<g id="edge7" class="edge"><title>Node7&#45;&gt;Node6</title>
<path fill="none" stroke="#404040" d="M413.111,-759.761C418.73,-685.902 434.143,-483.341 441.703,-383.975"/>
<polygon fill="none" stroke="#404040" points="441.718,-383.775 438.185,-377.489 442.629,-371.809 446.162,-378.096 441.718,-383.775"/>
<text text-anchor="middle" x="450" y="-619" font-family="Helvetica,sans-Serif" font-size="10.00"> &#45;ingredients</text>
</g>
<!-- Node8 -->
<g id="node8" class="node"><title>Node8</title>
<polygon fill="none" stroke="#bfbfbf" points="577.5,-946.5 577.5,-1003.5 636.5,-1003.5 636.5,-946.5 577.5,-946.5"/>
<text text-anchor="middle" x="607" y="-991.5" font-family="Helvetica,sans-Serif" font-size="10.00">HashMap</text>
<polyline fill="none" stroke="#bfbfbf" points="577.5,-984.5 636.5,-984.5 "/>
<text text-anchor="middle" x="607" y="-972.5" font-family="Helvetica,sans-Serif" font-size="10.00"> </text>
<polyline fill="none" stroke="#bfbfbf" points="577.5,-965.5 636.5,-965.5 "/>
<text text-anchor="middle" x="607" y="-953.5" font-family="Helvetica,sans-Serif" font-size="10.00"> </text>
</g>
<!-- Node8&#45;&gt;Node7 -->
<g id="edge8" class="edge"><title>Node8&#45;&gt;Node7</title>
<path fill="none" stroke="orange" d="M567.292,-973.923C529.716,-971.625 474.382,-962.1 442,-928 413.665,-898.161 409.106,-848.314 409.361,-817.261"/>
<polygon fill="orange" stroke="orange" points="567.233,-977.424 577.385,-974.394 567.559,-970.431 567.233,-977.424"/>
<text text-anchor="middle" x="483.5" y="-920" font-family="Helvetica,sans-Serif" font-size="10.00"> &lt; String, Integer &gt;</text>
</g>
<!-- Node11 -->
<g id="node11" class="node"><title>Node11</title>
<polygon fill="none" stroke="#bfbfbf" points="485,-754.5 485,-822.5 619,-822.5 619,-754.5 485,-754.5"/>
<text text-anchor="start" x="493" y="-810.5" font-family="Helvetica,sans-Serif" font-size="10.00">HashMap&lt; BufferedImage,</text>
<text text-anchor="middle" x="552" y="-799.5" font-family="Helvetica,sans-Serif" font-size="10.00"> String &gt;</text>
<polyline fill="none" stroke="#bfbfbf" points="485,-792.5 619,-792.5 "/>
<text text-anchor="middle" x="552" y="-780.5" font-family="Helvetica,sans-Serif" font-size="10.00"> </text>
<polyline fill="none" stroke="#bfbfbf" points="485,-773.5 619,-773.5 "/>
<text text-anchor="middle" x="552" y="-761.5" font-family="Helvetica,sans-Serif" font-size="10.00"> </text>
</g>
<!-- Node8&#45;&gt;Node11 -->
<g id="edge12" class="edge"><title>Node8&#45;&gt;Node11</title>
<path fill="none" stroke="orange" d="M568.316,-959.033C554.986,-951.789 541.527,-941.64 534,-928 516.017,-895.413 526.071,-852.11 537.005,-822.658"/>
<polygon fill="orange" stroke="orange" points="566.938,-962.257 577.448,-963.591 570.063,-955.994 566.938,-962.257"/>
<text text-anchor="middle" x="592.5" y="-920" font-family="Helvetica,sans-Serif" font-size="10.00"> &lt; BufferedImage, String &gt;</text>
</g>
<!-- Node13 -->
<g id="node13" class="node"><title>Node13</title>
<polygon fill="none" stroke="#bfbfbf" points="573.5,-841.5 573.5,-898.5 704.5,-898.5 704.5,-841.5 573.5,-841.5"/>
<text text-anchor="middle" x="639" y="-886.5" font-family="Helvetica,sans-Serif" font-size="10.00">HashMap&lt; String, Point &gt;</text>
<polyline fill="none" stroke="#bfbfbf" points="573.5,-879.5 704.5,-879.5 "/>
<text text-anchor="middle" x="639" y="-867.5" font-family="Helvetica,sans-Serif" font-size="10.00"> </text>
<polyline fill="none" stroke="#bfbfbf" points="573.5,-860.5 704.5,-860.5 "/>
<text text-anchor="middle" x="639" y="-848.5" font-family="Helvetica,sans-Serif" font-size="10.00"> </text>
</g>
<!-- Node8&#45;&gt;Node13 -->
<g id="edge15" class="edge"><title>Node8&#45;&gt;Node13</title>
<path fill="none" stroke="orange" d="M643.749,-945.364C648.32,-940.108 652.322,-934.277 655,-928 658.953,-918.736 657.535,-908.211 654.279,-898.749"/>
<polygon fill="orange" stroke="orange" points="641.155,-943.012 636.733,-952.64 646.194,-947.871 641.155,-943.012"/>
<text text-anchor="middle" x="695" y="-920" font-family="Helvetica,sans-Serif" font-size="10.00"> &lt; String, Point &gt;</text>
</g>
<!-- Node15 -->
<g id="node15" class="node"><title>Node15</title>
<polygon fill="none" stroke="#bfbfbf" points="723,-841.5 723,-898.5 875,-898.5 875,-841.5 723,-841.5"/>
<text text-anchor="middle" x="799" y="-886.5" font-family="Helvetica,sans-Serif" font-size="10.00">HashMap&lt; String, Rectangle &gt;</text>
<polyline fill="none" stroke="#bfbfbf" points="723,-879.5 875,-879.5 "/>
<text text-anchor="middle" x="799" y="-867.5" font-family="Helvetica,sans-Serif" font-size="10.00"> </text>
<polyline fill="none" stroke="#bfbfbf" points="723,-860.5 875,-860.5 "/>
<text text-anchor="middle" x="799" y="-848.5" font-family="Helvetica,sans-Serif" font-size="10.00"> </text>
</g>
<!-- Node8&#45;&gt;Node15 -->
<g id="edge18" class="edge"><title>Node8&#45;&gt;Node15</title>
<path fill="none" stroke="orange" d="M646.423,-964.529C673.187,-957.052 708.716,-945.022 737,-928 750.279,-920.008 763.192,-908.862 773.764,-898.544"/>
<polygon fill="orange" stroke="orange" points="645.37,-961.188 636.627,-967.173 647.194,-967.946 645.37,-961.188"/>
<text text-anchor="middle" x="800.5" y="-920" font-family="Helvetica,sans-Serif" font-size="10.00"> &lt; String, Rectangle &gt;</text>
</g>
<!-- Node9 -->
<g id="node9" class="node"><title>Node9</title>
<polygon fill="none" stroke="#bfbfbf" points="234,-298 234,-355 296,-355 296,-298 234,-298"/>
<text text-anchor="middle" x="265" y="-343" font-family="Helvetica,sans-Serif" font-size="10.00">JTextField</text>
<polyline fill="none" stroke="#bfbfbf" points="234,-336 296,-336 "/>
<text text-anchor="middle" x="265" y="-324" font-family="Helvetica,sans-Serif" font-size="10.00"> </text>
<polyline fill="none" stroke="#bfbfbf" points="234,-317 296,-317 "/>
<text text-anchor="middle" x="265" y="-305" font-family="Helvetica,sans-Serif" font-size="10.00"> </text>
</g>
<!-- Node9&#45;&gt;Node2 -->
<g id="edge9" class="edge"><title>Node9&#45;&gt;Node2</title>
<path fill="none" stroke="#404040" d="M265.459,-297.912C265.939,-269.046 266.72,-222.104 267.426,-179.634"/>
<polygon fill="none" stroke="#404040" points="267.428,-179.499 263.529,-173.434 267.628,-167.501 271.527,-173.567 267.428,-179.499"/>
<text text-anchor="middle" x="277" y="-222" font-family="Helvetica,sans-Serif" font-size="10.00"> &#45;txt</text>
</g>
<!-- Node10 -->
<g id="node10" class="node"><title>Node10</title>
<polygon fill="none" stroke="#bfbfbf" points="314.5,-298 314.5,-355 375.5,-355 375.5,-298 314.5,-298"/>
<text text-anchor="middle" x="345" y="-343" font-family="Helvetica,sans-Serif" font-size="10.00">Rectangle</text>
<polyline fill="none" stroke="#bfbfbf" points="314.5,-336 375.5,-336 "/>
<text text-anchor="middle" x="345" y="-324" font-family="Helvetica,sans-Serif" font-size="10.00"> </text>
<polyline fill="none" stroke="#bfbfbf" points="314.5,-317 375.5,-317 "/>
<text text-anchor="middle" x="345" y="-305" font-family="Helvetica,sans-Serif" font-size="10.00"> </text>
</g>
<!-- Node10&#45;&gt;Node2 -->
<g id="edge10" class="edge"><title>Node10&#45;&gt;Node2</title>
<path fill="none" stroke="#404040" d="M336.282,-297.912C327.121,-268.922 312.199,-221.702 298.733,-179.088"/>
<polygon fill="none" stroke="#404040" points="298.687,-178.943 293.065,-174.427 295.071,-167.501 300.693,-172.017 298.687,-178.943"/>
<text text-anchor="middle" x="335" y="-222" font-family="Helvetica,sans-Serif" font-size="10.00"> +ga</text>
</g>
<!-- Node11&#45;&gt;Node1 -->
<g id="edge11" class="edge"><title>Node11&#45;&gt;Node1</title>
<path fill="none" stroke="#404040" d="M522.191,-754.379C518.423,-748.597 515.143,-742.379 513,-736 499.559,-695.986 499.649,-649.781 504.298,-609.58"/>
<polygon fill="none" stroke="#404040" points="504.31,-609.488 501.106,-603.028 505.838,-597.586 509.041,-604.047 504.31,-609.488"/>
<text text-anchor="middle" x="550.5" y="-688" font-family="Helvetica,sans-Serif" font-size="10.00"> &#45;sushiReference</text>
</g>
<!-- Node12 -->
<g id="node12" class="node"><title>Node12</title>
<g id="a_node12"><a xlink:href="classSushis_1_1src_1_1Zone.html" target="_top" xlink:title="{Sushis.src.Zone\n||+ Zone()\l+ addZone()\l+ addZone()\l+ getZonesTable()\l}">
<polygon fill="none" stroke="black" points="597,-645.5 597,-735.5 693,-735.5 693,-645.5 597,-645.5"/>
<text text-anchor="middle" x="645" y="-723.5" font-family="Helvetica,sans-Serif" font-size="10.00">Sushis.src.Zone</text>
<polyline fill="none" stroke="black" points="597,-716.5 693,-716.5 "/>
<text text-anchor="middle" x="645" y="-704.5" font-family="Helvetica,sans-Serif" font-size="10.00"> </text>
<polyline fill="none" stroke="black" points="597,-697.5 693,-697.5 "/>
<text text-anchor="start" x="605" y="-685.5" font-family="Helvetica,sans-Serif" font-size="10.00">+ Zone()</text>
<text text-anchor="start" x="605" y="-674.5" font-family="Helvetica,sans-Serif" font-size="10.00">+ addZone()</text>
<text text-anchor="start" x="605" y="-663.5" font-family="Helvetica,sans-Serif" font-size="10.00">+ addZone()</text>
<text text-anchor="start" x="605" y="-652.5" font-family="Helvetica,sans-Serif" font-size="10.00">+ getZonesTable()</text>
</a>
</g>
</g>
<!-- Node12&#45;&gt;Node1 -->
<g id="edge13" class="edge"><title>Node12&#45;&gt;Node1</title>
<path fill="none" stroke="#404040" d="M615.889,-645.467C605.381,-629.572 593.144,-611.062 581.145,-592.912"/>
<polygon fill="none" stroke="#404040" points="581.133,-592.894 574.487,-590.095 574.515,-582.884 581.161,-585.683 581.133,-592.894"/>
<text text-anchor="middle" x="619.5" y="-619" font-family="Helvetica,sans-Serif" font-size="10.00"> &#45;zones</text>
</g>
<!-- Node13&#45;&gt;Node12 -->
<g id="edge14" class="edge"><title>Node13&#45;&gt;Node12</title>
<path fill="none" stroke="#404040" d="M639.938,-841.266C640.781,-816.303 642.047,-778.859 643.102,-747.656"/>
<polygon fill="none" stroke="#404040" points="643.104,-747.598 639.309,-741.466 643.509,-735.604 647.304,-741.736 643.104,-747.598"/>
<text text-anchor="middle" x="693.5" y="-786" font-family="Helvetica,sans-Serif" font-size="10.00"> &#45;ensemblePointsZones</text>
</g>
<!-- Node14 -->
<g id="node14" class="node"><title>Node14</title>
<g id="a_node14"><a xlink:href="classSushis_1_1src_1_1ReadZone.html" target="_top" xlink:title="{Sushis.src.ReadZone\n||+ ReadZone()\l+ addZone()\l+ getZones()\l}">
<polygon fill="none" stroke="black" points="714.5,-651 714.5,-730 825.5,-730 825.5,-651 714.5,-651"/>
<text text-anchor="middle" x="770" y="-718" font-family="Helvetica,sans-Serif" font-size="10.00">Sushis.src.ReadZone</text>
<polyline fill="none" stroke="black" points="714.5,-711 825.5,-711 "/>
<text text-anchor="middle" x="770" y="-699" font-family="Helvetica,sans-Serif" font-size="10.00"> </text>
<polyline fill="none" stroke="black" points="714.5,-692 825.5,-692 "/>
<text text-anchor="start" x="722.5" y="-680" font-family="Helvetica,sans-Serif" font-size="10.00">+ ReadZone()</text>
<text text-anchor="start" x="722.5" y="-669" font-family="Helvetica,sans-Serif" font-size="10.00">+ addZone()</text>
<text text-anchor="start" x="722.5" y="-658" font-family="Helvetica,sans-Serif" font-size="10.00">+ getZones()</text>
</a>
</g>
</g>
<!-- Node14&#45;&gt;Node1 -->
<g id="edge16" class="edge"><title>Node14&#45;&gt;Node1</title>
<path fill="none" stroke="#404040" d="M717.656,-650.885C678.459,-621.97 624.835,-582.411 584.275,-552.49"/>
<polygon fill="none" stroke="#404040" points="584.181,-552.421 576.978,-552.078 574.525,-545.297 581.727,-545.64 584.181,-552.421"/>
<text text-anchor="middle" x="700" y="-619" font-family="Helvetica,sans-Serif" font-size="10.00"> &#45;bulles</text>
</g>
<!-- Node15&#45;&gt;Node14 -->
<g id="edge17" class="edge"><title>Node15&#45;&gt;Node14</title>
<path fill="none" stroke="#404040" d="M794.469,-841.266C790.146,-814.809 783.533,-774.333 778.271,-742.126"/>
<polygon fill="none" stroke="#404040" points="778.263,-742.077 773.348,-736.8 776.328,-730.234 781.243,-735.51 778.263,-742.077"/>
<text text-anchor="middle" x="829" y="-786" font-family="Helvetica,sans-Serif" font-size="10.00"> &#45;ensembleZones</text>
</g>
</g>
</svg>
