<?xml version="1.0" encoding="UTF-8" standalone="no"?>
<!DOCTYPE svg PUBLIC "-//W3C//DTD SVG 1.1//EN"
 "http://www.w3.org/Graphics/SVG/1.1/DTD/svg11.dtd">
<!-- Generated by graphviz version 2.38.0 (20140413.2041)
 -->
<!-- Title: Suchi.ToolBox Pages: 1 -->
<svg width="156pt" height="292pt"
 viewBox="0.00 0.00 155.50 292.00" xmlns="http://www.w3.org/2000/svg" xmlns:xlink="http://www.w3.org/1999/xlink">
<g id="graph0" class="graph" transform="scale(1 1) rotate(0) translate(4 288)">
<title>Suchi.ToolBox</title>
<!-- Node1 -->
<g id="node1" class="node"><title>Node1</title>
<polygon fill="#bfbfbf" stroke="black" points="14.5,-0.5 14.5,-189.5 117.5,-189.5 117.5,-0.5 14.5,-0.5"/>
<text text-anchor="middle" x="66" y="-177.5" font-family="Helvetica,sans-Serif" font-size="10.00">Suchi.ToolBox</text>
<polyline fill="none" stroke="black" points="14.5,-170.5 117.5,-170.5 "/>
<text text-anchor="start" x="22.5" y="-158.5" font-family="Helvetica,sans-Serif" font-size="10.00">&#45; w</text>
<text text-anchor="start" x="22.5" y="-147.5" font-family="Helvetica,sans-Serif" font-size="10.00">&#45; h</text>
<text text-anchor="start" x="22.5" y="-136.5" font-family="Helvetica,sans-Serif" font-size="10.00">&#45; snap</text>
<text text-anchor="start" x="22.5" y="-125.5" font-family="Helvetica,sans-Serif" font-size="10.00">&#45; detect</text>
<text text-anchor="start" x="22.5" y="-114.5" font-family="Helvetica,sans-Serif" font-size="10.00">&#45; launch</text>
<text text-anchor="start" x="22.5" y="-103.5" font-family="Helvetica,sans-Serif" font-size="10.00">&#45; Auto</text>
<text text-anchor="start" x="22.5" y="-92.5" font-family="Helvetica,sans-Serif" font-size="10.00">&#45; txt</text>
<text text-anchor="start" x="22.5" y="-81.5" font-family="Helvetica,sans-Serif" font-size="10.00">&#45; countScreen</text>
<text text-anchor="start" x="22.5" y="-70.5" font-family="Helvetica,sans-Serif" font-size="10.00">&#45; ga</text>
<polyline fill="none" stroke="black" points="14.5,-63.5 117.5,-63.5 "/>
<text text-anchor="start" x="22.5" y="-51.5" font-family="Helvetica,sans-Serif" font-size="10.00">+ ToolBox()</text>
<text text-anchor="start" x="22.5" y="-40.5" font-family="Helvetica,sans-Serif" font-size="10.00">+ Capture()</text>
<text text-anchor="start" x="22.5" y="-29.5" font-family="Helvetica,sans-Serif" font-size="10.00">+ CaptureGame()</text>
<text text-anchor="start" x="22.5" y="-18.5" font-family="Helvetica,sans-Serif" font-size="10.00">+ Launch()</text>
<text text-anchor="start" x="22.5" y="-7.5" font-family="Helvetica,sans-Serif" font-size="10.00">+ actionPerformed()</text>
</g>
<!-- Node2 -->
<g id="node2" class="node"><title>Node2</title>
<polygon fill="none" stroke="#bfbfbf" points="0,-226.5 0,-283.5 50,-283.5 50,-226.5 0,-226.5"/>
<text text-anchor="middle" x="25" y="-271.5" font-family="Helvetica,sans-Serif" font-size="10.00">JFrame</text>
<polyline fill="none" stroke="#bfbfbf" points="0,-264.5 50,-264.5 "/>
<text text-anchor="middle" x="25" y="-252.5" font-family="Helvetica,sans-Serif" font-size="10.00"> </text>
<polyline fill="none" stroke="#bfbfbf" points="0,-245.5 50,-245.5 "/>
<text text-anchor="middle" x="25" y="-233.5" font-family="Helvetica,sans-Serif" font-size="10.00"> </text>
</g>
<!-- Node2&#45;&gt;Node1 -->
<g id="edge1" class="edge"><title>Node2&#45;&gt;Node1</title>
<path fill="none" stroke="midnightblue" d="M34.6618,-216.767C36.8283,-208.418 39.2214,-199.195 41.6911,-189.678"/>
<polygon fill="none" stroke="midnightblue" points="31.2657,-215.92 32.1417,-226.479 38.0413,-217.678 31.2657,-215.92"/>
</g>
<!-- Node3 -->
<g id="node3" class="node"><title>Node3</title>
<polygon fill="none" stroke="#bfbfbf" points="68.5,-226.5 68.5,-283.5 147.5,-283.5 147.5,-226.5 68.5,-226.5"/>
<text text-anchor="middle" x="108" y="-271.5" font-family="Helvetica,sans-Serif" font-size="10.00">ActionListener</text>
<polyline fill="none" stroke="#bfbfbf" points="68.5,-264.5 147.5,-264.5 "/>
<text text-anchor="middle" x="108" y="-252.5" font-family="Helvetica,sans-Serif" font-size="10.00"> </text>
<polyline fill="none" stroke="#bfbfbf" points="68.5,-245.5 147.5,-245.5 "/>
<text text-anchor="middle" x="108" y="-233.5" font-family="Helvetica,sans-Serif" font-size="10.00"> </text>
</g>
<!-- Node3&#45;&gt;Node1 -->
<g id="edge2" class="edge"><title>Node3&#45;&gt;Node1</title>
<path fill="none" stroke="midnightblue" d="M98.1026,-216.767C95.8832,-208.418 93.4317,-199.195 90.9019,-189.678"/>
<polygon fill="none" stroke="midnightblue" points="94.7325,-217.713 100.684,-226.479 101.498,-215.915 94.7325,-217.713"/>
</g>
</g>
</svg>
