<?xml version="1.0" encoding="UTF-8" standalone="no"?>
<!DOCTYPE svg PUBLIC "-//W3C//DTD SVG 1.1//EN"
 "http://www.w3.org/Graphics/SVG/1.1/DTD/svg11.dtd">
<!-- Generated by graphviz version 2.38.0 (20140413.2041)
 -->
<!-- Title: Sushis.src.Manager Pages: 1 -->
<!--zoomable 878 -->
<svg id="main" version="1.1" xmlns="http://www.w3.org/2000/svg" xmlns:xlink="http://www.w3.org/1999/xlink" xml:space="preserve" onload="init(evt)">
<style type="text/css"><![CDATA[
.edge:hover path { stroke: red; }
.edge:hover polygon { stroke: red; fill: red; }
]]></style>
<script type="text/javascript"><![CDATA[
var edges = document.getElementsByTagName('g');
if (edges && edges.length) {
  for (var i=0;i<edges.length;i++) {
    if (edges[i].id.substr(0,4)=='edge') {
      edges[i].setAttribute('class','edge');
    }
  }
}
]]></script>
        <defs>
                <circle id="rim" cx="0" cy="0" r="7"/>
                <circle id="rim2" cx="0" cy="0" r="3.5"/>
                <g id="zoomPlus">
                        <use xlink:href="#rim" fill="#404040">
                                <set attributeName="fill" to="#808080" begin="zoomplus.mouseover" end="zoomplus.mouseout"/>
                        </use>
                        <path d="M-4,0h8M0,-4v8" fill="none" stroke="white" stroke-width="1.5" pointer-events="none"/>
                </g>
                <g id="zoomMin">
                        <use xlink:href="#rim" fill="#404040">
                                <set attributeName="fill" to="#808080" begin="zoomminus.mouseover" end="zoomminus.mouseout"/>
                        </use>
                        <path d="M-4,0h8" fill="none" stroke="white" stroke-width="1.5" pointer-events="none"/>
                </g>
                <g id="dirArrow">
                        <path fill="none" stroke="white" stroke-width="1.5" d="M0,-3.0v7 M-2.5,-0.5L0,-3.0L2.5,-0.5"/>
                </g>
               <g id="resetDef">
                       <use xlink:href="#rim2" fill="#404040">
                               <set attributeName="fill" to="#808080" begin="reset.mouseover" end="reset.mouseout"/>
                       </use>
               </g>
        </defs>

<script type="text/javascript">
var viewWidth = 852;
var viewHeight = 878;
var sectionId = 'dynsection-0';
</script>
<script xlink:href="svgpan.js"/>
<svg id="graph" class="graph">
<g id="viewport">
<title>Sushis.src.Manager</title>
<!-- Node1 -->
<g id="node1" class="node"><title>Node1</title>
<polygon fill="#bfbfbf" stroke="black" points="346,-511.5 346,-601.5 450,-601.5 450,-511.5 346,-511.5"/>
<text text-anchor="middle" x="398" y="-589.5" font-family="Helvetica,sans-Serif" font-size="10.00">Sushis.src.Manager</text>
<polyline fill="none" stroke="black" points="346,-582.5 450,-582.5 "/>
<text text-anchor="start" x="354" y="-570.5" font-family="Helvetica,sans-Serif" font-size="10.00">&#45; cash</text>
<text text-anchor="start" x="354" y="-559.5" font-family="Helvetica,sans-Serif" font-size="10.00">&#45; bar</text>
<polyline fill="none" stroke="black" points="346,-552.5 450,-552.5 "/>
<text text-anchor="start" x="354" y="-540.5" font-family="Helvetica,sans-Serif" font-size="10.00">+ Manager()</text>
<text text-anchor="start" x="354" y="-529.5" font-family="Helvetica,sans-Serif" font-size="10.00">+ CheckBar()</text>
<text text-anchor="start" x="354" y="-518.5" font-family="Helvetica,sans-Serif" font-size="10.00">&#45; makeSushi()</text>
</g>
<!-- Node3 -->
<g id="node3" class="node"><title>Node3</title>
<g id="a_node3"><a xlink:href="classSushis_1_1src_1_1ToolBox.html" target="_top" xlink:title="{Sushis.src.ToolBox\n|&#45; w\l&#45; h\l&#45; countScreen\l&#45; serialVersionUID\l|+ ToolBox()\l+ ToolBox()\l+ Capture()\l+ CaptureGame()\l+ Launch()\l+ Run()\l+ Serve()\l+ actionPerformed()\l}">
<polygon fill="none" stroke="black" points="524.5,-216.5 524.5,-383.5 627.5,-383.5 627.5,-216.5 524.5,-216.5"/>
<text text-anchor="middle" x="576" y="-371.5" font-family="Helvetica,sans-Serif" font-size="10.00">Sushis.src.ToolBox</text>
<polyline fill="none" stroke="black" points="524.5,-364.5 627.5,-364.5 "/>
<text text-anchor="start" x="532.5" y="-352.5" font-family="Helvetica,sans-Serif" font-size="10.00">&#45; w</text>
<text text-anchor="start" x="532.5" y="-341.5" font-family="Helvetica,sans-Serif" font-size="10.00">&#45; h</text>
<text text-anchor="start" x="532.5" y="-330.5" font-family="Helvetica,sans-Serif" font-size="10.00">&#45; countScreen</text>
<text text-anchor="start" x="532.5" y="-319.5" font-family="Helvetica,sans-Serif" font-size="10.00">&#45; serialVersionUID</text>
<polyline fill="none" stroke="black" points="524.5,-312.5 627.5,-312.5 "/>
<text text-anchor="start" x="532.5" y="-300.5" font-family="Helvetica,sans-Serif" font-size="10.00">+ ToolBox()</text>
<text text-anchor="start" x="532.5" y="-289.5" font-family="Helvetica,sans-Serif" font-size="10.00">+ ToolBox()</text>
<text text-anchor="start" x="532.5" y="-278.5" font-family="Helvetica,sans-Serif" font-size="10.00">+ Capture()</text>
<text text-anchor="start" x="532.5" y="-267.5" font-family="Helvetica,sans-Serif" font-size="10.00">+ CaptureGame()</text>
<text text-anchor="start" x="532.5" y="-256.5" font-family="Helvetica,sans-Serif" font-size="10.00">+ Launch()</text>
<text text-anchor="start" x="532.5" y="-245.5" font-family="Helvetica,sans-Serif" font-size="10.00">+ Run()</text>
<text text-anchor="start" x="532.5" y="-234.5" font-family="Helvetica,sans-Serif" font-size="10.00">+ Serve()</text>
<text text-anchor="start" x="532.5" y="-223.5" font-family="Helvetica,sans-Serif" font-size="10.00">+ actionPerformed()</text>
</a>
</g>
</g>
<!-- Node1&#45;&gt;Node3 -->
<g id="edge6" class="edge"><title>Node1&#45;&gt;Node3</title>
<path fill="none" stroke="#404040" d="M412.836,-511.381C424.838,-479.304 443.72,-435.769 468,-402 481.34,-383.446 498.461,-365.584 515.121,-350.175"/>
<polygon fill="none" stroke="#404040" points="515.398,-349.924 517.168,-342.934 524.302,-341.878 522.532,-348.869 515.398,-349.924"/>
<text text-anchor="middle" x="490" y="-445" font-family="Helvetica,sans-Serif" font-size="10.00"> &#45;manager</text>
</g>
<!-- Node2 -->
<g id="node2" class="node"><title>Node2</title>
<g id="a_node2"><a xlink:href="classSushis_1_1src_1_1IA.html" target="_top" xlink:title="{Sushis.src.IA\n|+ xOr\l+ yOr\l&#45; width\l&#45; height\l&#45; serialVersionUID\l&#45; spriteCount\l|+ IA()\l+ click()\l+ initiateGame()\l+ getZone()\l+ saveSprites()\l+ loadSprites()\l+ getSushi()\l}">
<polygon fill="none" stroke="black" points="269.5,-0.5 269.5,-178.5 366.5,-178.5 366.5,-0.5 269.5,-0.5"/>
<text text-anchor="middle" x="318" y="-166.5" font-family="Helvetica,sans-Serif" font-size="10.00">Sushis.src.IA</text>
<polyline fill="none" stroke="black" points="269.5,-159.5 366.5,-159.5 "/>
<text text-anchor="start" x="277.5" y="-147.5" font-family="Helvetica,sans-Serif" font-size="10.00">+ xOr</text>
<text text-anchor="start" x="277.5" y="-136.5" font-family="Helvetica,sans-Serif" font-size="10.00">+ yOr</text>
<text text-anchor="start" x="277.5" y="-125.5" font-family="Helvetica,sans-Serif" font-size="10.00">&#45; width</text>
<text text-anchor="start" x="277.5" y="-114.5" font-family="Helvetica,sans-Serif" font-size="10.00">&#45; height</text>
<text text-anchor="start" x="277.5" y="-103.5" font-family="Helvetica,sans-Serif" font-size="10.00">&#45; serialVersionUID</text>
<text text-anchor="start" x="277.5" y="-92.5" font-family="Helvetica,sans-Serif" font-size="10.00">&#45; spriteCount</text>
<polyline fill="none" stroke="black" points="269.5,-85.5 366.5,-85.5 "/>
<text text-anchor="start" x="277.5" y="-73.5" font-family="Helvetica,sans-Serif" font-size="10.00">+ IA()</text>
<text text-anchor="start" x="277.5" y="-62.5" font-family="Helvetica,sans-Serif" font-size="10.00">+ click()</text>
<text text-anchor="start" x="277.5" y="-51.5" font-family="Helvetica,sans-Serif" font-size="10.00">+ initiateGame()</text>
<text text-anchor="start" x="277.5" y="-40.5" font-family="Helvetica,sans-Serif" font-size="10.00">+ getZone()</text>
<text text-anchor="start" x="277.5" y="-29.5" font-family="Helvetica,sans-Serif" font-size="10.00">+ saveSprites()</text>
<text text-anchor="start" x="277.5" y="-18.5" font-family="Helvetica,sans-Serif" font-size="10.00">+ loadSprites()</text>
<text text-anchor="start" x="277.5" y="-7.5" font-family="Helvetica,sans-Serif" font-size="10.00">+ getSushi()</text>
</a>
</g>
</g>
<!-- Node2&#45;&gt;Node1 -->
<g id="edge1" class="edge"><title>Node2&#45;&gt;Node1</title>
<path fill="none" stroke="#404040" d="M344.943,-178.557C348.274,-191.057 351.412,-203.805 354,-216 374.937,-314.655 387.45,-431.688 393.508,-499.39"/>
<polygon fill="none" stroke="#404040" points="393.516,-499.488 398.025,-505.116 394.564,-511.442 390.055,-505.814 393.516,-499.488"/>
<text text-anchor="middle" x="388" y="-297.5" font-family="Helvetica,sans-Serif" font-size="10.00"> &#45;ia</text>
</g>
<!-- Node3&#45;&gt;Node2 -->
<g id="edge2" class="edge"><title>Node3&#45;&gt;Node2</title>
<path fill="none" stroke="midnightblue" d="M516.422,-250.853C471.053,-214.188 409.367,-164.337 366.879,-130.001"/>
<polygon fill="none" stroke="midnightblue" points="514.432,-253.745 524.41,-257.308 518.832,-248.3 514.432,-253.745"/>
</g>
<!-- Node4 -->
<g id="node4" class="node"><title>Node4</title>
<polygon fill="none" stroke="#bfbfbf" points="468,-528 468,-585 518,-585 518,-528 468,-528"/>
<text text-anchor="middle" x="493" y="-573" font-family="Helvetica,sans-Serif" font-size="10.00">JFrame</text>
<polyline fill="none" stroke="#bfbfbf" points="468,-566 518,-566 "/>
<text text-anchor="middle" x="493" y="-554" font-family="Helvetica,sans-Serif" font-size="10.00"> </text>
<polyline fill="none" stroke="#bfbfbf" points="468,-547 518,-547 "/>
<text text-anchor="middle" x="493" y="-535" font-family="Helvetica,sans-Serif" font-size="10.00"> </text>
</g>
<!-- Node4&#45;&gt;Node3 -->
<g id="edge3" class="edge"><title>Node4&#45;&gt;Node3</title>
<path fill="none" stroke="midnightblue" d="M505.253,-517.93C516.728,-482.743 534.272,-428.95 549.017,-383.737"/>
<polygon fill="none" stroke="midnightblue" points="501.814,-517.187 502.04,-527.78 508.469,-519.358 501.814,-517.187"/>
</g>
<!-- Node5 -->
<g id="node5" class="node"><title>Node5</title>
<polygon fill="none" stroke="#bfbfbf" points="536.5,-528 536.5,-585 615.5,-585 615.5,-528 536.5,-528"/>
<text text-anchor="middle" x="576" y="-573" font-family="Helvetica,sans-Serif" font-size="10.00">ActionListener</text>
<polyline fill="none" stroke="#bfbfbf" points="536.5,-566 615.5,-566 "/>
<text text-anchor="middle" x="576" y="-554" font-family="Helvetica,sans-Serif" font-size="10.00"> </text>
<polyline fill="none" stroke="#bfbfbf" points="536.5,-547 615.5,-547 "/>
<text text-anchor="middle" x="576" y="-535" font-family="Helvetica,sans-Serif" font-size="10.00"> </text>
</g>
<!-- Node5&#45;&gt;Node3 -->
<g id="edge4" class="edge"><title>Node5&#45;&gt;Node3</title>
<path fill="none" stroke="midnightblue" d="M576,-517.475C576,-482.281 576,-428.756 576,-383.737"/>
<polygon fill="none" stroke="midnightblue" points="572.5,-517.78 576,-527.78 579.5,-517.78 572.5,-517.78"/>
</g>
<!-- Node6 -->
<g id="node6" class="node"><title>Node6</title>
<polygon fill="none" stroke="#bfbfbf" points="634,-528 634,-585 684,-585 684,-528 634,-528"/>
<text text-anchor="middle" x="659" y="-573" font-family="Helvetica,sans-Serif" font-size="10.00">JButton</text>
<polyline fill="none" stroke="#bfbfbf" points="634,-566 684,-566 "/>
<text text-anchor="middle" x="659" y="-554" font-family="Helvetica,sans-Serif" font-size="10.00"> </text>
<polyline fill="none" stroke="#bfbfbf" points="634,-547 684,-547 "/>
<text text-anchor="middle" x="659" y="-535" font-family="Helvetica,sans-Serif" font-size="10.00"> </text>
</g>
<!-- Node6&#45;&gt;Node3 -->
<g id="edge5" class="edge"><title>Node6&#45;&gt;Node3</title>
<path fill="none" stroke="#404040" d="M649.96,-527.78C639.615,-496.062 622.118,-442.41 606.739,-395.253"/>
<polygon fill="none" stroke="#404040" points="606.704,-395.145 601.04,-390.681 602.983,-383.737 608.646,-388.201 606.704,-395.145"/>
<text text-anchor="middle" x="664.5" y="-478" font-family="Helvetica,sans-Serif" font-size="10.00"> &#45;launch</text>
<text text-anchor="middle" x="664.5" y="-467" font-family="Helvetica,sans-Serif" font-size="10.00">&#45;detect</text>
<text text-anchor="middle" x="664.5" y="-456" font-family="Helvetica,sans-Serif" font-size="10.00">&#45;saveSprites</text>
<text text-anchor="middle" x="664.5" y="-445" font-family="Helvetica,sans-Serif" font-size="10.00">&#45;snap</text>
<text text-anchor="middle" x="664.5" y="-434" font-family="Helvetica,sans-Serif" font-size="10.00">&#45;makeSushi</text>
<text text-anchor="middle" x="664.5" y="-423" font-family="Helvetica,sans-Serif" font-size="10.00">&#45;startBot</text>
<text text-anchor="middle" x="664.5" y="-412" font-family="Helvetica,sans-Serif" font-size="10.00">&#45;Auto</text>
</g>
<!-- Node7 -->
<g id="node7" class="node"><title>Node7</title>
<polygon fill="none" stroke="#bfbfbf" points="702,-528 702,-585 764,-585 764,-528 702,-528"/>
<text text-anchor="middle" x="733" y="-573" font-family="Helvetica,sans-Serif" font-size="10.00">JTextField</text>
<polyline fill="none" stroke="#bfbfbf" points="702,-566 764,-566 "/>
<text text-anchor="middle" x="733" y="-554" font-family="Helvetica,sans-Serif" font-size="10.00"> </text>
<polyline fill="none" stroke="#bfbfbf" points="702,-547 764,-547 "/>
<text text-anchor="middle" x="733" y="-535" font-family="Helvetica,sans-Serif" font-size="10.00"> </text>
</g>
<!-- Node7&#45;&gt;Node3 -->
<g id="edge7" class="edge"><title>Node7&#45;&gt;Node3</title>
<path fill="none" stroke="#404040" d="M731.502,-527.729C728.637,-495.356 720.294,-441.285 696,-402 681.22,-378.1 658.857,-357.057 637.425,-340.451"/>
<polygon fill="none" stroke="#404040" points="637.275,-340.338 630.075,-339.938 627.674,-333.138 634.875,-333.538 637.275,-340.338"/>
<text text-anchor="middle" x="736" y="-445" font-family="Helvetica,sans-Serif" font-size="10.00"> &#45;txt</text>
</g>
<!-- Node8 -->
<g id="node8" class="node"><title>Node8</title>
<polygon fill="none" stroke="#bfbfbf" points="782.5,-528 782.5,-585 843.5,-585 843.5,-528 782.5,-528"/>
<text text-anchor="middle" x="813" y="-573" font-family="Helvetica,sans-Serif" font-size="10.00">Rectangle</text>
<polyline fill="none" stroke="#bfbfbf" points="782.5,-566 843.5,-566 "/>
<text text-anchor="middle" x="813" y="-554" font-family="Helvetica,sans-Serif" font-size="10.00"> </text>
<polyline fill="none" stroke="#bfbfbf" points="782.5,-547 843.5,-547 "/>
<text text-anchor="middle" x="813" y="-535" font-family="Helvetica,sans-Serif" font-size="10.00"> </text>
</g>
<!-- Node8&#45;&gt;Node3 -->
<g id="edge8" class="edge"><title>Node8&#45;&gt;Node3</title>
<path fill="none" stroke="#404040" d="M807.198,-527.97C799.039,-494.839 781.412,-439.052 749,-402 719.222,-367.958 675.053,-342.438 638.8,-325.567"/>
<polygon fill="none" stroke="#404040" points="638.763,-325.551 631.648,-326.725 627.828,-320.609 634.943,-319.435 638.763,-325.551"/>
<text text-anchor="middle" x="807" y="-445" font-family="Helvetica,sans-Serif" font-size="10.00"> +ga</text>
</g>
<!-- Node9 -->
<g id="node9" class="node"><title>Node9</title>
<polygon fill="none" stroke="#bfbfbf" points="0,-620.5 0,-688.5 134,-688.5 134,-620.5 0,-620.5"/>
<text text-anchor="start" x="8" y="-676.5" font-family="Helvetica,sans-Serif" font-size="10.00">HashMap&lt; BufferedImage,</text>
<text text-anchor="middle" x="67" y="-665.5" font-family="Helvetica,sans-Serif" font-size="10.00"> String &gt;</text>
<polyline fill="none" stroke="#bfbfbf" points="0,-658.5 134,-658.5 "/>
<text text-anchor="middle" x="67" y="-646.5" font-family="Helvetica,sans-Serif" font-size="10.00"> </text>
<polyline fill="none" stroke="#bfbfbf" points="0,-639.5 134,-639.5 "/>
<text text-anchor="middle" x="67" y="-627.5" font-family="Helvetica,sans-Serif" font-size="10.00"> </text>
</g>
<!-- Node9&#45;&gt;Node2 -->
<g id="edge9" class="edge"><title>Node9&#45;&gt;Node2</title>
<path fill="none" stroke="#404040" d="M61.2977,-620.135C54.2841,-570.787 46.3267,-476.185 73,-402 111.14,-295.922 200.813,-198.034 260.434,-141.302"/>
<polygon fill="none" stroke="#404040" points="260.628,-141.119 262.256,-134.094 269.367,-132.895 267.739,-139.92 260.628,-141.119"/>
<text text-anchor="middle" x="110.5" y="-445" font-family="Helvetica,sans-Serif" font-size="10.00"> &#45;sushiReference</text>
</g>
<!-- Node10 -->
<g id="node10" class="node"><title>Node10</title>
<polygon fill="none" stroke="#bfbfbf" points="234.5,-812.5 234.5,-869.5 293.5,-869.5 293.5,-812.5 234.5,-812.5"/>
<text text-anchor="middle" x="264" y="-857.5" font-family="Helvetica,sans-Serif" font-size="10.00">HashMap</text>
<polyline fill="none" stroke="#bfbfbf" points="234.5,-850.5 293.5,-850.5 "/>
<text text-anchor="middle" x="264" y="-838.5" font-family="Helvetica,sans-Serif" font-size="10.00"> </text>
<polyline fill="none" stroke="#bfbfbf" points="234.5,-831.5 293.5,-831.5 "/>
<text text-anchor="middle" x="264" y="-819.5" font-family="Helvetica,sans-Serif" font-size="10.00"> </text>
</g>
<!-- Node10&#45;&gt;Node9 -->
<g id="edge10" class="edge"><title>Node10&#45;&gt;Node9</title>
<path fill="none" stroke="orange" d="M224.307,-835.265C176.537,-828.703 100.425,-815.197 82,-794 57.0891,-765.342 57.0913,-719.743 60.8184,-688.761"/>
<polygon fill="orange" stroke="orange" points="223.957,-838.749 234.331,-836.598 224.88,-831.811 223.957,-838.749"/>
<text text-anchor="middle" x="140.5" y="-786" font-family="Helvetica,sans-Serif" font-size="10.00"> &lt; BufferedImage, String &gt;</text>
</g>
<!-- Node12 -->
<g id="node12" class="node"><title>Node12</title>
<polygon fill="none" stroke="#bfbfbf" points="94.5,-707.5 94.5,-764.5 225.5,-764.5 225.5,-707.5 94.5,-707.5"/>
<text text-anchor="middle" x="160" y="-752.5" font-family="Helvetica,sans-Serif" font-size="10.00">HashMap&lt; String, Point &gt;</text>
<polyline fill="none" stroke="#bfbfbf" points="94.5,-745.5 225.5,-745.5 "/>
<text text-anchor="middle" x="160" y="-733.5" font-family="Helvetica,sans-Serif" font-size="10.00"> </text>
<polyline fill="none" stroke="#bfbfbf" points="94.5,-726.5 225.5,-726.5 "/>
<text text-anchor="middle" x="160" y="-714.5" font-family="Helvetica,sans-Serif" font-size="10.00"> </text>
</g>
<!-- Node10&#45;&gt;Node12 -->
<g id="edge13" class="edge"><title>Node10&#45;&gt;Node12</title>
<path fill="none" stroke="orange" d="M227.01,-807.338C222.235,-802.918 217.46,-798.393 213,-794 203.565,-784.707 193.587,-774.176 184.864,-764.717"/>
<polygon fill="orange" stroke="orange" points="224.725,-809.991 234.465,-814.16 229.451,-804.827 224.725,-809.991"/>
<text text-anchor="middle" x="251" y="-786" font-family="Helvetica,sans-Serif" font-size="10.00"> &lt; String, Point &gt;</text>
</g>
<!-- Node14 -->
<g id="node14" class="node"><title>Node14</title>
<polygon fill="none" stroke="#bfbfbf" points="244,-707.5 244,-764.5 396,-764.5 396,-707.5 244,-707.5"/>
<text text-anchor="middle" x="320" y="-752.5" font-family="Helvetica,sans-Serif" font-size="10.00">HashMap&lt; String, Rectangle &gt;</text>
<polyline fill="none" stroke="#bfbfbf" points="244,-745.5 396,-745.5 "/>
<text text-anchor="middle" x="320" y="-733.5" font-family="Helvetica,sans-Serif" font-size="10.00"> </text>
<polyline fill="none" stroke="#bfbfbf" points="244,-726.5 396,-726.5 "/>
<text text-anchor="middle" x="320" y="-714.5" font-family="Helvetica,sans-Serif" font-size="10.00"> </text>
</g>
<!-- Node10&#45;&gt;Node14 -->
<g id="edge16" class="edge"><title>Node10&#45;&gt;Node14</title>
<path fill="none" stroke="orange" d="M287.646,-803.358C289.504,-800.22 291.312,-797.072 293,-794 298.168,-784.595 303.335,-774.038 307.746,-764.589"/>
<polygon fill="orange" stroke="orange" points="284.535,-801.738 282.336,-812.102 290.518,-805.371 284.535,-801.738"/>
<text text-anchor="middle" x="347.5" y="-786" font-family="Helvetica,sans-Serif" font-size="10.00"> &lt; String, Rectangle &gt;</text>
</g>
<!-- Node15 -->
<g id="node15" class="node"><title>Node15</title>
<polygon fill="none" stroke="#bfbfbf" points="414,-707.5 414,-764.5 552,-764.5 552,-707.5 414,-707.5"/>
<text text-anchor="middle" x="483" y="-752.5" font-family="Helvetica,sans-Serif" font-size="10.00">HashMap&lt; String, Integer &gt;</text>
<polyline fill="none" stroke="#bfbfbf" points="414,-745.5 552,-745.5 "/>
<text text-anchor="middle" x="483" y="-733.5" font-family="Helvetica,sans-Serif" font-size="10.00"> </text>
<polyline fill="none" stroke="#bfbfbf" points="414,-726.5 552,-726.5 "/>
<text text-anchor="middle" x="483" y="-714.5" font-family="Helvetica,sans-Serif" font-size="10.00"> </text>
</g>
<!-- Node10&#45;&gt;Node15 -->
<g id="edge18" class="edge"><title>Node10&#45;&gt;Node15</title>
<path fill="none" stroke="orange" d="M303.346,-829.814C331.138,-821.879 368.832,-809.596 400,-794 416.414,-785.786 433.327,-774.721 447.567,-764.526"/>
<polygon fill="orange" stroke="orange" points="302.276,-826.479 293.585,-832.539 304.158,-833.221 302.276,-826.479"/>
<text text-anchor="middle" x="461.5" y="-786" font-family="Helvetica,sans-Serif" font-size="10.00"> &lt; String, Integer &gt;</text>
</g>
<!-- Node11 -->
<g id="node11" class="node"><title>Node11</title>
<g id="a_node11"><a xlink:href="classSushis_1_1src_1_1Zone.html" target="_top" xlink:title="{Sushis.src.Zone\n||+ Zone()\l+ addZone()\l+ addZone()\l+ getZonesTable()\l}">
<polygon fill="none" stroke="black" points="157,-402.5 157,-492.5 253,-492.5 253,-402.5 157,-402.5"/>
<text text-anchor="middle" x="205" y="-480.5" font-family="Helvetica,sans-Serif" font-size="10.00">Sushis.src.Zone</text>
<polyline fill="none" stroke="black" points="157,-473.5 253,-473.5 "/>
<text text-anchor="middle" x="205" y="-461.5" font-family="Helvetica,sans-Serif" font-size="10.00"> </text>
<polyline fill="none" stroke="black" points="157,-454.5 253,-454.5 "/>
<text text-anchor="start" x="165" y="-442.5" font-family="Helvetica,sans-Serif" font-size="10.00">+ Zone()</text>
<text text-anchor="start" x="165" y="-431.5" font-family="Helvetica,sans-Serif" font-size="10.00">+ addZone()</text>
<text text-anchor="start" x="165" y="-420.5" font-family="Helvetica,sans-Serif" font-size="10.00">+ addZone()</text>
<text text-anchor="start" x="165" y="-409.5" font-family="Helvetica,sans-Serif" font-size="10.00">+ getZonesTable()</text>
</a>
</g>
</g>
<!-- Node11&#45;&gt;Node2 -->
<g id="edge11" class="edge"><title>Node11&#45;&gt;Node2</title>
<path fill="none" stroke="#404040" d="M218.969,-402.49C235.694,-349.8 264.22,-259.931 286.373,-190.14"/>
<polygon fill="none" stroke="#404040" points="286.379,-190.119 284.382,-183.19 290.01,-178.681 292.007,-185.61 286.379,-190.119"/>
<text text-anchor="middle" x="295.5" y="-297.5" font-family="Helvetica,sans-Serif" font-size="10.00"> &#45;zones</text>
</g>
<!-- Node12&#45;&gt;Node11 -->
<g id="edge12" class="edge"><title>Node12&#45;&gt;Node11</title>
<path fill="none" stroke="#404040" d="M164.356,-707.269C171.681,-660.629 186.605,-565.614 196.187,-504.608"/>
<polygon fill="none" stroke="#404040" points="196.225,-504.365 193.205,-497.817 198.087,-492.51 201.108,-499.058 196.225,-504.365"/>
<text text-anchor="middle" x="229.5" y="-652" font-family="Helvetica,sans-Serif" font-size="10.00"> &#45;ensemblePointsZones</text>
</g>
<!-- Node13 -->
<g id="node13" class="node"><title>Node13</title>
<g id="a_node13"><a xlink:href="classSushis_1_1src_1_1ReadZone.html" target="_top" xlink:title="{Sushis.src.ReadZone\n||+ ReadZone()\l+ addZone()\l+ getZones()\l}">
<polygon fill="none" stroke="black" points="262.5,-408 262.5,-487 373.5,-487 373.5,-408 262.5,-408"/>
<text text-anchor="middle" x="318" y="-475" font-family="Helvetica,sans-Serif" font-size="10.00">Sushis.src.ReadZone</text>
<polyline fill="none" stroke="black" points="262.5,-468 373.5,-468 "/>
<text text-anchor="middle" x="318" y="-456" font-family="Helvetica,sans-Serif" font-size="10.00"> </text>
<polyline fill="none" stroke="black" points="262.5,-449 373.5,-449 "/>
<text text-anchor="start" x="270.5" y="-437" font-family="Helvetica,sans-Serif" font-size="10.00">+ ReadZone()</text>
<text text-anchor="start" x="270.5" y="-426" font-family="Helvetica,sans-Serif" font-size="10.00">+ addZone()</text>
<text text-anchor="start" x="270.5" y="-415" font-family="Helvetica,sans-Serif" font-size="10.00">+ getZones()</text>
</a>
</g>
</g>
<!-- Node13&#45;&gt;Node2 -->
<g id="edge14" class="edge"><title>Node13&#45;&gt;Node2</title>
<path fill="none" stroke="#404040" d="M318,-407.724C318,-356.107 318,-262.962 318,-190.908"/>
<polygon fill="none" stroke="#404040" points="318,-190.627 314,-184.627 318,-178.627 322,-184.627 318,-190.627"/>
<text text-anchor="middle" x="334" y="-297.5" font-family="Helvetica,sans-Serif" font-size="10.00"> &#45;bulles</text>
</g>
<!-- Node14&#45;&gt;Node13 -->
<g id="edge15" class="edge"><title>Node14&#45;&gt;Node13</title>
<path fill="none" stroke="#404040" d="M319.806,-707.269C319.471,-659.284 318.779,-560.095 318.355,-499.417"/>
<polygon fill="none" stroke="#404040" points="318.353,-499.086 314.311,-493.114 318.269,-487.086 322.311,-493.058 318.353,-499.086"/>
<text text-anchor="middle" x="358" y="-652" font-family="Helvetica,sans-Serif" font-size="10.00"> &#45;ensembleZones</text>
</g>
<!-- Node15&#45;&gt;Node1 -->
<g id="edge17" class="edge"><title>Node15&#45;&gt;Node1</title>
<path fill="none" stroke="#404040" d="M469.719,-707.266C457.659,-682.082 439.516,-644.195 424.496,-612.829"/>
<polygon fill="none" stroke="#404040" points="424.303,-612.428 418.104,-608.744 419.12,-601.604 425.32,-605.288 424.303,-612.428"/>
<text text-anchor="middle" x="488" y="-652" font-family="Helvetica,sans-Serif" font-size="10.00"> &#45;ingredients</text>
</g>
</g>
</svg>
        <g id="navigator" transform="translate(0 0)" fill="#404254">
                <rect fill="#f2f5e9" fill-opacity="0.5" stroke="#606060" stroke-width=".5" x="0" y="0" width="60" height="60"/>
                <use id="zoomplus" xlink:href="#zoomPlus" x="17" y="9" onmousedown="handleZoom(evt,'in')"/>
                <use id="zoomminus" xlink:href="#zoomMin" x="42" y="9" onmousedown="handleZoom(evt,'out')"/>
                <use id="reset" xlink:href="#resetDef" x="30" y="36" onmousedown="handleReset()"/>
                <g id="arrowUp" xlink:href="#dirArrow" transform="translate(30 24)" onmousedown="handlePan(0,-1)">
                  <use xlink:href="#rim" fill="#404040">
                        <set attributeName="fill" to="#808080" begin="arrowUp.mouseover" end="arrowUp.mouseout"/>
                  </use>
                  <path fill="none" stroke="white" stroke-width="1.5" d="M0,-3.0v7 M-2.5,-0.5L0,-3.0L2.5,-0.5"/>
                </g>
                <g id="arrowRight" xlink:href="#dirArrow" transform="rotate(90) translate(36 -43)" onmousedown="handlePan(1,0)">
                  <use xlink:href="#rim" fill="#404040">
                        <set attributeName="fill" to="#808080" begin="arrowRight.mouseover" end="arrowRight.mouseout"/>
                  </use>
                  <path fill="none" stroke="white" stroke-width="1.5" d="M0,-3.0v7 M-2.5,-0.5L0,-3.0L2.5,-0.5"/>
                </g>
                <g id="arrowDown" xlink:href="#dirArrow" transform="rotate(180) translate(-30 -48)" onmousedown="handlePan(0,1)">
                  <use xlink:href="#rim" fill="#404040">
                        <set attributeName="fill" to="#808080" begin="arrowDown.mouseover" end="arrowDown.mouseout"/>
                  </use>
                  <path fill="none" stroke="white" stroke-width="1.5" d="M0,-3.0v7 M-2.5,-0.5L0,-3.0L2.5,-0.5"/>
                </g>
                <g id="arrowLeft" xlink:href="#dirArrow" transform="rotate(270) translate(-36 17)" onmousedown="handlePan(-1,0)">
                  <use xlink:href="#rim" fill="#404040">
                        <set attributeName="fill" to="#808080" begin="arrowLeft.mouseover" end="arrowLeft.mouseout"/>
                  </use>
                  <path fill="none" stroke="white" stroke-width="1.5" d="M0,-3.0v7 M-2.5,-0.5L0,-3.0L2.5,-0.5"/>
                </g>
        </g>
        <svg viewBox="0 0 15 15" width="100%" height="30px" preserveAspectRatio="xMaxYMin meet">
         <g id="arrow_out" transform="scale(0.3 0.3)">
          <a xlink:href="classSushis_1_1src_1_1Manager__coll__graph_org.svg" target="_base">
           <rect id="button" ry="5" rx="5" y="6" x="6" height="38" width="38"
                fill="#f2f5e9" fill-opacity="0.5" stroke="#606060" stroke-width="1.0"/>
           <path id="arrow"
             d="M 11.500037,31.436501 C 11.940474,20.09759 22.043105,11.32322 32.158766,21.979434 L 37.068811,17.246167 C 37.068811,17.246167 37.088388,32 37.088388,32 L 22.160133,31.978069 C 22.160133,31.978069 26.997745,27.140456 26.997745,27.140456 C 18.528582,18.264221 13.291696,25.230495 11.500037,31.436501 z"
             style="fill:#404040;"/>
          </a>
         </g>
        </svg>
</svg>
