<?xml version="1.0" encoding="UTF-8" standalone="no"?>
<!DOCTYPE svg PUBLIC "-//W3C//DTD SVG 1.1//EN"
 "http://www.w3.org/Graphics/SVG/1.1/DTD/svg11.dtd">
<!-- Generated by graphviz version 2.38.0 (20140413.2041)
 -->
<!-- Title: Screen Pages: 1 -->
<svg width="176pt" height="314pt"
 viewBox="0.00 0.00 175.50 314.00" xmlns="http://www.w3.org/2000/svg" xmlns:xlink="http://www.w3.org/1999/xlink">
<g id="graph0" class="graph" transform="scale(1 1) rotate(0) translate(4 310)">
<title>Screen</title>
<!-- Node1 -->
<g id="node1" class="node"><title>Node1</title>
<polygon fill="#bfbfbf" stroke="black" points="26.5,-0.5 26.5,-145.5 134.5,-145.5 134.5,-0.5 26.5,-0.5"/>
<text text-anchor="middle" x="80.5" y="-133.5" font-family="Helvetica,sans-Serif" font-size="10.00">Screen</text>
<polyline fill="none" stroke="black" points="26.5,-126.5 134.5,-126.5 "/>
<text text-anchor="middle" x="80.5" y="-114.5" font-family="Helvetica,sans-Serif" font-size="10.00"> </text>
<polyline fill="none" stroke="black" points="26.5,-107.5 134.5,-107.5 "/>
<text text-anchor="start" x="34.5" y="-95.5" font-family="Helvetica,sans-Serif" font-size="10.00">+ Screen()</text>
<text text-anchor="start" x="34.5" y="-84.5" font-family="Helvetica,sans-Serif" font-size="10.00">+ saveImage()</text>
<text text-anchor="start" x="34.5" y="-73.5" font-family="Helvetica,sans-Serif" font-size="10.00">+ lookHorizontal()</text>
<text text-anchor="start" x="34.5" y="-62.5" font-family="Helvetica,sans-Serif" font-size="10.00">+ lookVertical()</text>
<text text-anchor="start" x="34.5" y="-51.5" font-family="Helvetica,sans-Serif" font-size="10.00">+ getImg()</text>
<text text-anchor="start" x="34.5" y="-40.5" font-family="Helvetica,sans-Serif" font-size="10.00">+ getDepartGauche()</text>
<text text-anchor="start" x="34.5" y="-29.5" font-family="Helvetica,sans-Serif" font-size="10.00">+ getDepartDroit()</text>
<text text-anchor="start" x="34.5" y="-18.5" font-family="Helvetica,sans-Serif" font-size="10.00">+ getGameArea()</text>
<text text-anchor="start" x="34.5" y="-7.5" font-family="Helvetica,sans-Serif" font-size="10.00">+ saveGameArea()</text>
</g>
<!-- Node2 -->
<g id="node2" class="node"><title>Node2</title>
<g id="a_node2"><a xlink:href="classDot.html" target="_top" xlink:title="{Dot\n|+ x\l+ y\l|+ Dot()\l+ Dot()\l+ setPos()\l+ translate()\l}">
<polygon fill="none" stroke="black" points="0,-204.5 0,-305.5 69,-305.5 69,-204.5 0,-204.5"/>
<text text-anchor="middle" x="34.5" y="-293.5" font-family="Helvetica,sans-Serif" font-size="10.00">Dot</text>
<polyline fill="none" stroke="black" points="0,-286.5 69,-286.5 "/>
<text text-anchor="start" x="8" y="-274.5" font-family="Helvetica,sans-Serif" font-size="10.00">+ x</text>
<text text-anchor="start" x="8" y="-263.5" font-family="Helvetica,sans-Serif" font-size="10.00">+ y</text>
<polyline fill="none" stroke="black" points="0,-256.5 69,-256.5 "/>
<text text-anchor="start" x="8" y="-244.5" font-family="Helvetica,sans-Serif" font-size="10.00">+ Dot()</text>
<text text-anchor="start" x="8" y="-233.5" font-family="Helvetica,sans-Serif" font-size="10.00">+ Dot()</text>
<text text-anchor="start" x="8" y="-222.5" font-family="Helvetica,sans-Serif" font-size="10.00">+ setPos()</text>
<text text-anchor="start" x="8" y="-211.5" font-family="Helvetica,sans-Serif" font-size="10.00">+ translate()</text>
</a>
</g>
</g>
<!-- Node2&#45;&gt;Node1 -->
<g id="edge1" class="edge"><title>Node2&#45;&gt;Node1</title>
<path fill="none" stroke="#404040" d="M35.4023,-204.483C36.4416,-191.195 38.2913,-176.929 41.5,-164 42.0614,-161.738 42.6743,-159.46 43.3316,-157.175"/>
<polygon fill="none" stroke="#404040" points="43.3335,-157.169 41.3304,-150.242 46.9544,-145.728 48.9575,-152.655 43.3335,-157.169"/>
<text text-anchor="middle" x="73.5" y="-178" font-family="Helvetica,sans-Serif" font-size="10.00"> &#45;departDroit</text>
<text text-anchor="middle" x="73.5" y="-167" font-family="Helvetica,sans-Serif" font-size="10.00">&#45;departGauche</text>
</g>
<!-- Node3 -->
<g id="node3" class="node"><title>Node3</title>
<polygon fill="none" stroke="#bfbfbf" points="87.5,-226.5 87.5,-283.5 167.5,-283.5 167.5,-226.5 87.5,-226.5"/>
<text text-anchor="middle" x="127.5" y="-271.5" font-family="Helvetica,sans-Serif" font-size="10.00">BufferedImage</text>
<polyline fill="none" stroke="#bfbfbf" points="87.5,-264.5 167.5,-264.5 "/>
<text text-anchor="middle" x="127.5" y="-252.5" font-family="Helvetica,sans-Serif" font-size="10.00"> </text>
<polyline fill="none" stroke="#bfbfbf" points="87.5,-245.5 167.5,-245.5 "/>
<text text-anchor="middle" x="127.5" y="-233.5" font-family="Helvetica,sans-Serif" font-size="10.00"> </text>
</g>
<!-- Node3&#45;&gt;Node1 -->
<g id="edge2" class="edge"><title>Node3&#45;&gt;Node1</title>
<path fill="none" stroke="#404040" d="M120.982,-226.371C116.717,-208.536 110.944,-184.855 105.5,-164 104.941,-161.857 104.37,-159.687 103.79,-157.498"/>
<polygon fill="none" stroke="#404040" points="103.727,-157.261 98.3118,-152.498 100.625,-145.668 106.04,-150.43 103.727,-157.261"/>
<text text-anchor="middle" x="122.5" y="-172.5" font-family="Helvetica,sans-Serif" font-size="10.00"> &#45;img</text>
</g>
</g>
</svg>
