<?xml version="1.0" encoding="UTF-8" standalone="no"?>
<!DOCTYPE svg PUBLIC "-//W3C//DTD SVG 1.1//EN"
 "http://www.w3.org/Graphics/SVG/1.1/DTD/svg11.dtd">
<!-- Generated by graphviz version 2.38.0 (20140413.2041)
 -->
<!-- Title: Suchi.Recette Pages: 1 -->
<!--zoomable 832 -->
<svg id="main" version="1.1" xmlns="http://www.w3.org/2000/svg" xmlns:xlink="http://www.w3.org/1999/xlink" xml:space="preserve" onload="init(evt)">
<style type="text/css"><![CDATA[
.edge:hover path { stroke: red; }
.edge:hover polygon { stroke: red; fill: red; }
]]></style>
<script type="text/javascript"><![CDATA[
var edges = document.getElementsByTagName('g');
if (edges && edges.length) {
  for (var i=0;i<edges.length;i++) {
    if (edges[i].id.substr(0,4)=='edge') {
      edges[i].setAttribute('class','edge');
    }
  }
}
]]></script>
        <defs>
                <circle id="rim" cx="0" cy="0" r="7"/>
                <circle id="rim2" cx="0" cy="0" r="3.5"/>
                <g id="zoomPlus">
                        <use xlink:href="#rim" fill="#404040">
                                <set attributeName="fill" to="#808080" begin="zoomplus.mouseover" end="zoomplus.mouseout"/>
                        </use>
                        <path d="M-4,0h8M0,-4v8" fill="none" stroke="white" stroke-width="1.5" pointer-events="none"/>
                </g>
                <g id="zoomMin">
                        <use xlink:href="#rim" fill="#404040">
                                <set attributeName="fill" to="#808080" begin="zoomminus.mouseover" end="zoomminus.mouseout"/>
                        </use>
                        <path d="M-4,0h8" fill="none" stroke="white" stroke-width="1.5" pointer-events="none"/>
                </g>
                <g id="dirArrow">
                        <path fill="none" stroke="white" stroke-width="1.5" d="M0,-3.0v7 M-2.5,-0.5L0,-3.0L2.5,-0.5"/>
                </g>
               <g id="resetDef">
                       <use xlink:href="#rim2" fill="#404040">
                               <set attributeName="fill" to="#808080" begin="reset.mouseover" end="reset.mouseout"/>
                       </use>
               </g>
        </defs>

<script type="text/javascript">
var viewWidth = 640;
var viewHeight = 832;
var sectionId = 'dynsection-1';
</script>
<script xlink:href="svgpan.js"/>
<svg id="graph" class="graph">
<g id="viewport">
<title>Suchi.Recette</title>
<!-- Node1 -->
<g id="node1" class="node"><title>Node1</title>
<polygon fill="#bfbfbf" stroke="black" points="340.5,-0.5 340.5,-255.5 433.5,-255.5 433.5,-0.5 340.5,-0.5"/>
<text text-anchor="middle" x="387" y="-243.5" font-family="Helvetica,sans-Serif" font-size="10.00">Suchi.Recette</text>
<polyline fill="none" stroke="black" points="340.5,-236.5 433.5,-236.5 "/>
<text text-anchor="start" x="348.5" y="-224.5" font-family="Helvetica,sans-Serif" font-size="10.00"># Rice</text>
<text text-anchor="start" x="348.5" y="-213.5" font-family="Helvetica,sans-Serif" font-size="10.00"># Roe</text>
<text text-anchor="start" x="348.5" y="-202.5" font-family="Helvetica,sans-Serif" font-size="10.00"># Noori</text>
<text text-anchor="start" x="348.5" y="-191.5" font-family="Helvetica,sans-Serif" font-size="10.00"># salmon</text>
<text text-anchor="start" x="348.5" y="-180.5" font-family="Helvetica,sans-Serif" font-size="10.00">&#45; time</text>
<polyline fill="none" stroke="black" points="340.5,-173.5 433.5,-173.5 "/>
<text text-anchor="start" x="348.5" y="-161.5" font-family="Helvetica,sans-Serif" font-size="10.00">+ make()</text>
<text text-anchor="start" x="348.5" y="-150.5" font-family="Helvetica,sans-Serif" font-size="10.00">+ validate()</text>
<text text-anchor="start" x="348.5" y="-139.5" font-family="Helvetica,sans-Serif" font-size="10.00">+ useRice()</text>
<text text-anchor="start" x="348.5" y="-128.5" font-family="Helvetica,sans-Serif" font-size="10.00">+ useRoe()</text>
<text text-anchor="start" x="348.5" y="-117.5" font-family="Helvetica,sans-Serif" font-size="10.00">+ useNoori()</text>
<text text-anchor="start" x="348.5" y="-106.5" font-family="Helvetica,sans-Serif" font-size="10.00">+ useSalmon()</text>
<text text-anchor="start" x="348.5" y="-95.5" font-family="Helvetica,sans-Serif" font-size="10.00">+ checkAliment()</text>
<text text-anchor="start" x="348.5" y="-84.5" font-family="Helvetica,sans-Serif" font-size="10.00">+ phoneClick()</text>
<text text-anchor="start" x="348.5" y="-73.5" font-family="Helvetica,sans-Serif" font-size="10.00">+ validatePhone()</text>
<text text-anchor="start" x="348.5" y="-62.5" font-family="Helvetica,sans-Serif" font-size="10.00">+ buyRice()</text>
<text text-anchor="start" x="348.5" y="-51.5" font-family="Helvetica,sans-Serif" font-size="10.00">+ buyRoe()</text>
<text text-anchor="start" x="348.5" y="-40.5" font-family="Helvetica,sans-Serif" font-size="10.00">+ buyNoori()</text>
<text text-anchor="start" x="348.5" y="-29.5" font-family="Helvetica,sans-Serif" font-size="10.00">+ buySalmon()</text>
<text text-anchor="start" x="348.5" y="-18.5" font-family="Helvetica,sans-Serif" font-size="10.00">+ resetAliments()</text>
<text text-anchor="start" x="348.5" y="-7.5" font-family="Helvetica,sans-Serif" font-size="10.00"># Recette()</text>
</g>
<!-- Node2 -->
<g id="node2" class="node"><title>Node2</title>
<g id="a_node2"><a xlink:href="classSuchi_1_1Ia.html" target="_top" xlink:title="{Suchi.Ia\n|~ height\l&#45; width\l|+ Ia()\l+ loadCommandes()\l+ clearTable()\l+ saveSprites()\l+ fillGreyTable()\l+ initGreyReference()\l+ fillCommandes()\l+ getZone()\l+ clickZone()\l+ resetIngredients()\l+ useIngredient()\l+ checkIngredients()\l+ buyIngredient()\l}">
<polygon fill="none" stroke="black" points="263,-391.5 263,-591.5 373,-591.5 373,-391.5 263,-391.5"/>
<text text-anchor="middle" x="318" y="-579.5" font-family="Helvetica,sans-Serif" font-size="10.00">Suchi.Ia</text>
<polyline fill="none" stroke="black" points="263,-572.5 373,-572.5 "/>
<text text-anchor="start" x="271" y="-560.5" font-family="Helvetica,sans-Serif" font-size="10.00">~ height</text>
<text text-anchor="start" x="271" y="-549.5" font-family="Helvetica,sans-Serif" font-size="10.00">&#45; width</text>
<polyline fill="none" stroke="black" points="263,-542.5 373,-542.5 "/>
<text text-anchor="start" x="271" y="-530.5" font-family="Helvetica,sans-Serif" font-size="10.00">+ Ia()</text>
<text text-anchor="start" x="271" y="-519.5" font-family="Helvetica,sans-Serif" font-size="10.00">+ loadCommandes()</text>
<text text-anchor="start" x="271" y="-508.5" font-family="Helvetica,sans-Serif" font-size="10.00">+ clearTable()</text>
<text text-anchor="start" x="271" y="-497.5" font-family="Helvetica,sans-Serif" font-size="10.00">+ saveSprites()</text>
<text text-anchor="start" x="271" y="-486.5" font-family="Helvetica,sans-Serif" font-size="10.00">+ fillGreyTable()</text>
<text text-anchor="start" x="271" y="-475.5" font-family="Helvetica,sans-Serif" font-size="10.00">+ initGreyReference()</text>
<text text-anchor="start" x="271" y="-464.5" font-family="Helvetica,sans-Serif" font-size="10.00">+ fillCommandes()</text>
<text text-anchor="start" x="271" y="-453.5" font-family="Helvetica,sans-Serif" font-size="10.00">+ getZone()</text>
<text text-anchor="start" x="271" y="-442.5" font-family="Helvetica,sans-Serif" font-size="10.00">+ clickZone()</text>
<text text-anchor="start" x="271" y="-431.5" font-family="Helvetica,sans-Serif" font-size="10.00">+ resetIngredients()</text>
<text text-anchor="start" x="271" y="-420.5" font-family="Helvetica,sans-Serif" font-size="10.00">+ useIngredient()</text>
<text text-anchor="start" x="271" y="-409.5" font-family="Helvetica,sans-Serif" font-size="10.00">+ checkIngredients()</text>
<text text-anchor="start" x="271" y="-398.5" font-family="Helvetica,sans-Serif" font-size="10.00">+ buyIngredient()</text>
</a>
</g>
</g>
<!-- Node2&#45;&gt;Node1 -->
<g id="edge1" class="edge"><title>Node2&#45;&gt;Node1</title>
<path fill="none" stroke="#404040" d="M336.946,-391.24C344.242,-353.015 352.712,-308.64 360.586,-267.385"/>
<polygon fill="none" stroke="#404040" points="360.594,-267.342 357.79,-260.698 362.844,-255.555 365.648,-262.198 360.594,-267.342"/>
<text text-anchor="middle" x="367" y="-321" font-family="Helvetica,sans-Serif" font-size="10.00"> #ia</text>
</g>
<!-- Node3 -->
<g id="node3" class="node"><title>Node3</title>
<polygon fill="none" stroke="#bfbfbf" points="0,-656 0,-713 152,-713 152,-656 0,-656"/>
<text text-anchor="middle" x="76" y="-701" font-family="Helvetica,sans-Serif" font-size="10.00">HashMap&lt; String, Suchi.Dot &gt;</text>
<polyline fill="none" stroke="#bfbfbf" points="0,-694 152,-694 "/>
<text text-anchor="middle" x="76" y="-682" font-family="Helvetica,sans-Serif" font-size="10.00"> </text>
<polyline fill="none" stroke="#bfbfbf" points="0,-675 152,-675 "/>
<text text-anchor="middle" x="76" y="-663" font-family="Helvetica,sans-Serif" font-size="10.00"> </text>
</g>
<!-- Node3&#45;&gt;Node2 -->
<g id="edge2" class="edge"><title>Node3&#45;&gt;Node2</title>
<path fill="none" stroke="#404040" d="M110.93,-655.931C148.08,-626.611 207.67,-579.578 253.408,-543.48"/>
<polygon fill="none" stroke="#404040" points="253.525,-543.387 255.757,-536.53 262.945,-535.953 260.713,-542.81 253.525,-543.387"/>
<text text-anchor="middle" x="185.5" y="-618.5" font-family="Helvetica,sans-Serif" font-size="10.00"> &#45;zones</text>
</g>
<!-- Node4 -->
<g id="node4" class="node"><title>Node4</title>
<polygon fill="none" stroke="#bfbfbf" points="288.5,-766.5 288.5,-823.5 347.5,-823.5 347.5,-766.5 288.5,-766.5"/>
<text text-anchor="middle" x="318" y="-811.5" font-family="Helvetica,sans-Serif" font-size="10.00">HashMap</text>
<polyline fill="none" stroke="#bfbfbf" points="288.5,-804.5 347.5,-804.5 "/>
<text text-anchor="middle" x="318" y="-792.5" font-family="Helvetica,sans-Serif" font-size="10.00"> </text>
<polyline fill="none" stroke="#bfbfbf" points="288.5,-785.5 347.5,-785.5 "/>
<text text-anchor="middle" x="318" y="-773.5" font-family="Helvetica,sans-Serif" font-size="10.00"> </text>
</g>
<!-- Node4&#45;&gt;Node3 -->
<g id="edge3" class="edge"><title>Node4&#45;&gt;Node3</title>
<path fill="none" stroke="orange" d="M278.302,-788.767C242.129,-782.782 188.084,-770.723 146,-748 129.371,-739.021 113.439,-725.347 100.987,-713.076"/>
<polygon fill="orange" stroke="orange" points="278.041,-792.269 288.464,-790.367 279.129,-785.354 278.041,-792.269"/>
<text text-anchor="middle" x="196" y="-740" font-family="Helvetica,sans-Serif" font-size="10.00"> &lt; String, Suchi::Dot &gt;</text>
</g>
<!-- Node5 -->
<g id="node5" class="node"><title>Node5</title>
<polygon fill="none" stroke="#bfbfbf" points="170,-650.5 170,-718.5 306,-718.5 306,-650.5 170,-650.5"/>
<text text-anchor="start" x="178" y="-706.5" font-family="Helvetica,sans-Serif" font-size="10.00">HashMap&lt; String, Buffered</text>
<text text-anchor="middle" x="238" y="-695.5" font-family="Helvetica,sans-Serif" font-size="10.00">Image &gt;</text>
<polyline fill="none" stroke="#bfbfbf" points="170,-688.5 306,-688.5 "/>
<text text-anchor="middle" x="238" y="-676.5" font-family="Helvetica,sans-Serif" font-size="10.00"> </text>
<polyline fill="none" stroke="#bfbfbf" points="170,-669.5 306,-669.5 "/>
<text text-anchor="middle" x="238" y="-657.5" font-family="Helvetica,sans-Serif" font-size="10.00"> </text>
</g>
<!-- Node4&#45;&gt;Node5 -->
<g id="edge5" class="edge"><title>Node4&#45;&gt;Node5</title>
<path fill="none" stroke="orange" d="M279.955,-772.535C270.661,-765.736 261.526,-757.48 255,-748 249.071,-739.386 245.206,-728.782 242.688,-718.771"/>
<polygon fill="orange" stroke="orange" points="278.236,-775.6 288.465,-778.363 282.192,-769.824 278.236,-775.6"/>
<text text-anchor="middle" x="313.5" y="-740" font-family="Helvetica,sans-Serif" font-size="10.00"> &lt; String, BufferedImage &gt;</text>
</g>
<!-- Node6 -->
<g id="node6" class="node"><title>Node6</title>
<polygon fill="none" stroke="#bfbfbf" points="324,-656 324,-713 476,-713 476,-656 324,-656"/>
<text text-anchor="middle" x="400" y="-701" font-family="Helvetica,sans-Serif" font-size="10.00">HashMap&lt; String, Rectangle &gt;</text>
<polyline fill="none" stroke="#bfbfbf" points="324,-694 476,-694 "/>
<text text-anchor="middle" x="400" y="-682" font-family="Helvetica,sans-Serif" font-size="10.00"> </text>
<polyline fill="none" stroke="#bfbfbf" points="324,-675 476,-675 "/>
<text text-anchor="middle" x="400" y="-663" font-family="Helvetica,sans-Serif" font-size="10.00"> </text>
</g>
<!-- Node4&#45;&gt;Node6 -->
<g id="edge7" class="edge"><title>Node4&#45;&gt;Node6</title>
<path fill="none" stroke="orange" d="M355.393,-766.007C361.411,-760.465 367.222,-754.375 372,-748 379.844,-737.535 386.117,-724.524 390.72,-713.087"/>
<polygon fill="orange" stroke="orange" points="352.947,-763.497 347.724,-772.715 357.555,-768.766 352.947,-763.497"/>
<text text-anchor="middle" x="428.5" y="-740" font-family="Helvetica,sans-Serif" font-size="10.00"> &lt; String, Rectangle &gt;</text>
</g>
<!-- Node7 -->
<g id="node7" class="node"><title>Node7</title>
<polygon fill="none" stroke="#bfbfbf" points="494,-656 494,-713 632,-713 632,-656 494,-656"/>
<text text-anchor="middle" x="563" y="-701" font-family="Helvetica,sans-Serif" font-size="10.00">HashMap&lt; String, Integer &gt;</text>
<polyline fill="none" stroke="#bfbfbf" points="494,-694 632,-694 "/>
<text text-anchor="middle" x="563" y="-682" font-family="Helvetica,sans-Serif" font-size="10.00"> </text>
<polyline fill="none" stroke="#bfbfbf" points="494,-675 632,-675 "/>
<text text-anchor="middle" x="563" y="-663" font-family="Helvetica,sans-Serif" font-size="10.00"> </text>
</g>
<!-- Node4&#45;&gt;Node7 -->
<g id="edge9" class="edge"><title>Node4&#45;&gt;Node7</title>
<path fill="none" stroke="orange" d="M357.796,-787.129C391.777,-780.258 441.307,-767.822 481,-748 499.416,-738.803 517.834,-725.257 532.536,-713.125"/>
<polygon fill="orange" stroke="orange" points="356.922,-783.733 347.778,-789.084 358.263,-790.604 356.922,-783.733"/>
<text text-anchor="middle" x="540.5" y="-740" font-family="Helvetica,sans-Serif" font-size="10.00"> &lt; String, Integer &gt;</text>
</g>
<!-- Node5&#45;&gt;Node2 -->
<g id="edge4" class="edge"><title>Node5&#45;&gt;Node2</title>
<path fill="none" stroke="#404040" d="M251.935,-650.23C257.59,-636.728 264.477,-620.287 271.643,-603.178"/>
<polygon fill="none" stroke="#404040" points="271.746,-602.932 270.374,-595.852 276.382,-591.864 277.753,-598.943 271.746,-602.932"/>
<text text-anchor="middle" x="304" y="-618.5" font-family="Helvetica,sans-Serif" font-size="10.00"> &#45;greyReference</text>
</g>
<!-- Node6&#45;&gt;Node2 -->
<g id="edge6" class="edge"><title>Node6&#45;&gt;Node2</title>
<path fill="none" stroke="#404040" d="M388.076,-655.727C381.884,-641.303 373.868,-622.631 365.481,-603.096"/>
<polygon fill="none" stroke="#404040" points="365.386,-602.875 359.344,-598.94 360.652,-591.848 366.695,-595.784 365.386,-602.875"/>
<text text-anchor="middle" x="412.5" y="-624" font-family="Helvetica,sans-Serif" font-size="10.00"> &#45;greyIngredients</text>
<text text-anchor="middle" x="412.5" y="-613" font-family="Helvetica,sans-Serif" font-size="10.00">&#45;commandes</text>
</g>
<!-- Node7&#45;&gt;Node2 -->
<g id="edge8" class="edge"><title>Node7&#45;&gt;Node2</title>
<path fill="none" stroke="#404040" d="M528.145,-655.714C507.36,-640.327 479.86,-621.952 453,-610 426.279,-598.11 411.591,-608.403 383.421,-591.747"/>
<polygon fill="none" stroke="#404040" points="383.292,-591.661 376.081,-591.654 373.314,-584.994 380.525,-585.002 383.292,-591.661"/>
<text text-anchor="middle" x="519" y="-618.5" font-family="Helvetica,sans-Serif" font-size="10.00"> &#45;ingredients</text>
</g>
<!-- Node8 -->
<g id="node8" class="node"><title>Node8</title>
<polygon fill="none" stroke="#bfbfbf" points="391.5,-463 391.5,-520 430.5,-520 430.5,-463 391.5,-463"/>
<text text-anchor="middle" x="411" y="-508" font-family="Helvetica,sans-Serif" font-size="10.00">Point</text>
<polyline fill="none" stroke="#bfbfbf" points="391.5,-501 430.5,-501 "/>
<text text-anchor="middle" x="411" y="-489" font-family="Helvetica,sans-Serif" font-size="10.00"> </text>
<polyline fill="none" stroke="#bfbfbf" points="391.5,-482 430.5,-482 "/>
<text text-anchor="middle" x="411" y="-470" font-family="Helvetica,sans-Serif" font-size="10.00"> </text>
</g>
<!-- Node8&#45;&gt;Node1 -->
<g id="edge10" class="edge"><title>Node8&#45;&gt;Node1</title>
<path fill="none" stroke="#404040" d="M409.157,-462.734C406.397,-421.161 401.003,-339.926 396.229,-268.015"/>
<polygon fill="none" stroke="#404040" points="396.202,-267.611 391.814,-261.889 395.407,-255.637 399.796,-261.359 396.202,-267.611"/>
<text text-anchor="middle" x="427.5" y="-365" font-family="Helvetica,sans-Serif" font-size="10.00"> #RiceC</text>
<text text-anchor="middle" x="427.5" y="-354" font-family="Helvetica,sans-Serif" font-size="10.00">#phone</text>
<text text-anchor="middle" x="427.5" y="-343" font-family="Helvetica,sans-Serif" font-size="10.00">#saumon</text>
<text text-anchor="middle" x="427.5" y="-332" font-family="Helvetica,sans-Serif" font-size="10.00">#exitPhone</text>
<text text-anchor="middle" x="427.5" y="-321" font-family="Helvetica,sans-Serif" font-size="10.00">#nori</text>
<text text-anchor="middle" x="427.5" y="-310" font-family="Helvetica,sans-Serif" font-size="10.00">#RiceCbuy</text>
<text text-anchor="middle" x="427.5" y="-299" font-family="Helvetica,sans-Serif" font-size="10.00">#validate</text>
<text text-anchor="middle" x="427.5" y="-288" font-family="Helvetica,sans-Serif" font-size="10.00">#fishEggs</text>
<text text-anchor="middle" x="427.5" y="-277" font-family="Helvetica,sans-Serif" font-size="10.00">#Topping</text>
</g>
</g>
</svg>
        <g id="navigator" transform="translate(0 0)" fill="#404254">
                <rect fill="#f2f5e9" fill-opacity="0.5" stroke="#606060" stroke-width=".5" x="0" y="0" width="60" height="60"/>
                <use id="zoomplus" xlink:href="#zoomPlus" x="17" y="9" onmousedown="handleZoom(evt,'in')"/>
                <use id="zoomminus" xlink:href="#zoomMin" x="42" y="9" onmousedown="handleZoom(evt,'out')"/>
                <use id="reset" xlink:href="#resetDef" x="30" y="36" onmousedown="handleReset()"/>
                <g id="arrowUp" xlink:href="#dirArrow" transform="translate(30 24)" onmousedown="handlePan(0,-1)">
                  <use xlink:href="#rim" fill="#404040">
                        <set attributeName="fill" to="#808080" begin="arrowUp.mouseover" end="arrowUp.mouseout"/>
                  </use>
                  <path fill="none" stroke="white" stroke-width="1.5" d="M0,-3.0v7 M-2.5,-0.5L0,-3.0L2.5,-0.5"/>
                </g>
                <g id="arrowRight" xlink:href="#dirArrow" transform="rotate(90) translate(36 -43)" onmousedown="handlePan(1,0)">
                  <use xlink:href="#rim" fill="#404040">
                        <set attributeName="fill" to="#808080" begin="arrowRight.mouseover" end="arrowRight.mouseout"/>
                  </use>
                  <path fill="none" stroke="white" stroke-width="1.5" d="M0,-3.0v7 M-2.5,-0.5L0,-3.0L2.5,-0.5"/>
                </g>
                <g id="arrowDown" xlink:href="#dirArrow" transform="rotate(180) translate(-30 -48)" onmousedown="handlePan(0,1)">
                  <use xlink:href="#rim" fill="#404040">
                        <set attributeName="fill" to="#808080" begin="arrowDown.mouseover" end="arrowDown.mouseout"/>
                  </use>
                  <path fill="none" stroke="white" stroke-width="1.5" d="M0,-3.0v7 M-2.5,-0.5L0,-3.0L2.5,-0.5"/>
                </g>
                <g id="arrowLeft" xlink:href="#dirArrow" transform="rotate(270) translate(-36 17)" onmousedown="handlePan(-1,0)">
                  <use xlink:href="#rim" fill="#404040">
                        <set attributeName="fill" to="#808080" begin="arrowLeft.mouseover" end="arrowLeft.mouseout"/>
                  </use>
                  <path fill="none" stroke="white" stroke-width="1.5" d="M0,-3.0v7 M-2.5,-0.5L0,-3.0L2.5,-0.5"/>
                </g>
        </g>
        <svg viewBox="0 0 15 15" width="100%" height="30px" preserveAspectRatio="xMaxYMin meet">
         <g id="arrow_out" transform="scale(0.3 0.3)">
          <a xlink:href="classSuchi_1_1Recette__coll__graph_org.svg" target="_base">
           <rect id="button" ry="5" rx="5" y="6" x="6" height="38" width="38"
                fill="#f2f5e9" fill-opacity="0.5" stroke="#606060" stroke-width="1.0"/>
           <path id="arrow"
             d="M 11.500037,31.436501 C 11.940474,20.09759 22.043105,11.32322 32.158766,21.979434 L 37.068811,17.246167 C 37.068811,17.246167 37.088388,32 37.088388,32 L 22.160133,31.978069 C 22.160133,31.978069 26.997745,27.140456 26.997745,27.140456 C 18.528582,18.264221 13.291696,25.230495 11.500037,31.436501 z"
             style="fill:#404040;"/>
          </a>
         </g>
        </svg>
</svg>
