<?xml version="1.0" encoding="UTF-8" standalone="no"?>
<!DOCTYPE svg PUBLIC "-//W3C//DTD SVG 1.1//EN"
 "http://www.w3.org/Graphics/SVG/1.1/DTD/svg11.dtd">
<!-- Generated by graphviz version 2.38.0 (20140413.2041)
 -->
<!-- Title: Sushis.src.Zone Pages: 1 -->
<svg width="177pt" height="309pt"
 viewBox="0.00 0.00 176.50 309.00" xmlns="http://www.w3.org/2000/svg" xmlns:xlink="http://www.w3.org/1999/xlink">
<g id="graph0" class="graph" transform="scale(1 1) rotate(0) translate(4 305)">
<title>Sushis.src.Zone</title>
<!-- Node1 -->
<g id="node1" class="node"><title>Node1</title>
<polygon fill="#bfbfbf" stroke="black" points="17.5,-0.5 17.5,-90.5 113.5,-90.5 113.5,-0.5 17.5,-0.5"/>
<text text-anchor="middle" x="65.5" y="-78.5" font-family="Helvetica,sans-Serif" font-size="10.00">Sushis.src.Zone</text>
<polyline fill="none" stroke="black" points="17.5,-71.5 113.5,-71.5 "/>
<text text-anchor="middle" x="65.5" y="-59.5" font-family="Helvetica,sans-Serif" font-size="10.00"> </text>
<polyline fill="none" stroke="black" points="17.5,-52.5 113.5,-52.5 "/>
<text text-anchor="start" x="25.5" y="-40.5" font-family="Helvetica,sans-Serif" font-size="10.00">+ Zone()</text>
<text text-anchor="start" x="25.5" y="-29.5" font-family="Helvetica,sans-Serif" font-size="10.00">+ addZone()</text>
<text text-anchor="start" x="25.5" y="-18.5" font-family="Helvetica,sans-Serif" font-size="10.00">+ addZone()</text>
<text text-anchor="start" x="25.5" y="-7.5" font-family="Helvetica,sans-Serif" font-size="10.00">+ getZonesTable()</text>
</g>
<!-- Node2 -->
<g id="node2" class="node"><title>Node2</title>
<polygon fill="none" stroke="#bfbfbf" points="0,-138.5 0,-195.5 131,-195.5 131,-138.5 0,-138.5"/>
<text text-anchor="middle" x="65.5" y="-183.5" font-family="Helvetica,sans-Serif" font-size="10.00">HashMap&lt; String, Point &gt;</text>
<polyline fill="none" stroke="#bfbfbf" points="0,-176.5 131,-176.5 "/>
<text text-anchor="middle" x="65.5" y="-164.5" font-family="Helvetica,sans-Serif" font-size="10.00"> </text>
<polyline fill="none" stroke="#bfbfbf" points="0,-157.5 131,-157.5 "/>
<text text-anchor="middle" x="65.5" y="-145.5" font-family="Helvetica,sans-Serif" font-size="10.00"> </text>
</g>
<!-- Node2&#45;&gt;Node1 -->
<g id="edge1" class="edge"><title>Node2&#45;&gt;Node1</title>
<path fill="none" stroke="#404040" d="M65.5,-138.284C65.5,-127.735 65.5,-115.294 65.5,-103.035"/>
<polygon fill="none" stroke="#404040" points="65.5001,-102.912 61.5,-96.9125 65.5,-90.9125 69.5,-96.9124 65.5001,-102.912"/>
<text text-anchor="middle" x="117" y="-112" font-family="Helvetica,sans-Serif" font-size="10.00"> &#45;ensemblePointsZones</text>
</g>
<!-- Node3 -->
<g id="node3" class="node"><title>Node3</title>
<polygon fill="none" stroke="#bfbfbf" points="36,-243.5 36,-300.5 95,-300.5 95,-243.5 36,-243.5"/>
<text text-anchor="middle" x="65.5" y="-288.5" font-family="Helvetica,sans-Serif" font-size="10.00">HashMap</text>
<polyline fill="none" stroke="#bfbfbf" points="36,-281.5 95,-281.5 "/>
<text text-anchor="middle" x="65.5" y="-269.5" font-family="Helvetica,sans-Serif" font-size="10.00"> </text>
<polyline fill="none" stroke="#bfbfbf" points="36,-262.5 95,-262.5 "/>
<text text-anchor="middle" x="65.5" y="-250.5" font-family="Helvetica,sans-Serif" font-size="10.00"> </text>
</g>
<!-- Node3&#45;&gt;Node2 -->
<g id="edge2" class="edge"><title>Node3&#45;&gt;Node2</title>
<path fill="none" stroke="orange" d="M65.5,-233.286C65.5,-220.839 65.5,-207.233 65.5,-195.678"/>
<polygon fill="orange" stroke="orange" points="62.0001,-233.398 65.5,-243.398 69.0001,-233.398 62.0001,-233.398"/>
<text text-anchor="middle" x="103.5" y="-217" font-family="Helvetica,sans-Serif" font-size="10.00"> &lt; String, Point &gt;</text>
</g>
</g>
</svg>
