<?xml version="1.0" encoding="UTF-8" standalone="no"?>
<!DOCTYPE svg PUBLIC "-//W3C//DTD SVG 1.1//EN"
 "http://www.w3.org/Graphics/SVG/1.1/DTD/svg11.dtd">
<!-- Generated by graphviz version 2.38.0 (20140413.2041)
 -->
<!-- Title: TestSushi.src.Pictures.FindPicture Pages: 1 -->
<svg width="156pt" height="325pt"
 viewBox="0.00 0.00 156.00 325.00" xmlns="http://www.w3.org/2000/svg" xmlns:xlink="http://www.w3.org/1999/xlink">
<g id="graph0" class="graph" transform="scale(1 1) rotate(0) translate(4 321)">
<title>TestSushi.src.Pictures.FindPicture</title>
<!-- Node1 -->
<g id="node1" class="node"><title>Node1</title>
<polygon fill="#bfbfbf" stroke="black" points="10,-0.5 10,-200.5 148,-200.5 148,-0.5 10,-0.5"/>
<text text-anchor="start" x="18" y="-188.5" font-family="Helvetica,sans-Serif" font-size="10.00">TestSushi.src.Pictures.Find</text>
<text text-anchor="middle" x="79" y="-177.5" font-family="Helvetica,sans-Serif" font-size="10.00">Picture</text>
<polyline fill="none" stroke="black" points="10,-170.5 148,-170.5 "/>
<text text-anchor="middle" x="79" y="-158.5" font-family="Helvetica,sans-Serif" font-size="10.00"> </text>
<polyline fill="none" stroke="black" points="10,-151.5 148,-151.5 "/>
<text text-anchor="start" x="18" y="-139.5" font-family="Helvetica,sans-Serif" font-size="10.00">+ FindPicture()</text>
<text text-anchor="start" x="18" y="-128.5" font-family="Helvetica,sans-Serif" font-size="10.00">+ FindPicture()</text>
<text text-anchor="start" x="18" y="-117.5" font-family="Helvetica,sans-Serif" font-size="10.00">+ loadPictures()</text>
<text text-anchor="start" x="18" y="-106.5" font-family="Helvetica,sans-Serif" font-size="10.00">+ getLine()</text>
<text text-anchor="start" x="18" y="-95.5" font-family="Helvetica,sans-Serif" font-size="10.00">+ getColumn()</text>
<text text-anchor="start" x="18" y="-84.5" font-family="Helvetica,sans-Serif" font-size="10.00">+ checkColumn()</text>
<text text-anchor="start" x="18" y="-73.5" font-family="Helvetica,sans-Serif" font-size="10.00">+ checkLine()</text>
<text text-anchor="start" x="18" y="-62.5" font-family="Helvetica,sans-Serif" font-size="10.00">+ checkImage()</text>
<text text-anchor="start" x="18" y="-51.5" font-family="Helvetica,sans-Serif" font-size="10.00">+ getSrc()</text>
<text text-anchor="start" x="18" y="-40.5" font-family="Helvetica,sans-Serif" font-size="10.00">+ getImg()</text>
<text text-anchor="start" x="18" y="-29.5" font-family="Helvetica,sans-Serif" font-size="10.00">+ getX()</text>
<text text-anchor="start" x="18" y="-18.5" font-family="Helvetica,sans-Serif" font-size="10.00">+ getY()</text>
<text text-anchor="start" x="18" y="-7.5" font-family="Helvetica,sans-Serif" font-size="10.00">+ main()</text>
</g>
<!-- Node2 -->
<g id="node2" class="node"><title>Node2</title>
<polygon fill="none" stroke="#bfbfbf" points="0,-259.5 0,-316.5 80,-316.5 80,-259.5 0,-259.5"/>
<text text-anchor="middle" x="40" y="-304.5" font-family="Helvetica,sans-Serif" font-size="10.00">BufferedImage</text>
<polyline fill="none" stroke="#bfbfbf" points="0,-297.5 80,-297.5 "/>
<text text-anchor="middle" x="40" y="-285.5" font-family="Helvetica,sans-Serif" font-size="10.00"> </text>
<polyline fill="none" stroke="#bfbfbf" points="0,-278.5 80,-278.5 "/>
<text text-anchor="middle" x="40" y="-266.5" font-family="Helvetica,sans-Serif" font-size="10.00"> </text>
</g>
<!-- Node2&#45;&gt;Node1 -->
<g id="edge1" class="edge"><title>Node2&#45;&gt;Node1</title>
<path fill="none" stroke="#404040" d="M45.8387,-259.229C48.5666,-246.254 52.0113,-229.869 55.6418,-212.601"/>
<polygon fill="none" stroke="#404040" points="55.7094,-212.279 53.0295,-205.584 58.1785,-200.536 60.8584,-207.23 55.7094,-212.279"/>
<text text-anchor="middle" x="73.5" y="-233" font-family="Helvetica,sans-Serif" font-size="10.00"> +source</text>
<text text-anchor="middle" x="73.5" y="-222" font-family="Helvetica,sans-Serif" font-size="10.00">~img</text>
</g>
<!-- Node3 -->
<g id="node3" class="node"><title>Node3</title>
<polygon fill="none" stroke="#bfbfbf" points="98.5,-259.5 98.5,-316.5 137.5,-316.5 137.5,-259.5 98.5,-259.5"/>
<text text-anchor="middle" x="118" y="-304.5" font-family="Helvetica,sans-Serif" font-size="10.00">Point</text>
<polyline fill="none" stroke="#bfbfbf" points="98.5,-297.5 137.5,-297.5 "/>
<text text-anchor="middle" x="118" y="-285.5" font-family="Helvetica,sans-Serif" font-size="10.00"> </text>
<polyline fill="none" stroke="#bfbfbf" points="98.5,-278.5 137.5,-278.5 "/>
<text text-anchor="middle" x="118" y="-266.5" font-family="Helvetica,sans-Serif" font-size="10.00"> </text>
</g>
<!-- Node3&#45;&gt;Node1 -->
<g id="edge2" class="edge"><title>Node3&#45;&gt;Node1</title>
<path fill="none" stroke="#404040" d="M112.161,-259.229C109.433,-246.254 105.989,-229.869 102.358,-212.601"/>
<polygon fill="none" stroke="#404040" points="102.291,-212.279 97.1416,-207.23 99.8215,-200.536 104.97,-205.584 102.291,-212.279"/>
<text text-anchor="middle" x="118" y="-227.5" font-family="Helvetica,sans-Serif" font-size="10.00"> &#45;dot</text>
</g>
</g>
</svg>
