<?xml version="1.0" encoding="UTF-8" standalone="no"?>
<!DOCTYPE svg PUBLIC "-//W3C//DTD SVG 1.1//EN"
 "http://www.w3.org/Graphics/SVG/1.1/DTD/svg11.dtd">
<!-- Generated by graphviz version 2.38.0 (20140413.2041)
 -->
<!-- Title: main.IA Pages: 1 -->
<!--zoomable 1078 -->
<svg id="main" version="1.1" xmlns="http://www.w3.org/2000/svg" xmlns:xlink="http://www.w3.org/1999/xlink" xml:space="preserve" onload="init(evt)">
<style type="text/css"><![CDATA[
.edge:hover path { stroke: red; }
.edge:hover polygon { stroke: red; fill: red; }
]]></style>
<script type="text/javascript"><![CDATA[
var edges = document.getElementsByTagName('g');
if (edges && edges.length) {
  for (var i=0;i<edges.length;i++) {
    if (edges[i].id.substr(0,4)=='edge') {
      edges[i].setAttribute('class','edge');
    }
  }
}
]]></script>
        <defs>
                <circle id="rim" cx="0" cy="0" r="7"/>
                <circle id="rim2" cx="0" cy="0" r="3.5"/>
                <g id="zoomPlus">
                        <use xlink:href="#rim" fill="#404040">
                                <set attributeName="fill" to="#808080" begin="zoomplus.mouseover" end="zoomplus.mouseout"/>
                        </use>
                        <path d="M-4,0h8M0,-4v8" fill="none" stroke="white" stroke-width="1.5" pointer-events="none"/>
                </g>
                <g id="zoomMin">
                        <use xlink:href="#rim" fill="#404040">
                                <set attributeName="fill" to="#808080" begin="zoomminus.mouseover" end="zoomminus.mouseout"/>
                        </use>
                        <path d="M-4,0h8" fill="none" stroke="white" stroke-width="1.5" pointer-events="none"/>
                </g>
                <g id="dirArrow">
                        <path fill="none" stroke="white" stroke-width="1.5" d="M0,-3.0v7 M-2.5,-0.5L0,-3.0L2.5,-0.5"/>
                </g>
               <g id="resetDef">
                       <use xlink:href="#rim2" fill="#404040">
                               <set attributeName="fill" to="#808080" begin="reset.mouseover" end="reset.mouseout"/>
                       </use>
               </g>
        </defs>

<script type="text/javascript">
var viewWidth = 883;
var viewHeight = 1078;
var sectionId = 'dynsection-1';
</script>
<script xlink:href="svgpan.js"/>
<svg id="graph" class="graph">
<g id="viewport">
<title>main.IA</title>
<!-- Node1 -->
<g id="node1" class="node"><title>Node1</title>
<polygon fill="#bfbfbf" stroke="black" points="458.5,-485.5 458.5,-663.5 555.5,-663.5 555.5,-485.5 458.5,-485.5"/>
<text text-anchor="middle" x="507" y="-651.5" font-family="Helvetica,sans-Serif" font-size="10.00">main.IA</text>
<polyline fill="none" stroke="black" points="458.5,-644.5 555.5,-644.5 "/>
<text text-anchor="start" x="466.5" y="-632.5" font-family="Helvetica,sans-Serif" font-size="10.00">+ xOr</text>
<text text-anchor="start" x="466.5" y="-621.5" font-family="Helvetica,sans-Serif" font-size="10.00">+ yOr</text>
<text text-anchor="start" x="466.5" y="-610.5" font-family="Helvetica,sans-Serif" font-size="10.00">&#45; width</text>
<text text-anchor="start" x="466.5" y="-599.5" font-family="Helvetica,sans-Serif" font-size="10.00">&#45; height</text>
<text text-anchor="start" x="466.5" y="-588.5" font-family="Helvetica,sans-Serif" font-size="10.00">&#45; serialVersionUID</text>
<text text-anchor="start" x="466.5" y="-577.5" font-family="Helvetica,sans-Serif" font-size="10.00">&#45; spriteCount</text>
<polyline fill="none" stroke="black" points="458.5,-570.5 555.5,-570.5 "/>
<text text-anchor="start" x="466.5" y="-558.5" font-family="Helvetica,sans-Serif" font-size="10.00">+ IA()</text>
<text text-anchor="start" x="466.5" y="-547.5" font-family="Helvetica,sans-Serif" font-size="10.00">+ click()</text>
<text text-anchor="start" x="466.5" y="-536.5" font-family="Helvetica,sans-Serif" font-size="10.00">+ initiateGame()</text>
<text text-anchor="start" x="466.5" y="-525.5" font-family="Helvetica,sans-Serif" font-size="10.00">+ getZone()</text>
<text text-anchor="start" x="466.5" y="-514.5" font-family="Helvetica,sans-Serif" font-size="10.00">+ saveSprites()</text>
<text text-anchor="start" x="466.5" y="-503.5" font-family="Helvetica,sans-Serif" font-size="10.00">+ loadSprites()</text>
<text text-anchor="start" x="466.5" y="-492.5" font-family="Helvetica,sans-Serif" font-size="10.00">+ getSushi()</text>
</g>
<!-- Node8 -->
<g id="node8" class="node"><title>Node8</title>
<g id="a_node8"><a xlink:href="classmain_1_1Manager.html" target="_top" xlink:title="{main.Manager\n|&#45; cash\l&#45; cashPile\l&#45; bar\l|+ Manager()\l+ CheckBar()\l&#45; makeSushi()\l}">
<polygon fill="none" stroke="black" points="394,-281.5 394,-382.5 472,-382.5 472,-281.5 394,-281.5"/>
<text text-anchor="middle" x="433" y="-370.5" font-family="Helvetica,sans-Serif" font-size="10.00">main.Manager</text>
<polyline fill="none" stroke="black" points="394,-363.5 472,-363.5 "/>
<text text-anchor="start" x="402" y="-351.5" font-family="Helvetica,sans-Serif" font-size="10.00">&#45; cash</text>
<text text-anchor="start" x="402" y="-340.5" font-family="Helvetica,sans-Serif" font-size="10.00">&#45; cashPile</text>
<text text-anchor="start" x="402" y="-329.5" font-family="Helvetica,sans-Serif" font-size="10.00">&#45; bar</text>
<polyline fill="none" stroke="black" points="394,-322.5 472,-322.5 "/>
<text text-anchor="start" x="402" y="-310.5" font-family="Helvetica,sans-Serif" font-size="10.00">+ Manager()</text>
<text text-anchor="start" x="402" y="-299.5" font-family="Helvetica,sans-Serif" font-size="10.00">+ CheckBar()</text>
<text text-anchor="start" x="402" y="-288.5" font-family="Helvetica,sans-Serif" font-size="10.00">&#45; makeSushi()</text>
</a>
</g>
</g>
<!-- Node1&#45;&gt;Node8 -->
<g id="edge10" class="edge"><title>Node1&#45;&gt;Node8</title>
<path fill="none" stroke="#404040" d="M479.865,-485.312C470.553,-455.048 460.342,-421.861 451.835,-394.213"/>
<polygon fill="none" stroke="#404040" points="451.83,-394.196 446.242,-389.638 448.301,-382.727 453.888,-387.285 451.83,-394.196"/>
<text text-anchor="middle" x="479" y="-431.5" font-family="Helvetica,sans-Serif" font-size="10.00"> &#45;ia</text>
</g>
<!-- Node2 -->
<g id="node2" class="node"><title>Node2</title>
<g id="a_node2"><a xlink:href="classmain_1_1ToolBox.html" target="_top" xlink:title="{main.ToolBox\n|&#45; w\l&#45; h\l&#45; countScreen\l&#45; serialVersionUID\l|+ ToolBox()\l+ ToolBox()\l+ Capture()\l+ CaptureGame()\l+ Launch()\l+ Run()\l+ Serve()\l+ actionPerformed()\l}">
<polygon fill="none" stroke="black" points="217.5,-0.5 217.5,-167.5 320.5,-167.5 320.5,-0.5 217.5,-0.5"/>
<text text-anchor="middle" x="269" y="-155.5" font-family="Helvetica,sans-Serif" font-size="10.00">main.ToolBox</text>
<polyline fill="none" stroke="black" points="217.5,-148.5 320.5,-148.5 "/>
<text text-anchor="start" x="225.5" y="-136.5" font-family="Helvetica,sans-Serif" font-size="10.00">&#45; w</text>
<text text-anchor="start" x="225.5" y="-125.5" font-family="Helvetica,sans-Serif" font-size="10.00">&#45; h</text>
<text text-anchor="start" x="225.5" y="-114.5" font-family="Helvetica,sans-Serif" font-size="10.00">&#45; countScreen</text>
<text text-anchor="start" x="225.5" y="-103.5" font-family="Helvetica,sans-Serif" font-size="10.00">&#45; serialVersionUID</text>
<polyline fill="none" stroke="black" points="217.5,-96.5 320.5,-96.5 "/>
<text text-anchor="start" x="225.5" y="-84.5" font-family="Helvetica,sans-Serif" font-size="10.00">+ ToolBox()</text>
<text text-anchor="start" x="225.5" y="-73.5" font-family="Helvetica,sans-Serif" font-size="10.00">+ ToolBox()</text>
<text text-anchor="start" x="225.5" y="-62.5" font-family="Helvetica,sans-Serif" font-size="10.00">+ Capture()</text>
<text text-anchor="start" x="225.5" y="-51.5" font-family="Helvetica,sans-Serif" font-size="10.00">+ CaptureGame()</text>
<text text-anchor="start" x="225.5" y="-40.5" font-family="Helvetica,sans-Serif" font-size="10.00">+ Launch()</text>
<text text-anchor="start" x="225.5" y="-29.5" font-family="Helvetica,sans-Serif" font-size="10.00">+ Run()</text>
<text text-anchor="start" x="225.5" y="-18.5" font-family="Helvetica,sans-Serif" font-size="10.00">+ Serve()</text>
<text text-anchor="start" x="225.5" y="-7.5" font-family="Helvetica,sans-Serif" font-size="10.00">+ actionPerformed()</text>
</a>
</g>
</g>
<!-- Node2&#45;&gt;Node1 -->
<g id="edge1" class="edge"><title>Node2&#45;&gt;Node1</title>
<path fill="none" stroke="midnightblue" d="M330.291,-109.561C366.187,-126.534 410.18,-152.162 440,-186 512.222,-267.954 520.338,-398.833 516.269,-485.467"/>
<polygon fill="none" stroke="midnightblue" points="331.424,-106.229 320.878,-105.218 328.492,-112.585 331.424,-106.229"/>
</g>
<!-- Node3 -->
<g id="node3" class="node"><title>Node3</title>
<polygon fill="none" stroke="#bfbfbf" points="0,-303.5 0,-360.5 50,-360.5 50,-303.5 0,-303.5"/>
<text text-anchor="middle" x="25" y="-348.5" font-family="Helvetica,sans-Serif" font-size="10.00">JFrame</text>
<polyline fill="none" stroke="#bfbfbf" points="0,-341.5 50,-341.5 "/>
<text text-anchor="middle" x="25" y="-329.5" font-family="Helvetica,sans-Serif" font-size="10.00"> </text>
<polyline fill="none" stroke="#bfbfbf" points="0,-322.5 50,-322.5 "/>
<text text-anchor="middle" x="25" y="-310.5" font-family="Helvetica,sans-Serif" font-size="10.00"> </text>
</g>
<!-- Node3&#45;&gt;Node2 -->
<g id="edge2" class="edge"><title>Node3&#45;&gt;Node2</title>
<path fill="none" stroke="midnightblue" d="M48.7928,-294.882C52.1331,-290.149 55.5913,-285.414 59,-281 93.2706,-236.626 101.449,-224.718 142,-186 165.533,-163.53 193.683,-140.777 217.493,-122.57"/>
<polygon fill="none" stroke="midnightblue" points="45.759,-293.115 42.9437,-303.329 51.5141,-297.1 45.759,-293.115"/>
</g>
<!-- Node4 -->
<g id="node4" class="node"><title>Node4</title>
<polygon fill="none" stroke="#bfbfbf" points="68.5,-303.5 68.5,-360.5 147.5,-360.5 147.5,-303.5 68.5,-303.5"/>
<text text-anchor="middle" x="108" y="-348.5" font-family="Helvetica,sans-Serif" font-size="10.00">ActionListener</text>
<polyline fill="none" stroke="#bfbfbf" points="68.5,-341.5 147.5,-341.5 "/>
<text text-anchor="middle" x="108" y="-329.5" font-family="Helvetica,sans-Serif" font-size="10.00"> </text>
<polyline fill="none" stroke="#bfbfbf" points="68.5,-322.5 147.5,-322.5 "/>
<text text-anchor="middle" x="108" y="-310.5" font-family="Helvetica,sans-Serif" font-size="10.00"> </text>
</g>
<!-- Node4&#45;&gt;Node2 -->
<g id="edge3" class="edge"><title>Node4&#45;&gt;Node2</title>
<path fill="none" stroke="midnightblue" d="M126.918,-294.071C142.673,-264.217 166.289,-221.472 190,-186 198.412,-173.415 207.93,-160.389 217.371,-148.045"/>
<polygon fill="none" stroke="midnightblue" points="123.631,-292.803 122.089,-303.285 129.831,-296.052 123.631,-292.803"/>
</g>
<!-- Node5 -->
<g id="node5" class="node"><title>Node5</title>
<polygon fill="none" stroke="#bfbfbf" points="166,-303.5 166,-360.5 216,-360.5 216,-303.5 166,-303.5"/>
<text text-anchor="middle" x="191" y="-348.5" font-family="Helvetica,sans-Serif" font-size="10.00">JButton</text>
<polyline fill="none" stroke="#bfbfbf" points="166,-341.5 216,-341.5 "/>
<text text-anchor="middle" x="191" y="-329.5" font-family="Helvetica,sans-Serif" font-size="10.00"> </text>
<polyline fill="none" stroke="#bfbfbf" points="166,-322.5 216,-322.5 "/>
<text text-anchor="middle" x="191" y="-310.5" font-family="Helvetica,sans-Serif" font-size="10.00"> </text>
</g>
<!-- Node5&#45;&gt;Node2 -->
<g id="edge4" class="edge"><title>Node5&#45;&gt;Node2</title>
<path fill="none" stroke="#404040" d="M190.795,-303.243C191.361,-273.477 194.571,-225.204 208,-186 209.294,-182.221 210.746,-178.432 212.322,-174.656"/>
<polygon fill="none" stroke="#404040" points="212.468,-174.332 211.285,-167.218 217.396,-163.39 218.579,-170.504 212.468,-174.332"/>
<text text-anchor="middle" x="235.5" y="-255" font-family="Helvetica,sans-Serif" font-size="10.00"> &#45;launch</text>
<text text-anchor="middle" x="235.5" y="-244" font-family="Helvetica,sans-Serif" font-size="10.00">&#45;detect</text>
<text text-anchor="middle" x="235.5" y="-233" font-family="Helvetica,sans-Serif" font-size="10.00">&#45;saveSprites</text>
<text text-anchor="middle" x="235.5" y="-222" font-family="Helvetica,sans-Serif" font-size="10.00">&#45;snap</text>
<text text-anchor="middle" x="235.5" y="-211" font-family="Helvetica,sans-Serif" font-size="10.00">&#45;makeSushi</text>
<text text-anchor="middle" x="235.5" y="-200" font-family="Helvetica,sans-Serif" font-size="10.00">&#45;startBot</text>
<text text-anchor="middle" x="235.5" y="-189" font-family="Helvetica,sans-Serif" font-size="10.00">&#45;Auto</text>
</g>
<!-- Node6 -->
<g id="node6" class="node"><title>Node6</title>
<polygon fill="none" stroke="#bfbfbf" points="234,-303.5 234,-360.5 296,-360.5 296,-303.5 234,-303.5"/>
<text text-anchor="middle" x="265" y="-348.5" font-family="Helvetica,sans-Serif" font-size="10.00">JTextField</text>
<polyline fill="none" stroke="#bfbfbf" points="234,-341.5 296,-341.5 "/>
<text text-anchor="middle" x="265" y="-329.5" font-family="Helvetica,sans-Serif" font-size="10.00"> </text>
<polyline fill="none" stroke="#bfbfbf" points="234,-322.5 296,-322.5 "/>
<text text-anchor="middle" x="265" y="-310.5" font-family="Helvetica,sans-Serif" font-size="10.00"> </text>
</g>
<!-- Node6&#45;&gt;Node2 -->
<g id="edge5" class="edge"><title>Node6&#45;&gt;Node2</title>
<path fill="none" stroke="#404040" d="M265.451,-303.259C265.939,-273.275 266.743,-223.831 267.462,-179.58"/>
<polygon fill="none" stroke="#404040" points="267.462,-179.556 263.561,-173.492 267.658,-167.558 271.559,-173.622 267.462,-179.556"/>
<text text-anchor="middle" x="277" y="-222" font-family="Helvetica,sans-Serif" font-size="10.00"> &#45;txt</text>
</g>
<!-- Node7 -->
<g id="node7" class="node"><title>Node7</title>
<polygon fill="none" stroke="#bfbfbf" points="314.5,-303.5 314.5,-360.5 375.5,-360.5 375.5,-303.5 314.5,-303.5"/>
<text text-anchor="middle" x="345" y="-348.5" font-family="Helvetica,sans-Serif" font-size="10.00">Rectangle</text>
<polyline fill="none" stroke="#bfbfbf" points="314.5,-341.5 375.5,-341.5 "/>
<text text-anchor="middle" x="345" y="-329.5" font-family="Helvetica,sans-Serif" font-size="10.00"> </text>
<polyline fill="none" stroke="#bfbfbf" points="314.5,-322.5 375.5,-322.5 "/>
<text text-anchor="middle" x="345" y="-310.5" font-family="Helvetica,sans-Serif" font-size="10.00"> </text>
</g>
<!-- Node7&#45;&gt;Node2 -->
<g id="edge6" class="edge"><title>Node7&#45;&gt;Node2</title>
<path fill="none" stroke="#404040" d="M336.43,-303.259C327.146,-273.211 311.826,-223.62 298.132,-179.297"/>
<polygon fill="none" stroke="#404040" points="298.048,-179.023 292.455,-174.471 294.506,-167.558 300.099,-172.11 298.048,-179.023"/>
<text text-anchor="middle" x="332" y="-222" font-family="Helvetica,sans-Serif" font-size="10.00"> +ga</text>
</g>
<!-- Node8&#45;&gt;Node2 -->
<g id="edge7" class="edge"><title>Node8&#45;&gt;Node2</title>
<path fill="none" stroke="#404040" d="M405.124,-281.491C388.67,-253.068 367.008,-216.979 346,-186 340.246,-177.514 334.041,-168.779 327.74,-160.165"/>
<polygon fill="none" stroke="#404040" points="327.736,-160.16 320.953,-157.712 320.604,-150.51 327.387,-152.957 327.736,-160.16"/>
<text text-anchor="middle" x="414" y="-222" font-family="Helvetica,sans-Serif" font-size="10.00"> &#45;manager</text>
</g>
<!-- Node9 -->
<g id="node9" class="node"><title>Node9</title>
<g id="a_node9"><a xlink:href="classmain_1_1Service.html" target="_top" xlink:title="{main.Service\n||+ Service()\l+ run()\l}">
<polygon fill="none" stroke="black" points="328,-540.5 328,-608.5 402,-608.5 402,-540.5 328,-540.5"/>
<text text-anchor="middle" x="365" y="-596.5" font-family="Helvetica,sans-Serif" font-size="10.00">main.Service</text>
<polyline fill="none" stroke="black" points="328,-589.5 402,-589.5 "/>
<text text-anchor="middle" x="365" y="-577.5" font-family="Helvetica,sans-Serif" font-size="10.00"> </text>
<polyline fill="none" stroke="black" points="328,-570.5 402,-570.5 "/>
<text text-anchor="start" x="336" y="-558.5" font-family="Helvetica,sans-Serif" font-size="10.00">+ Service()</text>
<text text-anchor="start" x="336" y="-547.5" font-family="Helvetica,sans-Serif" font-size="10.00">+ run()</text>
</a>
</g>
</g>
<!-- Node9&#45;&gt;Node8 -->
<g id="edge8" class="edge"><title>Node9&#45;&gt;Node8</title>
<path fill="none" stroke="#404040" d="M367.788,-540.269C371.481,-504.929 379.551,-447.79 396,-401 396.836,-398.623 397.748,-396.229 398.72,-393.833"/>
<polygon fill="none" stroke="#404040" points="398.802,-393.648 397.568,-386.543 403.652,-382.671 404.886,-389.776 398.802,-393.648"/>
<text text-anchor="middle" x="406" y="-459" font-family="Helvetica,sans-Serif" font-size="10.00"> ~s2</text>
<text text-anchor="middle" x="406" y="-448" font-family="Helvetica,sans-Serif" font-size="10.00">~s3</text>
<text text-anchor="middle" x="406" y="-437" font-family="Helvetica,sans-Serif" font-size="10.00">~s4</text>
<text text-anchor="middle" x="406" y="-426" font-family="Helvetica,sans-Serif" font-size="10.00">~s5</text>
<text text-anchor="middle" x="406" y="-415" font-family="Helvetica,sans-Serif" font-size="10.00">&#45;s1</text>
<text text-anchor="middle" x="406" y="-404" font-family="Helvetica,sans-Serif" font-size="10.00">~s6</text>
</g>
<!-- Node10 -->
<g id="node10" class="node"><title>Node10</title>
<polygon fill="none" stroke="#bfbfbf" points="341.5,-728 341.5,-785 388.5,-785 388.5,-728 341.5,-728"/>
<text text-anchor="middle" x="365" y="-773" font-family="Helvetica,sans-Serif" font-size="10.00">Thread</text>
<polyline fill="none" stroke="#bfbfbf" points="341.5,-766 388.5,-766 "/>
<text text-anchor="middle" x="365" y="-754" font-family="Helvetica,sans-Serif" font-size="10.00"> </text>
<polyline fill="none" stroke="#bfbfbf" points="341.5,-747 388.5,-747 "/>
<text text-anchor="middle" x="365" y="-735" font-family="Helvetica,sans-Serif" font-size="10.00"> </text>
</g>
<!-- Node10&#45;&gt;Node9 -->
<g id="edge9" class="edge"><title>Node10&#45;&gt;Node9</title>
<path fill="none" stroke="midnightblue" d="M365,-717.406C365,-685.202 365,-639.528 365,-608.773"/>
<polygon fill="none" stroke="midnightblue" points="361.5,-717.769 365,-727.769 368.5,-717.77 361.5,-717.769"/>
</g>
<!-- Node11 -->
<g id="node11" class="node"><title>Node11</title>
<polygon fill="none" stroke="#bfbfbf" points="331,-826 331,-883 469,-883 469,-826 331,-826"/>
<text text-anchor="middle" x="400" y="-871" font-family="Helvetica,sans-Serif" font-size="10.00">HashMap&lt; String, Integer &gt;</text>
<polyline fill="none" stroke="#bfbfbf" points="331,-864 469,-864 "/>
<text text-anchor="middle" x="400" y="-852" font-family="Helvetica,sans-Serif" font-size="10.00"> </text>
<polyline fill="none" stroke="#bfbfbf" points="331,-845 469,-845 "/>
<text text-anchor="middle" x="400" y="-833" font-family="Helvetica,sans-Serif" font-size="10.00"> </text>
</g>
<!-- Node11&#45;&gt;Node8 -->
<g id="edge11" class="edge"><title>Node11&#45;&gt;Node8</title>
<path fill="none" stroke="#404040" d="M401.751,-825.883C406.869,-745.157 421.895,-508.159 429.082,-394.791"/>
<polygon fill="none" stroke="#404040" points="429.097,-394.554 425.485,-388.313 429.857,-382.578 433.469,-388.819 429.097,-394.554"/>
<text text-anchor="middle" x="437" y="-685" font-family="Helvetica,sans-Serif" font-size="10.00"> &#45;ingredients</text>
</g>
<!-- Node12 -->
<g id="node12" class="node"><title>Node12</title>
<polygon fill="none" stroke="#bfbfbf" points="562.5,-1012.5 562.5,-1069.5 621.5,-1069.5 621.5,-1012.5 562.5,-1012.5"/>
<text text-anchor="middle" x="592" y="-1057.5" font-family="Helvetica,sans-Serif" font-size="10.00">HashMap</text>
<polyline fill="none" stroke="#bfbfbf" points="562.5,-1050.5 621.5,-1050.5 "/>
<text text-anchor="middle" x="592" y="-1038.5" font-family="Helvetica,sans-Serif" font-size="10.00"> </text>
<polyline fill="none" stroke="#bfbfbf" points="562.5,-1031.5 621.5,-1031.5 "/>
<text text-anchor="middle" x="592" y="-1019.5" font-family="Helvetica,sans-Serif" font-size="10.00"> </text>
</g>
<!-- Node12&#45;&gt;Node11 -->
<g id="edge12" class="edge"><title>Node12&#45;&gt;Node11</title>
<path fill="none" stroke="orange" d="M552.084,-1040.12C514.353,-1037.96 458.907,-1028.55 427,-994 399.242,-963.947 396.209,-914.165 397.456,-883.183"/>
<polygon fill="orange" stroke="orange" points="552.082,-1043.62 562.222,-1040.55 552.379,-1036.63 552.082,-1043.62"/>
<text text-anchor="middle" x="468.5" y="-986" font-family="Helvetica,sans-Serif" font-size="10.00"> &lt; String, Integer &gt;</text>
</g>
<!-- Node13 -->
<g id="node13" class="node"><title>Node13</title>
<polygon fill="none" stroke="#bfbfbf" points="474,-820.5 474,-888.5 608,-888.5 608,-820.5 474,-820.5"/>
<text text-anchor="start" x="482" y="-876.5" font-family="Helvetica,sans-Serif" font-size="10.00">HashMap&lt; BufferedImage,</text>
<text text-anchor="middle" x="541" y="-865.5" font-family="Helvetica,sans-Serif" font-size="10.00"> String &gt;</text>
<polyline fill="none" stroke="#bfbfbf" points="474,-858.5 608,-858.5 "/>
<text text-anchor="middle" x="541" y="-846.5" font-family="Helvetica,sans-Serif" font-size="10.00"> </text>
<polyline fill="none" stroke="#bfbfbf" points="474,-839.5 608,-839.5 "/>
<text text-anchor="middle" x="541" y="-827.5" font-family="Helvetica,sans-Serif" font-size="10.00"> </text>
</g>
<!-- Node12&#45;&gt;Node13 -->
<g id="edge14" class="edge"><title>Node12&#45;&gt;Node13</title>
<path fill="none" stroke="orange" d="M553.316,-1025.03C539.986,-1017.79 526.527,-1007.64 519,-994 500.943,-961.28 512.45,-918.003 524.56,-888.593"/>
<polygon fill="orange" stroke="orange" points="551.938,-1028.26 562.448,-1029.59 555.063,-1021.99 551.938,-1028.26"/>
<text text-anchor="middle" x="577.5" y="-986" font-family="Helvetica,sans-Serif" font-size="10.00"> &lt; BufferedImage, String &gt;</text>
</g>
<!-- Node15 -->
<g id="node15" class="node"><title>Node15</title>
<polygon fill="none" stroke="#bfbfbf" points="557,-907.5 557,-964.5 705,-964.5 705,-907.5 557,-907.5"/>
<text text-anchor="middle" x="631" y="-952.5" font-family="Helvetica,sans-Serif" font-size="10.00">HashMap&lt; String, main.Dot &gt;</text>
<polyline fill="none" stroke="#bfbfbf" points="557,-945.5 705,-945.5 "/>
<text text-anchor="middle" x="631" y="-933.5" font-family="Helvetica,sans-Serif" font-size="10.00"> </text>
<polyline fill="none" stroke="#bfbfbf" points="557,-926.5 705,-926.5 "/>
<text text-anchor="middle" x="631" y="-914.5" font-family="Helvetica,sans-Serif" font-size="10.00"> </text>
</g>
<!-- Node12&#45;&gt;Node15 -->
<g id="edge17" class="edge"><title>Node12&#45;&gt;Node15</title>
<path fill="none" stroke="orange" d="M628.749,-1011.36C633.32,-1006.11 637.322,-1000.28 640,-994 643.893,-984.878 643.429,-974.286 641.396,-964.727"/>
<polygon fill="orange" stroke="orange" points="626.155,-1009.01 621.733,-1018.64 631.194,-1013.87 626.155,-1009.01"/>
<text text-anchor="middle" x="690" y="-986" font-family="Helvetica,sans-Serif" font-size="10.00"> &lt; String, main::Dot &gt;</text>
</g>
<!-- Node17 -->
<g id="node17" class="node"><title>Node17</title>
<polygon fill="none" stroke="#bfbfbf" points="723,-907.5 723,-964.5 875,-964.5 875,-907.5 723,-907.5"/>
<text text-anchor="middle" x="799" y="-952.5" font-family="Helvetica,sans-Serif" font-size="10.00">HashMap&lt; String, Rectangle &gt;</text>
<polyline fill="none" stroke="#bfbfbf" points="723,-945.5 875,-945.5 "/>
<text text-anchor="middle" x="799" y="-933.5" font-family="Helvetica,sans-Serif" font-size="10.00"> </text>
<polyline fill="none" stroke="#bfbfbf" points="723,-926.5 875,-926.5 "/>
<text text-anchor="middle" x="799" y="-914.5" font-family="Helvetica,sans-Serif" font-size="10.00"> </text>
</g>
<!-- Node12&#45;&gt;Node17 -->
<g id="edge20" class="edge"><title>Node12&#45;&gt;Node17</title>
<path fill="none" stroke="orange" d="M631.83,-1033.29C663.385,-1026.72 707.712,-1014.62 742,-994 754.832,-986.282 766.895,-975.058 776.59,-964.607"/>
<polygon fill="orange" stroke="orange" points="630.778,-1029.93 621.651,-1035.31 632.141,-1036.8 630.778,-1029.93"/>
<text text-anchor="middle" x="804.5" y="-986" font-family="Helvetica,sans-Serif" font-size="10.00"> &lt; String, Rectangle &gt;</text>
</g>
<!-- Node13&#45;&gt;Node1 -->
<g id="edge13" class="edge"><title>Node13&#45;&gt;Node1</title>
<path fill="none" stroke="#404040" d="M519.318,-820.453C516.332,-814.52 513.708,-808.235 512,-802 500.931,-761.606 498.205,-715.628 498.797,-675.699"/>
<polygon fill="none" stroke="#404040" points="498.802,-675.512 494.943,-669.42 499.082,-663.515 502.941,-669.607 498.802,-675.512"/>
<text text-anchor="middle" x="549.5" y="-754" font-family="Helvetica,sans-Serif" font-size="10.00"> &#45;sushiReference</text>
</g>
<!-- Node14 -->
<g id="node14" class="node"><title>Node14</title>
<g id="a_node14"><a xlink:href="classmain_1_1Zone.html" target="_top" xlink:title="{main.Zone\n||+ Zone()\l+ addZone()\l+ addZone()\l+ getZonesTable()\l}">
<polygon fill="none" stroke="black" points="596,-711.5 596,-801.5 692,-801.5 692,-711.5 596,-711.5"/>
<text text-anchor="middle" x="644" y="-789.5" font-family="Helvetica,sans-Serif" font-size="10.00">main.Zone</text>
<polyline fill="none" stroke="black" points="596,-782.5 692,-782.5 "/>
<text text-anchor="middle" x="644" y="-770.5" font-family="Helvetica,sans-Serif" font-size="10.00"> </text>
<polyline fill="none" stroke="black" points="596,-763.5 692,-763.5 "/>
<text text-anchor="start" x="604" y="-751.5" font-family="Helvetica,sans-Serif" font-size="10.00">+ Zone()</text>
<text text-anchor="start" x="604" y="-740.5" font-family="Helvetica,sans-Serif" font-size="10.00">+ addZone()</text>
<text text-anchor="start" x="604" y="-729.5" font-family="Helvetica,sans-Serif" font-size="10.00">+ addZone()</text>
<text text-anchor="start" x="604" y="-718.5" font-family="Helvetica,sans-Serif" font-size="10.00">+ getZonesTable()</text>
</a>
</g>
</g>
<!-- Node14&#45;&gt;Node1 -->
<g id="edge15" class="edge"><title>Node14&#45;&gt;Node1</title>
<path fill="none" stroke="#404040" d="M610.486,-711.467C596.197,-692.694 579.133,-670.273 563.021,-649.104"/>
<polygon fill="none" stroke="#404040" points="562.967,-649.033 556.15,-646.681 555.699,-639.484 562.516,-641.836 562.967,-649.033"/>
<text text-anchor="middle" x="611.5" y="-685" font-family="Helvetica,sans-Serif" font-size="10.00"> &#45;zones</text>
</g>
<!-- Node15&#45;&gt;Node14 -->
<g id="edge16" class="edge"><title>Node15&#45;&gt;Node14</title>
<path fill="none" stroke="#404040" d="M633.031,-907.266C634.859,-882.303 637.602,-844.859 639.887,-813.656"/>
<polygon fill="none" stroke="#404040" points="639.893,-813.572 636.342,-807.296 640.77,-801.604 644.321,-807.881 639.893,-813.572"/>
<text text-anchor="middle" x="690.5" y="-852" font-family="Helvetica,sans-Serif" font-size="10.00"> &#45;ensemblePointsZones</text>
</g>
<!-- Node16 -->
<g id="node16" class="node"><title>Node16</title>
<g id="a_node16"><a xlink:href="classmain_1_1ReadZone.html" target="_top" xlink:title="{main.ReadZone\n||+ ReadZone()\l+ addZone()\l+ getZones()\l}">
<polygon fill="none" stroke="black" points="728,-717 728,-796 814,-796 814,-717 728,-717"/>
<text text-anchor="middle" x="771" y="-784" font-family="Helvetica,sans-Serif" font-size="10.00">main.ReadZone</text>
<polyline fill="none" stroke="black" points="728,-777 814,-777 "/>
<text text-anchor="middle" x="771" y="-765" font-family="Helvetica,sans-Serif" font-size="10.00"> </text>
<polyline fill="none" stroke="black" points="728,-758 814,-758 "/>
<text text-anchor="start" x="736" y="-746" font-family="Helvetica,sans-Serif" font-size="10.00">+ ReadZone()</text>
<text text-anchor="start" x="736" y="-735" font-family="Helvetica,sans-Serif" font-size="10.00">+ addZone()</text>
<text text-anchor="start" x="736" y="-724" font-family="Helvetica,sans-Serif" font-size="10.00">+ getZones()</text>
</a>
</g>
</g>
<!-- Node16&#45;&gt;Node1 -->
<g id="edge18" class="edge"><title>Node16&#45;&gt;Node1</title>
<path fill="none" stroke="#404040" d="M727.996,-726.179C683.937,-696.139 615.117,-649.216 565.986,-615.718"/>
<polygon fill="none" stroke="#404040" points="565.732,-615.545 558.521,-615.469 555.817,-608.784 563.028,-608.86 565.732,-615.545"/>
<text text-anchor="middle" x="694" y="-685" font-family="Helvetica,sans-Serif" font-size="10.00"> &#45;bulles</text>
</g>
<!-- Node17&#45;&gt;Node16 -->
<g id="edge19" class="edge"><title>Node17&#45;&gt;Node16</title>
<path fill="none" stroke="#404040" d="M794.625,-907.266C790.452,-880.809 784.067,-840.333 778.986,-808.126"/>
<polygon fill="none" stroke="#404040" points="778.98,-808.087 774.094,-802.784 777.11,-796.234 781.996,-801.537 778.98,-808.087"/>
<text text-anchor="middle" x="829" y="-852" font-family="Helvetica,sans-Serif" font-size="10.00"> &#45;ensembleZones</text>
</g>
</g>
</svg>
        <g id="navigator" transform="translate(0 0)" fill="#404254">
                <rect fill="#f2f5e9" fill-opacity="0.5" stroke="#606060" stroke-width=".5" x="0" y="0" width="60" height="60"/>
                <use id="zoomplus" xlink:href="#zoomPlus" x="17" y="9" onmousedown="handleZoom(evt,'in')"/>
                <use id="zoomminus" xlink:href="#zoomMin" x="42" y="9" onmousedown="handleZoom(evt,'out')"/>
                <use id="reset" xlink:href="#resetDef" x="30" y="36" onmousedown="handleReset()"/>
                <g id="arrowUp" xlink:href="#dirArrow" transform="translate(30 24)" onmousedown="handlePan(0,-1)">
                  <use xlink:href="#rim" fill="#404040">
                        <set attributeName="fill" to="#808080" begin="arrowUp.mouseover" end="arrowUp.mouseout"/>
                  </use>
                  <path fill="none" stroke="white" stroke-width="1.5" d="M0,-3.0v7 M-2.5,-0.5L0,-3.0L2.5,-0.5"/>
                </g>
                <g id="arrowRight" xlink:href="#dirArrow" transform="rotate(90) translate(36 -43)" onmousedown="handlePan(1,0)">
                  <use xlink:href="#rim" fill="#404040">
                        <set attributeName="fill" to="#808080" begin="arrowRight.mouseover" end="arrowRight.mouseout"/>
                  </use>
                  <path fill="none" stroke="white" stroke-width="1.5" d="M0,-3.0v7 M-2.5,-0.5L0,-3.0L2.5,-0.5"/>
                </g>
                <g id="arrowDown" xlink:href="#dirArrow" transform="rotate(180) translate(-30 -48)" onmousedown="handlePan(0,1)">
                  <use xlink:href="#rim" fill="#404040">
                        <set attributeName="fill" to="#808080" begin="arrowDown.mouseover" end="arrowDown.mouseout"/>
                  </use>
                  <path fill="none" stroke="white" stroke-width="1.5" d="M0,-3.0v7 M-2.5,-0.5L0,-3.0L2.5,-0.5"/>
                </g>
                <g id="arrowLeft" xlink:href="#dirArrow" transform="rotate(270) translate(-36 17)" onmousedown="handlePan(-1,0)">
                  <use xlink:href="#rim" fill="#404040">
                        <set attributeName="fill" to="#808080" begin="arrowLeft.mouseover" end="arrowLeft.mouseout"/>
                  </use>
                  <path fill="none" stroke="white" stroke-width="1.5" d="M0,-3.0v7 M-2.5,-0.5L0,-3.0L2.5,-0.5"/>
                </g>
        </g>
        <svg viewBox="0 0 15 15" width="100%" height="30px" preserveAspectRatio="xMaxYMin meet">
         <g id="arrow_out" transform="scale(0.3 0.3)">
          <a xlink:href="classmain_1_1IA__coll__graph_org.svg" target="_base">
           <rect id="button" ry="5" rx="5" y="6" x="6" height="38" width="38"
                fill="#f2f5e9" fill-opacity="0.5" stroke="#606060" stroke-width="1.0"/>
           <path id="arrow"
             d="M 11.500037,31.436501 C 11.940474,20.09759 22.043105,11.32322 32.158766,21.979434 L 37.068811,17.246167 C 37.068811,17.246167 37.088388,32 37.088388,32 L 22.160133,31.978069 C 22.160133,31.978069 26.997745,27.140456 26.997745,27.140456 C 18.528582,18.264221 13.291696,25.230495 11.500037,31.436501 z"
             style="fill:#404040;"/>
          </a>
         </g>
        </svg>
</svg>
