<?xml version="1.0" encoding="UTF-8" standalone="no"?>
<!DOCTYPE svg PUBLIC "-//W3C//DTD SVG 1.1//EN"
 "http://www.w3.org/Graphics/SVG/1.1/DTD/svg11.dtd">
<!-- Generated by graphviz version 2.38.0 (20140413.2041)
 -->
<!-- Title: Suchi.Salmon Pages: 1 -->
<!--zoomable 982 -->
<svg id="main" version="1.1" xmlns="http://www.w3.org/2000/svg" xmlns:xlink="http://www.w3.org/1999/xlink" xml:space="preserve" onload="init(evt)">
<style type="text/css"><![CDATA[
.edge:hover path { stroke: red; }
.edge:hover polygon { stroke: red; fill: red; }
]]></style>
<script type="text/javascript"><![CDATA[
var edges = document.getElementsByTagName('g');
if (edges && edges.length) {
  for (var i=0;i<edges.length;i++) {
    if (edges[i].id.substr(0,4)=='edge') {
      edges[i].setAttribute('class','edge');
    }
  }
}
]]></script>
        <defs>
                <circle id="rim" cx="0" cy="0" r="7"/>
                <circle id="rim2" cx="0" cy="0" r="3.5"/>
                <g id="zoomPlus">
                        <use xlink:href="#rim" fill="#404040">
                                <set attributeName="fill" to="#808080" begin="zoomplus.mouseover" end="zoomplus.mouseout"/>
                        </use>
                        <path d="M-4,0h8M0,-4v8" fill="none" stroke="white" stroke-width="1.5" pointer-events="none"/>
                </g>
                <g id="zoomMin">
                        <use xlink:href="#rim" fill="#404040">
                                <set attributeName="fill" to="#808080" begin="zoomminus.mouseover" end="zoomminus.mouseout"/>
                        </use>
                        <path d="M-4,0h8" fill="none" stroke="white" stroke-width="1.5" pointer-events="none"/>
                </g>
                <g id="dirArrow">
                        <path fill="none" stroke="white" stroke-width="1.5" d="M0,-3.0v7 M-2.5,-0.5L0,-3.0L2.5,-0.5"/>
                </g>
               <g id="resetDef">
                       <use xlink:href="#rim2" fill="#404040">
                               <set attributeName="fill" to="#808080" begin="reset.mouseover" end="reset.mouseout"/>
                       </use>
               </g>
        </defs>

<script type="text/javascript">
var viewWidth = 640;
var viewHeight = 982;
var sectionId = 'dynsection-1';
</script>
<script xlink:href="svgpan.js"/>
<svg id="graph" class="graph">
<g id="viewport">
<title>Suchi.Salmon</title>
<!-- Node1 -->
<g id="node1" class="node"><title>Node1</title>
<polygon fill="#bfbfbf" stroke="black" points="299.5,-0.5 299.5,-112.5 376.5,-112.5 376.5,-0.5 299.5,-0.5"/>
<text text-anchor="middle" x="338" y="-100.5" font-family="Helvetica,sans-Serif" font-size="10.00">Suchi.Salmon</text>
<polyline fill="none" stroke="black" points="299.5,-93.5 376.5,-93.5 "/>
<text text-anchor="start" x="307.5" y="-81.5" font-family="Helvetica,sans-Serif" font-size="10.00">&#45; time</text>
<polyline fill="none" stroke="black" points="299.5,-74.5 376.5,-74.5 "/>
<text text-anchor="start" x="307.5" y="-62.5" font-family="Helvetica,sans-Serif" font-size="10.00">+ make()</text>
<text text-anchor="start" x="307.5" y="-51.5" font-family="Helvetica,sans-Serif" font-size="10.00">+ validate()</text>
<text text-anchor="start" x="307.5" y="-40.5" font-family="Helvetica,sans-Serif" font-size="10.00">+ make()</text>
<text text-anchor="start" x="307.5" y="-29.5" font-family="Helvetica,sans-Serif" font-size="10.00">+ validate()</text>
<text text-anchor="start" x="307.5" y="-18.5" font-family="Helvetica,sans-Serif" font-size="10.00">~ Salmon()</text>
<text text-anchor="start" x="307.5" y="-7.5" font-family="Helvetica,sans-Serif" font-size="10.00">~ Salmon()</text>
</g>
<!-- Node2 -->
<g id="node2" class="node"><title>Node2</title>
<g id="a_node2"><a xlink:href="classSuchi_1_1Recette.html" target="_top" xlink:title="{Suchi.Recette\n|# Rice\l# Roe\l# Noori\l# salmon\l&#45; time\l|+ make()\l+ validate()\l+ useRice()\l+ useRoe()\l+ useNoori()\l+ useSalmon()\l+ checkAliment()\l+ phoneClick()\l+ validatePhone()\l+ buyRice()\l+ buyRoe()\l+ buyNoori()\l+ buySalmon()\l+ resetAliments()\l# Recette()\l}">
<polygon fill="none" stroke="black" points="291.5,-150.5 291.5,-405.5 384.5,-405.5 384.5,-150.5 291.5,-150.5"/>
<text text-anchor="middle" x="338" y="-393.5" font-family="Helvetica,sans-Serif" font-size="10.00">Suchi.Recette</text>
<polyline fill="none" stroke="black" points="291.5,-386.5 384.5,-386.5 "/>
<text text-anchor="start" x="299.5" y="-374.5" font-family="Helvetica,sans-Serif" font-size="10.00"># Rice</text>
<text text-anchor="start" x="299.5" y="-363.5" font-family="Helvetica,sans-Serif" font-size="10.00"># Roe</text>
<text text-anchor="start" x="299.5" y="-352.5" font-family="Helvetica,sans-Serif" font-size="10.00"># Noori</text>
<text text-anchor="start" x="299.5" y="-341.5" font-family="Helvetica,sans-Serif" font-size="10.00"># salmon</text>
<text text-anchor="start" x="299.5" y="-330.5" font-family="Helvetica,sans-Serif" font-size="10.00">&#45; time</text>
<polyline fill="none" stroke="black" points="291.5,-323.5 384.5,-323.5 "/>
<text text-anchor="start" x="299.5" y="-311.5" font-family="Helvetica,sans-Serif" font-size="10.00">+ make()</text>
<text text-anchor="start" x="299.5" y="-300.5" font-family="Helvetica,sans-Serif" font-size="10.00">+ validate()</text>
<text text-anchor="start" x="299.5" y="-289.5" font-family="Helvetica,sans-Serif" font-size="10.00">+ useRice()</text>
<text text-anchor="start" x="299.5" y="-278.5" font-family="Helvetica,sans-Serif" font-size="10.00">+ useRoe()</text>
<text text-anchor="start" x="299.5" y="-267.5" font-family="Helvetica,sans-Serif" font-size="10.00">+ useNoori()</text>
<text text-anchor="start" x="299.5" y="-256.5" font-family="Helvetica,sans-Serif" font-size="10.00">+ useSalmon()</text>
<text text-anchor="start" x="299.5" y="-245.5" font-family="Helvetica,sans-Serif" font-size="10.00">+ checkAliment()</text>
<text text-anchor="start" x="299.5" y="-234.5" font-family="Helvetica,sans-Serif" font-size="10.00">+ phoneClick()</text>
<text text-anchor="start" x="299.5" y="-223.5" font-family="Helvetica,sans-Serif" font-size="10.00">+ validatePhone()</text>
<text text-anchor="start" x="299.5" y="-212.5" font-family="Helvetica,sans-Serif" font-size="10.00">+ buyRice()</text>
<text text-anchor="start" x="299.5" y="-201.5" font-family="Helvetica,sans-Serif" font-size="10.00">+ buyRoe()</text>
<text text-anchor="start" x="299.5" y="-190.5" font-family="Helvetica,sans-Serif" font-size="10.00">+ buyNoori()</text>
<text text-anchor="start" x="299.5" y="-179.5" font-family="Helvetica,sans-Serif" font-size="10.00">+ buySalmon()</text>
<text text-anchor="start" x="299.5" y="-168.5" font-family="Helvetica,sans-Serif" font-size="10.00">+ resetAliments()</text>
<text text-anchor="start" x="299.5" y="-157.5" font-family="Helvetica,sans-Serif" font-size="10.00"># Recette()</text>
</a>
</g>
</g>
<!-- Node2&#45;&gt;Node1 -->
<g id="edge1" class="edge"><title>Node2&#45;&gt;Node1</title>
<path fill="none" stroke="midnightblue" d="M331.436,-140.204C331.569,-130.633 331.776,-121.355 332.054,-112.687"/>
<polygon fill="none" stroke="midnightblue" points="327.935,-140.231 331.322,-150.27 334.935,-140.31 327.935,-140.231"/>
</g>
<!-- Node2&#45;&gt;Node1 -->
<g id="edge12" class="edge"><title>Node2&#45;&gt;Node1</title>
<path fill="none" stroke="midnightblue" d="M344.564,-140.204C344.431,-130.633 344.224,-121.355 343.946,-112.687"/>
<polygon fill="none" stroke="midnightblue" points="341.065,-140.31 344.678,-150.27 348.065,-140.231 341.065,-140.31"/>
</g>
<!-- Node3 -->
<g id="node3" class="node"><title>Node3</title>
<g id="a_node3"><a xlink:href="classSuchi_1_1Ia.html" target="_top" xlink:title="{Suchi.Ia\n|~ height\l&#45; width\l|+ Ia()\l+ loadCommandes()\l+ clearTable()\l+ saveSprites()\l+ fillGreyTable()\l+ initGreyReference()\l+ fillCommandes()\l+ getZone()\l+ clickZone()\l+ resetIngredients()\l+ useIngredient()\l+ checkIngredients()\l+ buyIngredient()\l}">
<polygon fill="none" stroke="black" points="263,-541.5 263,-741.5 373,-741.5 373,-541.5 263,-541.5"/>
<text text-anchor="middle" x="318" y="-729.5" font-family="Helvetica,sans-Serif" font-size="10.00">Suchi.Ia</text>
<polyline fill="none" stroke="black" points="263,-722.5 373,-722.5 "/>
<text text-anchor="start" x="271" y="-710.5" font-family="Helvetica,sans-Serif" font-size="10.00">~ height</text>
<text text-anchor="start" x="271" y="-699.5" font-family="Helvetica,sans-Serif" font-size="10.00">&#45; width</text>
<polyline fill="none" stroke="black" points="263,-692.5 373,-692.5 "/>
<text text-anchor="start" x="271" y="-680.5" font-family="Helvetica,sans-Serif" font-size="10.00">+ Ia()</text>
<text text-anchor="start" x="271" y="-669.5" font-family="Helvetica,sans-Serif" font-size="10.00">+ loadCommandes()</text>
<text text-anchor="start" x="271" y="-658.5" font-family="Helvetica,sans-Serif" font-size="10.00">+ clearTable()</text>
<text text-anchor="start" x="271" y="-647.5" font-family="Helvetica,sans-Serif" font-size="10.00">+ saveSprites()</text>
<text text-anchor="start" x="271" y="-636.5" font-family="Helvetica,sans-Serif" font-size="10.00">+ fillGreyTable()</text>
<text text-anchor="start" x="271" y="-625.5" font-family="Helvetica,sans-Serif" font-size="10.00">+ initGreyReference()</text>
<text text-anchor="start" x="271" y="-614.5" font-family="Helvetica,sans-Serif" font-size="10.00">+ fillCommandes()</text>
<text text-anchor="start" x="271" y="-603.5" font-family="Helvetica,sans-Serif" font-size="10.00">+ getZone()</text>
<text text-anchor="start" x="271" y="-592.5" font-family="Helvetica,sans-Serif" font-size="10.00">+ clickZone()</text>
<text text-anchor="start" x="271" y="-581.5" font-family="Helvetica,sans-Serif" font-size="10.00">+ resetIngredients()</text>
<text text-anchor="start" x="271" y="-570.5" font-family="Helvetica,sans-Serif" font-size="10.00">+ useIngredient()</text>
<text text-anchor="start" x="271" y="-559.5" font-family="Helvetica,sans-Serif" font-size="10.00">+ checkIngredients()</text>
<text text-anchor="start" x="271" y="-548.5" font-family="Helvetica,sans-Serif" font-size="10.00">+ buyIngredient()</text>
</a>
</g>
</g>
<!-- Node3&#45;&gt;Node2 -->
<g id="edge2" class="edge"><title>Node3&#45;&gt;Node2</title>
<path fill="none" stroke="#404040" d="M315.845,-541.249C315.732,-504.392 316.416,-462.252 319,-424 319.138,-421.954 319.287,-419.892 319.445,-417.818"/>
<polygon fill="none" stroke="#404040" points="319.447,-417.787 315.96,-411.475 320.446,-405.829 323.933,-412.141 319.447,-417.787"/>
<text text-anchor="middle" x="327" y="-471" font-family="Helvetica,sans-Serif" font-size="10.00"> #ia</text>
</g>
<!-- Node4 -->
<g id="node4" class="node"><title>Node4</title>
<polygon fill="none" stroke="#bfbfbf" points="0,-806 0,-863 152,-863 152,-806 0,-806"/>
<text text-anchor="middle" x="76" y="-851" font-family="Helvetica,sans-Serif" font-size="10.00">HashMap&lt; String, Suchi.Dot &gt;</text>
<polyline fill="none" stroke="#bfbfbf" points="0,-844 152,-844 "/>
<text text-anchor="middle" x="76" y="-832" font-family="Helvetica,sans-Serif" font-size="10.00"> </text>
<polyline fill="none" stroke="#bfbfbf" points="0,-825 152,-825 "/>
<text text-anchor="middle" x="76" y="-813" font-family="Helvetica,sans-Serif" font-size="10.00"> </text>
</g>
<!-- Node4&#45;&gt;Node3 -->
<g id="edge3" class="edge"><title>Node4&#45;&gt;Node3</title>
<path fill="none" stroke="#404040" d="M110.93,-805.931C148.08,-776.611 207.67,-729.578 253.408,-693.48"/>
<polygon fill="none" stroke="#404040" points="253.525,-693.387 255.757,-686.53 262.945,-685.953 260.713,-692.81 253.525,-693.387"/>
<text text-anchor="middle" x="185.5" y="-768.5" font-family="Helvetica,sans-Serif" font-size="10.00"> &#45;zones</text>
</g>
<!-- Node5 -->
<g id="node5" class="node"><title>Node5</title>
<polygon fill="none" stroke="#bfbfbf" points="288.5,-916.5 288.5,-973.5 347.5,-973.5 347.5,-916.5 288.5,-916.5"/>
<text text-anchor="middle" x="318" y="-961.5" font-family="Helvetica,sans-Serif" font-size="10.00">HashMap</text>
<polyline fill="none" stroke="#bfbfbf" points="288.5,-954.5 347.5,-954.5 "/>
<text text-anchor="middle" x="318" y="-942.5" font-family="Helvetica,sans-Serif" font-size="10.00"> </text>
<polyline fill="none" stroke="#bfbfbf" points="288.5,-935.5 347.5,-935.5 "/>
<text text-anchor="middle" x="318" y="-923.5" font-family="Helvetica,sans-Serif" font-size="10.00"> </text>
</g>
<!-- Node5&#45;&gt;Node4 -->
<g id="edge4" class="edge"><title>Node5&#45;&gt;Node4</title>
<path fill="none" stroke="orange" d="M278.302,-938.767C242.129,-932.782 188.084,-920.723 146,-898 129.371,-889.021 113.439,-875.347 100.987,-863.076"/>
<polygon fill="orange" stroke="orange" points="278.041,-942.269 288.464,-940.367 279.129,-935.354 278.041,-942.269"/>
<text text-anchor="middle" x="196" y="-890" font-family="Helvetica,sans-Serif" font-size="10.00"> &lt; String, Suchi::Dot &gt;</text>
</g>
<!-- Node6 -->
<g id="node6" class="node"><title>Node6</title>
<polygon fill="none" stroke="#bfbfbf" points="170,-800.5 170,-868.5 306,-868.5 306,-800.5 170,-800.5"/>
<text text-anchor="start" x="178" y="-856.5" font-family="Helvetica,sans-Serif" font-size="10.00">HashMap&lt; String, Buffered</text>
<text text-anchor="middle" x="238" y="-845.5" font-family="Helvetica,sans-Serif" font-size="10.00">Image &gt;</text>
<polyline fill="none" stroke="#bfbfbf" points="170,-838.5 306,-838.5 "/>
<text text-anchor="middle" x="238" y="-826.5" font-family="Helvetica,sans-Serif" font-size="10.00"> </text>
<polyline fill="none" stroke="#bfbfbf" points="170,-819.5 306,-819.5 "/>
<text text-anchor="middle" x="238" y="-807.5" font-family="Helvetica,sans-Serif" font-size="10.00"> </text>
</g>
<!-- Node5&#45;&gt;Node6 -->
<g id="edge6" class="edge"><title>Node5&#45;&gt;Node6</title>
<path fill="none" stroke="orange" d="M279.955,-922.535C270.661,-915.736 261.526,-907.48 255,-898 249.071,-889.386 245.206,-878.782 242.688,-868.771"/>
<polygon fill="orange" stroke="orange" points="278.236,-925.6 288.465,-928.363 282.192,-919.824 278.236,-925.6"/>
<text text-anchor="middle" x="313.5" y="-890" font-family="Helvetica,sans-Serif" font-size="10.00"> &lt; String, BufferedImage &gt;</text>
</g>
<!-- Node7 -->
<g id="node7" class="node"><title>Node7</title>
<polygon fill="none" stroke="#bfbfbf" points="324,-806 324,-863 476,-863 476,-806 324,-806"/>
<text text-anchor="middle" x="400" y="-851" font-family="Helvetica,sans-Serif" font-size="10.00">HashMap&lt; String, Rectangle &gt;</text>
<polyline fill="none" stroke="#bfbfbf" points="324,-844 476,-844 "/>
<text text-anchor="middle" x="400" y="-832" font-family="Helvetica,sans-Serif" font-size="10.00"> </text>
<polyline fill="none" stroke="#bfbfbf" points="324,-825 476,-825 "/>
<text text-anchor="middle" x="400" y="-813" font-family="Helvetica,sans-Serif" font-size="10.00"> </text>
</g>
<!-- Node5&#45;&gt;Node7 -->
<g id="edge8" class="edge"><title>Node5&#45;&gt;Node7</title>
<path fill="none" stroke="orange" d="M355.393,-916.007C361.411,-910.465 367.222,-904.375 372,-898 379.844,-887.535 386.117,-874.524 390.72,-863.087"/>
<polygon fill="orange" stroke="orange" points="352.947,-913.497 347.724,-922.715 357.555,-918.766 352.947,-913.497"/>
<text text-anchor="middle" x="428.5" y="-890" font-family="Helvetica,sans-Serif" font-size="10.00"> &lt; String, Rectangle &gt;</text>
</g>
<!-- Node8 -->
<g id="node8" class="node"><title>Node8</title>
<polygon fill="none" stroke="#bfbfbf" points="494,-806 494,-863 632,-863 632,-806 494,-806"/>
<text text-anchor="middle" x="563" y="-851" font-family="Helvetica,sans-Serif" font-size="10.00">HashMap&lt; String, Integer &gt;</text>
<polyline fill="none" stroke="#bfbfbf" points="494,-844 632,-844 "/>
<text text-anchor="middle" x="563" y="-832" font-family="Helvetica,sans-Serif" font-size="10.00"> </text>
<polyline fill="none" stroke="#bfbfbf" points="494,-825 632,-825 "/>
<text text-anchor="middle" x="563" y="-813" font-family="Helvetica,sans-Serif" font-size="10.00"> </text>
</g>
<!-- Node5&#45;&gt;Node8 -->
<g id="edge10" class="edge"><title>Node5&#45;&gt;Node8</title>
<path fill="none" stroke="orange" d="M357.796,-937.129C391.777,-930.258 441.307,-917.822 481,-898 499.416,-888.803 517.834,-875.257 532.536,-863.125"/>
<polygon fill="orange" stroke="orange" points="356.922,-933.733 347.778,-939.084 358.263,-940.604 356.922,-933.733"/>
<text text-anchor="middle" x="540.5" y="-890" font-family="Helvetica,sans-Serif" font-size="10.00"> &lt; String, Integer &gt;</text>
</g>
<!-- Node6&#45;&gt;Node3 -->
<g id="edge5" class="edge"><title>Node6&#45;&gt;Node3</title>
<path fill="none" stroke="#404040" d="M251.935,-800.23C257.59,-786.728 264.477,-770.287 271.643,-753.178"/>
<polygon fill="none" stroke="#404040" points="271.746,-752.932 270.374,-745.852 276.382,-741.864 277.753,-748.943 271.746,-752.932"/>
<text text-anchor="middle" x="304" y="-768.5" font-family="Helvetica,sans-Serif" font-size="10.00"> &#45;greyReference</text>
</g>
<!-- Node7&#45;&gt;Node3 -->
<g id="edge7" class="edge"><title>Node7&#45;&gt;Node3</title>
<path fill="none" stroke="#404040" d="M388.076,-805.727C381.884,-791.303 373.868,-772.631 365.481,-753.096"/>
<polygon fill="none" stroke="#404040" points="365.386,-752.875 359.344,-748.94 360.652,-741.848 366.695,-745.784 365.386,-752.875"/>
<text text-anchor="middle" x="412.5" y="-774" font-family="Helvetica,sans-Serif" font-size="10.00"> &#45;greyIngredients</text>
<text text-anchor="middle" x="412.5" y="-763" font-family="Helvetica,sans-Serif" font-size="10.00">&#45;commandes</text>
</g>
<!-- Node8&#45;&gt;Node3 -->
<g id="edge9" class="edge"><title>Node8&#45;&gt;Node3</title>
<path fill="none" stroke="#404040" d="M528.064,-805.895C507.252,-790.568 479.752,-772.193 453,-760 425.333,-747.39 411.827,-759.551 387,-742 385.498,-740.938 384.018,-739.833 382.561,-738.688"/>
<polygon fill="none" stroke="#404040" points="382.321,-738.48 375.169,-737.56 373.267,-730.604 380.419,-731.524 382.321,-738.48"/>
<text text-anchor="middle" x="519" y="-768.5" font-family="Helvetica,sans-Serif" font-size="10.00"> &#45;ingredients</text>
</g>
<!-- Node9 -->
<g id="node9" class="node"><title>Node9</title>
<polygon fill="none" stroke="#bfbfbf" points="396.5,-613 396.5,-670 435.5,-670 435.5,-613 396.5,-613"/>
<text text-anchor="middle" x="416" y="-658" font-family="Helvetica,sans-Serif" font-size="10.00">Point</text>
<polyline fill="none" stroke="#bfbfbf" points="396.5,-651 435.5,-651 "/>
<text text-anchor="middle" x="416" y="-639" font-family="Helvetica,sans-Serif" font-size="10.00"> </text>
<polyline fill="none" stroke="#bfbfbf" points="396.5,-632 435.5,-632 "/>
<text text-anchor="middle" x="416" y="-620" font-family="Helvetica,sans-Serif" font-size="10.00"> </text>
</g>
<!-- Node9&#45;&gt;Node1 -->
<g id="edge13" class="edge"><title>Node9&#45;&gt;Node1</title>
<path fill="none" stroke="#404040" d="M419.322,-612.861C427.477,-536.93 444.279,-319.52 393,-150 390.299,-141.072 386.561,-132.109 382.291,-123.464"/>
<polygon fill="none" stroke="#404040" points="382.221,-123.331 375.889,-119.881 376.638,-112.709 382.97,-116.159 382.221,-123.331"/>
<text text-anchor="middle" x="450.5" y="-286.5" font-family="Helvetica,sans-Serif" font-size="10.00"> &#45;Rice</text>
<text text-anchor="middle" x="450.5" y="-275.5" font-family="Helvetica,sans-Serif" font-size="10.00">~Noori</text>
<text text-anchor="middle" x="450.5" y="-264.5" font-family="Helvetica,sans-Serif" font-size="10.00">~Saumon</text>
</g>
<!-- Node9&#45;&gt;Node2 -->
<g id="edge11" class="edge"><title>Node9&#45;&gt;Node2</title>
<path fill="none" stroke="#404040" d="M411.142,-612.681C406.399,-591.492 397.558,-562.415 382,-541 374.163,-530.213 364.445,-534.672 358,-523 347.578,-504.127 342.275,-461.894 339.671,-417.779"/>
<polygon fill="none" stroke="#404040" points="339.662,-417.598 335.347,-411.82 339.021,-405.615 343.336,-411.393 339.662,-417.598"/>
<text text-anchor="middle" x="382.5" y="-515" font-family="Helvetica,sans-Serif" font-size="10.00"> #RiceC</text>
<text text-anchor="middle" x="382.5" y="-504" font-family="Helvetica,sans-Serif" font-size="10.00">#phone</text>
<text text-anchor="middle" x="382.5" y="-493" font-family="Helvetica,sans-Serif" font-size="10.00">#saumon</text>
<text text-anchor="middle" x="382.5" y="-482" font-family="Helvetica,sans-Serif" font-size="10.00">#exitPhone</text>
<text text-anchor="middle" x="382.5" y="-471" font-family="Helvetica,sans-Serif" font-size="10.00">#nori</text>
<text text-anchor="middle" x="382.5" y="-460" font-family="Helvetica,sans-Serif" font-size="10.00">#RiceCbuy</text>
<text text-anchor="middle" x="382.5" y="-449" font-family="Helvetica,sans-Serif" font-size="10.00">#validate</text>
<text text-anchor="middle" x="382.5" y="-438" font-family="Helvetica,sans-Serif" font-size="10.00">#fishEggs</text>
<text text-anchor="middle" x="382.5" y="-427" font-family="Helvetica,sans-Serif" font-size="10.00">#Topping</text>
</g>
</g>
</svg>
        <g id="navigator" transform="translate(0 0)" fill="#404254">
                <rect fill="#f2f5e9" fill-opacity="0.5" stroke="#606060" stroke-width=".5" x="0" y="0" width="60" height="60"/>
                <use id="zoomplus" xlink:href="#zoomPlus" x="17" y="9" onmousedown="handleZoom(evt,'in')"/>
                <use id="zoomminus" xlink:href="#zoomMin" x="42" y="9" onmousedown="handleZoom(evt,'out')"/>
                <use id="reset" xlink:href="#resetDef" x="30" y="36" onmousedown="handleReset()"/>
                <g id="arrowUp" xlink:href="#dirArrow" transform="translate(30 24)" onmousedown="handlePan(0,-1)">
                  <use xlink:href="#rim" fill="#404040">
                        <set attributeName="fill" to="#808080" begin="arrowUp.mouseover" end="arrowUp.mouseout"/>
                  </use>
                  <path fill="none" stroke="white" stroke-width="1.5" d="M0,-3.0v7 M-2.5,-0.5L0,-3.0L2.5,-0.5"/>
                </g>
                <g id="arrowRight" xlink:href="#dirArrow" transform="rotate(90) translate(36 -43)" onmousedown="handlePan(1,0)">
                  <use xlink:href="#rim" fill="#404040">
                        <set attributeName="fill" to="#808080" begin="arrowRight.mouseover" end="arrowRight.mouseout"/>
                  </use>
                  <path fill="none" stroke="white" stroke-width="1.5" d="M0,-3.0v7 M-2.5,-0.5L0,-3.0L2.5,-0.5"/>
                </g>
                <g id="arrowDown" xlink:href="#dirArrow" transform="rotate(180) translate(-30 -48)" onmousedown="handlePan(0,1)">
                  <use xlink:href="#rim" fill="#404040">
                        <set attributeName="fill" to="#808080" begin="arrowDown.mouseover" end="arrowDown.mouseout"/>
                  </use>
                  <path fill="none" stroke="white" stroke-width="1.5" d="M0,-3.0v7 M-2.5,-0.5L0,-3.0L2.5,-0.5"/>
                </g>
                <g id="arrowLeft" xlink:href="#dirArrow" transform="rotate(270) translate(-36 17)" onmousedown="handlePan(-1,0)">
                  <use xlink:href="#rim" fill="#404040">
                        <set attributeName="fill" to="#808080" begin="arrowLeft.mouseover" end="arrowLeft.mouseout"/>
                  </use>
                  <path fill="none" stroke="white" stroke-width="1.5" d="M0,-3.0v7 M-2.5,-0.5L0,-3.0L2.5,-0.5"/>
                </g>
        </g>
        <svg viewBox="0 0 15 15" width="100%" height="30px" preserveAspectRatio="xMaxYMin meet">
         <g id="arrow_out" transform="scale(0.3 0.3)">
          <a xlink:href="classSuchi_1_1Salmon__coll__graph_org.svg" target="_base">
           <rect id="button" ry="5" rx="5" y="6" x="6" height="38" width="38"
                fill="#f2f5e9" fill-opacity="0.5" stroke="#606060" stroke-width="1.0"/>
           <path id="arrow"
             d="M 11.500037,31.436501 C 11.940474,20.09759 22.043105,11.32322 32.158766,21.979434 L 37.068811,17.246167 C 37.068811,17.246167 37.088388,32 37.088388,32 L 22.160133,31.978069 C 22.160133,31.978069 26.997745,27.140456 26.997745,27.140456 C 18.528582,18.264221 13.291696,25.230495 11.500037,31.436501 z"
             style="fill:#404040;"/>
          </a>
         </g>
        </svg>
</svg>
