<?xml version="1.0" encoding="UTF-8" standalone="no"?>
<!DOCTYPE svg PUBLIC "-//W3C//DTD SVG 1.1//EN"
 "http://www.w3.org/Graphics/SVG/1.1/DTD/svg11.dtd">
<!-- Generated by graphviz version 2.38.0 (20140413.2041)
 -->
<!-- Title: Suchi.Toolbox Pages: 1 -->
<svg width="156pt" height="248pt"
 viewBox="0.00 0.00 155.50 248.00" xmlns="http://www.w3.org/2000/svg" xmlns:xlink="http://www.w3.org/1999/xlink">
<g id="graph0" class="graph" transform="scale(1 1) rotate(0) translate(4 244)">
<title>Suchi.Toolbox</title>
<!-- Node1 -->
<g id="node1" class="node"><title>Node1</title>
<polygon fill="#bfbfbf" stroke="black" points="12.5,-0.5 12.5,-145.5 119.5,-145.5 119.5,-0.5 12.5,-0.5"/>
<text text-anchor="middle" x="66" y="-133.5" font-family="Helvetica,sans-Serif" font-size="10.00">Suchi.Toolbox</text>
<polyline fill="none" stroke="black" points="12.5,-126.5 119.5,-126.5 "/>
<text text-anchor="start" x="20.5" y="-114.5" font-family="Helvetica,sans-Serif" font-size="10.00">~ height</text>
<text text-anchor="start" x="20.5" y="-103.5" font-family="Helvetica,sans-Serif" font-size="10.00">&#45; width</text>
<text text-anchor="start" x="20.5" y="-92.5" font-family="Helvetica,sans-Serif" font-size="10.00">&#45; detect</text>
<text text-anchor="start" x="20.5" y="-81.5" font-family="Helvetica,sans-Serif" font-size="10.00">&#45; g</text>
<text text-anchor="start" x="20.5" y="-70.5" font-family="Helvetica,sans-Serif" font-size="10.00">&#45; serialVersionUID</text>
<polyline fill="none" stroke="black" points="12.5,-63.5 119.5,-63.5 "/>
<text text-anchor="start" x="20.5" y="-51.5" font-family="Helvetica,sans-Serif" font-size="10.00">+ Toolbox()</text>
<text text-anchor="start" x="20.5" y="-40.5" font-family="Helvetica,sans-Serif" font-size="10.00">+ launch()</text>
<text text-anchor="start" x="20.5" y="-29.5" font-family="Helvetica,sans-Serif" font-size="10.00">+ gameRoutine()</text>
<text text-anchor="start" x="20.5" y="-18.5" font-family="Helvetica,sans-Serif" font-size="10.00">+ detectGameZone()</text>
<text text-anchor="start" x="20.5" y="-7.5" font-family="Helvetica,sans-Serif" font-size="10.00">+ actionPerformed()</text>
</g>
<!-- Node2 -->
<g id="node2" class="node"><title>Node2</title>
<polygon fill="none" stroke="#bfbfbf" points="0,-182.5 0,-239.5 50,-239.5 50,-182.5 0,-182.5"/>
<text text-anchor="middle" x="25" y="-227.5" font-family="Helvetica,sans-Serif" font-size="10.00">JFrame</text>
<polyline fill="none" stroke="#bfbfbf" points="0,-220.5 50,-220.5 "/>
<text text-anchor="middle" x="25" y="-208.5" font-family="Helvetica,sans-Serif" font-size="10.00"> </text>
<polyline fill="none" stroke="#bfbfbf" points="0,-201.5 50,-201.5 "/>
<text text-anchor="middle" x="25" y="-189.5" font-family="Helvetica,sans-Serif" font-size="10.00"> </text>
</g>
<!-- Node2&#45;&gt;Node1 -->
<g id="edge1" class="edge"><title>Node2&#45;&gt;Node1</title>
<path fill="none" stroke="midnightblue" d="M36.2647,-172.634C38.8069,-164.202 41.5885,-154.975 44.3978,-145.656"/>
<polygon fill="none" stroke="midnightblue" points="32.8324,-171.894 33.297,-182.478 39.5345,-173.914 32.8324,-171.894"/>
</g>
<!-- Node3 -->
<g id="node3" class="node"><title>Node3</title>
<polygon fill="none" stroke="#bfbfbf" points="68.5,-182.5 68.5,-239.5 147.5,-239.5 147.5,-182.5 68.5,-182.5"/>
<text text-anchor="middle" x="108" y="-227.5" font-family="Helvetica,sans-Serif" font-size="10.00">ActionListener</text>
<polyline fill="none" stroke="#bfbfbf" points="68.5,-220.5 147.5,-220.5 "/>
<text text-anchor="middle" x="108" y="-208.5" font-family="Helvetica,sans-Serif" font-size="10.00"> </text>
<polyline fill="none" stroke="#bfbfbf" points="68.5,-201.5 147.5,-201.5 "/>
<text text-anchor="middle" x="108" y="-189.5" font-family="Helvetica,sans-Serif" font-size="10.00"> </text>
</g>
<!-- Node3&#45;&gt;Node1 -->
<g id="edge2" class="edge"><title>Node3&#45;&gt;Node1</title>
<path fill="none" stroke="midnightblue" d="M96.5463,-172.912C93.919,-164.404 91.0385,-155.077 88.129,-145.656"/>
<polygon fill="none" stroke="midnightblue" points="93.2057,-173.956 99.5007,-182.478 99.894,-171.891 93.2057,-173.956"/>
</g>
</g>
</svg>
