<?xml version="1.0" encoding="UTF-8" standalone="no"?>
<!DOCTYPE svg PUBLIC "-//W3C//DTD SVG 1.1//EN"
 "http://www.w3.org/Graphics/SVG/1.1/DTD/svg11.dtd">
<!-- Generated by graphviz version 2.38.0 (20140413.2041)
 -->
<!-- Title: Suchi.Game Pages: 1 -->
<svg width="148pt" height="446pt"
 viewBox="0.00 0.00 147.50 446.00" xmlns="http://www.w3.org/2000/svg" xmlns:xlink="http://www.w3.org/1999/xlink">
<g id="graph0" class="graph" transform="scale(1 1) rotate(0) translate(4 442)">
<title>Suchi.Game</title>
<!-- Node1 -->
<g id="node1" class="node"><title>Node1</title>
<polygon fill="#bfbfbf" stroke="black" points="16.5,-0.5 16.5,-321.5 132.5,-321.5 132.5,-0.5 16.5,-0.5"/>
<text text-anchor="middle" x="74.5" y="-309.5" font-family="Helvetica,sans-Serif" font-size="10.00">Suchi.Game</text>
<polyline fill="none" stroke="black" points="16.5,-302.5 132.5,-302.5 "/>
<text text-anchor="start" x="24.5" y="-290.5" font-family="Helvetica,sans-Serif" font-size="10.00">&#45; youwin1</text>
<text text-anchor="start" x="24.5" y="-279.5" font-family="Helvetica,sans-Serif" font-size="10.00">&#45; youwin2</text>
<text text-anchor="start" x="24.5" y="-268.5" font-family="Helvetica,sans-Serif" font-size="10.00">&#45; youwin</text>
<polyline fill="none" stroke="black" points="16.5,-261.5 132.5,-261.5 "/>
<text text-anchor="start" x="24.5" y="-249.5" font-family="Helvetica,sans-Serif" font-size="10.00">+ Game()</text>
<text text-anchor="start" x="24.5" y="-238.5" font-family="Helvetica,sans-Serif" font-size="10.00">+ startGame()</text>
<text text-anchor="start" x="24.5" y="-227.5" font-family="Helvetica,sans-Serif" font-size="10.00">+ youWinLevel1()</text>
<text text-anchor="start" x="24.5" y="-216.5" font-family="Helvetica,sans-Serif" font-size="10.00">+ youWinLevel2()</text>
<text text-anchor="start" x="24.5" y="-205.5" font-family="Helvetica,sans-Serif" font-size="10.00">+ startLevel1()</text>
<text text-anchor="start" x="24.5" y="-194.5" font-family="Helvetica,sans-Serif" font-size="10.00">+ startLevel2()</text>
<text text-anchor="start" x="24.5" y="-183.5" font-family="Helvetica,sans-Serif" font-size="10.00">+ startLevel3()</text>
<text text-anchor="start" x="24.5" y="-172.5" font-family="Helvetica,sans-Serif" font-size="10.00">+ Game()</text>
<text text-anchor="start" x="24.5" y="-161.5" font-family="Helvetica,sans-Serif" font-size="10.00">+ createScreenImage()</text>
<text text-anchor="start" x="24.5" y="-150.5" font-family="Helvetica,sans-Serif" font-size="10.00">+ start()</text>
<text text-anchor="start" x="24.5" y="-139.5" font-family="Helvetica,sans-Serif" font-size="10.00">+ continuee()</text>
<text text-anchor="start" x="24.5" y="-128.5" font-family="Helvetica,sans-Serif" font-size="10.00">+ continue2()</text>
<text text-anchor="start" x="24.5" y="-117.5" font-family="Helvetica,sans-Serif" font-size="10.00">+ skip()</text>
<text text-anchor="start" x="24.5" y="-106.5" font-family="Helvetica,sans-Serif" font-size="10.00">+ youWin()</text>
<text text-anchor="start" x="24.5" y="-95.5" font-family="Helvetica,sans-Serif" font-size="10.00">+ getGame()</text>
<text text-anchor="start" x="24.5" y="-84.5" font-family="Helvetica,sans-Serif" font-size="10.00">+ setZoneWin()</text>
<text text-anchor="start" x="24.5" y="-73.5" font-family="Helvetica,sans-Serif" font-size="10.00">+ getOrigin()</text>
<text text-anchor="start" x="24.5" y="-62.5" font-family="Helvetica,sans-Serif" font-size="10.00">+ setOrigin()</text>
<text text-anchor="start" x="24.5" y="-51.5" font-family="Helvetica,sans-Serif" font-size="10.00">+ getGameZone()</text>
<text text-anchor="start" x="24.5" y="-40.5" font-family="Helvetica,sans-Serif" font-size="10.00">+ setGameZone()</text>
<text text-anchor="start" x="24.5" y="-29.5" font-family="Helvetica,sans-Serif" font-size="10.00">+ main()</text>
<text text-anchor="start" x="24.5" y="-18.5" font-family="Helvetica,sans-Serif" font-size="10.00">+ getScreen()</text>
<text text-anchor="start" x="24.5" y="-7.5" font-family="Helvetica,sans-Serif" font-size="10.00">+ main()</text>
</g>
<!-- Node2 -->
<g id="node2" class="node"><title>Node2</title>
<polygon fill="none" stroke="#bfbfbf" points="0,-380.5 0,-437.5 61,-437.5 61,-380.5 0,-380.5"/>
<text text-anchor="middle" x="30.5" y="-425.5" font-family="Helvetica,sans-Serif" font-size="10.00">Rectangle</text>
<polyline fill="none" stroke="#bfbfbf" points="0,-418.5 61,-418.5 "/>
<text text-anchor="middle" x="30.5" y="-406.5" font-family="Helvetica,sans-Serif" font-size="10.00"> </text>
<polyline fill="none" stroke="#bfbfbf" points="0,-399.5 61,-399.5 "/>
<text text-anchor="middle" x="30.5" y="-387.5" font-family="Helvetica,sans-Serif" font-size="10.00"> </text>
</g>
<!-- Node2&#45;&gt;Node1 -->
<g id="edge1" class="edge"><title>Node2&#45;&gt;Node1</title>
<path fill="none" stroke="#404040" d="M29.5197,-380.441C29.434,-368.036 29.8251,-353.236 31.5,-340 31.7607,-337.94 32.036,-335.869 32.3251,-333.79"/>
<polygon fill="none" stroke="#404040" points="32.3441,-333.663 29.2789,-327.136 34.1252,-321.796 37.1903,-328.323 32.3441,-333.663"/>
<text text-anchor="middle" x="64" y="-354" font-family="Helvetica,sans-Serif" font-size="10.00"> +zoneYouWin</text>
<text text-anchor="middle" x="64" y="-343" font-family="Helvetica,sans-Serif" font-size="10.00">&#45;gameZone</text>
</g>
<!-- Node3 -->
<g id="node3" class="node"><title>Node3</title>
<polygon fill="none" stroke="#bfbfbf" points="99,-380.5 99,-437.5 138,-437.5 138,-380.5 99,-380.5"/>
<text text-anchor="middle" x="118.5" y="-425.5" font-family="Helvetica,sans-Serif" font-size="10.00">Point</text>
<polyline fill="none" stroke="#bfbfbf" points="99,-418.5 138,-418.5 "/>
<text text-anchor="middle" x="118.5" y="-406.5" font-family="Helvetica,sans-Serif" font-size="10.00"> </text>
<polyline fill="none" stroke="#bfbfbf" points="99,-399.5 138,-399.5 "/>
<text text-anchor="middle" x="118.5" y="-387.5" font-family="Helvetica,sans-Serif" font-size="10.00"> </text>
</g>
<!-- Node3&#45;&gt;Node1 -->
<g id="edge2" class="edge"><title>Node3&#45;&gt;Node1</title>
<path fill="none" stroke="#404040" d="M113.538,-380.259C111.27,-367.58 108.381,-351.423 105.202,-333.65"/>
<polygon fill="none" stroke="#404040" points="105.187,-333.57 100.193,-328.368 103.074,-321.757 108.068,-326.959 105.187,-333.57"/>
<text text-anchor="middle" x="124.5" y="-348.5" font-family="Helvetica,sans-Serif" font-size="10.00"> &#45;origin</text>
</g>
</g>
</svg>
