<?xml version="1.0" encoding="UTF-8" standalone="no"?>
<!DOCTYPE svg PUBLIC "-//W3C//DTD SVG 1.1//EN"
 "http://www.w3.org/Graphics/SVG/1.1/DTD/svg11.dtd">
<!-- Generated by graphviz version 2.38.0 (20140413.2041)
 -->
<!-- Title: Pictures.FindPicture Pages: 1 -->
<svg width="146pt" height="314pt"
 viewBox="0.00 0.00 145.50 314.00" xmlns="http://www.w3.org/2000/svg" xmlns:xlink="http://www.w3.org/1999/xlink">
<g id="graph0" class="graph" transform="scale(1 1) rotate(0) translate(4 310)">
<title>Pictures.FindPicture</title>
<!-- Node1 -->
<g id="node1" class="node"><title>Node1</title>
<polygon fill="#bfbfbf" stroke="black" points="26.5,-0.5 26.5,-189.5 131.5,-189.5 131.5,-0.5 26.5,-0.5"/>
<text text-anchor="middle" x="79" y="-177.5" font-family="Helvetica,sans-Serif" font-size="10.00">Pictures.FindPicture</text>
<polyline fill="none" stroke="black" points="26.5,-170.5 131.5,-170.5 "/>
<text text-anchor="middle" x="79" y="-158.5" font-family="Helvetica,sans-Serif" font-size="10.00"> </text>
<polyline fill="none" stroke="black" points="26.5,-151.5 131.5,-151.5 "/>
<text text-anchor="start" x="34.5" y="-139.5" font-family="Helvetica,sans-Serif" font-size="10.00">+ FindPicture()</text>
<text text-anchor="start" x="34.5" y="-128.5" font-family="Helvetica,sans-Serif" font-size="10.00">+ FindPicture()</text>
<text text-anchor="start" x="34.5" y="-117.5" font-family="Helvetica,sans-Serif" font-size="10.00">+ loadPictures()</text>
<text text-anchor="start" x="34.5" y="-106.5" font-family="Helvetica,sans-Serif" font-size="10.00">+ getLine()</text>
<text text-anchor="start" x="34.5" y="-95.5" font-family="Helvetica,sans-Serif" font-size="10.00">+ getColumn()</text>
<text text-anchor="start" x="34.5" y="-84.5" font-family="Helvetica,sans-Serif" font-size="10.00">+ checkColumn()</text>
<text text-anchor="start" x="34.5" y="-73.5" font-family="Helvetica,sans-Serif" font-size="10.00">+ checkLine()</text>
<text text-anchor="start" x="34.5" y="-62.5" font-family="Helvetica,sans-Serif" font-size="10.00">+ checkImage()</text>
<text text-anchor="start" x="34.5" y="-51.5" font-family="Helvetica,sans-Serif" font-size="10.00">+ getSrc()</text>
<text text-anchor="start" x="34.5" y="-40.5" font-family="Helvetica,sans-Serif" font-size="10.00">+ getImg()</text>
<text text-anchor="start" x="34.5" y="-29.5" font-family="Helvetica,sans-Serif" font-size="10.00">et 19 de plus...</text>
<text text-anchor="start" x="34.5" y="-18.5" font-family="Helvetica,sans-Serif" font-size="10.00">+ main()</text>
<text text-anchor="start" x="34.5" y="-7.5" font-family="Helvetica,sans-Serif" font-size="10.00">+ main()</text>
</g>
<!-- Node2 -->
<g id="node2" class="node"><title>Node2</title>
<polygon fill="none" stroke="#bfbfbf" points="0,-248.5 0,-305.5 80,-305.5 80,-248.5 0,-248.5"/>
<text text-anchor="middle" x="40" y="-293.5" font-family="Helvetica,sans-Serif" font-size="10.00">BufferedImage</text>
<polyline fill="none" stroke="#bfbfbf" points="0,-286.5 80,-286.5 "/>
<text text-anchor="middle" x="40" y="-274.5" font-family="Helvetica,sans-Serif" font-size="10.00"> </text>
<polyline fill="none" stroke="#bfbfbf" points="0,-267.5 80,-267.5 "/>
<text text-anchor="middle" x="40" y="-255.5" font-family="Helvetica,sans-Serif" font-size="10.00"> </text>
</g>
<!-- Node2&#45;&gt;Node1 -->
<g id="edge1" class="edge"><title>Node2&#45;&gt;Node1</title>
<path fill="none" stroke="#404040" d="M46.0083,-248.269C48.8207,-235.289 52.3675,-218.919 56.0852,-201.76"/>
<polygon fill="none" stroke="#404040" points="56.1383,-201.515 53.4996,-194.804 58.6794,-189.787 61.3182,-196.498 56.1383,-201.515"/>
<text text-anchor="middle" x="73.5" y="-222" font-family="Helvetica,sans-Serif" font-size="10.00"> +source</text>
<text text-anchor="middle" x="73.5" y="-211" font-family="Helvetica,sans-Serif" font-size="10.00">~img</text>
</g>
<!-- Node3 -->
<g id="node3" class="node"><title>Node3</title>
<polygon fill="none" stroke="#bfbfbf" points="98.5,-248.5 98.5,-305.5 137.5,-305.5 137.5,-248.5 98.5,-248.5"/>
<text text-anchor="middle" x="118" y="-293.5" font-family="Helvetica,sans-Serif" font-size="10.00">Point</text>
<polyline fill="none" stroke="#bfbfbf" points="98.5,-286.5 137.5,-286.5 "/>
<text text-anchor="middle" x="118" y="-274.5" font-family="Helvetica,sans-Serif" font-size="10.00"> </text>
<polyline fill="none" stroke="#bfbfbf" points="98.5,-267.5 137.5,-267.5 "/>
<text text-anchor="middle" x="118" y="-255.5" font-family="Helvetica,sans-Serif" font-size="10.00"> </text>
</g>
<!-- Node3&#45;&gt;Node1 -->
<g id="edge2" class="edge"><title>Node3&#45;&gt;Node1</title>
<path fill="none" stroke="#404040" d="M111.992,-248.269C109.179,-235.289 105.633,-218.919 101.915,-201.76"/>
<polygon fill="none" stroke="#404040" points="101.862,-201.515 96.6818,-196.498 99.3206,-189.787 104.5,-194.804 101.862,-201.515"/>
<text text-anchor="middle" x="119.5" y="-216.5" font-family="Helvetica,sans-Serif" font-size="10.00"> +dot</text>
</g>
</g>
</svg>
