<?xml version="1.0" encoding="UTF-8" standalone="no"?>
<!DOCTYPE svg PUBLIC "-//W3C//DTD SVG 1.1//EN"
 "http://www.w3.org/Graphics/SVG/1.1/DTD/svg11.dtd">
<!-- Generated by graphviz version 2.38.0 (20140413.2041)
 -->
<!-- Title: main.Manager Pages: 1 -->
<svg width="885pt" height="900pt"
 viewBox="0.00 0.00 884.50 900.00" xmlns="http://www.w3.org/2000/svg" xmlns:xlink="http://www.w3.org/1999/xlink">
<g id="graph0" class="graph" transform="scale(1 1) rotate(0) translate(4 896)">
<title>main.Manager</title>
<!-- Node1 -->
<g id="node1" class="node"><title>Node1</title>
<polygon fill="#bfbfbf" stroke="black" points="405,-511.5 405,-612.5 483,-612.5 483,-511.5 405,-511.5"/>
<text text-anchor="middle" x="444" y="-600.5" font-family="Helvetica,sans-Serif" font-size="10.00">main.Manager</text>
<polyline fill="none" stroke="black" points="405,-593.5 483,-593.5 "/>
<text text-anchor="start" x="413" y="-581.5" font-family="Helvetica,sans-Serif" font-size="10.00">&#45; cash</text>
<text text-anchor="start" x="413" y="-570.5" font-family="Helvetica,sans-Serif" font-size="10.00">&#45; cashPile</text>
<text text-anchor="start" x="413" y="-559.5" font-family="Helvetica,sans-Serif" font-size="10.00">&#45; bar</text>
<polyline fill="none" stroke="black" points="405,-552.5 483,-552.5 "/>
<text text-anchor="start" x="413" y="-540.5" font-family="Helvetica,sans-Serif" font-size="10.00">+ Manager()</text>
<text text-anchor="start" x="413" y="-529.5" font-family="Helvetica,sans-Serif" font-size="10.00">+ CheckBar()</text>
<text text-anchor="start" x="413" y="-518.5" font-family="Helvetica,sans-Serif" font-size="10.00">&#45; makeSushi()</text>
</g>
<!-- Node5 -->
<g id="node5" class="node"><title>Node5</title>
<g id="a_node5"><a xlink:href="classmain_1_1ToolBox.html" target="_top" xlink:title="{main.ToolBox\n|&#45; w\l&#45; h\l&#45; countScreen\l&#45; serialVersionUID\l|+ ToolBox()\l+ ToolBox()\l+ Capture()\l+ CaptureGame()\l+ Launch()\l+ Run()\l+ Serve()\l+ actionPerformed()\l}">
<polygon fill="none" stroke="black" points="557.5,-216.5 557.5,-383.5 660.5,-383.5 660.5,-216.5 557.5,-216.5"/>
<text text-anchor="middle" x="609" y="-371.5" font-family="Helvetica,sans-Serif" font-size="10.00">main.ToolBox</text>
<polyline fill="none" stroke="black" points="557.5,-364.5 660.5,-364.5 "/>
<text text-anchor="start" x="565.5" y="-352.5" font-family="Helvetica,sans-Serif" font-size="10.00">&#45; w</text>
<text text-anchor="start" x="565.5" y="-341.5" font-family="Helvetica,sans-Serif" font-size="10.00">&#45; h</text>
<text text-anchor="start" x="565.5" y="-330.5" font-family="Helvetica,sans-Serif" font-size="10.00">&#45; countScreen</text>
<text text-anchor="start" x="565.5" y="-319.5" font-family="Helvetica,sans-Serif" font-size="10.00">&#45; serialVersionUID</text>
<polyline fill="none" stroke="black" points="557.5,-312.5 660.5,-312.5 "/>
<text text-anchor="start" x="565.5" y="-300.5" font-family="Helvetica,sans-Serif" font-size="10.00">+ ToolBox()</text>
<text text-anchor="start" x="565.5" y="-289.5" font-family="Helvetica,sans-Serif" font-size="10.00">+ ToolBox()</text>
<text text-anchor="start" x="565.5" y="-278.5" font-family="Helvetica,sans-Serif" font-size="10.00">+ Capture()</text>
<text text-anchor="start" x="565.5" y="-267.5" font-family="Helvetica,sans-Serif" font-size="10.00">+ CaptureGame()</text>
<text text-anchor="start" x="565.5" y="-256.5" font-family="Helvetica,sans-Serif" font-size="10.00">+ Launch()</text>
<text text-anchor="start" x="565.5" y="-245.5" font-family="Helvetica,sans-Serif" font-size="10.00">+ Run()</text>
<text text-anchor="start" x="565.5" y="-234.5" font-family="Helvetica,sans-Serif" font-size="10.00">+ Serve()</text>
<text text-anchor="start" x="565.5" y="-223.5" font-family="Helvetica,sans-Serif" font-size="10.00">+ actionPerformed()</text>
</a>
</g>
</g>
<!-- Node1&#45;&gt;Node5 -->
<g id="edge10" class="edge"><title>Node1&#45;&gt;Node5</title>
<path fill="none" stroke="#404040" d="M455.292,-511.272C464.267,-478.431 479.012,-435.448 501,-402 513.791,-382.543 531.076,-364.194 548.064,-348.611"/>
<polygon fill="none" stroke="#404040" points="548.485,-348.236 550.301,-341.257 557.441,-340.249 555.625,-347.228 548.485,-348.236"/>
<text text-anchor="middle" x="523" y="-445" font-family="Helvetica,sans-Serif" font-size="10.00"> &#45;manager</text>
</g>
<!-- Node2 -->
<g id="node2" class="node"><title>Node2</title>
<g id="a_node2"><a xlink:href="classmain_1_1Service.html" target="_top" xlink:title="{main.Service\n||+ Service()\l+ run()\l}">
<polygon fill="none" stroke="black" points="574,-718.5 574,-786.5 648,-786.5 648,-718.5 574,-718.5"/>
<text text-anchor="middle" x="611" y="-774.5" font-family="Helvetica,sans-Serif" font-size="10.00">main.Service</text>
<polyline fill="none" stroke="black" points="574,-767.5 648,-767.5 "/>
<text text-anchor="middle" x="611" y="-755.5" font-family="Helvetica,sans-Serif" font-size="10.00"> </text>
<polyline fill="none" stroke="black" points="574,-748.5 648,-748.5 "/>
<text text-anchor="start" x="582" y="-736.5" font-family="Helvetica,sans-Serif" font-size="10.00">+ Service()</text>
<text text-anchor="start" x="582" y="-725.5" font-family="Helvetica,sans-Serif" font-size="10.00">+ run()</text>
</a>
</g>
</g>
<!-- Node2&#45;&gt;Node1 -->
<g id="edge1" class="edge"><title>Node2&#45;&gt;Node1</title>
<path fill="none" stroke="#404040" d="M596.199,-718.287C582.917,-691.688 561.185,-654.982 533,-631 520.093,-620.018 511.267,-622.951 493.459,-612.869"/>
<polygon fill="none" stroke="#404040" points="493.332,-612.787 486.122,-612.886 483.258,-606.268 490.468,-606.169 493.332,-612.787"/>
<text text-anchor="middle" x="596" y="-690.5" font-family="Helvetica,sans-Serif" font-size="10.00"> ~s2</text>
<text text-anchor="middle" x="596" y="-679.5" font-family="Helvetica,sans-Serif" font-size="10.00">~s3</text>
<text text-anchor="middle" x="596" y="-668.5" font-family="Helvetica,sans-Serif" font-size="10.00">~s4</text>
<text text-anchor="middle" x="596" y="-657.5" font-family="Helvetica,sans-Serif" font-size="10.00">~s5</text>
<text text-anchor="middle" x="596" y="-646.5" font-family="Helvetica,sans-Serif" font-size="10.00">&#45;s1</text>
<text text-anchor="middle" x="596" y="-635.5" font-family="Helvetica,sans-Serif" font-size="10.00">~s6</text>
</g>
<!-- Node3 -->
<g id="node3" class="node"><title>Node3</title>
<polygon fill="none" stroke="#bfbfbf" points="587.5,-834.5 587.5,-891.5 634.5,-891.5 634.5,-834.5 587.5,-834.5"/>
<text text-anchor="middle" x="611" y="-879.5" font-family="Helvetica,sans-Serif" font-size="10.00">Thread</text>
<polyline fill="none" stroke="#bfbfbf" points="587.5,-872.5 634.5,-872.5 "/>
<text text-anchor="middle" x="611" y="-860.5" font-family="Helvetica,sans-Serif" font-size="10.00"> </text>
<polyline fill="none" stroke="#bfbfbf" points="587.5,-853.5 634.5,-853.5 "/>
<text text-anchor="middle" x="611" y="-841.5" font-family="Helvetica,sans-Serif" font-size="10.00"> </text>
</g>
<!-- Node3&#45;&gt;Node2 -->
<g id="edge2" class="edge"><title>Node3&#45;&gt;Node2</title>
<path fill="none" stroke="midnightblue" d="M611,-823.987C611,-811.771 611,-798.346 611,-786.519"/>
<polygon fill="none" stroke="midnightblue" points="607.5,-824.34 611,-834.34 614.5,-824.34 607.5,-824.34"/>
</g>
<!-- Node4 -->
<g id="node4" class="node"><title>Node4</title>
<g id="a_node4"><a xlink:href="classmain_1_1IA.html" target="_top" xlink:title="{main.IA\n|+ xOr\l+ yOr\l&#45; width\l&#45; height\l&#45; serialVersionUID\l&#45; spriteCount\l|+ IA()\l+ click()\l+ initiateGame()\l+ getZone()\l+ saveSprites()\l+ loadSprites()\l+ getSushi()\l}">
<polygon fill="none" stroke="black" points="275.5,-0.5 275.5,-178.5 372.5,-178.5 372.5,-0.5 275.5,-0.5"/>
<text text-anchor="middle" x="324" y="-166.5" font-family="Helvetica,sans-Serif" font-size="10.00">main.IA</text>
<polyline fill="none" stroke="black" points="275.5,-159.5 372.5,-159.5 "/>
<text text-anchor="start" x="283.5" y="-147.5" font-family="Helvetica,sans-Serif" font-size="10.00">+ xOr</text>
<text text-anchor="start" x="283.5" y="-136.5" font-family="Helvetica,sans-Serif" font-size="10.00">+ yOr</text>
<text text-anchor="start" x="283.5" y="-125.5" font-family="Helvetica,sans-Serif" font-size="10.00">&#45; width</text>
<text text-anchor="start" x="283.5" y="-114.5" font-family="Helvetica,sans-Serif" font-size="10.00">&#45; height</text>
<text text-anchor="start" x="283.5" y="-103.5" font-family="Helvetica,sans-Serif" font-size="10.00">&#45; serialVersionUID</text>
<text text-anchor="start" x="283.5" y="-92.5" font-family="Helvetica,sans-Serif" font-size="10.00">&#45; spriteCount</text>
<polyline fill="none" stroke="black" points="275.5,-85.5 372.5,-85.5 "/>
<text text-anchor="start" x="283.5" y="-73.5" font-family="Helvetica,sans-Serif" font-size="10.00">+ IA()</text>
<text text-anchor="start" x="283.5" y="-62.5" font-family="Helvetica,sans-Serif" font-size="10.00">+ click()</text>
<text text-anchor="start" x="283.5" y="-51.5" font-family="Helvetica,sans-Serif" font-size="10.00">+ initiateGame()</text>
<text text-anchor="start" x="283.5" y="-40.5" font-family="Helvetica,sans-Serif" font-size="10.00">+ getZone()</text>
<text text-anchor="start" x="283.5" y="-29.5" font-family="Helvetica,sans-Serif" font-size="10.00">+ saveSprites()</text>
<text text-anchor="start" x="283.5" y="-18.5" font-family="Helvetica,sans-Serif" font-size="10.00">+ loadSprites()</text>
<text text-anchor="start" x="283.5" y="-7.5" font-family="Helvetica,sans-Serif" font-size="10.00">+ getSushi()</text>
</a>
</g>
</g>
<!-- Node4&#45;&gt;Node1 -->
<g id="edge3" class="edge"><title>Node4&#45;&gt;Node1</title>
<path fill="none" stroke="#404040" d="M349.822,-178.824C353.323,-191.284 356.806,-203.949 360,-216 386.185,-314.794 413.686,-430.328 429.815,-499.481"/>
<polygon fill="none" stroke="#404040" points="429.874,-499.734 435.13,-504.671 432.595,-511.422 427.339,-506.485 429.874,-499.734"/>
<text text-anchor="middle" x="410" y="-297.5" font-family="Helvetica,sans-Serif" font-size="10.00"> &#45;ia</text>
</g>
<!-- Node5&#45;&gt;Node4 -->
<g id="edge4" class="edge"><title>Node5&#45;&gt;Node4</title>
<path fill="none" stroke="midnightblue" d="M549.187,-255.242C496.819,-216.931 421.671,-161.954 372.848,-126.236"/>
<polygon fill="none" stroke="midnightblue" points="547.251,-258.163 557.389,-261.242 551.384,-252.513 547.251,-258.163"/>
</g>
<!-- Node6 -->
<g id="node6" class="node"><title>Node6</title>
<polygon fill="none" stroke="#bfbfbf" points="501,-533.5 501,-590.5 551,-590.5 551,-533.5 501,-533.5"/>
<text text-anchor="middle" x="526" y="-578.5" font-family="Helvetica,sans-Serif" font-size="10.00">JFrame</text>
<polyline fill="none" stroke="#bfbfbf" points="501,-571.5 551,-571.5 "/>
<text text-anchor="middle" x="526" y="-559.5" font-family="Helvetica,sans-Serif" font-size="10.00"> </text>
<polyline fill="none" stroke="#bfbfbf" points="501,-552.5 551,-552.5 "/>
<text text-anchor="middle" x="526" y="-540.5" font-family="Helvetica,sans-Serif" font-size="10.00"> </text>
</g>
<!-- Node6&#45;&gt;Node5 -->
<g id="edge5" class="edge"><title>Node6&#45;&gt;Node5</title>
<path fill="none" stroke="midnightblue" d="M537.985,-523.458C549.613,-487.031 567.651,-430.528 582.637,-383.584"/>
<polygon fill="none" stroke="midnightblue" points="534.589,-522.585 534.882,-533.175 541.258,-524.713 534.589,-522.585"/>
</g>
<!-- Node7 -->
<g id="node7" class="node"><title>Node7</title>
<polygon fill="none" stroke="#bfbfbf" points="569.5,-533.5 569.5,-590.5 648.5,-590.5 648.5,-533.5 569.5,-533.5"/>
<text text-anchor="middle" x="609" y="-578.5" font-family="Helvetica,sans-Serif" font-size="10.00">ActionListener</text>
<polyline fill="none" stroke="#bfbfbf" points="569.5,-571.5 648.5,-571.5 "/>
<text text-anchor="middle" x="609" y="-559.5" font-family="Helvetica,sans-Serif" font-size="10.00"> </text>
<polyline fill="none" stroke="#bfbfbf" points="569.5,-552.5 648.5,-552.5 "/>
<text text-anchor="middle" x="609" y="-540.5" font-family="Helvetica,sans-Serif" font-size="10.00"> </text>
</g>
<!-- Node7&#45;&gt;Node5 -->
<g id="edge6" class="edge"><title>Node7&#45;&gt;Node5</title>
<path fill="none" stroke="midnightblue" d="M609,-522.99C609,-486.548 609,-430.327 609,-383.584"/>
<polygon fill="none" stroke="midnightblue" points="605.5,-523.175 609,-533.175 612.5,-523.175 605.5,-523.175"/>
</g>
<!-- Node8 -->
<g id="node8" class="node"><title>Node8</title>
<polygon fill="none" stroke="#bfbfbf" points="667,-533.5 667,-590.5 717,-590.5 717,-533.5 667,-533.5"/>
<text text-anchor="middle" x="692" y="-578.5" font-family="Helvetica,sans-Serif" font-size="10.00">JButton</text>
<polyline fill="none" stroke="#bfbfbf" points="667,-571.5 717,-571.5 "/>
<text text-anchor="middle" x="692" y="-559.5" font-family="Helvetica,sans-Serif" font-size="10.00"> </text>
<polyline fill="none" stroke="#bfbfbf" points="667,-552.5 717,-552.5 "/>
<text text-anchor="middle" x="692" y="-540.5" font-family="Helvetica,sans-Serif" font-size="10.00"> </text>
</g>
<!-- Node8&#45;&gt;Node5 -->
<g id="edge7" class="edge"><title>Node8&#45;&gt;Node5</title>
<path fill="none" stroke="#404040" d="M683.118,-533.175C672.645,-500.369 654.686,-444.112 639.069,-395.192"/>
<polygon fill="none" stroke="#404040" points="639.013,-395.015 633.377,-390.516 635.363,-383.584 640.999,-388.083 639.013,-395.015"/>
<text text-anchor="middle" x="697.5" y="-478" font-family="Helvetica,sans-Serif" font-size="10.00"> &#45;launch</text>
<text text-anchor="middle" x="697.5" y="-467" font-family="Helvetica,sans-Serif" font-size="10.00">&#45;detect</text>
<text text-anchor="middle" x="697.5" y="-456" font-family="Helvetica,sans-Serif" font-size="10.00">&#45;saveSprites</text>
<text text-anchor="middle" x="697.5" y="-445" font-family="Helvetica,sans-Serif" font-size="10.00">&#45;snap</text>
<text text-anchor="middle" x="697.5" y="-434" font-family="Helvetica,sans-Serif" font-size="10.00">&#45;makeSushi</text>
<text text-anchor="middle" x="697.5" y="-423" font-family="Helvetica,sans-Serif" font-size="10.00">&#45;startBot</text>
<text text-anchor="middle" x="697.5" y="-412" font-family="Helvetica,sans-Serif" font-size="10.00">&#45;Auto</text>
</g>
<!-- Node9 -->
<g id="node9" class="node"><title>Node9</title>
<polygon fill="none" stroke="#bfbfbf" points="735,-533.5 735,-590.5 797,-590.5 797,-533.5 735,-533.5"/>
<text text-anchor="middle" x="766" y="-578.5" font-family="Helvetica,sans-Serif" font-size="10.00">JTextField</text>
<polyline fill="none" stroke="#bfbfbf" points="735,-571.5 797,-571.5 "/>
<text text-anchor="middle" x="766" y="-559.5" font-family="Helvetica,sans-Serif" font-size="10.00"> </text>
<polyline fill="none" stroke="#bfbfbf" points="735,-552.5 797,-552.5 "/>
<text text-anchor="middle" x="766" y="-540.5" font-family="Helvetica,sans-Serif" font-size="10.00"> </text>
</g>
<!-- Node9&#45;&gt;Node5 -->
<g id="edge8" class="edge"><title>Node9&#45;&gt;Node5</title>
<path fill="none" stroke="#404040" d="M764.826,-533.426C762.281,-500.048 754.253,-443.199 729,-402 714.315,-378.042 691.969,-356.987 670.526,-340.388"/>
<polygon fill="none" stroke="#404040" points="670.373,-340.274 663.173,-339.879 660.768,-333.081 667.968,-333.476 670.373,-340.274"/>
<text text-anchor="middle" x="769" y="-445" font-family="Helvetica,sans-Serif" font-size="10.00"> &#45;txt</text>
</g>
<!-- Node10 -->
<g id="node10" class="node"><title>Node10</title>
<polygon fill="none" stroke="#bfbfbf" points="815.5,-533.5 815.5,-590.5 876.5,-590.5 876.5,-533.5 815.5,-533.5"/>
<text text-anchor="middle" x="846" y="-578.5" font-family="Helvetica,sans-Serif" font-size="10.00">Rectangle</text>
<polyline fill="none" stroke="#bfbfbf" points="815.5,-571.5 876.5,-571.5 "/>
<text text-anchor="middle" x="846" y="-559.5" font-family="Helvetica,sans-Serif" font-size="10.00"> </text>
<polyline fill="none" stroke="#bfbfbf" points="815.5,-552.5 876.5,-552.5 "/>
<text text-anchor="middle" x="846" y="-540.5" font-family="Helvetica,sans-Serif" font-size="10.00"> </text>
</g>
<!-- Node10&#45;&gt;Node5 -->
<g id="edge9" class="edge"><title>Node10&#45;&gt;Node5</title>
<path fill="none" stroke="#404040" d="M840.657,-533.387C832.848,-499.191 815.459,-440.73 782,-402 752.329,-367.656 707.953,-342.08 671.574,-325.259"/>
<polygon fill="none" stroke="#404040" points="671.514,-325.232 664.402,-326.425 660.566,-320.319 667.677,-319.126 671.514,-325.232"/>
<text text-anchor="middle" x="839" y="-445" font-family="Helvetica,sans-Serif" font-size="10.00"> +ga</text>
</g>
<!-- Node11 -->
<g id="node11" class="node"><title>Node11</title>
<polygon fill="none" stroke="#bfbfbf" points="0,-631.5 0,-699.5 134,-699.5 134,-631.5 0,-631.5"/>
<text text-anchor="start" x="8" y="-687.5" font-family="Helvetica,sans-Serif" font-size="10.00">HashMap&lt; BufferedImage,</text>
<text text-anchor="middle" x="67" y="-676.5" font-family="Helvetica,sans-Serif" font-size="10.00"> String &gt;</text>
<polyline fill="none" stroke="#bfbfbf" points="0,-669.5 134,-669.5 "/>
<text text-anchor="middle" x="67" y="-657.5" font-family="Helvetica,sans-Serif" font-size="10.00"> </text>
<polyline fill="none" stroke="#bfbfbf" points="0,-650.5 134,-650.5 "/>
<text text-anchor="middle" x="67" y="-638.5" font-family="Helvetica,sans-Serif" font-size="10.00"> </text>
</g>
<!-- Node11&#45;&gt;Node4 -->
<g id="edge11" class="edge"><title>Node11&#45;&gt;Node4</title>
<path fill="none" stroke="#404040" d="M64.3941,-631.29C61.6086,-580.175 61.0563,-479.965 91,-402 129.865,-300.807 211.591,-204.051 267.152,-145.95"/>
<polygon fill="none" stroke="#404040" points="267.157,-145.945 268.447,-138.85 275.493,-137.312 274.202,-144.407 267.157,-145.945"/>
<text text-anchor="middle" x="128.5" y="-445" font-family="Helvetica,sans-Serif" font-size="10.00"> &#45;sushiReference</text>
</g>
<!-- Node12 -->
<g id="node12" class="node"><title>Node12</title>
<polygon fill="none" stroke="#bfbfbf" points="228.5,-834.5 228.5,-891.5 287.5,-891.5 287.5,-834.5 228.5,-834.5"/>
<text text-anchor="middle" x="258" y="-879.5" font-family="Helvetica,sans-Serif" font-size="10.00">HashMap</text>
<polyline fill="none" stroke="#bfbfbf" points="228.5,-872.5 287.5,-872.5 "/>
<text text-anchor="middle" x="258" y="-860.5" font-family="Helvetica,sans-Serif" font-size="10.00"> </text>
<polyline fill="none" stroke="#bfbfbf" points="228.5,-853.5 287.5,-853.5 "/>
<text text-anchor="middle" x="258" y="-841.5" font-family="Helvetica,sans-Serif" font-size="10.00"> </text>
</g>
<!-- Node12&#45;&gt;Node11 -->
<g id="edge12" class="edge"><title>Node12&#45;&gt;Node11</title>
<path fill="none" stroke="orange" d="M217.921,-858.098C167.548,-852.27 85.4239,-839.388 67,-816 41.2218,-783.276 47.767,-732.821 56.2378,-699.731"/>
<polygon fill="orange" stroke="orange" points="217.828,-861.609 228.154,-859.236 218.602,-854.652 217.828,-861.609"/>
<text text-anchor="middle" x="125.5" y="-808" font-family="Helvetica,sans-Serif" font-size="10.00"> &lt; BufferedImage, String &gt;</text>
</g>
<!-- Node14 -->
<g id="node14" class="node"><title>Node14</title>
<polygon fill="none" stroke="#bfbfbf" points="82,-724 82,-781 230,-781 230,-724 82,-724"/>
<text text-anchor="middle" x="156" y="-769" font-family="Helvetica,sans-Serif" font-size="10.00">HashMap&lt; String, main.Dot &gt;</text>
<polyline fill="none" stroke="#bfbfbf" points="82,-762 230,-762 "/>
<text text-anchor="middle" x="156" y="-750" font-family="Helvetica,sans-Serif" font-size="10.00"> </text>
<polyline fill="none" stroke="#bfbfbf" points="82,-743 230,-743 "/>
<text text-anchor="middle" x="156" y="-731" font-family="Helvetica,sans-Serif" font-size="10.00"> </text>
</g>
<!-- Node12&#45;&gt;Node14 -->
<g id="edge15" class="edge"><title>Node12&#45;&gt;Node14</title>
<path fill="none" stroke="orange" d="M220.316,-836.792C212.174,-830.494 203.936,-823.406 197,-816 187.242,-805.581 178.3,-792.576 171.274,-781.132"/>
<polygon fill="orange" stroke="orange" points="218.268,-839.63 228.375,-842.809 222.456,-834.022 218.268,-839.63"/>
<text text-anchor="middle" x="245" y="-808" font-family="Helvetica,sans-Serif" font-size="10.00"> &lt; String, main::Dot &gt;</text>
</g>
<!-- Node16 -->
<g id="node16" class="node"><title>Node16</title>
<polygon fill="none" stroke="#bfbfbf" points="248,-724 248,-781 400,-781 400,-724 248,-724"/>
<text text-anchor="middle" x="324" y="-769" font-family="Helvetica,sans-Serif" font-size="10.00">HashMap&lt; String, Rectangle &gt;</text>
<polyline fill="none" stroke="#bfbfbf" points="248,-762 400,-762 "/>
<text text-anchor="middle" x="324" y="-750" font-family="Helvetica,sans-Serif" font-size="10.00"> </text>
<polyline fill="none" stroke="#bfbfbf" points="248,-743 400,-743 "/>
<text text-anchor="middle" x="324" y="-731" font-family="Helvetica,sans-Serif" font-size="10.00"> </text>
</g>
<!-- Node12&#45;&gt;Node16 -->
<g id="edge18" class="edge"><title>Node12&#45;&gt;Node16</title>
<path fill="none" stroke="orange" d="M290.058,-826.167C292.533,-822.821 294.886,-819.405 297,-816 303.732,-805.154 309.59,-792.336 314.112,-781.139"/>
<polygon fill="orange" stroke="orange" points="287.109,-824.258 283.726,-834.299 292.631,-828.559 287.109,-824.258"/>
<text text-anchor="middle" x="351.5" y="-808" font-family="Helvetica,sans-Serif" font-size="10.00"> &lt; String, Rectangle &gt;</text>
</g>
<!-- Node17 -->
<g id="node17" class="node"><title>Node17</title>
<polygon fill="none" stroke="#bfbfbf" points="418,-724 418,-781 556,-781 556,-724 418,-724"/>
<text text-anchor="middle" x="487" y="-769" font-family="Helvetica,sans-Serif" font-size="10.00">HashMap&lt; String, Integer &gt;</text>
<polyline fill="none" stroke="#bfbfbf" points="418,-762 556,-762 "/>
<text text-anchor="middle" x="487" y="-750" font-family="Helvetica,sans-Serif" font-size="10.00"> </text>
<polyline fill="none" stroke="#bfbfbf" points="418,-743 556,-743 "/>
<text text-anchor="middle" x="487" y="-731" font-family="Helvetica,sans-Serif" font-size="10.00"> </text>
</g>
<!-- Node12&#45;&gt;Node17 -->
<g id="edge20" class="edge"><title>Node12&#45;&gt;Node17</title>
<path fill="none" stroke="orange" d="M297.438,-853.447C327.654,-845.99 369.82,-833.592 404,-816 422.284,-806.59 440.743,-793.166 455.595,-781.17"/>
<polygon fill="orange" stroke="orange" points="296.586,-850.052 287.678,-855.787 298.218,-856.859 296.586,-850.052"/>
<text text-anchor="middle" x="463.5" y="-808" font-family="Helvetica,sans-Serif" font-size="10.00"> &lt; String, Integer &gt;</text>
</g>
<!-- Node13 -->
<g id="node13" class="node"><title>Node13</title>
<g id="a_node13"><a xlink:href="classmain_1_1Zone.html" target="_top" xlink:title="{main.Zone\n||+ Zone()\l+ addZone()\l+ addZone()\l+ getZonesTable()\l}">
<polygon fill="none" stroke="black" points="175,-402.5 175,-492.5 271,-492.5 271,-402.5 175,-402.5"/>
<text text-anchor="middle" x="223" y="-480.5" font-family="Helvetica,sans-Serif" font-size="10.00">main.Zone</text>
<polyline fill="none" stroke="black" points="175,-473.5 271,-473.5 "/>
<text text-anchor="middle" x="223" y="-461.5" font-family="Helvetica,sans-Serif" font-size="10.00"> </text>
<polyline fill="none" stroke="black" points="175,-454.5 271,-454.5 "/>
<text text-anchor="start" x="183" y="-442.5" font-family="Helvetica,sans-Serif" font-size="10.00">+ Zone()</text>
<text text-anchor="start" x="183" y="-431.5" font-family="Helvetica,sans-Serif" font-size="10.00">+ addZone()</text>
<text text-anchor="start" x="183" y="-420.5" font-family="Helvetica,sans-Serif" font-size="10.00">+ addZone()</text>
<text text-anchor="start" x="183" y="-409.5" font-family="Helvetica,sans-Serif" font-size="10.00">+ getZonesTable()</text>
</a>
</g>
</g>
<!-- Node13&#45;&gt;Node4 -->
<g id="edge13" class="edge"><title>Node13&#45;&gt;Node4</title>
<path fill="none" stroke="#404040" d="M235.061,-402.253C247.775,-355.806 268.486,-280.683 287,-216 289.385,-207.667 291.881,-199.03 294.402,-190.365"/>
<polygon fill="none" stroke="#404040" points="294.486,-190.077 292.327,-183.197 297.847,-178.558 300.006,-185.438 294.486,-190.077"/>
<text text-anchor="middle" x="303.5" y="-297.5" font-family="Helvetica,sans-Serif" font-size="10.00"> &#45;zones</text>
</g>
<!-- Node14&#45;&gt;Node13 -->
<g id="edge14" class="edge"><title>Node14&#45;&gt;Node13</title>
<path fill="none" stroke="#404040" d="M162.123,-723.808C173.064,-674.33 196.167,-569.85 210.555,-504.78"/>
<polygon fill="none" stroke="#404040" points="210.632,-504.433 208.022,-497.71 213.223,-492.716 215.833,-499.438 210.632,-504.433"/>
<text text-anchor="middle" x="234.5" y="-663" font-family="Helvetica,sans-Serif" font-size="10.00"> &#45;ensemblePointsZones</text>
</g>
<!-- Node15 -->
<g id="node15" class="node"><title>Node15</title>
<g id="a_node15"><a xlink:href="classmain_1_1ReadZone.html" target="_top" xlink:title="{main.ReadZone\n||+ ReadZone()\l+ addZone()\l+ getZones()\l}">
<polygon fill="none" stroke="black" points="281,-408 281,-487 367,-487 367,-408 281,-408"/>
<text text-anchor="middle" x="324" y="-475" font-family="Helvetica,sans-Serif" font-size="10.00">main.ReadZone</text>
<polyline fill="none" stroke="black" points="281,-468 367,-468 "/>
<text text-anchor="middle" x="324" y="-456" font-family="Helvetica,sans-Serif" font-size="10.00"> </text>
<polyline fill="none" stroke="black" points="281,-449 367,-449 "/>
<text text-anchor="start" x="289" y="-437" font-family="Helvetica,sans-Serif" font-size="10.00">+ ReadZone()</text>
<text text-anchor="start" x="289" y="-426" font-family="Helvetica,sans-Serif" font-size="10.00">+ addZone()</text>
<text text-anchor="start" x="289" y="-415" font-family="Helvetica,sans-Serif" font-size="10.00">+ getZones()</text>
</a>
</g>
</g>
<!-- Node15&#45;&gt;Node4 -->
<g id="edge16" class="edge"><title>Node15&#45;&gt;Node4</title>
<path fill="none" stroke="#404040" d="M324,-407.724C324,-356.107 324,-262.962 324,-190.908"/>
<polygon fill="none" stroke="#404040" points="324,-190.627 320,-184.627 324,-178.627 328,-184.627 324,-190.627"/>
<text text-anchor="middle" x="340" y="-297.5" font-family="Helvetica,sans-Serif" font-size="10.00"> &#45;bulles</text>
</g>
<!-- Node16&#45;&gt;Node15 -->
<g id="edge17" class="edge"><title>Node16&#45;&gt;Node15</title>
<path fill="none" stroke="#404040" d="M324,-723.808C324,-672.926 324,-563.877 324,-499.339"/>
<polygon fill="none" stroke="#404040" points="324,-499.056 320,-493.056 324,-487.056 328,-493.056 324,-499.056"/>
<text text-anchor="middle" x="362" y="-663" font-family="Helvetica,sans-Serif" font-size="10.00"> &#45;ensembleZones</text>
</g>
<!-- Node17&#45;&gt;Node1 -->
<g id="edge19" class="edge"><title>Node17&#45;&gt;Node1</title>
<path fill="none" stroke="#404040" d="M480.655,-723.686C474.725,-697.691 465.666,-657.978 458.038,-624.537"/>
<polygon fill="none" stroke="#404040" points="457.969,-624.237 452.735,-619.277 455.3,-612.538 460.535,-617.498 457.969,-624.237"/>
<text text-anchor="middle" x="502" y="-663" font-family="Helvetica,sans-Serif" font-size="10.00"> &#45;ingredients</text>
</g>
</g>
</svg>
