<?xml version="1.0" encoding="UTF-8" standalone="no"?>
<!DOCTYPE svg PUBLIC "-//W3C//DTD SVG 1.1//EN"
 "http://www.w3.org/Graphics/SVG/1.1/DTD/svg11.dtd">
<!-- Generated by graphviz version 2.38.0 (20140413.2041)
 -->
<!-- Title: Sushis.src.ToolBox Pages: 1 -->
<svg width="895pt" height="816pt"
 viewBox="0.00 0.00 895.00 816.00" xmlns="http://www.w3.org/2000/svg" xmlns:xlink="http://www.w3.org/1999/xlink">
<g id="graph0" class="graph" transform="scale(1 1) rotate(0) translate(4 812)">
<title>Sushis.src.ToolBox</title>
<!-- Node1 -->
<g id="node1" class="node"><title>Node1</title>
<polygon fill="#bfbfbf" stroke="black" points="491.5,-364.5 491.5,-531.5 594.5,-531.5 594.5,-364.5 491.5,-364.5"/>
<text text-anchor="middle" x="543" y="-519.5" font-family="Helvetica,sans-Serif" font-size="10.00">Sushis.src.ToolBox</text>
<polyline fill="none" stroke="black" points="491.5,-512.5 594.5,-512.5 "/>
<text text-anchor="start" x="499.5" y="-500.5" font-family="Helvetica,sans-Serif" font-size="10.00">&#45; w</text>
<text text-anchor="start" x="499.5" y="-489.5" font-family="Helvetica,sans-Serif" font-size="10.00">&#45; h</text>
<text text-anchor="start" x="499.5" y="-478.5" font-family="Helvetica,sans-Serif" font-size="10.00">&#45; countScreen</text>
<text text-anchor="start" x="499.5" y="-467.5" font-family="Helvetica,sans-Serif" font-size="10.00">&#45; serialVersionUID</text>
<polyline fill="none" stroke="black" points="491.5,-460.5 594.5,-460.5 "/>
<text text-anchor="start" x="499.5" y="-448.5" font-family="Helvetica,sans-Serif" font-size="10.00">+ ToolBox()</text>
<text text-anchor="start" x="499.5" y="-437.5" font-family="Helvetica,sans-Serif" font-size="10.00">+ ToolBox()</text>
<text text-anchor="start" x="499.5" y="-426.5" font-family="Helvetica,sans-Serif" font-size="10.00">+ Capture()</text>
<text text-anchor="start" x="499.5" y="-415.5" font-family="Helvetica,sans-Serif" font-size="10.00">+ CaptureGame()</text>
<text text-anchor="start" x="499.5" y="-404.5" font-family="Helvetica,sans-Serif" font-size="10.00">+ Launch()</text>
<text text-anchor="start" x="499.5" y="-393.5" font-family="Helvetica,sans-Serif" font-size="10.00">+ Run()</text>
<text text-anchor="start" x="499.5" y="-382.5" font-family="Helvetica,sans-Serif" font-size="10.00">+ Serve()</text>
<text text-anchor="start" x="499.5" y="-371.5" font-family="Helvetica,sans-Serif" font-size="10.00">+ actionPerformed()</text>
</g>
<!-- Node6 -->
<g id="node6" class="node"><title>Node6</title>
<g id="a_node6"><a xlink:href="classSushis_1_1src_1_1IA.html" target="_top" xlink:title="{Sushis.src.IA\n|+ xOr\l+ yOr\l&#45; width\l&#45; height\l&#45; serialVersionUID\l&#45; spriteCount\l|+ IA()\l+ click()\l+ initiateGame()\l+ getZone()\l+ saveSprites()\l+ loadSprites()\l+ getSushi()\l}">
<polygon fill="none" stroke="black" points="315.5,-138.5 315.5,-316.5 412.5,-316.5 412.5,-138.5 315.5,-138.5"/>
<text text-anchor="middle" x="364" y="-304.5" font-family="Helvetica,sans-Serif" font-size="10.00">Sushis.src.IA</text>
<polyline fill="none" stroke="black" points="315.5,-297.5 412.5,-297.5 "/>
<text text-anchor="start" x="323.5" y="-285.5" font-family="Helvetica,sans-Serif" font-size="10.00">+ xOr</text>
<text text-anchor="start" x="323.5" y="-274.5" font-family="Helvetica,sans-Serif" font-size="10.00">+ yOr</text>
<text text-anchor="start" x="323.5" y="-263.5" font-family="Helvetica,sans-Serif" font-size="10.00">&#45; width</text>
<text text-anchor="start" x="323.5" y="-252.5" font-family="Helvetica,sans-Serif" font-size="10.00">&#45; height</text>
<text text-anchor="start" x="323.5" y="-241.5" font-family="Helvetica,sans-Serif" font-size="10.00">&#45; serialVersionUID</text>
<text text-anchor="start" x="323.5" y="-230.5" font-family="Helvetica,sans-Serif" font-size="10.00">&#45; spriteCount</text>
<polyline fill="none" stroke="black" points="315.5,-223.5 412.5,-223.5 "/>
<text text-anchor="start" x="323.5" y="-211.5" font-family="Helvetica,sans-Serif" font-size="10.00">+ IA()</text>
<text text-anchor="start" x="323.5" y="-200.5" font-family="Helvetica,sans-Serif" font-size="10.00">+ click()</text>
<text text-anchor="start" x="323.5" y="-189.5" font-family="Helvetica,sans-Serif" font-size="10.00">+ initiateGame()</text>
<text text-anchor="start" x="323.5" y="-178.5" font-family="Helvetica,sans-Serif" font-size="10.00">+ getZone()</text>
<text text-anchor="start" x="323.5" y="-167.5" font-family="Helvetica,sans-Serif" font-size="10.00">+ saveSprites()</text>
<text text-anchor="start" x="323.5" y="-156.5" font-family="Helvetica,sans-Serif" font-size="10.00">+ loadSprites()</text>
<text text-anchor="start" x="323.5" y="-145.5" font-family="Helvetica,sans-Serif" font-size="10.00">+ getSushi()</text>
</a>
</g>
</g>
<!-- Node1&#45;&gt;Node6 -->
<g id="edge6" class="edge"><title>Node1&#45;&gt;Node6</title>
<path fill="none" stroke="midnightblue" d="M484.976,-376.172C461.636,-347.682 435.024,-315.197 412.713,-287.963"/>
<polygon fill="none" stroke="midnightblue" points="482.421,-378.576 491.466,-384.094 487.836,-374.14 482.421,-378.576"/>
</g>
<!-- Node2 -->
<g id="node2" class="node"><title>Node2</title>
<polygon fill="none" stroke="#bfbfbf" points="555,-645.5 555,-702.5 605,-702.5 605,-645.5 555,-645.5"/>
<text text-anchor="middle" x="580" y="-690.5" font-family="Helvetica,sans-Serif" font-size="10.00">JFrame</text>
<polyline fill="none" stroke="#bfbfbf" points="555,-683.5 605,-683.5 "/>
<text text-anchor="middle" x="580" y="-671.5" font-family="Helvetica,sans-Serif" font-size="10.00"> </text>
<polyline fill="none" stroke="#bfbfbf" points="555,-664.5 605,-664.5 "/>
<text text-anchor="middle" x="580" y="-652.5" font-family="Helvetica,sans-Serif" font-size="10.00"> </text>
</g>
<!-- Node2&#45;&gt;Node1 -->
<g id="edge1" class="edge"><title>Node2&#45;&gt;Node1</title>
<path fill="none" stroke="midnightblue" d="M573.7,-634.862C569.043,-606.668 562.525,-567.207 556.692,-531.893"/>
<polygon fill="none" stroke="midnightblue" points="570.306,-635.787 575.389,-645.083 577.212,-634.646 570.306,-635.787"/>
</g>
<!-- Node3 -->
<g id="node3" class="node"><title>Node3</title>
<polygon fill="none" stroke="#bfbfbf" points="623.5,-645.5 623.5,-702.5 702.5,-702.5 702.5,-645.5 623.5,-645.5"/>
<text text-anchor="middle" x="663" y="-690.5" font-family="Helvetica,sans-Serif" font-size="10.00">ActionListener</text>
<polyline fill="none" stroke="#bfbfbf" points="623.5,-683.5 702.5,-683.5 "/>
<text text-anchor="middle" x="663" y="-671.5" font-family="Helvetica,sans-Serif" font-size="10.00"> </text>
<polyline fill="none" stroke="#bfbfbf" points="623.5,-664.5 702.5,-664.5 "/>
<text text-anchor="middle" x="663" y="-652.5" font-family="Helvetica,sans-Serif" font-size="10.00"> </text>
</g>
<!-- Node3&#45;&gt;Node1 -->
<g id="edge2" class="edge"><title>Node3&#45;&gt;Node1</title>
<path fill="none" stroke="midnightblue" d="M643.164,-635.974C628.024,-607.712 606.575,-567.673 587.407,-531.893"/>
<polygon fill="none" stroke="midnightblue" points="640.237,-637.921 648.045,-645.083 646.407,-634.616 640.237,-637.921"/>
</g>
<!-- Node4 -->
<g id="node4" class="node"><title>Node4</title>
<polygon fill="none" stroke="#bfbfbf" points="721,-645.5 721,-702.5 771,-702.5 771,-645.5 721,-645.5"/>
<text text-anchor="middle" x="746" y="-690.5" font-family="Helvetica,sans-Serif" font-size="10.00">JButton</text>
<polyline fill="none" stroke="#bfbfbf" points="721,-683.5 771,-683.5 "/>
<text text-anchor="middle" x="746" y="-671.5" font-family="Helvetica,sans-Serif" font-size="10.00"> </text>
<polyline fill="none" stroke="#bfbfbf" points="721,-664.5 771,-664.5 "/>
<text text-anchor="middle" x="746" y="-652.5" font-family="Helvetica,sans-Serif" font-size="10.00"> </text>
</g>
<!-- Node4&#45;&gt;Node1 -->
<g id="edge3" class="edge"><title>Node4&#45;&gt;Node1</title>
<path fill="none" stroke="#404040" d="M720.928,-652.601C717.616,-650.007 714.245,-647.417 711,-645 699.728,-636.605 694.88,-636.995 685,-627 655.969,-597.632 658.349,-582.599 633,-550 623.522,-537.811 612.977,-525.221 602.537,-513.241"/>
<polygon fill="none" stroke="#404040" points="602.522,-513.224 595.555,-511.362 594.594,-504.215 601.561,-506.077 602.522,-513.224"/>
<text text-anchor="middle" x="712.5" y="-619" font-family="Helvetica,sans-Serif" font-size="10.00"> &#45;launch</text>
<text text-anchor="middle" x="712.5" y="-608" font-family="Helvetica,sans-Serif" font-size="10.00">&#45;detect</text>
<text text-anchor="middle" x="712.5" y="-597" font-family="Helvetica,sans-Serif" font-size="10.00">&#45;saveSprites</text>
<text text-anchor="middle" x="712.5" y="-586" font-family="Helvetica,sans-Serif" font-size="10.00">&#45;snap</text>
<text text-anchor="middle" x="712.5" y="-575" font-family="Helvetica,sans-Serif" font-size="10.00">&#45;makeSushi</text>
<text text-anchor="middle" x="712.5" y="-564" font-family="Helvetica,sans-Serif" font-size="10.00">&#45;startBot</text>
<text text-anchor="middle" x="712.5" y="-553" font-family="Helvetica,sans-Serif" font-size="10.00">&#45;Auto</text>
</g>
<!-- Node5 -->
<g id="node5" class="node"><title>Node5</title>
<g id="a_node5"><a xlink:href="classSushis_1_1src_1_1Manager.html" target="_top" xlink:title="{Sushis.src.Manager\n|&#45; cash\l&#45; bar\l|+ Manager()\l+ CheckBar()\l&#45; makeSushi()\l}">
<polygon fill="none" stroke="black" points="491,-0.5 491,-90.5 595,-90.5 595,-0.5 491,-0.5"/>
<text text-anchor="middle" x="543" y="-78.5" font-family="Helvetica,sans-Serif" font-size="10.00">Sushis.src.Manager</text>
<polyline fill="none" stroke="black" points="491,-71.5 595,-71.5 "/>
<text text-anchor="start" x="499" y="-59.5" font-family="Helvetica,sans-Serif" font-size="10.00">&#45; cash</text>
<text text-anchor="start" x="499" y="-48.5" font-family="Helvetica,sans-Serif" font-size="10.00">&#45; bar</text>
<polyline fill="none" stroke="black" points="491,-41.5 595,-41.5 "/>
<text text-anchor="start" x="499" y="-29.5" font-family="Helvetica,sans-Serif" font-size="10.00">+ Manager()</text>
<text text-anchor="start" x="499" y="-18.5" font-family="Helvetica,sans-Serif" font-size="10.00">+ CheckBar()</text>
<text text-anchor="start" x="499" y="-7.5" font-family="Helvetica,sans-Serif" font-size="10.00">&#45; makeSushi()</text>
</a>
</g>
</g>
<!-- Node5&#45;&gt;Node1 -->
<g id="edge4" class="edge"><title>Node5&#45;&gt;Node1</title>
<path fill="none" stroke="#404040" d="M543,-90.6607C543,-153.207 543,-269.17 543,-351.819"/>
<polygon fill="none" stroke="#404040" points="543,-352.016 547,-358.016 543,-364.016 539,-358.016 543,-352.016"/>
<text text-anchor="middle" x="565" y="-225" font-family="Helvetica,sans-Serif" font-size="10.00"> &#45;manager</text>
</g>
<!-- Node6&#45;&gt;Node5 -->
<g id="edge5" class="edge"><title>Node6&#45;&gt;Node5</title>
<path fill="none" stroke="#404040" d="M412.913,-177.314C436.987,-153.105 466.033,-123.897 490.566,-99.227"/>
<polygon fill="none" stroke="#404040" points="490.578,-99.2147 491.973,-92.1397 499.04,-90.7058 497.645,-97.7808 490.578,-99.2147"/>
<text text-anchor="middle" x="487" y="-112" font-family="Helvetica,sans-Serif" font-size="10.00"> &#45;ia</text>
</g>
<!-- Node7 -->
<g id="node7" class="node"><title>Node7</title>
<polygon fill="none" stroke="#bfbfbf" points="156,-554.5 156,-622.5 290,-622.5 290,-554.5 156,-554.5"/>
<text text-anchor="start" x="164" y="-610.5" font-family="Helvetica,sans-Serif" font-size="10.00">HashMap&lt; BufferedImage,</text>
<text text-anchor="middle" x="223" y="-599.5" font-family="Helvetica,sans-Serif" font-size="10.00"> String &gt;</text>
<polyline fill="none" stroke="#bfbfbf" points="156,-592.5 290,-592.5 "/>
<text text-anchor="middle" x="223" y="-580.5" font-family="Helvetica,sans-Serif" font-size="10.00"> </text>
<polyline fill="none" stroke="#bfbfbf" points="156,-573.5 290,-573.5 "/>
<text text-anchor="middle" x="223" y="-561.5" font-family="Helvetica,sans-Serif" font-size="10.00"> </text>
</g>
<!-- Node7&#45;&gt;Node6 -->
<g id="edge7" class="edge"><title>Node7&#45;&gt;Node6</title>
<path fill="none" stroke="#404040" d="M217.228,-554.441C210.898,-509.345 204.913,-426.962 232,-364 247.8,-327.274 278.423,-294.835 306.199,-270.912"/>
<polygon fill="none" stroke="#404040" points="306.286,-270.839 308.316,-263.919 315.483,-263.131 313.454,-270.051 306.286,-270.839"/>
<text text-anchor="middle" x="269.5" y="-445.5" font-family="Helvetica,sans-Serif" font-size="10.00"> &#45;sushiReference</text>
</g>
<!-- Node8 -->
<g id="node8" class="node"><title>Node8</title>
<polygon fill="none" stroke="#bfbfbf" points="245.5,-750.5 245.5,-807.5 304.5,-807.5 304.5,-750.5 245.5,-750.5"/>
<text text-anchor="middle" x="275" y="-795.5" font-family="Helvetica,sans-Serif" font-size="10.00">HashMap</text>
<polyline fill="none" stroke="#bfbfbf" points="245.5,-788.5 304.5,-788.5 "/>
<text text-anchor="middle" x="275" y="-776.5" font-family="Helvetica,sans-Serif" font-size="10.00"> </text>
<polyline fill="none" stroke="#bfbfbf" points="245.5,-769.5 304.5,-769.5 "/>
<text text-anchor="middle" x="275" y="-757.5" font-family="Helvetica,sans-Serif" font-size="10.00"> </text>
</g>
<!-- Node8&#45;&gt;Node7 -->
<g id="edge8" class="edge"><title>Node8&#45;&gt;Node7</title>
<path fill="none" stroke="orange" d="M236.316,-763.033C222.986,-755.789 209.527,-745.64 202,-732 183.273,-698.064 194.921,-652.983 207.028,-622.693"/>
<polygon fill="orange" stroke="orange" points="234.938,-766.257 245.448,-767.591 238.063,-759.994 234.938,-766.257"/>
<text text-anchor="middle" x="260.5" y="-724" font-family="Helvetica,sans-Serif" font-size="10.00"> &lt; BufferedImage, String &gt;</text>
</g>
<!-- Node10 -->
<g id="node10" class="node"><title>Node10</title>
<polygon fill="none" stroke="#bfbfbf" points="245.5,-645.5 245.5,-702.5 376.5,-702.5 376.5,-645.5 245.5,-645.5"/>
<text text-anchor="middle" x="311" y="-690.5" font-family="Helvetica,sans-Serif" font-size="10.00">HashMap&lt; String, Point &gt;</text>
<polyline fill="none" stroke="#bfbfbf" points="245.5,-683.5 376.5,-683.5 "/>
<text text-anchor="middle" x="311" y="-671.5" font-family="Helvetica,sans-Serif" font-size="10.00"> </text>
<polyline fill="none" stroke="#bfbfbf" points="245.5,-664.5 376.5,-664.5 "/>
<text text-anchor="middle" x="311" y="-652.5" font-family="Helvetica,sans-Serif" font-size="10.00"> </text>
</g>
<!-- Node8&#45;&gt;Node10 -->
<g id="edge11" class="edge"><title>Node8&#45;&gt;Node10</title>
<path fill="none" stroke="orange" d="M311.749,-749.364C316.32,-744.108 320.322,-738.277 323,-732 326.929,-722.792 326.025,-712.181 323.438,-702.63"/>
<polygon fill="orange" stroke="orange" points="309.155,-747.012 304.733,-756.64 314.194,-751.871 309.155,-747.012"/>
<text text-anchor="middle" x="364" y="-724" font-family="Helvetica,sans-Serif" font-size="10.00"> &lt; String, Point &gt;</text>
</g>
<!-- Node12 -->
<g id="node12" class="node"><title>Node12</title>
<polygon fill="none" stroke="#bfbfbf" points="0,-645.5 0,-702.5 152,-702.5 152,-645.5 0,-645.5"/>
<text text-anchor="middle" x="76" y="-690.5" font-family="Helvetica,sans-Serif" font-size="10.00">HashMap&lt; String, Rectangle &gt;</text>
<polyline fill="none" stroke="#bfbfbf" points="0,-683.5 152,-683.5 "/>
<text text-anchor="middle" x="76" y="-671.5" font-family="Helvetica,sans-Serif" font-size="10.00"> </text>
<polyline fill="none" stroke="#bfbfbf" points="0,-664.5 152,-664.5 "/>
<text text-anchor="middle" x="76" y="-652.5" font-family="Helvetica,sans-Serif" font-size="10.00"> </text>
</g>
<!-- Node8&#45;&gt;Node12 -->
<g id="edge14" class="edge"><title>Node8&#45;&gt;Node12</title>
<path fill="none" stroke="orange" d="M235.133,-773.425C185.859,-766.931 106.048,-753.396 86,-732 78.7184,-724.228 75.7524,-713.12 74.7766,-702.771"/>
<polygon fill="orange" stroke="orange" points="234.788,-776.909 245.151,-774.704 235.675,-769.965 234.788,-776.909"/>
<text text-anchor="middle" x="134.5" y="-724" font-family="Helvetica,sans-Serif" font-size="10.00"> &lt; String, Rectangle &gt;</text>
</g>
<!-- Node13 -->
<g id="node13" class="node"><title>Node13</title>
<polygon fill="none" stroke="#bfbfbf" points="749,-560 749,-617 887,-617 887,-560 749,-560"/>
<text text-anchor="middle" x="818" y="-605" font-family="Helvetica,sans-Serif" font-size="10.00">HashMap&lt; String, Integer &gt;</text>
<polyline fill="none" stroke="#bfbfbf" points="749,-598 887,-598 "/>
<text text-anchor="middle" x="818" y="-586" font-family="Helvetica,sans-Serif" font-size="10.00"> </text>
<polyline fill="none" stroke="#bfbfbf" points="749,-579 887,-579 "/>
<text text-anchor="middle" x="818" y="-567" font-family="Helvetica,sans-Serif" font-size="10.00"> </text>
</g>
<!-- Node8&#45;&gt;Node13 -->
<g id="edge16" class="edge"><title>Node8&#45;&gt;Node13</title>
<path fill="none" stroke="orange" d="M314.786,-777.308C421.275,-774.667 709.493,-762.096 780,-703 805.163,-681.91 813.74,-643.618 816.62,-617.392"/>
<polygon fill="orange" stroke="orange" points="314.683,-773.81 304.767,-777.54 314.845,-780.808 314.683,-773.81"/>
<text text-anchor="middle" x="785.5" y="-724" font-family="Helvetica,sans-Serif" font-size="10.00"> &lt; String, Integer &gt;</text>
</g>
<!-- Node9 -->
<g id="node9" class="node"><title>Node9</title>
<g id="a_node9"><a xlink:href="classSushis_1_1src_1_1Zone.html" target="_top" xlink:title="{Sushis.src.Zone\n||+ Zone()\l+ addZone()\l+ addZone()\l+ getZonesTable()\l}">
<polygon fill="none" stroke="black" points="316,-403 316,-493 412,-493 412,-403 316,-403"/>
<text text-anchor="middle" x="364" y="-481" font-family="Helvetica,sans-Serif" font-size="10.00">Sushis.src.Zone</text>
<polyline fill="none" stroke="black" points="316,-474 412,-474 "/>
<text text-anchor="middle" x="364" y="-462" font-family="Helvetica,sans-Serif" font-size="10.00"> </text>
<polyline fill="none" stroke="black" points="316,-455 412,-455 "/>
<text text-anchor="start" x="324" y="-443" font-family="Helvetica,sans-Serif" font-size="10.00">+ Zone()</text>
<text text-anchor="start" x="324" y="-432" font-family="Helvetica,sans-Serif" font-size="10.00">+ addZone()</text>
<text text-anchor="start" x="324" y="-421" font-family="Helvetica,sans-Serif" font-size="10.00">+ addZone()</text>
<text text-anchor="start" x="324" y="-410" font-family="Helvetica,sans-Serif" font-size="10.00">+ getZonesTable()</text>
</a>
</g>
</g>
<!-- Node9&#45;&gt;Node6 -->
<g id="edge9" class="edge"><title>Node9&#45;&gt;Node6</title>
<path fill="none" stroke="#404040" d="M364,-402.783C364,-381.468 364,-354.961 364,-329.103"/>
<polygon fill="none" stroke="#404040" points="364,-328.89 360,-322.89 364,-316.89 368,-322.89 364,-328.89"/>
<text text-anchor="middle" x="380.5" y="-338" font-family="Helvetica,sans-Serif" font-size="10.00"> &#45;zones</text>
</g>
<!-- Node10&#45;&gt;Node9 -->
<g id="edge10" class="edge"><title>Node10&#45;&gt;Node9</title>
<path fill="none" stroke="#404040" d="M308.294,-645.191C306.632,-619.96 306.116,-581.936 314,-550 317.849,-534.409 324.37,-518.433 331.453,-503.922"/>
<polygon fill="none" stroke="#404040" points="331.498,-503.834 330.657,-496.672 336.945,-493.141 337.786,-500.303 331.498,-503.834"/>
<text text-anchor="middle" x="365.5" y="-586" font-family="Helvetica,sans-Serif" font-size="10.00"> &#45;ensemblePointsZones</text>
</g>
<!-- Node11 -->
<g id="node11" class="node"><title>Node11</title>
<g id="a_node11"><a xlink:href="classSushis_1_1src_1_1ReadZone.html" target="_top" xlink:title="{Sushis.src.ReadZone\n||+ ReadZone()\l+ addZone()\l+ getZones()\l}">
<polygon fill="none" stroke="black" points="47.5,-408.5 47.5,-487.5 158.5,-487.5 158.5,-408.5 47.5,-408.5"/>
<text text-anchor="middle" x="103" y="-475.5" font-family="Helvetica,sans-Serif" font-size="10.00">Sushis.src.ReadZone</text>
<polyline fill="none" stroke="black" points="47.5,-468.5 158.5,-468.5 "/>
<text text-anchor="middle" x="103" y="-456.5" font-family="Helvetica,sans-Serif" font-size="10.00"> </text>
<polyline fill="none" stroke="black" points="47.5,-449.5 158.5,-449.5 "/>
<text text-anchor="start" x="55.5" y="-437.5" font-family="Helvetica,sans-Serif" font-size="10.00">+ ReadZone()</text>
<text text-anchor="start" x="55.5" y="-426.5" font-family="Helvetica,sans-Serif" font-size="10.00">+ addZone()</text>
<text text-anchor="start" x="55.5" y="-415.5" font-family="Helvetica,sans-Serif" font-size="10.00">+ getZones()</text>
</a>
</g>
</g>
<!-- Node11&#45;&gt;Node6 -->
<g id="edge12" class="edge"><title>Node11&#45;&gt;Node6</title>
<path fill="none" stroke="#404040" d="M122.457,-408.42C135.567,-385.142 154.54,-356.021 177,-335 214.32,-300.071 265.162,-272.057 304.412,-253.545"/>
<polygon fill="none" stroke="#404040" points="304.521,-253.495 308.289,-247.346 315.413,-248.46 311.645,-254.608 304.521,-253.495"/>
<text text-anchor="middle" x="193" y="-338" font-family="Helvetica,sans-Serif" font-size="10.00"> &#45;bulles</text>
</g>
<!-- Node12&#45;&gt;Node11 -->
<g id="edge13" class="edge"><title>Node12&#45;&gt;Node11</title>
<path fill="none" stroke="#404040" d="M72.4995,-645.309C71.8751,-639.284 71.3217,-632.936 71,-627 69.1483,-592.828 65.7704,-583.82 71,-550 73.5982,-533.197 78.4923,-515.36 83.6855,-499.427"/>
<polygon fill="none" stroke="#404040" points="83.8221,-499.024 81.9646,-492.056 87.682,-487.662 89.5395,-494.63 83.8221,-499.024"/>
<text text-anchor="middle" x="109" y="-586" font-family="Helvetica,sans-Serif" font-size="10.00"> &#45;ensembleZones</text>
</g>
<!-- Node13&#45;&gt;Node5 -->
<g id="edge15" class="edge"><title>Node13&#45;&gt;Node5</title>
<path fill="none" stroke="#404040" d="M804.2,-559.803C769.011,-489.263 672.926,-297.154 591,-138 584.903,-126.155 578.303,-113.482 572.007,-101.458"/>
<polygon fill="none" stroke="#404040" points="571.907,-101.268 565.577,-97.8126 566.332,-90.641 572.662,-94.0961 571.907,-101.268"/>
<text text-anchor="middle" x="724" y="-338" font-family="Helvetica,sans-Serif" font-size="10.00"> &#45;ingredients</text>
</g>
<!-- Node14 -->
<g id="node14" class="node"><title>Node14</title>
<polygon fill="none" stroke="#bfbfbf" points="395,-645.5 395,-702.5 457,-702.5 457,-645.5 395,-645.5"/>
<text text-anchor="middle" x="426" y="-690.5" font-family="Helvetica,sans-Serif" font-size="10.00">JTextField</text>
<polyline fill="none" stroke="#bfbfbf" points="395,-683.5 457,-683.5 "/>
<text text-anchor="middle" x="426" y="-671.5" font-family="Helvetica,sans-Serif" font-size="10.00"> </text>
<polyline fill="none" stroke="#bfbfbf" points="395,-664.5 457,-664.5 "/>
<text text-anchor="middle" x="426" y="-652.5" font-family="Helvetica,sans-Serif" font-size="10.00"> </text>
</g>
<!-- Node14&#45;&gt;Node1 -->
<g id="edge17" class="edge"><title>Node14&#45;&gt;Node1</title>
<path fill="none" stroke="#404040" d="M440.582,-645.083C454.018,-619.358 474.74,-579.686 494.038,-542.739"/>
<polygon fill="none" stroke="#404040" points="494.147,-542.53 493.38,-535.36 499.703,-531.893 500.471,-539.064 494.147,-542.53"/>
<text text-anchor="middle" x="498" y="-586" font-family="Helvetica,sans-Serif" font-size="10.00"> &#45;txt</text>
</g>
<!-- Node15 -->
<g id="node15" class="node"><title>Node15</title>
<polygon fill="none" stroke="#bfbfbf" points="475.5,-645.5 475.5,-702.5 536.5,-702.5 536.5,-645.5 475.5,-645.5"/>
<text text-anchor="middle" x="506" y="-690.5" font-family="Helvetica,sans-Serif" font-size="10.00">Rectangle</text>
<polyline fill="none" stroke="#bfbfbf" points="475.5,-683.5 536.5,-683.5 "/>
<text text-anchor="middle" x="506" y="-671.5" font-family="Helvetica,sans-Serif" font-size="10.00"> </text>
<polyline fill="none" stroke="#bfbfbf" points="475.5,-664.5 536.5,-664.5 "/>
<text text-anchor="middle" x="506" y="-652.5" font-family="Helvetica,sans-Serif" font-size="10.00"> </text>
</g>
<!-- Node15&#45;&gt;Node1 -->
<g id="edge18" class="edge"><title>Node15&#45;&gt;Node1</title>
<path fill="none" stroke="#404040" d="M510.611,-645.083C514.806,-619.689 521.245,-580.706 527.28,-544.168"/>
<polygon fill="none" stroke="#404040" points="527.352,-543.733 524.383,-537.161 529.308,-531.893 532.276,-538.465 527.352,-543.733"/>
<text text-anchor="middle" x="536" y="-586" font-family="Helvetica,sans-Serif" font-size="10.00"> +ga</text>
</g>
</g>
</svg>
