<?xml version="1.0" encoding="UTF-8" standalone="no"?>
<!DOCTYPE svg PUBLIC "-//W3C//DTD SVG 1.1//EN"
 "http://www.w3.org/Graphics/SVG/1.1/DTD/svg11.dtd">
<!-- Generated by graphviz version 2.38.0 (20140413.2041)
 -->
<!-- Title: ToolBox Pages: 1 -->
<svg width="953pt" height="882pt"
 viewBox="0.00 0.00 953.00 882.00" xmlns="http://www.w3.org/2000/svg" xmlns:xlink="http://www.w3.org/1999/xlink">
<g id="graph0" class="graph" transform="scale(1 1) rotate(0) translate(4 878)">
<title>ToolBox</title>
<!-- Node1 -->
<g id="node1" class="node"><title>Node1</title>
<polygon fill="#bfbfbf" stroke="black" points="512.5,-408.5 512.5,-597.5 615.5,-597.5 615.5,-408.5 512.5,-408.5"/>
<text text-anchor="middle" x="564" y="-585.5" font-family="Helvetica,sans-Serif" font-size="10.00">ToolBox</text>
<polyline fill="none" stroke="black" points="512.5,-578.5 615.5,-578.5 "/>
<text text-anchor="start" x="520.5" y="-566.5" font-family="Helvetica,sans-Serif" font-size="10.00">~ terminate</text>
<text text-anchor="start" x="520.5" y="-555.5" font-family="Helvetica,sans-Serif" font-size="10.00">&#45; w</text>
<text text-anchor="start" x="520.5" y="-544.5" font-family="Helvetica,sans-Serif" font-size="10.00">&#45; h</text>
<text text-anchor="start" x="520.5" y="-533.5" font-family="Helvetica,sans-Serif" font-size="10.00">&#45; countScreen</text>
<text text-anchor="start" x="520.5" y="-522.5" font-family="Helvetica,sans-Serif" font-size="10.00">&#45; serialVersionUID</text>
<polyline fill="none" stroke="black" points="512.5,-515.5 615.5,-515.5 "/>
<text text-anchor="start" x="520.5" y="-503.5" font-family="Helvetica,sans-Serif" font-size="10.00">+ ToolBox()</text>
<text text-anchor="start" x="520.5" y="-492.5" font-family="Helvetica,sans-Serif" font-size="10.00">+ ToolBox()</text>
<text text-anchor="start" x="520.5" y="-481.5" font-family="Helvetica,sans-Serif" font-size="10.00">+ Capture()</text>
<text text-anchor="start" x="520.5" y="-470.5" font-family="Helvetica,sans-Serif" font-size="10.00">+ CaptureGame()</text>
<text text-anchor="start" x="520.5" y="-459.5" font-family="Helvetica,sans-Serif" font-size="10.00">+ Launch()</text>
<text text-anchor="start" x="520.5" y="-448.5" font-family="Helvetica,sans-Serif" font-size="10.00">+ Run()</text>
<text text-anchor="start" x="520.5" y="-437.5" font-family="Helvetica,sans-Serif" font-size="10.00">+ Serve()</text>
<text text-anchor="start" x="520.5" y="-426.5" font-family="Helvetica,sans-Serif" font-size="10.00">+ actionPerformed()</text>
<text text-anchor="start" x="520.5" y="-415.5" font-family="Helvetica,sans-Serif" font-size="10.00">+ clicBar()</text>
</g>
<!-- Node9 -->
<g id="node9" class="node"><title>Node9</title>
<g id="a_node9"><a xlink:href="classIA.html" target="_top" xlink:title="{IA\n|+ xOr\l+ yOr\l&#45; width\l&#45; height\l&#45; serialVersionUID\l&#45; spriteCount\l|+ IA()\l+ click()\l+ initiateGame()\l+ getZone()\l+ saveSprites()\l+ loadSprites()\l+ getSushi()\l}">
<polygon fill="none" stroke="black" points="315.5,-160.5 315.5,-338.5 412.5,-338.5 412.5,-160.5 315.5,-160.5"/>
<text text-anchor="middle" x="364" y="-326.5" font-family="Helvetica,sans-Serif" font-size="10.00">IA</text>
<polyline fill="none" stroke="black" points="315.5,-319.5 412.5,-319.5 "/>
<text text-anchor="start" x="323.5" y="-307.5" font-family="Helvetica,sans-Serif" font-size="10.00">+ xOr</text>
<text text-anchor="start" x="323.5" y="-296.5" font-family="Helvetica,sans-Serif" font-size="10.00">+ yOr</text>
<text text-anchor="start" x="323.5" y="-285.5" font-family="Helvetica,sans-Serif" font-size="10.00">&#45; width</text>
<text text-anchor="start" x="323.5" y="-274.5" font-family="Helvetica,sans-Serif" font-size="10.00">&#45; height</text>
<text text-anchor="start" x="323.5" y="-263.5" font-family="Helvetica,sans-Serif" font-size="10.00">&#45; serialVersionUID</text>
<text text-anchor="start" x="323.5" y="-252.5" font-family="Helvetica,sans-Serif" font-size="10.00">&#45; spriteCount</text>
<polyline fill="none" stroke="black" points="315.5,-245.5 412.5,-245.5 "/>
<text text-anchor="start" x="323.5" y="-233.5" font-family="Helvetica,sans-Serif" font-size="10.00">+ IA()</text>
<text text-anchor="start" x="323.5" y="-222.5" font-family="Helvetica,sans-Serif" font-size="10.00">+ click()</text>
<text text-anchor="start" x="323.5" y="-211.5" font-family="Helvetica,sans-Serif" font-size="10.00">+ initiateGame()</text>
<text text-anchor="start" x="323.5" y="-200.5" font-family="Helvetica,sans-Serif" font-size="10.00">+ getZone()</text>
<text text-anchor="start" x="323.5" y="-189.5" font-family="Helvetica,sans-Serif" font-size="10.00">+ saveSprites()</text>
<text text-anchor="start" x="323.5" y="-178.5" font-family="Helvetica,sans-Serif" font-size="10.00">+ loadSprites()</text>
<text text-anchor="start" x="323.5" y="-167.5" font-family="Helvetica,sans-Serif" font-size="10.00">+ getSushi()</text>
</a>
</g>
</g>
<!-- Node1&#45;&gt;Node9 -->
<g id="edge9" class="edge"><title>Node1&#45;&gt;Node9</title>
<path fill="none" stroke="midnightblue" d="M506.26,-429.391C476.583,-392.073 440.821,-347.103 412.578,-311.587"/>
<polygon fill="none" stroke="midnightblue" points="503.531,-431.584 512.495,-437.233 509.01,-427.227 503.531,-431.584"/>
</g>
<!-- Node2 -->
<g id="node2" class="node"><title>Node2</title>
<polygon fill="none" stroke="#bfbfbf" points="613,-711.5 613,-768.5 663,-768.5 663,-711.5 613,-711.5"/>
<text text-anchor="middle" x="638" y="-756.5" font-family="Helvetica,sans-Serif" font-size="10.00">JFrame</text>
<polyline fill="none" stroke="#bfbfbf" points="613,-749.5 663,-749.5 "/>
<text text-anchor="middle" x="638" y="-737.5" font-family="Helvetica,sans-Serif" font-size="10.00"> </text>
<polyline fill="none" stroke="#bfbfbf" points="613,-730.5 663,-730.5 "/>
<text text-anchor="middle" x="638" y="-718.5" font-family="Helvetica,sans-Serif" font-size="10.00"> </text>
</g>
<!-- Node2&#45;&gt;Node1 -->
<g id="edge1" class="edge"><title>Node2&#45;&gt;Node1</title>
<path fill="none" stroke="midnightblue" d="M626.144,-701.35C617.327,-673.35 604.895,-633.868 593.464,-597.568"/>
<polygon fill="none" stroke="midnightblue" points="622.879,-702.633 629.221,-711.12 629.555,-700.53 622.879,-702.633"/>
</g>
<!-- Node3 -->
<g id="node3" class="node"><title>Node3</title>
<polygon fill="none" stroke="#bfbfbf" points="681.5,-711.5 681.5,-768.5 760.5,-768.5 760.5,-711.5 681.5,-711.5"/>
<text text-anchor="middle" x="721" y="-756.5" font-family="Helvetica,sans-Serif" font-size="10.00">ActionListener</text>
<polyline fill="none" stroke="#bfbfbf" points="681.5,-749.5 760.5,-749.5 "/>
<text text-anchor="middle" x="721" y="-737.5" font-family="Helvetica,sans-Serif" font-size="10.00"> </text>
<polyline fill="none" stroke="#bfbfbf" points="681.5,-730.5 760.5,-730.5 "/>
<text text-anchor="middle" x="721" y="-718.5" font-family="Helvetica,sans-Serif" font-size="10.00"> </text>
</g>
<!-- Node3&#45;&gt;Node1 -->
<g id="edge2" class="edge"><title>Node3&#45;&gt;Node1</title>
<path fill="none" stroke="midnightblue" d="M696.58,-702.447C674.994,-670.138 642.794,-621.94 615.533,-581.136"/>
<polygon fill="none" stroke="midnightblue" points="693.908,-704.749 702.374,-711.12 699.729,-700.86 693.908,-704.749"/>
</g>
<!-- Node4 -->
<g id="node4" class="node"><title>Node4</title>
<polygon fill="none" stroke="#bfbfbf" points="779,-711.5 779,-768.5 829,-768.5 829,-711.5 779,-711.5"/>
<text text-anchor="middle" x="804" y="-756.5" font-family="Helvetica,sans-Serif" font-size="10.00">JButton</text>
<polyline fill="none" stroke="#bfbfbf" points="779,-749.5 829,-749.5 "/>
<text text-anchor="middle" x="804" y="-737.5" font-family="Helvetica,sans-Serif" font-size="10.00"> </text>
<polyline fill="none" stroke="#bfbfbf" points="779,-730.5 829,-730.5 "/>
<text text-anchor="middle" x="804" y="-718.5" font-family="Helvetica,sans-Serif" font-size="10.00"> </text>
</g>
<!-- Node4&#45;&gt;Node1 -->
<g id="edge3" class="edge"><title>Node4&#45;&gt;Node1</title>
<path fill="none" stroke="#404040" d="M778.928,-718.601C775.616,-716.007 772.245,-713.417 769,-711 757.728,-702.605 753.365,-702.492 743,-693 710.181,-662.947 709.204,-648.68 679,-616 661.769,-597.356 642.239,-577.799 624.229,-560.34"/>
<polygon fill="none" stroke="#404040" points="624.166,-560.279 617.07,-558.994 615.527,-551.95 622.622,-553.235 624.166,-560.279"/>
<text text-anchor="middle" x="770.5" y="-685" font-family="Helvetica,sans-Serif" font-size="10.00"> &#45;launch</text>
<text text-anchor="middle" x="770.5" y="-674" font-family="Helvetica,sans-Serif" font-size="10.00">&#45;detect</text>
<text text-anchor="middle" x="770.5" y="-663" font-family="Helvetica,sans-Serif" font-size="10.00">&#45;saveSprites</text>
<text text-anchor="middle" x="770.5" y="-652" font-family="Helvetica,sans-Serif" font-size="10.00">&#45;snap</text>
<text text-anchor="middle" x="770.5" y="-641" font-family="Helvetica,sans-Serif" font-size="10.00">&#45;makeSushi</text>
<text text-anchor="middle" x="770.5" y="-630" font-family="Helvetica,sans-Serif" font-size="10.00">&#45;startBot</text>
<text text-anchor="middle" x="770.5" y="-619" font-family="Helvetica,sans-Serif" font-size="10.00">&#45;Auto</text>
</g>
<!-- Node5 -->
<g id="node5" class="node"><title>Node5</title>
<polygon fill="none" stroke="#bfbfbf" points="381.5,-711.5 381.5,-768.5 434.5,-768.5 434.5,-711.5 381.5,-711.5"/>
<text text-anchor="middle" x="408" y="-756.5" font-family="Helvetica,sans-Serif" font-size="10.00">Scanner</text>
<polyline fill="none" stroke="#bfbfbf" points="381.5,-749.5 434.5,-749.5 "/>
<text text-anchor="middle" x="408" y="-737.5" font-family="Helvetica,sans-Serif" font-size="10.00"> </text>
<polyline fill="none" stroke="#bfbfbf" points="381.5,-730.5 434.5,-730.5 "/>
<text text-anchor="middle" x="408" y="-718.5" font-family="Helvetica,sans-Serif" font-size="10.00"> </text>
</g>
<!-- Node5&#45;&gt;Node1 -->
<g id="edge4" class="edge"><title>Node5&#45;&gt;Node1</title>
<path fill="none" stroke="#404040" d="M419.814,-711.124C431.18,-685.514 449.607,-646.952 470,-616 480.254,-600.437 492.357,-584.589 504.407,-569.899"/>
<polygon fill="none" stroke="#404040" points="504.616,-569.647 505.383,-562.477 512.297,-560.427 511.53,-567.598 504.616,-569.647"/>
<text text-anchor="middle" x="484" y="-652" font-family="Helvetica,sans-Serif" font-size="10.00"> &#45;scan</text>
</g>
<!-- Node6 -->
<g id="node6" class="node"><title>Node6</title>
<polygon fill="none" stroke="#bfbfbf" points="453,-711.5 453,-768.5 515,-768.5 515,-711.5 453,-711.5"/>
<text text-anchor="middle" x="484" y="-756.5" font-family="Helvetica,sans-Serif" font-size="10.00">JTextField</text>
<polyline fill="none" stroke="#bfbfbf" points="453,-749.5 515,-749.5 "/>
<text text-anchor="middle" x="484" y="-737.5" font-family="Helvetica,sans-Serif" font-size="10.00"> </text>
<polyline fill="none" stroke="#bfbfbf" points="453,-730.5 515,-730.5 "/>
<text text-anchor="middle" x="484" y="-718.5" font-family="Helvetica,sans-Serif" font-size="10.00"> </text>
</g>
<!-- Node6&#45;&gt;Node1 -->
<g id="edge5" class="edge"><title>Node6&#45;&gt;Node1</title>
<path fill="none" stroke="#404040" d="M493.491,-711.12C502.137,-685.723 515.465,-646.573 528.215,-609.12"/>
<polygon fill="none" stroke="#404040" points="528.28,-608.928 526.427,-601.959 532.147,-597.568 534,-604.537 528.28,-608.928"/>
<text text-anchor="middle" x="533" y="-652" font-family="Helvetica,sans-Serif" font-size="10.00"> &#45;txt</text>
</g>
<!-- Node7 -->
<g id="node7" class="node"><title>Node7</title>
<polygon fill="none" stroke="#bfbfbf" points="533.5,-711.5 533.5,-768.5 594.5,-768.5 594.5,-711.5 533.5,-711.5"/>
<text text-anchor="middle" x="564" y="-756.5" font-family="Helvetica,sans-Serif" font-size="10.00">Rectangle</text>
<polyline fill="none" stroke="#bfbfbf" points="533.5,-749.5 594.5,-749.5 "/>
<text text-anchor="middle" x="564" y="-737.5" font-family="Helvetica,sans-Serif" font-size="10.00"> </text>
<polyline fill="none" stroke="#bfbfbf" points="533.5,-730.5 594.5,-730.5 "/>
<text text-anchor="middle" x="564" y="-718.5" font-family="Helvetica,sans-Serif" font-size="10.00"> </text>
</g>
<!-- Node7&#45;&gt;Node1 -->
<g id="edge6" class="edge"><title>Node7&#45;&gt;Node1</title>
<path fill="none" stroke="#404040" d="M564,-711.12C564,-685.832 564,-646.91 564,-609.604"/>
<polygon fill="none" stroke="#404040" points="564,-609.568 560,-603.568 564,-597.568 568,-603.568 564,-609.568"/>
<text text-anchor="middle" x="574" y="-652" font-family="Helvetica,sans-Serif" font-size="10.00"> +ga</text>
</g>
<!-- Node8 -->
<g id="node8" class="node"><title>Node8</title>
<g id="a_node8"><a xlink:href="classManager.html" target="_top" xlink:title="{Manager\n|&#45; cash\l&#45; cashPile\l&#45; bar\l|+ Manager()\l+ CheckBar()\l+ buyComponent()\l&#45; makeSushi()\l}">
<polygon fill="none" stroke="black" points="515,-0.5 515,-112.5 613,-112.5 613,-0.5 515,-0.5"/>
<text text-anchor="middle" x="564" y="-100.5" font-family="Helvetica,sans-Serif" font-size="10.00">Manager</text>
<polyline fill="none" stroke="black" points="515,-93.5 613,-93.5 "/>
<text text-anchor="start" x="523" y="-81.5" font-family="Helvetica,sans-Serif" font-size="10.00">&#45; cash</text>
<text text-anchor="start" x="523" y="-70.5" font-family="Helvetica,sans-Serif" font-size="10.00">&#45; cashPile</text>
<text text-anchor="start" x="523" y="-59.5" font-family="Helvetica,sans-Serif" font-size="10.00">&#45; bar</text>
<polyline fill="none" stroke="black" points="515,-52.5 613,-52.5 "/>
<text text-anchor="start" x="523" y="-40.5" font-family="Helvetica,sans-Serif" font-size="10.00">+ Manager()</text>
<text text-anchor="start" x="523" y="-29.5" font-family="Helvetica,sans-Serif" font-size="10.00">+ CheckBar()</text>
<text text-anchor="start" x="523" y="-18.5" font-family="Helvetica,sans-Serif" font-size="10.00">+ buyComponent()</text>
<text text-anchor="start" x="523" y="-7.5" font-family="Helvetica,sans-Serif" font-size="10.00">&#45; makeSushi()</text>
</a>
</g>
</g>
<!-- Node8&#45;&gt;Node1 -->
<g id="edge7" class="edge"><title>Node8&#45;&gt;Node1</title>
<path fill="none" stroke="#404040" d="M564,-112.59C564,-183.198 564,-307.114 564,-396.218"/>
<polygon fill="none" stroke="#404040" points="564,-396.276 568,-402.276 564,-408.276 560,-402.276 564,-396.276"/>
<text text-anchor="middle" x="586" y="-247" font-family="Helvetica,sans-Serif" font-size="10.00"> &#45;manager</text>
</g>
<!-- Node9&#45;&gt;Node8 -->
<g id="edge8" class="edge"><title>Node9&#45;&gt;Node8</title>
<path fill="none" stroke="#404040" d="M412.67,-202.02C440.752,-175.201 476.245,-141.306 505.798,-113.083"/>
<polygon fill="none" stroke="#404040" points="506.086,-112.808 507.662,-105.771 514.764,-104.52 513.188,-111.557 506.086,-112.808"/>
<text text-anchor="middle" x="489" y="-134" font-family="Helvetica,sans-Serif" font-size="10.00"> &#45;ia</text>
</g>
<!-- Node10 -->
<g id="node10" class="node"><title>Node10</title>
<polygon fill="none" stroke="#bfbfbf" points="165,-620.5 165,-688.5 299,-688.5 299,-620.5 165,-620.5"/>
<text text-anchor="start" x="173" y="-676.5" font-family="Helvetica,sans-Serif" font-size="10.00">HashMap&lt; BufferedImage,</text>
<text text-anchor="middle" x="232" y="-665.5" font-family="Helvetica,sans-Serif" font-size="10.00"> String &gt;</text>
<polyline fill="none" stroke="#bfbfbf" points="165,-658.5 299,-658.5 "/>
<text text-anchor="middle" x="232" y="-646.5" font-family="Helvetica,sans-Serif" font-size="10.00"> </text>
<polyline fill="none" stroke="#bfbfbf" points="165,-639.5 299,-639.5 "/>
<text text-anchor="middle" x="232" y="-627.5" font-family="Helvetica,sans-Serif" font-size="10.00"> </text>
</g>
<!-- Node10&#45;&gt;Node9 -->
<g id="edge10" class="edge"><title>Node10&#45;&gt;Node9</title>
<path fill="none" stroke="#404040" d="M226.901,-620.101C220.893,-571.682 214.761,-479.92 241,-408 254.942,-369.786 281.913,-333.539 307.055,-305.473"/>
<polygon fill="none" stroke="#404040" points="307.378,-305.12 308.486,-297.995 315.49,-296.277 314.382,-303.402 307.378,-305.12"/>
<text text-anchor="middle" x="278.5" y="-500.5" font-family="Helvetica,sans-Serif" font-size="10.00"> &#45;sushiReference</text>
</g>
<!-- Node11 -->
<g id="node11" class="node"><title>Node11</title>
<polygon fill="none" stroke="#bfbfbf" points="206.5,-816.5 206.5,-873.5 265.5,-873.5 265.5,-816.5 206.5,-816.5"/>
<text text-anchor="middle" x="236" y="-861.5" font-family="Helvetica,sans-Serif" font-size="10.00">HashMap</text>
<polyline fill="none" stroke="#bfbfbf" points="206.5,-854.5 265.5,-854.5 "/>
<text text-anchor="middle" x="236" y="-842.5" font-family="Helvetica,sans-Serif" font-size="10.00"> </text>
<polyline fill="none" stroke="#bfbfbf" points="206.5,-835.5 265.5,-835.5 "/>
<text text-anchor="middle" x="236" y="-823.5" font-family="Helvetica,sans-Serif" font-size="10.00"> </text>
</g>
<!-- Node11&#45;&gt;Node10 -->
<g id="edge11" class="edge"><title>Node11&#45;&gt;Node10</title>
<path fill="none" stroke="orange" d="M197.316,-829.033C183.986,-821.789 170.527,-811.64 163,-798 142.747,-761.299 171.109,-717.756 197.353,-688.546"/>
<polygon fill="orange" stroke="orange" points="195.938,-832.257 206.448,-833.591 199.063,-825.994 195.938,-832.257"/>
<text text-anchor="middle" x="221.5" y="-790" font-family="Helvetica,sans-Serif" font-size="10.00"> &lt; BufferedImage, String &gt;</text>
</g>
<!-- Node13 -->
<g id="node13" class="node"><title>Node13</title>
<polygon fill="none" stroke="#bfbfbf" points="211,-711.5 211,-768.5 363,-768.5 363,-711.5 211,-711.5"/>
<text text-anchor="middle" x="287" y="-756.5" font-family="Helvetica,sans-Serif" font-size="10.00">HashMap&lt; String, Rectangle &gt;</text>
<polyline fill="none" stroke="#bfbfbf" points="211,-749.5 363,-749.5 "/>
<text text-anchor="middle" x="287" y="-737.5" font-family="Helvetica,sans-Serif" font-size="10.00"> </text>
<polyline fill="none" stroke="#bfbfbf" points="211,-730.5 363,-730.5 "/>
<text text-anchor="middle" x="287" y="-718.5" font-family="Helvetica,sans-Serif" font-size="10.00"> </text>
</g>
<!-- Node11&#45;&gt;Node13 -->
<g id="edge14" class="edge"><title>Node11&#45;&gt;Node13</title>
<path fill="none" stroke="orange" d="M273.083,-814.518C277.437,-809.469 281.287,-803.922 284,-798 288.128,-788.991 289.488,-778.323 289.614,-768.666"/>
<polygon fill="orange" stroke="orange" points="270.291,-812.374 265.919,-822.024 275.355,-817.207 270.291,-812.374"/>
<text text-anchor="middle" x="336.5" y="-790" font-family="Helvetica,sans-Serif" font-size="10.00"> &lt; String, Rectangle &gt;</text>
</g>
<!-- Node15 -->
<g id="node15" class="node"><title>Node15</title>
<polygon fill="none" stroke="#bfbfbf" points="0,-711.5 0,-768.5 124,-768.5 124,-711.5 0,-711.5"/>
<text text-anchor="middle" x="62" y="-756.5" font-family="Helvetica,sans-Serif" font-size="10.00">HashMap&lt; String, Dot &gt;</text>
<polyline fill="none" stroke="#bfbfbf" points="0,-749.5 124,-749.5 "/>
<text text-anchor="middle" x="62" y="-737.5" font-family="Helvetica,sans-Serif" font-size="10.00"> </text>
<polyline fill="none" stroke="#bfbfbf" points="0,-730.5 124,-730.5 "/>
<text text-anchor="middle" x="62" y="-718.5" font-family="Helvetica,sans-Serif" font-size="10.00"> </text>
</g>
<!-- Node11&#45;&gt;Node15 -->
<g id="edge17" class="edge"><title>Node11&#45;&gt;Node15</title>
<path fill="none" stroke="orange" d="M196.154,-843.525C159.523,-840.871 106.297,-831.037 75,-798 67.6007,-790.189 64.1001,-779.074 62.5382,-768.731"/>
<polygon fill="orange" stroke="orange" points="196.296,-847.039 206.48,-844.117 196.696,-840.05 196.296,-847.039"/>
<text text-anchor="middle" x="109.5" y="-790" font-family="Helvetica,sans-Serif" font-size="10.00"> &lt; String, Dot &gt;</text>
</g>
<!-- Node16 -->
<g id="node16" class="node"><title>Node16</title>
<polygon fill="none" stroke="#bfbfbf" points="807,-626 807,-683 945,-683 945,-626 807,-626"/>
<text text-anchor="middle" x="876" y="-671" font-family="Helvetica,sans-Serif" font-size="10.00">HashMap&lt; String, Integer &gt;</text>
<polyline fill="none" stroke="#bfbfbf" points="807,-664 945,-664 "/>
<text text-anchor="middle" x="876" y="-652" font-family="Helvetica,sans-Serif" font-size="10.00"> </text>
<polyline fill="none" stroke="#bfbfbf" points="807,-645 945,-645 "/>
<text text-anchor="middle" x="876" y="-633" font-family="Helvetica,sans-Serif" font-size="10.00"> </text>
</g>
<!-- Node11&#45;&gt;Node16 -->
<g id="edge19" class="edge"><title>Node11&#45;&gt;Node16</title>
<path fill="none" stroke="orange" d="M275.826,-844.382C395.938,-844.732 751.661,-839.657 838,-769 863.569,-748.075 872.036,-709.359 874.78,-683.024"/>
<polygon fill="orange" stroke="orange" points="275.623,-840.881 265.608,-844.337 275.593,-847.881 275.623,-840.881"/>
<text text-anchor="middle" x="844.5" y="-790" font-family="Helvetica,sans-Serif" font-size="10.00"> &lt; String, Integer &gt;</text>
</g>
<!-- Node12 -->
<g id="node12" class="node"><title>Node12</title>
<g id="a_node12"><a xlink:href="classReadZone.html" target="_top" xlink:title="{ReadZone\n||+ ReadZone()\l+ addZone()\l+ getZones()\l}">
<polygon fill="none" stroke="black" points="325.5,-463.5 325.5,-542.5 402.5,-542.5 402.5,-463.5 325.5,-463.5"/>
<text text-anchor="middle" x="364" y="-530.5" font-family="Helvetica,sans-Serif" font-size="10.00">ReadZone</text>
<polyline fill="none" stroke="black" points="325.5,-523.5 402.5,-523.5 "/>
<text text-anchor="middle" x="364" y="-511.5" font-family="Helvetica,sans-Serif" font-size="10.00"> </text>
<polyline fill="none" stroke="black" points="325.5,-504.5 402.5,-504.5 "/>
<text text-anchor="start" x="333.5" y="-492.5" font-family="Helvetica,sans-Serif" font-size="10.00">+ ReadZone()</text>
<text text-anchor="start" x="333.5" y="-481.5" font-family="Helvetica,sans-Serif" font-size="10.00">+ addZone()</text>
<text text-anchor="start" x="333.5" y="-470.5" font-family="Helvetica,sans-Serif" font-size="10.00">+ getZones()</text>
</a>
</g>
</g>
<!-- Node12&#45;&gt;Node9 -->
<g id="edge12" class="edge"><title>Node12&#45;&gt;Node9</title>
<path fill="none" stroke="#404040" d="M364,-463.254C364,-433.223 364,-390.206 364,-350.701"/>
<polygon fill="none" stroke="#404040" points="364,-350.572 360,-344.572 364,-338.572 368,-344.572 364,-350.572"/>
<text text-anchor="middle" x="380" y="-371" font-family="Helvetica,sans-Serif" font-size="10.00"> &#45;bulles</text>
</g>
<!-- Node13&#45;&gt;Node12 -->
<g id="edge13" class="edge"><title>Node13&#45;&gt;Node12</title>
<path fill="none" stroke="#404040" d="M294.845,-711.411C303.562,-680.896 317.177,-633.701 323,-616 329.73,-595.543 337.759,-573.222 344.92,-553.929"/>
<polygon fill="none" stroke="#404040" points="344.933,-553.895 343.286,-546.874 349.133,-542.654 350.78,-549.675 344.933,-553.895"/>
<text text-anchor="middle" x="361" y="-652" font-family="Helvetica,sans-Serif" font-size="10.00"> &#45;ensembleZones</text>
</g>
<!-- Node14 -->
<g id="node14" class="node"><title>Node14</title>
<g id="a_node14"><a xlink:href="classZone.html" target="_top" xlink:title="{Zone\n||+ Zone()\l+ addZone()\l+ addZone()\l+ getZonesTable()\l}">
<polygon fill="none" stroke="black" points="55,-458 55,-548 151,-548 151,-458 55,-458"/>
<text text-anchor="middle" x="103" y="-536" font-family="Helvetica,sans-Serif" font-size="10.00">Zone</text>
<polyline fill="none" stroke="black" points="55,-529 151,-529 "/>
<text text-anchor="middle" x="103" y="-517" font-family="Helvetica,sans-Serif" font-size="10.00"> </text>
<polyline fill="none" stroke="black" points="55,-510 151,-510 "/>
<text text-anchor="start" x="63" y="-498" font-family="Helvetica,sans-Serif" font-size="10.00">+ Zone()</text>
<text text-anchor="start" x="63" y="-487" font-family="Helvetica,sans-Serif" font-size="10.00">+ addZone()</text>
<text text-anchor="start" x="63" y="-476" font-family="Helvetica,sans-Serif" font-size="10.00">+ addZone()</text>
<text text-anchor="start" x="63" y="-465" font-family="Helvetica,sans-Serif" font-size="10.00">+ getZonesTable()</text>
</a>
</g>
</g>
<!-- Node14&#45;&gt;Node9 -->
<g id="edge15" class="edge"><title>Node14&#45;&gt;Node9</title>
<path fill="none" stroke="#404040" d="M120.662,-457.824C134.662,-426.886 156.587,-386.047 185,-357 218.915,-322.329 266.428,-294.754 303.98,-276.357"/>
<polygon fill="none" stroke="#404040" points="304.464,-276.125 308.149,-269.926 315.288,-270.944 311.603,-277.142 304.464,-276.125"/>
<text text-anchor="middle" x="201.5" y="-371" font-family="Helvetica,sans-Serif" font-size="10.00"> &#45;zones</text>
</g>
<!-- Node15&#45;&gt;Node14 -->
<g id="edge16" class="edge"><title>Node15&#45;&gt;Node14</title>
<path fill="none" stroke="#404040" d="M55.5795,-711.34C50.781,-686.21 46.1283,-648.249 53,-616 57.1149,-596.689 64.8085,-576.673 72.9486,-558.997"/>
<polygon fill="none" stroke="#404040" points="73.0125,-558.863 71.9909,-551.725 78.1872,-548.036 79.2088,-555.175 73.0125,-558.863"/>
<text text-anchor="middle" x="104.5" y="-652" font-family="Helvetica,sans-Serif" font-size="10.00"> &#45;ensemblePointsZones</text>
</g>
<!-- Node16&#45;&gt;Node8 -->
<g id="edge18" class="edge"><title>Node16&#45;&gt;Node8</title>
<path fill="none" stroke="#404040" d="M861.577,-625.949C814.822,-536.634 666.546,-253.388 598.607,-123.607"/>
<polygon fill="none" stroke="#404040" points="598.441,-123.291 592.114,-119.83 592.875,-112.659 599.202,-116.12 598.441,-123.291"/>
<text text-anchor="middle" x="762.5" y="-382" font-family="Helvetica,sans-Serif" font-size="10.00"> &#45;orders</text>
<text text-anchor="middle" x="762.5" y="-371" font-family="Helvetica,sans-Serif" font-size="10.00">&#45;prices</text>
<text text-anchor="middle" x="762.5" y="-360" font-family="Helvetica,sans-Serif" font-size="10.00">&#45;ingredients</text>
</g>
</g>
</svg>
