<?xml version="1.0" encoding="UTF-8" standalone="no"?>
<!DOCTYPE svg PUBLIC "-//W3C//DTD SVG 1.1//EN"
 "http://www.w3.org/Graphics/SVG/1.1/DTD/svg11.dtd">
<!-- Generated by graphviz version 2.38.0 (20140413.2041)
 -->
<!-- Title: Suchi.Recette Pages: 1 -->
<svg width="469pt" height="556pt"
 viewBox="0.00 0.00 468.50 556.00" xmlns="http://www.w3.org/2000/svg" xmlns:xlink="http://www.w3.org/1999/xlink">
<g id="graph0" class="graph" transform="scale(1 1) rotate(0) translate(4 552)">
<title>Suchi.Recette</title>
<!-- Node1 -->
<g id="node1" class="node"><title>Node1</title>
<polygon fill="#bfbfbf" stroke="black" points="177.5,-182.5 177.5,-547.5 270.5,-547.5 270.5,-182.5 177.5,-182.5"/>
<text text-anchor="middle" x="224" y="-535.5" font-family="Helvetica,sans-Serif" font-size="10.00">Suchi.Recette</text>
<polyline fill="none" stroke="black" points="177.5,-528.5 270.5,-528.5 "/>
<text text-anchor="start" x="185.5" y="-516.5" font-family="Helvetica,sans-Serif" font-size="10.00"># phone</text>
<text text-anchor="start" x="185.5" y="-505.5" font-family="Helvetica,sans-Serif" font-size="10.00"># exitPhone</text>
<text text-anchor="start" x="185.5" y="-494.5" font-family="Helvetica,sans-Serif" font-size="10.00"># RiceC</text>
<text text-anchor="start" x="185.5" y="-483.5" font-family="Helvetica,sans-Serif" font-size="10.00"># RiceCbuy</text>
<text text-anchor="start" x="185.5" y="-472.5" font-family="Helvetica,sans-Serif" font-size="10.00"># Topping</text>
<text text-anchor="start" x="185.5" y="-461.5" font-family="Helvetica,sans-Serif" font-size="10.00"># fishEggs</text>
<text text-anchor="start" x="185.5" y="-450.5" font-family="Helvetica,sans-Serif" font-size="10.00"># nori</text>
<text text-anchor="start" x="185.5" y="-439.5" font-family="Helvetica,sans-Serif" font-size="10.00"># validate</text>
<text text-anchor="start" x="185.5" y="-428.5" font-family="Helvetica,sans-Serif" font-size="10.00"># saumon</text>
<text text-anchor="start" x="185.5" y="-417.5" font-family="Helvetica,sans-Serif" font-size="10.00"># ia</text>
<text text-anchor="start" x="185.5" y="-406.5" font-family="Helvetica,sans-Serif" font-size="10.00"># Rice</text>
<text text-anchor="start" x="185.5" y="-395.5" font-family="Helvetica,sans-Serif" font-size="10.00"># Roe</text>
<text text-anchor="start" x="185.5" y="-384.5" font-family="Helvetica,sans-Serif" font-size="10.00"># Noori</text>
<text text-anchor="start" x="185.5" y="-373.5" font-family="Helvetica,sans-Serif" font-size="10.00"># salmon</text>
<text text-anchor="start" x="185.5" y="-362.5" font-family="Helvetica,sans-Serif" font-size="10.00">&#45; time</text>
<polyline fill="none" stroke="black" points="177.5,-355.5 270.5,-355.5 "/>
<text text-anchor="start" x="185.5" y="-343.5" font-family="Helvetica,sans-Serif" font-size="10.00">+ make()</text>
<text text-anchor="start" x="185.5" y="-332.5" font-family="Helvetica,sans-Serif" font-size="10.00">+ validate()</text>
<text text-anchor="start" x="185.5" y="-321.5" font-family="Helvetica,sans-Serif" font-size="10.00">+ useRice()</text>
<text text-anchor="start" x="185.5" y="-310.5" font-family="Helvetica,sans-Serif" font-size="10.00">+ useRoe()</text>
<text text-anchor="start" x="185.5" y="-299.5" font-family="Helvetica,sans-Serif" font-size="10.00">+ useNoori()</text>
<text text-anchor="start" x="185.5" y="-288.5" font-family="Helvetica,sans-Serif" font-size="10.00">+ useSalmon()</text>
<text text-anchor="start" x="185.5" y="-277.5" font-family="Helvetica,sans-Serif" font-size="10.00">+ checkAliment()</text>
<text text-anchor="start" x="185.5" y="-266.5" font-family="Helvetica,sans-Serif" font-size="10.00">+ phoneClick()</text>
<text text-anchor="start" x="185.5" y="-255.5" font-family="Helvetica,sans-Serif" font-size="10.00">+ validatePhone()</text>
<text text-anchor="start" x="185.5" y="-244.5" font-family="Helvetica,sans-Serif" font-size="10.00">+ buyRice()</text>
<text text-anchor="start" x="185.5" y="-233.5" font-family="Helvetica,sans-Serif" font-size="10.00">+ buyRoe()</text>
<text text-anchor="start" x="185.5" y="-222.5" font-family="Helvetica,sans-Serif" font-size="10.00">+ buyNoori()</text>
<text text-anchor="start" x="185.5" y="-211.5" font-family="Helvetica,sans-Serif" font-size="10.00">+ buySalmon()</text>
<text text-anchor="start" x="185.5" y="-200.5" font-family="Helvetica,sans-Serif" font-size="10.00">+ resetAliments()</text>
<text text-anchor="start" x="185.5" y="-189.5" font-family="Helvetica,sans-Serif" font-size="10.00"># Recette()</text>
</g>
<!-- Node2 -->
<g id="node2" class="node"><title>Node2</title>
<g id="a_node2"><a xlink:href="classSuchi_1_1California.html" target="_top" xlink:title="{Suchi.California\n|~ Noori\l~ Roe\l&#45; Rice\l&#45; time\l|+ make()\l+ validate()\l+ make()\l+ validate()\l~ California()\l~ California()\l}">
<polygon fill="none" stroke="black" points="0,-0.5 0,-145.5 86,-145.5 86,-0.5 0,-0.5"/>
<text text-anchor="middle" x="43" y="-133.5" font-family="Helvetica,sans-Serif" font-size="10.00">Suchi.California</text>
<polyline fill="none" stroke="black" points="0,-126.5 86,-126.5 "/>
<text text-anchor="start" x="8" y="-114.5" font-family="Helvetica,sans-Serif" font-size="10.00">~ Noori</text>
<text text-anchor="start" x="8" y="-103.5" font-family="Helvetica,sans-Serif" font-size="10.00">~ Roe</text>
<text text-anchor="start" x="8" y="-92.5" font-family="Helvetica,sans-Serif" font-size="10.00">&#45; Rice</text>
<text text-anchor="start" x="8" y="-81.5" font-family="Helvetica,sans-Serif" font-size="10.00">&#45; time</text>
<polyline fill="none" stroke="black" points="0,-74.5 86,-74.5 "/>
<text text-anchor="start" x="8" y="-62.5" font-family="Helvetica,sans-Serif" font-size="10.00">+ make()</text>
<text text-anchor="start" x="8" y="-51.5" font-family="Helvetica,sans-Serif" font-size="10.00">+ validate()</text>
<text text-anchor="start" x="8" y="-40.5" font-family="Helvetica,sans-Serif" font-size="10.00">+ make()</text>
<text text-anchor="start" x="8" y="-29.5" font-family="Helvetica,sans-Serif" font-size="10.00">+ validate()</text>
<text text-anchor="start" x="8" y="-18.5" font-family="Helvetica,sans-Serif" font-size="10.00">~ California()</text>
<text text-anchor="start" x="8" y="-7.5" font-family="Helvetica,sans-Serif" font-size="10.00">~ California()</text>
</a>
</g>
</g>
<!-- Node1&#45;&gt;Node2 -->
<g id="edge1" class="edge"><title>Node1&#45;&gt;Node2</title>
<path fill="none" stroke="midnightblue" d="M171.924,-290.128C143.159,-245.738 108.094,-189.525 81.7481,-145.556"/>
<polygon fill="none" stroke="midnightblue" points="169.019,-292.08 177.404,-298.557 174.888,-288.265 169.019,-292.08"/>
</g>
<!-- Node1&#45;&gt;Node2 -->
<g id="edge2" class="edge"><title>Node1&#45;&gt;Node2</title>
<path fill="none" stroke="midnightblue" d="M172.008,-270.514C144.844,-225.853 112.04,-173.697 86.2637,-134.344"/>
<polygon fill="none" stroke="midnightblue" points="169.183,-272.606 177.362,-279.34 175.168,-268.975 169.183,-272.606"/>
</g>
<!-- Node3 -->
<g id="node3" class="node"><title>Node3</title>
<g id="a_node3"><a xlink:href="classSuchi_1_1Maki.html" target="_top" xlink:title="{Suchi.Maki\n|~ Noori\l~ Roe\l&#45; Rice\l&#45; time\l|+ make()\l+ validate()\l+ make()\l+ validate()\l~ Maki()\l~ Maki()\l}">
<polygon fill="none" stroke="black" points="104.5,-0.5 104.5,-145.5 169.5,-145.5 169.5,-0.5 104.5,-0.5"/>
<text text-anchor="middle" x="137" y="-133.5" font-family="Helvetica,sans-Serif" font-size="10.00">Suchi.Maki</text>
<polyline fill="none" stroke="black" points="104.5,-126.5 169.5,-126.5 "/>
<text text-anchor="start" x="112.5" y="-114.5" font-family="Helvetica,sans-Serif" font-size="10.00">~ Noori</text>
<text text-anchor="start" x="112.5" y="-103.5" font-family="Helvetica,sans-Serif" font-size="10.00">~ Roe</text>
<text text-anchor="start" x="112.5" y="-92.5" font-family="Helvetica,sans-Serif" font-size="10.00">&#45; Rice</text>
<text text-anchor="start" x="112.5" y="-81.5" font-family="Helvetica,sans-Serif" font-size="10.00">&#45; time</text>
<polyline fill="none" stroke="black" points="104.5,-74.5 169.5,-74.5 "/>
<text text-anchor="start" x="112.5" y="-62.5" font-family="Helvetica,sans-Serif" font-size="10.00">+ make()</text>
<text text-anchor="start" x="112.5" y="-51.5" font-family="Helvetica,sans-Serif" font-size="10.00">+ validate()</text>
<text text-anchor="start" x="112.5" y="-40.5" font-family="Helvetica,sans-Serif" font-size="10.00">+ make()</text>
<text text-anchor="start" x="112.5" y="-29.5" font-family="Helvetica,sans-Serif" font-size="10.00">+ validate()</text>
<text text-anchor="start" x="112.5" y="-18.5" font-family="Helvetica,sans-Serif" font-size="10.00">~ Maki()</text>
<text text-anchor="start" x="112.5" y="-7.5" font-family="Helvetica,sans-Serif" font-size="10.00">~ Maki()</text>
</a>
</g>
</g>
<!-- Node1&#45;&gt;Node3 -->
<g id="edge3" class="edge"><title>Node1&#45;&gt;Node3</title>
<path fill="none" stroke="midnightblue" d="M174.531,-221.598C166.597,-195.217 158.926,-168.721 152.568,-145.605"/>
<polygon fill="none" stroke="midnightblue" points="171.221,-222.746 177.464,-231.306 177.922,-220.721 171.221,-222.746"/>
</g>
<!-- Node1&#45;&gt;Node3 -->
<g id="edge4" class="edge"><title>Node1&#45;&gt;Node3</title>
<path fill="none" stroke="midnightblue" d="M174.469,-177.249C171.048,-166.301 167.675,-155.7 164.435,-145.726"/>
<polygon fill="none" stroke="midnightblue" points="171.175,-178.442 177.487,-186.952 177.86,-176.364 171.175,-178.442"/>
</g>
<!-- Node4 -->
<g id="node4" class="node"><title>Node4</title>
<g id="a_node4"><a xlink:href="classSuchi_1_1Onigiri.html" target="_top" xlink:title="{Suchi.Onigiri\n|~ Noori\l&#45; Rice\l&#45; time\l|+ Onigiri()\l+ make()\l+ validate()\l+ Onigiri()\l+ make()\l+ validate()\l}">
<polygon fill="none" stroke="black" points="188,-6 188,-140 260,-140 260,-6 188,-6"/>
<text text-anchor="middle" x="224" y="-128" font-family="Helvetica,sans-Serif" font-size="10.00">Suchi.Onigiri</text>
<polyline fill="none" stroke="black" points="188,-121 260,-121 "/>
<text text-anchor="start" x="196" y="-109" font-family="Helvetica,sans-Serif" font-size="10.00">~ Noori</text>
<text text-anchor="start" x="196" y="-98" font-family="Helvetica,sans-Serif" font-size="10.00">&#45; Rice</text>
<text text-anchor="start" x="196" y="-87" font-family="Helvetica,sans-Serif" font-size="10.00">&#45; time</text>
<polyline fill="none" stroke="black" points="188,-80 260,-80 "/>
<text text-anchor="start" x="196" y="-68" font-family="Helvetica,sans-Serif" font-size="10.00">+ Onigiri()</text>
<text text-anchor="start" x="196" y="-57" font-family="Helvetica,sans-Serif" font-size="10.00">+ make()</text>
<text text-anchor="start" x="196" y="-46" font-family="Helvetica,sans-Serif" font-size="10.00">+ validate()</text>
<text text-anchor="start" x="196" y="-35" font-family="Helvetica,sans-Serif" font-size="10.00">+ Onigiri()</text>
<text text-anchor="start" x="196" y="-24" font-family="Helvetica,sans-Serif" font-size="10.00">+ make()</text>
<text text-anchor="start" x="196" y="-13" font-family="Helvetica,sans-Serif" font-size="10.00">+ validate()</text>
</a>
</g>
</g>
<!-- Node1&#45;&gt;Node4 -->
<g id="edge5" class="edge"><title>Node1&#45;&gt;Node4</title>
<path fill="none" stroke="midnightblue" d="M217.575,-172.063C217.734,-160.927 217.952,-150.205 218.228,-140.201"/>
<polygon fill="none" stroke="midnightblue" points="214.071,-172.354 217.445,-182.398 221.07,-172.442 214.071,-172.354"/>
</g>
<!-- Node1&#45;&gt;Node4 -->
<g id="edge6" class="edge"><title>Node1&#45;&gt;Node4</title>
<path fill="none" stroke="midnightblue" d="M230.425,-172.063C230.266,-160.927 230.048,-150.205 229.772,-140.201"/>
<polygon fill="none" stroke="midnightblue" points="226.93,-172.442 230.555,-182.398 233.929,-172.354 226.93,-172.442"/>
</g>
<!-- Node5 -->
<g id="node5" class="node"><title>Node5</title>
<g id="a_node5"><a xlink:href="classSuchi_1_1Salmon.html" target="_top" xlink:title="{Suchi.Salmon\n|~ Noori\l~ Saumon\l&#45; Rice\l&#45; time\l|+ make()\l+ validate()\l+ make()\l+ validate()\l~ Salmon()\l~ Salmon()\l}">
<polygon fill="none" stroke="black" points="278.5,-0.5 278.5,-145.5 355.5,-145.5 355.5,-0.5 278.5,-0.5"/>
<text text-anchor="middle" x="317" y="-133.5" font-family="Helvetica,sans-Serif" font-size="10.00">Suchi.Salmon</text>
<polyline fill="none" stroke="black" points="278.5,-126.5 355.5,-126.5 "/>
<text text-anchor="start" x="286.5" y="-114.5" font-family="Helvetica,sans-Serif" font-size="10.00">~ Noori</text>
<text text-anchor="start" x="286.5" y="-103.5" font-family="Helvetica,sans-Serif" font-size="10.00">~ Saumon</text>
<text text-anchor="start" x="286.5" y="-92.5" font-family="Helvetica,sans-Serif" font-size="10.00">&#45; Rice</text>
<text text-anchor="start" x="286.5" y="-81.5" font-family="Helvetica,sans-Serif" font-size="10.00">&#45; time</text>
<polyline fill="none" stroke="black" points="278.5,-74.5 355.5,-74.5 "/>
<text text-anchor="start" x="286.5" y="-62.5" font-family="Helvetica,sans-Serif" font-size="10.00">+ make()</text>
<text text-anchor="start" x="286.5" y="-51.5" font-family="Helvetica,sans-Serif" font-size="10.00">+ validate()</text>
<text text-anchor="start" x="286.5" y="-40.5" font-family="Helvetica,sans-Serif" font-size="10.00">+ make()</text>
<text text-anchor="start" x="286.5" y="-29.5" font-family="Helvetica,sans-Serif" font-size="10.00">+ validate()</text>
<text text-anchor="start" x="286.5" y="-18.5" font-family="Helvetica,sans-Serif" font-size="10.00">~ Salmon()</text>
<text text-anchor="start" x="286.5" y="-7.5" font-family="Helvetica,sans-Serif" font-size="10.00">~ Salmon()</text>
</a>
</g>
</g>
<!-- Node1&#45;&gt;Node5 -->
<g id="edge7" class="edge"><title>Node1&#45;&gt;Node5</title>
<path fill="none" stroke="midnightblue" d="M273.812,-188.055C278.688,-173.271 283.516,-158.938 288.087,-145.709"/>
<polygon fill="none" stroke="midnightblue" points="270.398,-187.234 270.604,-197.827 277.049,-189.418 270.398,-187.234"/>
</g>
<!-- Node1&#45;&gt;Node5 -->
<g id="edge8" class="edge"><title>Node1&#45;&gt;Node5</title>
<path fill="none" stroke="midnightblue" d="M273.729,-229.926C283.139,-200.866 292.375,-171.217 299.927,-145.685"/>
<polygon fill="none" stroke="midnightblue" points="270.298,-229.16 270.533,-239.752 276.955,-231.325 270.298,-229.16"/>
</g>
<!-- Node6 -->
<g id="node6" class="node"><title>Node6</title>
<g id="a_node6"><a xlink:href="classSuchi_1_1ShrimpSh.html" target="_top" xlink:title="{Suchi.ShrimpSh\n||+ ShrimpSh()\l+ make()\l+ validate()\l}">
<polygon fill="none" stroke="black" points="373.5,-33.5 373.5,-112.5 460.5,-112.5 460.5,-33.5 373.5,-33.5"/>
<text text-anchor="middle" x="417" y="-100.5" font-family="Helvetica,sans-Serif" font-size="10.00">Suchi.ShrimpSh</text>
<polyline fill="none" stroke="black" points="373.5,-93.5 460.5,-93.5 "/>
<text text-anchor="middle" x="417" y="-81.5" font-family="Helvetica,sans-Serif" font-size="10.00"> </text>
<polyline fill="none" stroke="black" points="373.5,-74.5 460.5,-74.5 "/>
<text text-anchor="start" x="381.5" y="-62.5" font-family="Helvetica,sans-Serif" font-size="10.00">+ ShrimpSh()</text>
<text text-anchor="start" x="381.5" y="-51.5" font-family="Helvetica,sans-Serif" font-size="10.00">+ make()</text>
<text text-anchor="start" x="381.5" y="-40.5" font-family="Helvetica,sans-Serif" font-size="10.00">+ validate()</text>
</a>
</g>
</g>
<!-- Node1&#45;&gt;Node6 -->
<g id="edge9" class="edge"><title>Node1&#45;&gt;Node6</title>
<path fill="none" stroke="midnightblue" d="M276.356,-285.33C313.554,-229.438 361.905,-156.785 391.137,-112.861"/>
<polygon fill="none" stroke="midnightblue" points="273.347,-283.535 270.72,-293.799 279.174,-287.413 273.347,-283.535"/>
</g>
</g>
</svg>
