<?xml version="1.0" encoding="UTF-8" standalone="no"?>
<!DOCTYPE svg PUBLIC "-//W3C//DTD SVG 1.1//EN"
 "http://www.w3.org/Graphics/SVG/1.1/DTD/svg11.dtd">
<!-- Generated by graphviz version 2.38.0 (20140413.2041)
 -->
<!-- Title: Sushis.src.Screen Pages: 1 -->
<svg width="179pt" height="270pt"
 viewBox="0.00 0.00 179.00 270.00" xmlns="http://www.w3.org/2000/svg" xmlns:xlink="http://www.w3.org/1999/xlink">
<g id="graph0" class="graph" transform="scale(1 1) rotate(0) translate(4 266)">
<title>Sushis.src.Screen</title>
<!-- Node1 -->
<g id="node1" class="node"><title>Node1</title>
<polygon fill="#bfbfbf" stroke="black" points="25,-0.5 25,-145.5 133,-145.5 133,-0.5 25,-0.5"/>
<text text-anchor="middle" x="79" y="-133.5" font-family="Helvetica,sans-Serif" font-size="10.00">Sushis.src.Screen</text>
<polyline fill="none" stroke="black" points="25,-126.5 133,-126.5 "/>
<text text-anchor="middle" x="79" y="-114.5" font-family="Helvetica,sans-Serif" font-size="10.00"> </text>
<polyline fill="none" stroke="black" points="25,-107.5 133,-107.5 "/>
<text text-anchor="start" x="33" y="-95.5" font-family="Helvetica,sans-Serif" font-size="10.00">+ Screen()</text>
<text text-anchor="start" x="33" y="-84.5" font-family="Helvetica,sans-Serif" font-size="10.00">+ saveImage()</text>
<text text-anchor="start" x="33" y="-73.5" font-family="Helvetica,sans-Serif" font-size="10.00">+ lookHorizontal()</text>
<text text-anchor="start" x="33" y="-62.5" font-family="Helvetica,sans-Serif" font-size="10.00">+ lookVertical()</text>
<text text-anchor="start" x="33" y="-51.5" font-family="Helvetica,sans-Serif" font-size="10.00">+ getImg()</text>
<text text-anchor="start" x="33" y="-40.5" font-family="Helvetica,sans-Serif" font-size="10.00">+ getDepartGauche()</text>
<text text-anchor="start" x="33" y="-29.5" font-family="Helvetica,sans-Serif" font-size="10.00">+ getDepartDroit()</text>
<text text-anchor="start" x="33" y="-18.5" font-family="Helvetica,sans-Serif" font-size="10.00">+ getGameArea()</text>
<text text-anchor="start" x="33" y="-7.5" font-family="Helvetica,sans-Serif" font-size="10.00">+ saveGameArea()</text>
</g>
<!-- Node2 -->
<g id="node2" class="node"><title>Node2</title>
<polygon fill="none" stroke="#bfbfbf" points="0,-204.5 0,-261.5 80,-261.5 80,-204.5 0,-204.5"/>
<text text-anchor="middle" x="40" y="-249.5" font-family="Helvetica,sans-Serif" font-size="10.00">BufferedImage</text>
<polyline fill="none" stroke="#bfbfbf" points="0,-242.5 80,-242.5 "/>
<text text-anchor="middle" x="40" y="-230.5" font-family="Helvetica,sans-Serif" font-size="10.00"> </text>
<polyline fill="none" stroke="#bfbfbf" points="0,-223.5 80,-223.5 "/>
<text text-anchor="middle" x="40" y="-211.5" font-family="Helvetica,sans-Serif" font-size="10.00"> </text>
</g>
<!-- Node2&#45;&gt;Node1 -->
<g id="edge1" class="edge"><title>Node2&#45;&gt;Node1</title>
<path fill="none" stroke="#404040" d="M46.7933,-204.479C50.0737,-191.189 54.2038,-174.456 58.402,-157.448"/>
<polygon fill="none" stroke="#404040" points="58.4339,-157.319 55.9884,-150.535 61.3097,-145.668 63.7553,-152.452 58.4339,-157.319"/>
<text text-anchor="middle" x="68" y="-172.5" font-family="Helvetica,sans-Serif" font-size="10.00"> &#45;img</text>
</g>
<!-- Node3 -->
<g id="node3" class="node"><title>Node3</title>
<polygon fill="none" stroke="#bfbfbf" points="98.5,-204.5 98.5,-261.5 137.5,-261.5 137.5,-204.5 98.5,-204.5"/>
<text text-anchor="middle" x="118" y="-249.5" font-family="Helvetica,sans-Serif" font-size="10.00">Point</text>
<polyline fill="none" stroke="#bfbfbf" points="98.5,-242.5 137.5,-242.5 "/>
<text text-anchor="middle" x="118" y="-230.5" font-family="Helvetica,sans-Serif" font-size="10.00"> </text>
<polyline fill="none" stroke="#bfbfbf" points="98.5,-223.5 137.5,-223.5 "/>
<text text-anchor="middle" x="118" y="-211.5" font-family="Helvetica,sans-Serif" font-size="10.00"> </text>
</g>
<!-- Node3&#45;&gt;Node1 -->
<g id="edge2" class="edge"><title>Node3&#45;&gt;Node1</title>
<path fill="none" stroke="#404040" d="M111.207,-204.479C107.926,-191.189 103.796,-174.456 99.598,-157.448"/>
<polygon fill="none" stroke="#404040" points="99.5661,-157.319 94.2447,-152.452 96.6903,-145.668 102.012,-150.535 99.5661,-157.319"/>
<text text-anchor="middle" x="139" y="-178" font-family="Helvetica,sans-Serif" font-size="10.00"> &#45;departDroit</text>
<text text-anchor="middle" x="139" y="-167" font-family="Helvetica,sans-Serif" font-size="10.00">&#45;departGauche</text>
</g>
</g>
</svg>
