<?xml version="1.0" encoding="UTF-8" standalone="no"?>
<!DOCTYPE svg PUBLIC "-//W3C//DTD SVG 1.1//EN"
 "http://www.w3.org/Graphics/SVG/1.1/DTD/svg11.dtd">
<!-- Generated by graphviz version 2.38.0 (20140413.2041)
 -->
<!-- Title: TestSushi.src.Suchi.ScreenMouse Pages: 1 -->
<svg width="157pt" height="182pt"
 viewBox="0.00 0.00 157.00 182.00" xmlns="http://www.w3.org/2000/svg" xmlns:xlink="http://www.w3.org/1999/xlink">
<g id="graph0" class="graph" transform="scale(1 1) rotate(0) translate(4 178)">
<title>TestSushi.src.Suchi.ScreenMouse</title>
<!-- Node1 -->
<g id="node1" class="node"><title>Node1</title>
<polygon fill="#bfbfbf" stroke="black" points="0,-0.5 0,-79.5 139,-79.5 139,-0.5 0,-0.5"/>
<text text-anchor="start" x="8" y="-67.5" font-family="Helvetica,sans-Serif" font-size="10.00">TestSushi.src.Suchi.Screen</text>
<text text-anchor="middle" x="69.5" y="-56.5" font-family="Helvetica,sans-Serif" font-size="10.00">Mouse</text>
<polyline fill="none" stroke="black" points="0,-49.5 139,-49.5 "/>
<text text-anchor="middle" x="69.5" y="-37.5" font-family="Helvetica,sans-Serif" font-size="10.00"> </text>
<polyline fill="none" stroke="black" points="0,-30.5 139,-30.5 "/>
<text text-anchor="start" x="8" y="-18.5" font-family="Helvetica,sans-Serif" font-size="10.00">+ actionPerformed()</text>
<text text-anchor="start" x="8" y="-7.5" font-family="Helvetica,sans-Serif" font-size="10.00">+ init()</text>
</g>
<!-- Node2 -->
<g id="node2" class="node"><title>Node2</title>
<polygon fill="none" stroke="#bfbfbf" points="8.5,-116.5 8.5,-173.5 52.5,-173.5 52.5,-116.5 8.5,-116.5"/>
<text text-anchor="middle" x="30.5" y="-161.5" font-family="Helvetica,sans-Serif" font-size="10.00">Applet</text>
<polyline fill="none" stroke="#bfbfbf" points="8.5,-154.5 52.5,-154.5 "/>
<text text-anchor="middle" x="30.5" y="-142.5" font-family="Helvetica,sans-Serif" font-size="10.00"> </text>
<polyline fill="none" stroke="#bfbfbf" points="8.5,-135.5 52.5,-135.5 "/>
<text text-anchor="middle" x="30.5" y="-123.5" font-family="Helvetica,sans-Serif" font-size="10.00"> </text>
</g>
<!-- Node2&#45;&gt;Node1 -->
<g id="edge1" class="edge"><title>Node2&#45;&gt;Node1</title>
<path fill="none" stroke="midnightblue" d="M44.5047,-107.013C47.886,-98.0832 51.5074,-88.519 54.9146,-79.5205"/>
<polygon fill="none" stroke="midnightblue" points="41.2192,-105.806 40.9513,-116.398 47.7656,-108.285 41.2192,-105.806"/>
</g>
<!-- Node3 -->
<g id="node3" class="node"><title>Node3</title>
<polygon fill="none" stroke="#bfbfbf" points="70,-116.5 70,-173.5 149,-173.5 149,-116.5 70,-116.5"/>
<text text-anchor="middle" x="109.5" y="-161.5" font-family="Helvetica,sans-Serif" font-size="10.00">ActionListener</text>
<polyline fill="none" stroke="#bfbfbf" points="70,-154.5 149,-154.5 "/>
<text text-anchor="middle" x="109.5" y="-142.5" font-family="Helvetica,sans-Serif" font-size="10.00"> </text>
<polyline fill="none" stroke="#bfbfbf" points="70,-135.5 149,-135.5 "/>
<text text-anchor="middle" x="109.5" y="-123.5" font-family="Helvetica,sans-Serif" font-size="10.00"> </text>
</g>
<!-- Node3&#45;&gt;Node1 -->
<g id="edge2" class="edge"><title>Node3&#45;&gt;Node1</title>
<path fill="none" stroke="midnightblue" d="M95.1362,-107.013C91.6682,-98.0832 87.954,-88.519 84.4594,-79.5205"/>
<polygon fill="none" stroke="midnightblue" points="91.898,-108.343 98.7807,-116.398 98.4232,-105.809 91.898,-108.343"/>
</g>
</g>
</svg>
