<?xml version="1.0" encoding="UTF-8" standalone="no"?>
<!DOCTYPE svg PUBLIC "-//W3C//DTD SVG 1.1//EN"
 "http://www.w3.org/Graphics/SVG/1.1/DTD/svg11.dtd">
<!-- Generated by graphviz version 2.38.0 (20140413.2041)
 -->
<!-- Title: Manager Pages: 1 -->
<!--zoomable 922 -->
<svg id="main" version="1.1" xmlns="http://www.w3.org/2000/svg" xmlns:xlink="http://www.w3.org/1999/xlink" xml:space="preserve" onload="init(evt)">
<style type="text/css"><![CDATA[
.edge:hover path { stroke: red; }
.edge:hover polygon { stroke: red; fill: red; }
]]></style>
<script type="text/javascript"><![CDATA[
var edges = document.getElementsByTagName('g');
if (edges && edges.length) {
  for (var i=0;i<edges.length;i++) {
    if (edges[i].id.substr(0,4)=='edge') {
      edges[i].setAttribute('class','edge');
    }
  }
}
]]></script>
        <defs>
                <circle id="rim" cx="0" cy="0" r="7"/>
                <circle id="rim2" cx="0" cy="0" r="3.5"/>
                <g id="zoomPlus">
                        <use xlink:href="#rim" fill="#404040">
                                <set attributeName="fill" to="#808080" begin="zoomplus.mouseover" end="zoomplus.mouseout"/>
                        </use>
                        <path d="M-4,0h8M0,-4v8" fill="none" stroke="white" stroke-width="1.5" pointer-events="none"/>
                </g>
                <g id="zoomMin">
                        <use xlink:href="#rim" fill="#404040">
                                <set attributeName="fill" to="#808080" begin="zoomminus.mouseover" end="zoomminus.mouseout"/>
                        </use>
                        <path d="M-4,0h8" fill="none" stroke="white" stroke-width="1.5" pointer-events="none"/>
                </g>
                <g id="dirArrow">
                        <path fill="none" stroke="white" stroke-width="1.5" d="M0,-3.0v7 M-2.5,-0.5L0,-3.0L2.5,-0.5"/>
                </g>
               <g id="resetDef">
                       <use xlink:href="#rim2" fill="#404040">
                               <set attributeName="fill" to="#808080" begin="reset.mouseover" end="reset.mouseout"/>
                       </use>
               </g>
        </defs>

<script type="text/javascript">
var viewWidth = 920;
var viewHeight = 922;
var sectionId = 'dynsection-0';
</script>
<script xlink:href="svgpan.js"/>
<svg id="graph" class="graph">
<g id="viewport">
<title>Manager</title>
<!-- Node1 -->
<g id="node1" class="node"><title>Node1</title>
<polygon fill="#bfbfbf" stroke="black" points="348,-533.5 348,-645.5 446,-645.5 446,-533.5 348,-533.5"/>
<text text-anchor="middle" x="397" y="-633.5" font-family="Helvetica,sans-Serif" font-size="10.00">Manager</text>
<polyline fill="none" stroke="black" points="348,-626.5 446,-626.5 "/>
<text text-anchor="start" x="356" y="-614.5" font-family="Helvetica,sans-Serif" font-size="10.00">&#45; cash</text>
<text text-anchor="start" x="356" y="-603.5" font-family="Helvetica,sans-Serif" font-size="10.00">&#45; cashPile</text>
<text text-anchor="start" x="356" y="-592.5" font-family="Helvetica,sans-Serif" font-size="10.00">&#45; bar</text>
<polyline fill="none" stroke="black" points="348,-585.5 446,-585.5 "/>
<text text-anchor="start" x="356" y="-573.5" font-family="Helvetica,sans-Serif" font-size="10.00">+ Manager()</text>
<text text-anchor="start" x="356" y="-562.5" font-family="Helvetica,sans-Serif" font-size="10.00">+ CheckBar()</text>
<text text-anchor="start" x="356" y="-551.5" font-family="Helvetica,sans-Serif" font-size="10.00">+ buyComponent()</text>
<text text-anchor="start" x="356" y="-540.5" font-family="Helvetica,sans-Serif" font-size="10.00">&#45; makeSushi()</text>
</g>
<!-- Node3 -->
<g id="node3" class="node"><title>Node3</title>
<g id="a_node3"><a xlink:href="classToolBox.html" target="_top" xlink:title="{ToolBox\n|~ terminate\l&#45; w\l&#45; h\l&#45; countScreen\l&#45; serialVersionUID\l|+ ToolBox()\l+ ToolBox()\l+ Capture()\l+ CaptureGame()\l+ Launch()\l+ Run()\l+ Serve()\l+ actionPerformed()\l+ clicBar()\l}">
<polygon fill="none" stroke="black" points="557.5,-216.5 557.5,-405.5 660.5,-405.5 660.5,-216.5 557.5,-216.5"/>
<text text-anchor="middle" x="609" y="-393.5" font-family="Helvetica,sans-Serif" font-size="10.00">ToolBox</text>
<polyline fill="none" stroke="black" points="557.5,-386.5 660.5,-386.5 "/>
<text text-anchor="start" x="565.5" y="-374.5" font-family="Helvetica,sans-Serif" font-size="10.00">~ terminate</text>
<text text-anchor="start" x="565.5" y="-363.5" font-family="Helvetica,sans-Serif" font-size="10.00">&#45; w</text>
<text text-anchor="start" x="565.5" y="-352.5" font-family="Helvetica,sans-Serif" font-size="10.00">&#45; h</text>
<text text-anchor="start" x="565.5" y="-341.5" font-family="Helvetica,sans-Serif" font-size="10.00">&#45; countScreen</text>
<text text-anchor="start" x="565.5" y="-330.5" font-family="Helvetica,sans-Serif" font-size="10.00">&#45; serialVersionUID</text>
<polyline fill="none" stroke="black" points="557.5,-323.5 660.5,-323.5 "/>
<text text-anchor="start" x="565.5" y="-311.5" font-family="Helvetica,sans-Serif" font-size="10.00">+ ToolBox()</text>
<text text-anchor="start" x="565.5" y="-300.5" font-family="Helvetica,sans-Serif" font-size="10.00">+ ToolBox()</text>
<text text-anchor="start" x="565.5" y="-289.5" font-family="Helvetica,sans-Serif" font-size="10.00">+ Capture()</text>
<text text-anchor="start" x="565.5" y="-278.5" font-family="Helvetica,sans-Serif" font-size="10.00">+ CaptureGame()</text>
<text text-anchor="start" x="565.5" y="-267.5" font-family="Helvetica,sans-Serif" font-size="10.00">+ Launch()</text>
<text text-anchor="start" x="565.5" y="-256.5" font-family="Helvetica,sans-Serif" font-size="10.00">+ Run()</text>
<text text-anchor="start" x="565.5" y="-245.5" font-family="Helvetica,sans-Serif" font-size="10.00">+ Serve()</text>
<text text-anchor="start" x="565.5" y="-234.5" font-family="Helvetica,sans-Serif" font-size="10.00">+ actionPerformed()</text>
<text text-anchor="start" x="565.5" y="-223.5" font-family="Helvetica,sans-Serif" font-size="10.00">+ clicBar()</text>
</a>
</g>
</g>
<!-- Node1&#45;&gt;Node3 -->
<g id="edge9" class="edge"><title>Node1&#45;&gt;Node3</title>
<path fill="none" stroke="#404040" d="M415.779,-533.284C428.869,-499.639 448.545,-456.933 474,-424 494.552,-397.411 522.47,-372.934 547.585,-353.688"/>
<polygon fill="none" stroke="#404040" points="547.819,-353.513 550.215,-346.712 557.415,-346.308 555.019,-353.11 547.819,-353.513"/>
<text text-anchor="middle" x="496" y="-467" font-family="Helvetica,sans-Serif" font-size="10.00"> &#45;manager</text>
</g>
<!-- Node2 -->
<g id="node2" class="node"><title>Node2</title>
<g id="a_node2"><a xlink:href="classIA.html" target="_top" xlink:title="{IA\n|+ xOr\l+ yOr\l&#45; width\l&#45; height\l&#45; serialVersionUID\l&#45; spriteCount\l|+ IA()\l+ click()\l+ initiateGame()\l+ getZone()\l+ saveSprites()\l+ loadSprites()\l+ getSushi()\l}">
<polygon fill="none" stroke="black" points="271.5,-0.5 271.5,-178.5 368.5,-178.5 368.5,-0.5 271.5,-0.5"/>
<text text-anchor="middle" x="320" y="-166.5" font-family="Helvetica,sans-Serif" font-size="10.00">IA</text>
<polyline fill="none" stroke="black" points="271.5,-159.5 368.5,-159.5 "/>
<text text-anchor="start" x="279.5" y="-147.5" font-family="Helvetica,sans-Serif" font-size="10.00">+ xOr</text>
<text text-anchor="start" x="279.5" y="-136.5" font-family="Helvetica,sans-Serif" font-size="10.00">+ yOr</text>
<text text-anchor="start" x="279.5" y="-125.5" font-family="Helvetica,sans-Serif" font-size="10.00">&#45; width</text>
<text text-anchor="start" x="279.5" y="-114.5" font-family="Helvetica,sans-Serif" font-size="10.00">&#45; height</text>
<text text-anchor="start" x="279.5" y="-103.5" font-family="Helvetica,sans-Serif" font-size="10.00">&#45; serialVersionUID</text>
<text text-anchor="start" x="279.5" y="-92.5" font-family="Helvetica,sans-Serif" font-size="10.00">&#45; spriteCount</text>
<polyline fill="none" stroke="black" points="271.5,-85.5 368.5,-85.5 "/>
<text text-anchor="start" x="279.5" y="-73.5" font-family="Helvetica,sans-Serif" font-size="10.00">+ IA()</text>
<text text-anchor="start" x="279.5" y="-62.5" font-family="Helvetica,sans-Serif" font-size="10.00">+ click()</text>
<text text-anchor="start" x="279.5" y="-51.5" font-family="Helvetica,sans-Serif" font-size="10.00">+ initiateGame()</text>
<text text-anchor="start" x="279.5" y="-40.5" font-family="Helvetica,sans-Serif" font-size="10.00">+ getZone()</text>
<text text-anchor="start" x="279.5" y="-29.5" font-family="Helvetica,sans-Serif" font-size="10.00">+ saveSprites()</text>
<text text-anchor="start" x="279.5" y="-18.5" font-family="Helvetica,sans-Serif" font-size="10.00">+ loadSprites()</text>
<text text-anchor="start" x="279.5" y="-7.5" font-family="Helvetica,sans-Serif" font-size="10.00">+ getSushi()</text>
</a>
</g>
</g>
<!-- Node2&#45;&gt;Node1 -->
<g id="edge1" class="edge"><title>Node2&#45;&gt;Node1</title>
<path fill="none" stroke="#404040" d="M348.183,-178.793C351.512,-191.2 354.579,-203.859 357,-216 378.056,-321.588 388.606,-446.374 393.433,-521.382"/>
<polygon fill="none" stroke="#404040" points="393.438,-521.458 397.805,-527.197 394.187,-533.435 389.82,-527.696 393.438,-521.458"/>
<text text-anchor="middle" x="391" y="-308.5" font-family="Helvetica,sans-Serif" font-size="10.00"> &#45;ia</text>
</g>
<!-- Node3&#45;&gt;Node2 -->
<g id="edge2" class="edge"><title>Node3&#45;&gt;Node2</title>
<path fill="none" stroke="midnightblue" d="M549.305,-264.661C495.907,-224.104 418.597,-165.386 368.813,-127.574"/>
<polygon fill="none" stroke="midnightblue" points="547.252,-267.497 557.333,-270.758 551.486,-261.922 547.252,-267.497"/>
</g>
<!-- Node4 -->
<g id="node4" class="node"><title>Node4</title>
<polygon fill="none" stroke="#bfbfbf" points="464,-561 464,-618 514,-618 514,-561 464,-561"/>
<text text-anchor="middle" x="489" y="-606" font-family="Helvetica,sans-Serif" font-size="10.00">JFrame</text>
<polyline fill="none" stroke="#bfbfbf" points="464,-599 514,-599 "/>
<text text-anchor="middle" x="489" y="-587" font-family="Helvetica,sans-Serif" font-size="10.00"> </text>
<polyline fill="none" stroke="#bfbfbf" points="464,-580 514,-580 "/>
<text text-anchor="middle" x="489" y="-568" font-family="Helvetica,sans-Serif" font-size="10.00"> </text>
</g>
<!-- Node4&#45;&gt;Node3 -->
<g id="edge3" class="edge"><title>Node4&#45;&gt;Node3</title>
<path fill="none" stroke="midnightblue" d="M505.033,-551.558C521.156,-514.408 546.669,-455.622 568.385,-405.583"/>
<polygon fill="none" stroke="midnightblue" points="501.715,-550.41 500.945,-560.977 508.137,-553.197 501.715,-550.41"/>
</g>
<!-- Node5 -->
<g id="node5" class="node"><title>Node5</title>
<polygon fill="none" stroke="#bfbfbf" points="532.5,-561 532.5,-618 611.5,-618 611.5,-561 532.5,-561"/>
<text text-anchor="middle" x="572" y="-606" font-family="Helvetica,sans-Serif" font-size="10.00">ActionListener</text>
<polyline fill="none" stroke="#bfbfbf" points="532.5,-599 611.5,-599 "/>
<text text-anchor="middle" x="572" y="-587" font-family="Helvetica,sans-Serif" font-size="10.00"> </text>
<polyline fill="none" stroke="#bfbfbf" points="532.5,-580 611.5,-580 "/>
<text text-anchor="middle" x="572" y="-568" font-family="Helvetica,sans-Serif" font-size="10.00"> </text>
</g>
<!-- Node5&#45;&gt;Node3 -->
<g id="edge4" class="edge"><title>Node5&#45;&gt;Node3</title>
<path fill="none" stroke="midnightblue" d="M577.071,-550.605C582.048,-513.408 589.838,-455.196 596.477,-405.583"/>
<polygon fill="none" stroke="midnightblue" points="573.54,-550.601 575.683,-560.977 580.478,-551.53 573.54,-550.601"/>
</g>
<!-- Node6 -->
<g id="node6" class="node"><title>Node6</title>
<polygon fill="none" stroke="#bfbfbf" points="630,-561 630,-618 680,-618 680,-561 630,-561"/>
<text text-anchor="middle" x="655" y="-606" font-family="Helvetica,sans-Serif" font-size="10.00">JButton</text>
<polyline fill="none" stroke="#bfbfbf" points="630,-599 680,-599 "/>
<text text-anchor="middle" x="655" y="-587" font-family="Helvetica,sans-Serif" font-size="10.00"> </text>
<polyline fill="none" stroke="#bfbfbf" points="630,-580 680,-580 "/>
<text text-anchor="middle" x="655" y="-568" font-family="Helvetica,sans-Serif" font-size="10.00"> </text>
</g>
<!-- Node6&#45;&gt;Node3 -->
<g id="edge5" class="edge"><title>Node6&#45;&gt;Node3</title>
<path fill="none" stroke="#404040" d="M650.421,-560.977C644.866,-527.585 635.173,-469.321 626.56,-417.549"/>
<polygon fill="none" stroke="#404040" points="626.538,-417.42 621.608,-412.158 624.569,-405.583 629.499,-410.845 626.538,-417.42"/>
<text text-anchor="middle" x="670.5" y="-500" font-family="Helvetica,sans-Serif" font-size="10.00"> &#45;launch</text>
<text text-anchor="middle" x="670.5" y="-489" font-family="Helvetica,sans-Serif" font-size="10.00">&#45;detect</text>
<text text-anchor="middle" x="670.5" y="-478" font-family="Helvetica,sans-Serif" font-size="10.00">&#45;saveSprites</text>
<text text-anchor="middle" x="670.5" y="-467" font-family="Helvetica,sans-Serif" font-size="10.00">&#45;snap</text>
<text text-anchor="middle" x="670.5" y="-456" font-family="Helvetica,sans-Serif" font-size="10.00">&#45;makeSushi</text>
<text text-anchor="middle" x="670.5" y="-445" font-family="Helvetica,sans-Serif" font-size="10.00">&#45;startBot</text>
<text text-anchor="middle" x="670.5" y="-434" font-family="Helvetica,sans-Serif" font-size="10.00">&#45;Auto</text>
</g>
<!-- Node7 -->
<g id="node7" class="node"><title>Node7</title>
<polygon fill="none" stroke="#bfbfbf" points="698.5,-561 698.5,-618 751.5,-618 751.5,-561 698.5,-561"/>
<text text-anchor="middle" x="725" y="-606" font-family="Helvetica,sans-Serif" font-size="10.00">Scanner</text>
<polyline fill="none" stroke="#bfbfbf" points="698.5,-599 751.5,-599 "/>
<text text-anchor="middle" x="725" y="-587" font-family="Helvetica,sans-Serif" font-size="10.00"> </text>
<polyline fill="none" stroke="#bfbfbf" points="698.5,-580 751.5,-580 "/>
<text text-anchor="middle" x="725" y="-568" font-family="Helvetica,sans-Serif" font-size="10.00"> </text>
</g>
<!-- Node7&#45;&gt;Node3 -->
<g id="edge6" class="edge"><title>Node7&#45;&gt;Node3</title>
<path fill="none" stroke="#404040" d="M725.665,-560.759C725.472,-527.01 721.866,-468.975 702,-424 693.797,-405.429 681.585,-387.485 668.688,-371.603"/>
<polygon fill="none" stroke="#404040" points="668.327,-371.174 661.402,-369.16 660.599,-361.994 667.523,-364.008 668.327,-371.174"/>
<text text-anchor="middle" x="737" y="-467" font-family="Helvetica,sans-Serif" font-size="10.00"> &#45;scan</text>
</g>
<!-- Node8 -->
<g id="node8" class="node"><title>Node8</title>
<polygon fill="none" stroke="#bfbfbf" points="770,-561 770,-618 832,-618 832,-561 770,-561"/>
<text text-anchor="middle" x="801" y="-606" font-family="Helvetica,sans-Serif" font-size="10.00">JTextField</text>
<polyline fill="none" stroke="#bfbfbf" points="770,-599 832,-599 "/>
<text text-anchor="middle" x="801" y="-587" font-family="Helvetica,sans-Serif" font-size="10.00"> </text>
<polyline fill="none" stroke="#bfbfbf" points="770,-580 832,-580 "/>
<text text-anchor="middle" x="801" y="-568" font-family="Helvetica,sans-Serif" font-size="10.00"> </text>
</g>
<!-- Node8&#45;&gt;Node3 -->
<g id="edge7" class="edge"><title>Node8&#45;&gt;Node3</title>
<path fill="none" stroke="#404040" d="M798.656,-560.939C794.578,-526.334 783.653,-466.376 755,-424 733.551,-392.278 700.179,-365.707 670.752,-346.419"/>
<polygon fill="none" stroke="#404040" points="670.652,-346.355 663.442,-346.502 660.534,-339.904 667.743,-339.757 670.652,-346.355"/>
<text text-anchor="middle" x="800" y="-467" font-family="Helvetica,sans-Serif" font-size="10.00"> &#45;txt</text>
</g>
<!-- Node9 -->
<g id="node9" class="node"><title>Node9</title>
<polygon fill="none" stroke="#bfbfbf" points="850.5,-561 850.5,-618 911.5,-618 911.5,-561 850.5,-561"/>
<text text-anchor="middle" x="881" y="-606" font-family="Helvetica,sans-Serif" font-size="10.00">Rectangle</text>
<polyline fill="none" stroke="#bfbfbf" points="850.5,-599 911.5,-599 "/>
<text text-anchor="middle" x="881" y="-587" font-family="Helvetica,sans-Serif" font-size="10.00"> </text>
<polyline fill="none" stroke="#bfbfbf" points="850.5,-580 911.5,-580 "/>
<text text-anchor="middle" x="881" y="-568" font-family="Helvetica,sans-Serif" font-size="10.00"> </text>
</g>
<!-- Node9&#45;&gt;Node3 -->
<g id="edge8" class="edge"><title>Node9&#45;&gt;Node3</title>
<path fill="none" stroke="#404040" d="M875.51,-560.703C867.288,-525.302 848.769,-463.941 813,-424 774.815,-381.36 716.419,-351.615 671.875,-333.55"/>
<polygon fill="none" stroke="#404040" points="671.744,-333.498 664.695,-335.019 660.58,-329.097 667.629,-327.576 671.744,-333.498"/>
<text text-anchor="middle" x="872" y="-467" font-family="Helvetica,sans-Serif" font-size="10.00"> +ga</text>
</g>
<!-- Node10 -->
<g id="node10" class="node"><title>Node10</title>
<polygon fill="none" stroke="#bfbfbf" points="0,-664.5 0,-732.5 134,-732.5 134,-664.5 0,-664.5"/>
<text text-anchor="start" x="8" y="-720.5" font-family="Helvetica,sans-Serif" font-size="10.00">HashMap&lt; BufferedImage,</text>
<text text-anchor="middle" x="67" y="-709.5" font-family="Helvetica,sans-Serif" font-size="10.00"> String &gt;</text>
<polyline fill="none" stroke="#bfbfbf" points="0,-702.5 134,-702.5 "/>
<text text-anchor="middle" x="67" y="-690.5" font-family="Helvetica,sans-Serif" font-size="10.00"> </text>
<polyline fill="none" stroke="#bfbfbf" points="0,-683.5 134,-683.5 "/>
<text text-anchor="middle" x="67" y="-671.5" font-family="Helvetica,sans-Serif" font-size="10.00"> </text>
</g>
<!-- Node10&#45;&gt;Node2 -->
<g id="edge10" class="edge"><title>Node10&#45;&gt;Node2</title>
<path fill="none" stroke="#404040" d="M63.1338,-664.461C58.2047,-611.974 53.3327,-506.992 81,-424 117.771,-313.701 204.81,-208.479 263.069,-146.698"/>
<polygon fill="none" stroke="#404040" points="263.17,-146.592 264.412,-139.488 271.446,-137.902 270.205,-145.006 263.17,-146.592"/>
<text text-anchor="middle" x="118.5" y="-467" font-family="Helvetica,sans-Serif" font-size="10.00"> &#45;sushiReference</text>
</g>
<!-- Node11 -->
<g id="node11" class="node"><title>Node11</title>
<polygon fill="none" stroke="#bfbfbf" points="234.5,-856.5 234.5,-913.5 293.5,-913.5 293.5,-856.5 234.5,-856.5"/>
<text text-anchor="middle" x="264" y="-901.5" font-family="Helvetica,sans-Serif" font-size="10.00">HashMap</text>
<polyline fill="none" stroke="#bfbfbf" points="234.5,-894.5 293.5,-894.5 "/>
<text text-anchor="middle" x="264" y="-882.5" font-family="Helvetica,sans-Serif" font-size="10.00"> </text>
<polyline fill="none" stroke="#bfbfbf" points="234.5,-875.5 293.5,-875.5 "/>
<text text-anchor="middle" x="264" y="-863.5" font-family="Helvetica,sans-Serif" font-size="10.00"> </text>
</g>
<!-- Node11&#45;&gt;Node10 -->
<g id="edge11" class="edge"><title>Node11&#45;&gt;Node10</title>
<path fill="none" stroke="orange" d="M224.073,-879.975C173.867,-874.013 91.9259,-860.984 73,-838 48.9804,-808.83 52.1656,-763.347 58.2214,-732.531"/>
<polygon fill="orange" stroke="orange" points="223.938,-883.483 234.271,-881.142 224.734,-876.528 223.938,-883.483"/>
<text text-anchor="middle" x="131.5" y="-830" font-family="Helvetica,sans-Serif" font-size="10.00"> &lt; BufferedImage, String &gt;</text>
</g>
<!-- Node13 -->
<g id="node13" class="node"><title>Node13</title>
<polygon fill="none" stroke="#bfbfbf" points="92,-751.5 92,-808.5 244,-808.5 244,-751.5 92,-751.5"/>
<text text-anchor="middle" x="168" y="-796.5" font-family="Helvetica,sans-Serif" font-size="10.00">HashMap&lt; String, Rectangle &gt;</text>
<polyline fill="none" stroke="#bfbfbf" points="92,-789.5 244,-789.5 "/>
<text text-anchor="middle" x="168" y="-777.5" font-family="Helvetica,sans-Serif" font-size="10.00"> </text>
<polyline fill="none" stroke="#bfbfbf" points="92,-770.5 244,-770.5 "/>
<text text-anchor="middle" x="168" y="-758.5" font-family="Helvetica,sans-Serif" font-size="10.00"> </text>
</g>
<!-- Node11&#45;&gt;Node13 -->
<g id="edge14" class="edge"><title>Node11&#45;&gt;Node13</title>
<path fill="none" stroke="orange" d="M225.993,-860.172C217.187,-853.63 208.275,-846.089 201,-838 193.201,-829.328 186.378,-818.518 180.991,-808.649"/>
<polygon fill="orange" stroke="orange" points="224.17,-863.171 234.346,-866.122 228.232,-857.47 224.17,-863.171"/>
<text text-anchor="middle" x="249.5" y="-830" font-family="Helvetica,sans-Serif" font-size="10.00"> &lt; String, Rectangle &gt;</text>
</g>
<!-- Node15 -->
<g id="node15" class="node"><title>Node15</title>
<polygon fill="none" stroke="#bfbfbf" points="262,-751.5 262,-808.5 386,-808.5 386,-751.5 262,-751.5"/>
<text text-anchor="middle" x="324" y="-796.5" font-family="Helvetica,sans-Serif" font-size="10.00">HashMap&lt; String, Dot &gt;</text>
<polyline fill="none" stroke="#bfbfbf" points="262,-789.5 386,-789.5 "/>
<text text-anchor="middle" x="324" y="-777.5" font-family="Helvetica,sans-Serif" font-size="10.00"> </text>
<polyline fill="none" stroke="#bfbfbf" points="262,-770.5 386,-770.5 "/>
<text text-anchor="middle" x="324" y="-758.5" font-family="Helvetica,sans-Serif" font-size="10.00"> </text>
</g>
<!-- Node11&#45;&gt;Node15 -->
<g id="edge17" class="edge"><title>Node11&#45;&gt;Node15</title>
<path fill="none" stroke="orange" d="M295.36,-848.205C297.744,-844.85 299.997,-841.423 302,-838 307.357,-828.845 311.886,-818.144 315.416,-808.503"/>
<polygon fill="orange" stroke="orange" points="292.448,-846.254 289.231,-856.349 298.041,-850.463 292.448,-846.254"/>
<text text-anchor="middle" x="342.5" y="-830" font-family="Helvetica,sans-Serif" font-size="10.00"> &lt; String, Dot &gt;</text>
</g>
<!-- Node16 -->
<g id="node16" class="node"><title>Node16</title>
<polygon fill="none" stroke="#bfbfbf" points="404,-751.5 404,-808.5 542,-808.5 542,-751.5 404,-751.5"/>
<text text-anchor="middle" x="473" y="-796.5" font-family="Helvetica,sans-Serif" font-size="10.00">HashMap&lt; String, Integer &gt;</text>
<polyline fill="none" stroke="#bfbfbf" points="404,-789.5 542,-789.5 "/>
<text text-anchor="middle" x="473" y="-777.5" font-family="Helvetica,sans-Serif" font-size="10.00"> </text>
<polyline fill="none" stroke="#bfbfbf" points="404,-770.5 542,-770.5 "/>
<text text-anchor="middle" x="473" y="-758.5" font-family="Helvetica,sans-Serif" font-size="10.00"> </text>
</g>
<!-- Node11&#45;&gt;Node16 -->
<g id="edge19" class="edge"><title>Node11&#45;&gt;Node16</title>
<path fill="none" stroke="orange" d="M303.432,-870.511C326.489,-862.131 355.903,-850.58 381,-838 398.133,-829.412 416.219,-818.619 431.778,-808.741"/>
<polygon fill="orange" stroke="orange" points="302.203,-867.234 293.971,-873.903 304.565,-873.823 302.203,-867.234"/>
<text text-anchor="middle" x="441.5" y="-830" font-family="Helvetica,sans-Serif" font-size="10.00"> &lt; String, Integer &gt;</text>
</g>
<!-- Node12 -->
<g id="node12" class="node"><title>Node12</title>
<g id="a_node12"><a xlink:href="classReadZone.html" target="_top" xlink:title="{ReadZone\n||+ ReadZone()\l+ addZone()\l+ getZones()\l}">
<polygon fill="none" stroke="black" points="165.5,-430 165.5,-509 242.5,-509 242.5,-430 165.5,-430"/>
<text text-anchor="middle" x="204" y="-497" font-family="Helvetica,sans-Serif" font-size="10.00">ReadZone</text>
<polyline fill="none" stroke="black" points="165.5,-490 242.5,-490 "/>
<text text-anchor="middle" x="204" y="-478" font-family="Helvetica,sans-Serif" font-size="10.00"> </text>
<polyline fill="none" stroke="black" points="165.5,-471 242.5,-471 "/>
<text text-anchor="start" x="173.5" y="-459" font-family="Helvetica,sans-Serif" font-size="10.00">+ ReadZone()</text>
<text text-anchor="start" x="173.5" y="-448" font-family="Helvetica,sans-Serif" font-size="10.00">+ addZone()</text>
<text text-anchor="start" x="173.5" y="-437" font-family="Helvetica,sans-Serif" font-size="10.00">+ getZones()</text>
</a>
</g>
</g>
<!-- Node12&#45;&gt;Node2 -->
<g id="edge12" class="edge"><title>Node12&#45;&gt;Node2</title>
<path fill="none" stroke="#404040" d="M215.869,-429.824C233.005,-373.983 265.26,-268.876 289.351,-190.375"/>
<polygon fill="none" stroke="#404040" points="289.472,-189.978 287.409,-183.068 292.993,-178.506 295.057,-185.415 289.472,-189.978"/>
<text text-anchor="middle" x="297" y="-308.5" font-family="Helvetica,sans-Serif" font-size="10.00"> &#45;bulles</text>
</g>
<!-- Node13&#45;&gt;Node12 -->
<g id="edge13" class="edge"><title>Node13&#45;&gt;Node12</title>
<path fill="none" stroke="#404040" d="M171.226,-751.351C177.274,-699.527 190.395,-587.086 198.075,-521.277"/>
<polygon fill="none" stroke="#404040" points="198.097,-521.082 194.82,-514.658 199.488,-509.163 202.766,-515.586 198.097,-521.082"/>
<text text-anchor="middle" x="220" y="-696" font-family="Helvetica,sans-Serif" font-size="10.00"> &#45;ensembleZones</text>
</g>
<!-- Node14 -->
<g id="node14" class="node"><title>Node14</title>
<g id="a_node14"><a xlink:href="classZone.html" target="_top" xlink:title="{Zone\n||+ Zone()\l+ addZone()\l+ addZone()\l+ getZonesTable()\l}">
<polygon fill="none" stroke="black" points="272,-424.5 272,-514.5 368,-514.5 368,-424.5 272,-424.5"/>
<text text-anchor="middle" x="320" y="-502.5" font-family="Helvetica,sans-Serif" font-size="10.00">Zone</text>
<polyline fill="none" stroke="black" points="272,-495.5 368,-495.5 "/>
<text text-anchor="middle" x="320" y="-483.5" font-family="Helvetica,sans-Serif" font-size="10.00"> </text>
<polyline fill="none" stroke="black" points="272,-476.5 368,-476.5 "/>
<text text-anchor="start" x="280" y="-464.5" font-family="Helvetica,sans-Serif" font-size="10.00">+ Zone()</text>
<text text-anchor="start" x="280" y="-453.5" font-family="Helvetica,sans-Serif" font-size="10.00">+ addZone()</text>
<text text-anchor="start" x="280" y="-442.5" font-family="Helvetica,sans-Serif" font-size="10.00">+ addZone()</text>
<text text-anchor="start" x="280" y="-431.5" font-family="Helvetica,sans-Serif" font-size="10.00">+ getZonesTable()</text>
</a>
</g>
</g>
<!-- Node14&#45;&gt;Node2 -->
<g id="edge15" class="edge"><title>Node14&#45;&gt;Node2</title>
<path fill="none" stroke="#404040" d="M320,-424.399C320,-367.579 320,-267.093 320,-191.156"/>
<polygon fill="none" stroke="#404040" points="320,-190.714 316,-184.714 320,-178.714 324,-184.714 320,-190.714"/>
<text text-anchor="middle" x="336.5" y="-308.5" font-family="Helvetica,sans-Serif" font-size="10.00"> &#45;zones</text>
</g>
<!-- Node15&#45;&gt;Node14 -->
<g id="edge16" class="edge"><title>Node15&#45;&gt;Node14</title>
<path fill="none" stroke="#404040" d="M321.199,-751.295C320.7,-745.27 320.257,-738.926 320,-733 316.918,-661.976 317.592,-580.04 318.589,-526.863"/>
<polygon fill="none" stroke="#404040" points="318.593,-526.646 314.714,-520.567 318.833,-514.648 322.712,-520.727 318.593,-526.646"/>
<text text-anchor="middle" x="371.5" y="-696" font-family="Helvetica,sans-Serif" font-size="10.00"> &#45;ensemblePointsZones</text>
</g>
<!-- Node16&#45;&gt;Node1 -->
<g id="edge18" class="edge"><title>Node16&#45;&gt;Node1</title>
<path fill="none" stroke="#404040" d="M461.9,-751.092C452.617,-727.79 439.004,-693.706 427,-664 426.072,-661.704 425.127,-659.368 424.171,-657.009"/>
<polygon fill="none" stroke="#404040" points="424.161,-656.986 418.198,-652.931 419.647,-645.867 425.611,-649.922 424.161,-656.986"/>
<text text-anchor="middle" x="480.5" y="-707" font-family="Helvetica,sans-Serif" font-size="10.00"> &#45;orders</text>
<text text-anchor="middle" x="480.5" y="-696" font-family="Helvetica,sans-Serif" font-size="10.00">&#45;prices</text>
<text text-anchor="middle" x="480.5" y="-685" font-family="Helvetica,sans-Serif" font-size="10.00">&#45;ingredients</text>
</g>
</g>
</svg>
        <g id="navigator" transform="translate(0 0)" fill="#404254">
                <rect fill="#f2f5e9" fill-opacity="0.5" stroke="#606060" stroke-width=".5" x="0" y="0" width="60" height="60"/>
                <use id="zoomplus" xlink:href="#zoomPlus" x="17" y="9" onmousedown="handleZoom(evt,'in')"/>
                <use id="zoomminus" xlink:href="#zoomMin" x="42" y="9" onmousedown="handleZoom(evt,'out')"/>
                <use id="reset" xlink:href="#resetDef" x="30" y="36" onmousedown="handleReset()"/>
                <g id="arrowUp" xlink:href="#dirArrow" transform="translate(30 24)" onmousedown="handlePan(0,-1)">
                  <use xlink:href="#rim" fill="#404040">
                        <set attributeName="fill" to="#808080" begin="arrowUp.mouseover" end="arrowUp.mouseout"/>
                  </use>
                  <path fill="none" stroke="white" stroke-width="1.5" d="M0,-3.0v7 M-2.5,-0.5L0,-3.0L2.5,-0.5"/>
                </g>
                <g id="arrowRight" xlink:href="#dirArrow" transform="rotate(90) translate(36 -43)" onmousedown="handlePan(1,0)">
                  <use xlink:href="#rim" fill="#404040">
                        <set attributeName="fill" to="#808080" begin="arrowRight.mouseover" end="arrowRight.mouseout"/>
                  </use>
                  <path fill="none" stroke="white" stroke-width="1.5" d="M0,-3.0v7 M-2.5,-0.5L0,-3.0L2.5,-0.5"/>
                </g>
                <g id="arrowDown" xlink:href="#dirArrow" transform="rotate(180) translate(-30 -48)" onmousedown="handlePan(0,1)">
                  <use xlink:href="#rim" fill="#404040">
                        <set attributeName="fill" to="#808080" begin="arrowDown.mouseover" end="arrowDown.mouseout"/>
                  </use>
                  <path fill="none" stroke="white" stroke-width="1.5" d="M0,-3.0v7 M-2.5,-0.5L0,-3.0L2.5,-0.5"/>
                </g>
                <g id="arrowLeft" xlink:href="#dirArrow" transform="rotate(270) translate(-36 17)" onmousedown="handlePan(-1,0)">
                  <use xlink:href="#rim" fill="#404040">
                        <set attributeName="fill" to="#808080" begin="arrowLeft.mouseover" end="arrowLeft.mouseout"/>
                  </use>
                  <path fill="none" stroke="white" stroke-width="1.5" d="M0,-3.0v7 M-2.5,-0.5L0,-3.0L2.5,-0.5"/>
                </g>
        </g>
        <svg viewBox="0 0 15 15" width="100%" height="30px" preserveAspectRatio="xMaxYMin meet">
         <g id="arrow_out" transform="scale(0.3 0.3)">
          <a xlink:href="classManager__coll__graph_org.svg" target="_base">
           <rect id="button" ry="5" rx="5" y="6" x="6" height="38" width="38"
                fill="#f2f5e9" fill-opacity="0.5" stroke="#606060" stroke-width="1.0"/>
           <path id="arrow"
             d="M 11.500037,31.436501 C 11.940474,20.09759 22.043105,11.32322 32.158766,21.979434 L 37.068811,17.246167 C 37.068811,17.246167 37.088388,32 37.088388,32 L 22.160133,31.978069 C 22.160133,31.978069 26.997745,27.140456 26.997745,27.140456 C 18.528582,18.264221 13.291696,25.230495 11.500037,31.436501 z"
             style="fill:#404040;"/>
          </a>
         </g>
        </svg>
</svg>
