<?xml version="1.0" encoding="UTF-8" standalone="no"?>
<!DOCTYPE svg PUBLIC "-//W3C//DTD SVG 1.1//EN"
 "http://www.w3.org/Graphics/SVG/1.1/DTD/svg11.dtd">
<!-- Generated by graphviz version 2.38.0 (20140413.2041)
 -->
<!-- Title: Suchi.ShrimpSh Pages: 1 -->
<!--zoomable 949 -->
<svg id="main" version="1.1" xmlns="http://www.w3.org/2000/svg" xmlns:xlink="http://www.w3.org/1999/xlink" xml:space="preserve" onload="init(evt)">
<style type="text/css"><![CDATA[
.edge:hover path { stroke: red; }
.edge:hover polygon { stroke: red; fill: red; }
]]></style>
<script type="text/javascript"><![CDATA[
var edges = document.getElementsByTagName('g');
if (edges && edges.length) {
  for (var i=0;i<edges.length;i++) {
    if (edges[i].id.substr(0,4)=='edge') {
      edges[i].setAttribute('class','edge');
    }
  }
}
]]></script>
        <defs>
                <circle id="rim" cx="0" cy="0" r="7"/>
                <circle id="rim2" cx="0" cy="0" r="3.5"/>
                <g id="zoomPlus">
                        <use xlink:href="#rim" fill="#404040">
                                <set attributeName="fill" to="#808080" begin="zoomplus.mouseover" end="zoomplus.mouseout"/>
                        </use>
                        <path d="M-4,0h8M0,-4v8" fill="none" stroke="white" stroke-width="1.5" pointer-events="none"/>
                </g>
                <g id="zoomMin">
                        <use xlink:href="#rim" fill="#404040">
                                <set attributeName="fill" to="#808080" begin="zoomminus.mouseover" end="zoomminus.mouseout"/>
                        </use>
                        <path d="M-4,0h8" fill="none" stroke="white" stroke-width="1.5" pointer-events="none"/>
                </g>
                <g id="dirArrow">
                        <path fill="none" stroke="white" stroke-width="1.5" d="M0,-3.0v7 M-2.5,-0.5L0,-3.0L2.5,-0.5"/>
                </g>
               <g id="resetDef">
                       <use xlink:href="#rim2" fill="#404040">
                               <set attributeName="fill" to="#808080" begin="reset.mouseover" end="reset.mouseout"/>
                       </use>
               </g>
        </defs>

<script type="text/javascript">
var viewWidth = 640;
var viewHeight = 949;
var sectionId = 'dynsection-1';
</script>
<script xlink:href="svgpan.js"/>
<svg id="graph" class="graph">
<g id="viewport">
<title>Suchi.ShrimpSh</title>
<!-- Node1 -->
<g id="node1" class="node"><title>Node1</title>
<polygon fill="#bfbfbf" stroke="black" points="343.5,-0.5 343.5,-79.5 430.5,-79.5 430.5,-0.5 343.5,-0.5"/>
<text text-anchor="middle" x="387" y="-67.5" font-family="Helvetica,sans-Serif" font-size="10.00">Suchi.ShrimpSh</text>
<polyline fill="none" stroke="black" points="343.5,-60.5 430.5,-60.5 "/>
<text text-anchor="middle" x="387" y="-48.5" font-family="Helvetica,sans-Serif" font-size="10.00"> </text>
<polyline fill="none" stroke="black" points="343.5,-41.5 430.5,-41.5 "/>
<text text-anchor="start" x="351.5" y="-29.5" font-family="Helvetica,sans-Serif" font-size="10.00">+ ShrimpSh()</text>
<text text-anchor="start" x="351.5" y="-18.5" font-family="Helvetica,sans-Serif" font-size="10.00">+ make()</text>
<text text-anchor="start" x="351.5" y="-7.5" font-family="Helvetica,sans-Serif" font-size="10.00">+ validate()</text>
</g>
<!-- Node2 -->
<g id="node2" class="node"><title>Node2</title>
<g id="a_node2"><a xlink:href="classSuchi_1_1Recette.html" target="_top" xlink:title="{Suchi.Recette\n|# Rice\l# Roe\l# Noori\l# salmon\l&#45; time\l|+ make()\l+ validate()\l+ useRice()\l+ useRoe()\l+ useNoori()\l+ useSalmon()\l+ checkAliment()\l+ phoneClick()\l+ validatePhone()\l+ buyRice()\l+ buyRoe()\l+ buyNoori()\l+ buySalmon()\l+ resetAliments()\l# Recette()\l}">
<polygon fill="none" stroke="black" points="340.5,-117.5 340.5,-372.5 433.5,-372.5 433.5,-117.5 340.5,-117.5"/>
<text text-anchor="middle" x="387" y="-360.5" font-family="Helvetica,sans-Serif" font-size="10.00">Suchi.Recette</text>
<polyline fill="none" stroke="black" points="340.5,-353.5 433.5,-353.5 "/>
<text text-anchor="start" x="348.5" y="-341.5" font-family="Helvetica,sans-Serif" font-size="10.00"># Rice</text>
<text text-anchor="start" x="348.5" y="-330.5" font-family="Helvetica,sans-Serif" font-size="10.00"># Roe</text>
<text text-anchor="start" x="348.5" y="-319.5" font-family="Helvetica,sans-Serif" font-size="10.00"># Noori</text>
<text text-anchor="start" x="348.5" y="-308.5" font-family="Helvetica,sans-Serif" font-size="10.00"># salmon</text>
<text text-anchor="start" x="348.5" y="-297.5" font-family="Helvetica,sans-Serif" font-size="10.00">&#45; time</text>
<polyline fill="none" stroke="black" points="340.5,-290.5 433.5,-290.5 "/>
<text text-anchor="start" x="348.5" y="-278.5" font-family="Helvetica,sans-Serif" font-size="10.00">+ make()</text>
<text text-anchor="start" x="348.5" y="-267.5" font-family="Helvetica,sans-Serif" font-size="10.00">+ validate()</text>
<text text-anchor="start" x="348.5" y="-256.5" font-family="Helvetica,sans-Serif" font-size="10.00">+ useRice()</text>
<text text-anchor="start" x="348.5" y="-245.5" font-family="Helvetica,sans-Serif" font-size="10.00">+ useRoe()</text>
<text text-anchor="start" x="348.5" y="-234.5" font-family="Helvetica,sans-Serif" font-size="10.00">+ useNoori()</text>
<text text-anchor="start" x="348.5" y="-223.5" font-family="Helvetica,sans-Serif" font-size="10.00">+ useSalmon()</text>
<text text-anchor="start" x="348.5" y="-212.5" font-family="Helvetica,sans-Serif" font-size="10.00">+ checkAliment()</text>
<text text-anchor="start" x="348.5" y="-201.5" font-family="Helvetica,sans-Serif" font-size="10.00">+ phoneClick()</text>
<text text-anchor="start" x="348.5" y="-190.5" font-family="Helvetica,sans-Serif" font-size="10.00">+ validatePhone()</text>
<text text-anchor="start" x="348.5" y="-179.5" font-family="Helvetica,sans-Serif" font-size="10.00">+ buyRice()</text>
<text text-anchor="start" x="348.5" y="-168.5" font-family="Helvetica,sans-Serif" font-size="10.00">+ buyRoe()</text>
<text text-anchor="start" x="348.5" y="-157.5" font-family="Helvetica,sans-Serif" font-size="10.00">+ buyNoori()</text>
<text text-anchor="start" x="348.5" y="-146.5" font-family="Helvetica,sans-Serif" font-size="10.00">+ buySalmon()</text>
<text text-anchor="start" x="348.5" y="-135.5" font-family="Helvetica,sans-Serif" font-size="10.00">+ resetAliments()</text>
<text text-anchor="start" x="348.5" y="-124.5" font-family="Helvetica,sans-Serif" font-size="10.00"># Recette()</text>
</a>
</g>
</g>
<!-- Node2&#45;&gt;Node1 -->
<g id="edge1" class="edge"><title>Node2&#45;&gt;Node1</title>
<path fill="none" stroke="midnightblue" d="M387,-107.155C387,-97.4242 387,-88.1889 387,-79.874"/>
<polygon fill="none" stroke="midnightblue" points="383.5,-107.456 387,-117.456 390.5,-107.456 383.5,-107.456"/>
</g>
<!-- Node3 -->
<g id="node3" class="node"><title>Node3</title>
<g id="a_node3"><a xlink:href="classSuchi_1_1Ia.html" target="_top" xlink:title="{Suchi.Ia\n|~ height\l&#45; width\l|+ Ia()\l+ loadCommandes()\l+ clearTable()\l+ saveSprites()\l+ fillGreyTable()\l+ initGreyReference()\l+ fillCommandes()\l+ getZone()\l+ clickZone()\l+ resetIngredients()\l+ useIngredient()\l+ checkIngredients()\l+ buyIngredient()\l}">
<polygon fill="none" stroke="black" points="263,-508.5 263,-708.5 373,-708.5 373,-508.5 263,-508.5"/>
<text text-anchor="middle" x="318" y="-696.5" font-family="Helvetica,sans-Serif" font-size="10.00">Suchi.Ia</text>
<polyline fill="none" stroke="black" points="263,-689.5 373,-689.5 "/>
<text text-anchor="start" x="271" y="-677.5" font-family="Helvetica,sans-Serif" font-size="10.00">~ height</text>
<text text-anchor="start" x="271" y="-666.5" font-family="Helvetica,sans-Serif" font-size="10.00">&#45; width</text>
<polyline fill="none" stroke="black" points="263,-659.5 373,-659.5 "/>
<text text-anchor="start" x="271" y="-647.5" font-family="Helvetica,sans-Serif" font-size="10.00">+ Ia()</text>
<text text-anchor="start" x="271" y="-636.5" font-family="Helvetica,sans-Serif" font-size="10.00">+ loadCommandes()</text>
<text text-anchor="start" x="271" y="-625.5" font-family="Helvetica,sans-Serif" font-size="10.00">+ clearTable()</text>
<text text-anchor="start" x="271" y="-614.5" font-family="Helvetica,sans-Serif" font-size="10.00">+ saveSprites()</text>
<text text-anchor="start" x="271" y="-603.5" font-family="Helvetica,sans-Serif" font-size="10.00">+ fillGreyTable()</text>
<text text-anchor="start" x="271" y="-592.5" font-family="Helvetica,sans-Serif" font-size="10.00">+ initGreyReference()</text>
<text text-anchor="start" x="271" y="-581.5" font-family="Helvetica,sans-Serif" font-size="10.00">+ fillCommandes()</text>
<text text-anchor="start" x="271" y="-570.5" font-family="Helvetica,sans-Serif" font-size="10.00">+ getZone()</text>
<text text-anchor="start" x="271" y="-559.5" font-family="Helvetica,sans-Serif" font-size="10.00">+ clickZone()</text>
<text text-anchor="start" x="271" y="-548.5" font-family="Helvetica,sans-Serif" font-size="10.00">+ resetIngredients()</text>
<text text-anchor="start" x="271" y="-537.5" font-family="Helvetica,sans-Serif" font-size="10.00">+ useIngredient()</text>
<text text-anchor="start" x="271" y="-526.5" font-family="Helvetica,sans-Serif" font-size="10.00">+ checkIngredients()</text>
<text text-anchor="start" x="271" y="-515.5" font-family="Helvetica,sans-Serif" font-size="10.00">+ buyIngredient()</text>
</a>
</g>
</g>
<!-- Node3&#45;&gt;Node2 -->
<g id="edge2" class="edge"><title>Node3&#45;&gt;Node2</title>
<path fill="none" stroke="#404040" d="M336.946,-508.24C344.242,-470.015 352.712,-425.64 360.586,-384.385"/>
<polygon fill="none" stroke="#404040" points="360.594,-384.342 357.79,-377.698 362.844,-372.555 365.648,-379.198 360.594,-384.342"/>
<text text-anchor="middle" x="367" y="-438" font-family="Helvetica,sans-Serif" font-size="10.00"> #ia</text>
</g>
<!-- Node4 -->
<g id="node4" class="node"><title>Node4</title>
<polygon fill="none" stroke="#bfbfbf" points="0,-773 0,-830 152,-830 152,-773 0,-773"/>
<text text-anchor="middle" x="76" y="-818" font-family="Helvetica,sans-Serif" font-size="10.00">HashMap&lt; String, Suchi.Dot &gt;</text>
<polyline fill="none" stroke="#bfbfbf" points="0,-811 152,-811 "/>
<text text-anchor="middle" x="76" y="-799" font-family="Helvetica,sans-Serif" font-size="10.00"> </text>
<polyline fill="none" stroke="#bfbfbf" points="0,-792 152,-792 "/>
<text text-anchor="middle" x="76" y="-780" font-family="Helvetica,sans-Serif" font-size="10.00"> </text>
</g>
<!-- Node4&#45;&gt;Node3 -->
<g id="edge3" class="edge"><title>Node4&#45;&gt;Node3</title>
<path fill="none" stroke="#404040" d="M110.93,-772.931C148.08,-743.611 207.67,-696.578 253.408,-660.48"/>
<polygon fill="none" stroke="#404040" points="253.525,-660.387 255.757,-653.53 262.945,-652.953 260.713,-659.81 253.525,-660.387"/>
<text text-anchor="middle" x="185.5" y="-735.5" font-family="Helvetica,sans-Serif" font-size="10.00"> &#45;zones</text>
</g>
<!-- Node5 -->
<g id="node5" class="node"><title>Node5</title>
<polygon fill="none" stroke="#bfbfbf" points="288.5,-883.5 288.5,-940.5 347.5,-940.5 347.5,-883.5 288.5,-883.5"/>
<text text-anchor="middle" x="318" y="-928.5" font-family="Helvetica,sans-Serif" font-size="10.00">HashMap</text>
<polyline fill="none" stroke="#bfbfbf" points="288.5,-921.5 347.5,-921.5 "/>
<text text-anchor="middle" x="318" y="-909.5" font-family="Helvetica,sans-Serif" font-size="10.00"> </text>
<polyline fill="none" stroke="#bfbfbf" points="288.5,-902.5 347.5,-902.5 "/>
<text text-anchor="middle" x="318" y="-890.5" font-family="Helvetica,sans-Serif" font-size="10.00"> </text>
</g>
<!-- Node5&#45;&gt;Node4 -->
<g id="edge4" class="edge"><title>Node5&#45;&gt;Node4</title>
<path fill="none" stroke="orange" d="M278.302,-905.767C242.129,-899.782 188.084,-887.723 146,-865 129.371,-856.021 113.439,-842.347 100.987,-830.076"/>
<polygon fill="orange" stroke="orange" points="278.041,-909.269 288.464,-907.367 279.129,-902.354 278.041,-909.269"/>
<text text-anchor="middle" x="196" y="-857" font-family="Helvetica,sans-Serif" font-size="10.00"> &lt; String, Suchi::Dot &gt;</text>
</g>
<!-- Node6 -->
<g id="node6" class="node"><title>Node6</title>
<polygon fill="none" stroke="#bfbfbf" points="170,-767.5 170,-835.5 306,-835.5 306,-767.5 170,-767.5"/>
<text text-anchor="start" x="178" y="-823.5" font-family="Helvetica,sans-Serif" font-size="10.00">HashMap&lt; String, Buffered</text>
<text text-anchor="middle" x="238" y="-812.5" font-family="Helvetica,sans-Serif" font-size="10.00">Image &gt;</text>
<polyline fill="none" stroke="#bfbfbf" points="170,-805.5 306,-805.5 "/>
<text text-anchor="middle" x="238" y="-793.5" font-family="Helvetica,sans-Serif" font-size="10.00"> </text>
<polyline fill="none" stroke="#bfbfbf" points="170,-786.5 306,-786.5 "/>
<text text-anchor="middle" x="238" y="-774.5" font-family="Helvetica,sans-Serif" font-size="10.00"> </text>
</g>
<!-- Node5&#45;&gt;Node6 -->
<g id="edge6" class="edge"><title>Node5&#45;&gt;Node6</title>
<path fill="none" stroke="orange" d="M279.955,-889.535C270.661,-882.736 261.526,-874.48 255,-865 249.071,-856.386 245.206,-845.782 242.688,-835.771"/>
<polygon fill="orange" stroke="orange" points="278.236,-892.6 288.465,-895.363 282.192,-886.824 278.236,-892.6"/>
<text text-anchor="middle" x="313.5" y="-857" font-family="Helvetica,sans-Serif" font-size="10.00"> &lt; String, BufferedImage &gt;</text>
</g>
<!-- Node7 -->
<g id="node7" class="node"><title>Node7</title>
<polygon fill="none" stroke="#bfbfbf" points="324,-773 324,-830 476,-830 476,-773 324,-773"/>
<text text-anchor="middle" x="400" y="-818" font-family="Helvetica,sans-Serif" font-size="10.00">HashMap&lt; String, Rectangle &gt;</text>
<polyline fill="none" stroke="#bfbfbf" points="324,-811 476,-811 "/>
<text text-anchor="middle" x="400" y="-799" font-family="Helvetica,sans-Serif" font-size="10.00"> </text>
<polyline fill="none" stroke="#bfbfbf" points="324,-792 476,-792 "/>
<text text-anchor="middle" x="400" y="-780" font-family="Helvetica,sans-Serif" font-size="10.00"> </text>
</g>
<!-- Node5&#45;&gt;Node7 -->
<g id="edge8" class="edge"><title>Node5&#45;&gt;Node7</title>
<path fill="none" stroke="orange" d="M355.393,-883.007C361.411,-877.465 367.222,-871.375 372,-865 379.844,-854.535 386.117,-841.524 390.72,-830.087"/>
<polygon fill="orange" stroke="orange" points="352.947,-880.497 347.724,-889.715 357.555,-885.766 352.947,-880.497"/>
<text text-anchor="middle" x="428.5" y="-857" font-family="Helvetica,sans-Serif" font-size="10.00"> &lt; String, Rectangle &gt;</text>
</g>
<!-- Node8 -->
<g id="node8" class="node"><title>Node8</title>
<polygon fill="none" stroke="#bfbfbf" points="494,-773 494,-830 632,-830 632,-773 494,-773"/>
<text text-anchor="middle" x="563" y="-818" font-family="Helvetica,sans-Serif" font-size="10.00">HashMap&lt; String, Integer &gt;</text>
<polyline fill="none" stroke="#bfbfbf" points="494,-811 632,-811 "/>
<text text-anchor="middle" x="563" y="-799" font-family="Helvetica,sans-Serif" font-size="10.00"> </text>
<polyline fill="none" stroke="#bfbfbf" points="494,-792 632,-792 "/>
<text text-anchor="middle" x="563" y="-780" font-family="Helvetica,sans-Serif" font-size="10.00"> </text>
</g>
<!-- Node5&#45;&gt;Node8 -->
<g id="edge10" class="edge"><title>Node5&#45;&gt;Node8</title>
<path fill="none" stroke="orange" d="M357.796,-904.129C391.777,-897.258 441.307,-884.822 481,-865 499.416,-855.803 517.834,-842.257 532.536,-830.125"/>
<polygon fill="orange" stroke="orange" points="356.922,-900.733 347.778,-906.084 358.263,-907.604 356.922,-900.733"/>
<text text-anchor="middle" x="540.5" y="-857" font-family="Helvetica,sans-Serif" font-size="10.00"> &lt; String, Integer &gt;</text>
</g>
<!-- Node6&#45;&gt;Node3 -->
<g id="edge5" class="edge"><title>Node6&#45;&gt;Node3</title>
<path fill="none" stroke="#404040" d="M251.935,-767.23C257.59,-753.728 264.477,-737.287 271.643,-720.178"/>
<polygon fill="none" stroke="#404040" points="271.746,-719.932 270.374,-712.852 276.382,-708.864 277.753,-715.943 271.746,-719.932"/>
<text text-anchor="middle" x="304" y="-735.5" font-family="Helvetica,sans-Serif" font-size="10.00"> &#45;greyReference</text>
</g>
<!-- Node7&#45;&gt;Node3 -->
<g id="edge7" class="edge"><title>Node7&#45;&gt;Node3</title>
<path fill="none" stroke="#404040" d="M388.076,-772.727C381.884,-758.303 373.868,-739.631 365.481,-720.096"/>
<polygon fill="none" stroke="#404040" points="365.386,-719.875 359.344,-715.94 360.652,-708.848 366.695,-712.784 365.386,-719.875"/>
<text text-anchor="middle" x="412.5" y="-741" font-family="Helvetica,sans-Serif" font-size="10.00"> &#45;greyIngredients</text>
<text text-anchor="middle" x="412.5" y="-730" font-family="Helvetica,sans-Serif" font-size="10.00">&#45;commandes</text>
</g>
<!-- Node8&#45;&gt;Node3 -->
<g id="edge9" class="edge"><title>Node8&#45;&gt;Node3</title>
<path fill="none" stroke="#404040" d="M528.145,-772.714C507.36,-757.327 479.86,-738.952 453,-727 426.279,-715.11 411.591,-725.403 383.421,-708.747"/>
<polygon fill="none" stroke="#404040" points="383.292,-708.661 376.081,-708.654 373.314,-701.994 380.525,-702.002 383.292,-708.661"/>
<text text-anchor="middle" x="519" y="-735.5" font-family="Helvetica,sans-Serif" font-size="10.00"> &#45;ingredients</text>
</g>
<!-- Node9 -->
<g id="node9" class="node"><title>Node9</title>
<polygon fill="none" stroke="#bfbfbf" points="391.5,-580 391.5,-637 430.5,-637 430.5,-580 391.5,-580"/>
<text text-anchor="middle" x="411" y="-625" font-family="Helvetica,sans-Serif" font-size="10.00">Point</text>
<polyline fill="none" stroke="#bfbfbf" points="391.5,-618 430.5,-618 "/>
<text text-anchor="middle" x="411" y="-606" font-family="Helvetica,sans-Serif" font-size="10.00"> </text>
<polyline fill="none" stroke="#bfbfbf" points="391.5,-599 430.5,-599 "/>
<text text-anchor="middle" x="411" y="-587" font-family="Helvetica,sans-Serif" font-size="10.00"> </text>
</g>
<!-- Node9&#45;&gt;Node2 -->
<g id="edge11" class="edge"><title>Node9&#45;&gt;Node2</title>
<path fill="none" stroke="#404040" d="M409.157,-579.734C406.397,-538.161 401.003,-456.926 396.229,-385.015"/>
<polygon fill="none" stroke="#404040" points="396.202,-384.611 391.814,-378.889 395.407,-372.637 399.796,-378.359 396.202,-384.611"/>
<text text-anchor="middle" x="427.5" y="-482" font-family="Helvetica,sans-Serif" font-size="10.00"> #RiceC</text>
<text text-anchor="middle" x="427.5" y="-471" font-family="Helvetica,sans-Serif" font-size="10.00">#phone</text>
<text text-anchor="middle" x="427.5" y="-460" font-family="Helvetica,sans-Serif" font-size="10.00">#saumon</text>
<text text-anchor="middle" x="427.5" y="-449" font-family="Helvetica,sans-Serif" font-size="10.00">#exitPhone</text>
<text text-anchor="middle" x="427.5" y="-438" font-family="Helvetica,sans-Serif" font-size="10.00">#nori</text>
<text text-anchor="middle" x="427.5" y="-427" font-family="Helvetica,sans-Serif" font-size="10.00">#RiceCbuy</text>
<text text-anchor="middle" x="427.5" y="-416" font-family="Helvetica,sans-Serif" font-size="10.00">#validate</text>
<text text-anchor="middle" x="427.5" y="-405" font-family="Helvetica,sans-Serif" font-size="10.00">#fishEggs</text>
<text text-anchor="middle" x="427.5" y="-394" font-family="Helvetica,sans-Serif" font-size="10.00">#Topping</text>
</g>
</g>
</svg>
        <g id="navigator" transform="translate(0 0)" fill="#404254">
                <rect fill="#f2f5e9" fill-opacity="0.5" stroke="#606060" stroke-width=".5" x="0" y="0" width="60" height="60"/>
                <use id="zoomplus" xlink:href="#zoomPlus" x="17" y="9" onmousedown="handleZoom(evt,'in')"/>
                <use id="zoomminus" xlink:href="#zoomMin" x="42" y="9" onmousedown="handleZoom(evt,'out')"/>
                <use id="reset" xlink:href="#resetDef" x="30" y="36" onmousedown="handleReset()"/>
                <g id="arrowUp" xlink:href="#dirArrow" transform="translate(30 24)" onmousedown="handlePan(0,-1)">
                  <use xlink:href="#rim" fill="#404040">
                        <set attributeName="fill" to="#808080" begin="arrowUp.mouseover" end="arrowUp.mouseout"/>
                  </use>
                  <path fill="none" stroke="white" stroke-width="1.5" d="M0,-3.0v7 M-2.5,-0.5L0,-3.0L2.5,-0.5"/>
                </g>
                <g id="arrowRight" xlink:href="#dirArrow" transform="rotate(90) translate(36 -43)" onmousedown="handlePan(1,0)">
                  <use xlink:href="#rim" fill="#404040">
                        <set attributeName="fill" to="#808080" begin="arrowRight.mouseover" end="arrowRight.mouseout"/>
                  </use>
                  <path fill="none" stroke="white" stroke-width="1.5" d="M0,-3.0v7 M-2.5,-0.5L0,-3.0L2.5,-0.5"/>
                </g>
                <g id="arrowDown" xlink:href="#dirArrow" transform="rotate(180) translate(-30 -48)" onmousedown="handlePan(0,1)">
                  <use xlink:href="#rim" fill="#404040">
                        <set attributeName="fill" to="#808080" begin="arrowDown.mouseover" end="arrowDown.mouseout"/>
                  </use>
                  <path fill="none" stroke="white" stroke-width="1.5" d="M0,-3.0v7 M-2.5,-0.5L0,-3.0L2.5,-0.5"/>
                </g>
                <g id="arrowLeft" xlink:href="#dirArrow" transform="rotate(270) translate(-36 17)" onmousedown="handlePan(-1,0)">
                  <use xlink:href="#rim" fill="#404040">
                        <set attributeName="fill" to="#808080" begin="arrowLeft.mouseover" end="arrowLeft.mouseout"/>
                  </use>
                  <path fill="none" stroke="white" stroke-width="1.5" d="M0,-3.0v7 M-2.5,-0.5L0,-3.0L2.5,-0.5"/>
                </g>
        </g>
        <svg viewBox="0 0 15 15" width="100%" height="30px" preserveAspectRatio="xMaxYMin meet">
         <g id="arrow_out" transform="scale(0.3 0.3)">
          <a xlink:href="classSuchi_1_1ShrimpSh__coll__graph_org.svg" target="_base">
           <rect id="button" ry="5" rx="5" y="6" x="6" height="38" width="38"
                fill="#f2f5e9" fill-opacity="0.5" stroke="#606060" stroke-width="1.0"/>
           <path id="arrow"
             d="M 11.500037,31.436501 C 11.940474,20.09759 22.043105,11.32322 32.158766,21.979434 L 37.068811,17.246167 C 37.068811,17.246167 37.088388,32 37.088388,32 L 22.160133,31.978069 C 22.160133,31.978069 26.997745,27.140456 26.997745,27.140456 C 18.528582,18.264221 13.291696,25.230495 11.500037,31.436501 z"
             style="fill:#404040;"/>
          </a>
         </g>
        </svg>
</svg>
