<?xml version="1.0" encoding="UTF-8" standalone="no"?>
<!DOCTYPE svg PUBLIC "-//W3C//DTD SVG 1.1//EN"
 "http://www.w3.org/Graphics/SVG/1.1/DTD/svg11.dtd">
<!-- Generated by graphviz version 2.38.0 (20140413.2041)
 -->
<!-- Title: TestSushi.src.Suchi.Maki Pages: 1 -->
<svg width="228pt" height="673pt"
 viewBox="0.00 0.00 228.00 673.00" xmlns="http://www.w3.org/2000/svg" xmlns:xlink="http://www.w3.org/1999/xlink">
<g id="graph0" class="graph" transform="scale(1 1) rotate(0) translate(4 669)">
<title>TestSushi.src.Suchi.Maki</title>
<!-- Node1 -->
<g id="node1" class="node"><title>Node1</title>
<polygon fill="#bfbfbf" stroke="black" points="0,-0.5 0,-79.5 129,-79.5 129,-0.5 0,-0.5"/>
<text text-anchor="middle" x="64.5" y="-67.5" font-family="Helvetica,sans-Serif" font-size="10.00">TestSushi.src.Suchi.Maki</text>
<polyline fill="none" stroke="black" points="0,-60.5 129,-60.5 "/>
<text text-anchor="middle" x="64.5" y="-48.5" font-family="Helvetica,sans-Serif" font-size="10.00"> </text>
<polyline fill="none" stroke="black" points="0,-41.5 129,-41.5 "/>
<text text-anchor="start" x="8" y="-29.5" font-family="Helvetica,sans-Serif" font-size="10.00">+ make()</text>
<text text-anchor="start" x="8" y="-18.5" font-family="Helvetica,sans-Serif" font-size="10.00">+ validate()</text>
<text text-anchor="start" x="8" y="-7.5" font-family="Helvetica,sans-Serif" font-size="10.00">~ Maki()</text>
</g>
<!-- Node2 -->
<g id="node2" class="node"><title>Node2</title>
<g id="a_node2"><a xlink:href="classTestSushi_1_1src_1_1Suchi_1_1Recette.html" target="_top" xlink:title="{TestSushi.src.Suchi.Recette\n|# egggris\l# norigris\l# saumongris\l# ricegris\l# shrimpGris\l# time\l# phoneTime\l# timeTapis\l# Rice\l# Roe\l# Noori\l# salmon\l# shrimp\l|+ useRice()\l+ useRoe()\l+ useNoori()\l+ useSalmon()\l+ useShrimp()\l+ checkAliment()\l+ phoneClick()\l+ validatePhone()\l+ buyRice()\l+ buyRoe()\l+ buyNoori()\l+ buySalmon()\l+ buyShrimp()\l+ resetAliments()\l}">
<polygon fill="none" stroke="black" points="77,-117.5 77,-449.5 220,-449.5 220,-117.5 77,-117.5"/>
<text text-anchor="middle" x="148.5" y="-437.5" font-family="Helvetica,sans-Serif" font-size="10.00">TestSushi.src.Suchi.Recette</text>
<polyline fill="none" stroke="black" points="77,-430.5 220,-430.5 "/>
<text text-anchor="start" x="85" y="-418.5" font-family="Helvetica,sans-Serif" font-size="10.00"># egggris</text>
<text text-anchor="start" x="85" y="-407.5" font-family="Helvetica,sans-Serif" font-size="10.00"># norigris</text>
<text text-anchor="start" x="85" y="-396.5" font-family="Helvetica,sans-Serif" font-size="10.00"># saumongris</text>
<text text-anchor="start" x="85" y="-385.5" font-family="Helvetica,sans-Serif" font-size="10.00"># ricegris</text>
<text text-anchor="start" x="85" y="-374.5" font-family="Helvetica,sans-Serif" font-size="10.00"># shrimpGris</text>
<text text-anchor="start" x="85" y="-363.5" font-family="Helvetica,sans-Serif" font-size="10.00"># time</text>
<text text-anchor="start" x="85" y="-352.5" font-family="Helvetica,sans-Serif" font-size="10.00"># phoneTime</text>
<text text-anchor="start" x="85" y="-341.5" font-family="Helvetica,sans-Serif" font-size="10.00"># timeTapis</text>
<text text-anchor="start" x="85" y="-330.5" font-family="Helvetica,sans-Serif" font-size="10.00"># Rice</text>
<text text-anchor="start" x="85" y="-319.5" font-family="Helvetica,sans-Serif" font-size="10.00"># Roe</text>
<text text-anchor="start" x="85" y="-308.5" font-family="Helvetica,sans-Serif" font-size="10.00"># Noori</text>
<text text-anchor="start" x="85" y="-297.5" font-family="Helvetica,sans-Serif" font-size="10.00"># salmon</text>
<text text-anchor="start" x="85" y="-286.5" font-family="Helvetica,sans-Serif" font-size="10.00"># shrimp</text>
<polyline fill="none" stroke="black" points="77,-279.5 220,-279.5 "/>
<text text-anchor="start" x="85" y="-267.5" font-family="Helvetica,sans-Serif" font-size="10.00">+ useRice()</text>
<text text-anchor="start" x="85" y="-256.5" font-family="Helvetica,sans-Serif" font-size="10.00">+ useRoe()</text>
<text text-anchor="start" x="85" y="-245.5" font-family="Helvetica,sans-Serif" font-size="10.00">+ useNoori()</text>
<text text-anchor="start" x="85" y="-234.5" font-family="Helvetica,sans-Serif" font-size="10.00">+ useSalmon()</text>
<text text-anchor="start" x="85" y="-223.5" font-family="Helvetica,sans-Serif" font-size="10.00">+ useShrimp()</text>
<text text-anchor="start" x="85" y="-212.5" font-family="Helvetica,sans-Serif" font-size="10.00">+ checkAliment()</text>
<text text-anchor="start" x="85" y="-201.5" font-family="Helvetica,sans-Serif" font-size="10.00">+ phoneClick()</text>
<text text-anchor="start" x="85" y="-190.5" font-family="Helvetica,sans-Serif" font-size="10.00">+ validatePhone()</text>
<text text-anchor="start" x="85" y="-179.5" font-family="Helvetica,sans-Serif" font-size="10.00">+ buyRice()</text>
<text text-anchor="start" x="85" y="-168.5" font-family="Helvetica,sans-Serif" font-size="10.00">+ buyRoe()</text>
<text text-anchor="start" x="85" y="-157.5" font-family="Helvetica,sans-Serif" font-size="10.00">+ buyNoori()</text>
<text text-anchor="start" x="85" y="-146.5" font-family="Helvetica,sans-Serif" font-size="10.00">+ buySalmon()</text>
<text text-anchor="start" x="85" y="-135.5" font-family="Helvetica,sans-Serif" font-size="10.00">+ buyShrimp()</text>
<text text-anchor="start" x="85" y="-124.5" font-family="Helvetica,sans-Serif" font-size="10.00">+ resetAliments()</text>
</a>
</g>
</g>
<!-- Node2&#45;&gt;Node1 -->
<g id="edge1" class="edge"><title>Node2&#45;&gt;Node1</title>
<path fill="none" stroke="midnightblue" d="M87.7671,-107.893C84.2259,-97.7121 80.9082,-88.1736 77.9495,-79.6672"/>
<polygon fill="none" stroke="midnightblue" points="84.4871,-109.117 91.0781,-117.412 91.0986,-106.817 84.4871,-109.117"/>
</g>
<!-- Node3 -->
<g id="node3" class="node"><title>Node3</title>
<polygon fill="none" stroke="#bfbfbf" points="47,-607.5 47,-664.5 86,-664.5 86,-607.5 47,-607.5"/>
<text text-anchor="middle" x="66.5" y="-652.5" font-family="Helvetica,sans-Serif" font-size="10.00">Point</text>
<polyline fill="none" stroke="#bfbfbf" points="47,-645.5 86,-645.5 "/>
<text text-anchor="middle" x="66.5" y="-633.5" font-family="Helvetica,sans-Serif" font-size="10.00"> </text>
<polyline fill="none" stroke="#bfbfbf" points="47,-626.5 86,-626.5 "/>
<text text-anchor="middle" x="66.5" y="-614.5" font-family="Helvetica,sans-Serif" font-size="10.00"> </text>
</g>
<!-- Node3&#45;&gt;Node1 -->
<g id="edge3" class="edge"><title>Node3&#45;&gt;Node1</title>
<path fill="none" stroke="#404040" d="M60.968,-607.254C54.0867,-571.198 42.7289,-506.201 38.5,-450 27.3948,-302.417 14.2181,-262.994 38.5,-117 39.8996,-108.585 42.1149,-99.8522 44.6761,-91.4338"/>
<polygon fill="none" stroke="#404040" points="44.7482,-91.2132 42.8115,-84.267 48.4785,-79.8077 50.4151,-86.7539 44.7482,-91.2132"/>
<text text-anchor="middle" x="53.5" y="-292" font-family="Helvetica,sans-Serif" font-size="10.00"> &#45;Rice</text>
<text text-anchor="middle" x="53.5" y="-281" font-family="Helvetica,sans-Serif" font-size="10.00">~Noori</text>
<text text-anchor="middle" x="53.5" y="-270" font-family="Helvetica,sans-Serif" font-size="10.00">~Roe</text>
</g>
<!-- Node3&#45;&gt;Node2 -->
<g id="edge2" class="edge"><title>Node3&#45;&gt;Node2</title>
<path fill="none" stroke="#404040" d="M72.9344,-607.497C80.5109,-575.112 93.7567,-518.494 107.064,-461.615"/>
<polygon fill="none" stroke="#404040" points="107.079,-461.548 104.551,-454.794 109.813,-449.863 112.341,-456.617 107.079,-461.548"/>
<text text-anchor="middle" x="135" y="-581" font-family="Helvetica,sans-Serif" font-size="10.00"> #RiceC</text>
<text text-anchor="middle" x="135" y="-570" font-family="Helvetica,sans-Serif" font-size="10.00">#phone</text>
<text text-anchor="middle" x="135" y="-559" font-family="Helvetica,sans-Serif" font-size="10.00">#saumon</text>
<text text-anchor="middle" x="135" y="-548" font-family="Helvetica,sans-Serif" font-size="10.00">#exitPhone</text>
<text text-anchor="middle" x="135" y="-537" font-family="Helvetica,sans-Serif" font-size="10.00">#shrimpCoord</text>
<text text-anchor="middle" x="135" y="-526" font-family="Helvetica,sans-Serif" font-size="10.00">#nori</text>
<text text-anchor="middle" x="135" y="-515" font-family="Helvetica,sans-Serif" font-size="10.00">#RiceCbuy</text>
<text text-anchor="middle" x="135" y="-504" font-family="Helvetica,sans-Serif" font-size="10.00">#validate</text>
<text text-anchor="middle" x="135" y="-493" font-family="Helvetica,sans-Serif" font-size="10.00">#fishEggs</text>
<text text-anchor="middle" x="135" y="-482" font-family="Helvetica,sans-Serif" font-size="10.00">#Topping</text>
<text text-anchor="middle" x="135" y="-471" font-family="Helvetica,sans-Serif" font-size="10.00">...</text>
</g>
</g>
</svg>
