<?xml version="1.0" encoding="UTF-8" standalone="no"?>
<!DOCTYPE svg PUBLIC "-//W3C//DTD SVG 1.1//EN"
 "http://www.w3.org/Graphics/SVG/1.1/DTD/svg11.dtd">
<!-- Generated by graphviz version 2.38.0 (20140413.2041)
 -->
<!-- Title: ScreenCaptureRectangle Pages: 1 -->
<svg width="183pt" height="193pt"
 viewBox="0.00 0.00 183.00 193.00" xmlns="http://www.w3.org/2000/svg" xmlns:xlink="http://www.w3.org/1999/xlink">
<g id="graph0" class="graph" transform="scale(1 1) rotate(0) translate(4 189)">
<title>ScreenCaptureRectangle</title>
<!-- Node1 -->
<g id="node1" class="node"><title>Node1</title>
<polygon fill="#bfbfbf" stroke="black" points="13.5,-0.5 13.5,-79.5 154.5,-79.5 154.5,-0.5 13.5,-0.5"/>
<text text-anchor="middle" x="84" y="-67.5" font-family="Helvetica,sans-Serif" font-size="10.00">ScreenCaptureRectangle</text>
<polyline fill="none" stroke="black" points="13.5,-60.5 154.5,-60.5 "/>
<text text-anchor="middle" x="84" y="-48.5" font-family="Helvetica,sans-Serif" font-size="10.00"> </text>
<polyline fill="none" stroke="black" points="13.5,-41.5 154.5,-41.5 "/>
<text text-anchor="start" x="21.5" y="-29.5" font-family="Helvetica,sans-Serif" font-size="10.00">+ repaint()</text>
<text text-anchor="start" x="21.5" y="-18.5" font-family="Helvetica,sans-Serif" font-size="10.00">+ main()</text>
<text text-anchor="start" x="21.5" y="-7.5" font-family="Helvetica,sans-Serif" font-size="10.00">~ ScreenCaptureRectangle()</text>
</g>
<!-- Node2 -->
<g id="node2" class="node"><title>Node2</title>
<polygon fill="none" stroke="#bfbfbf" points="0,-127.5 0,-184.5 80,-184.5 80,-127.5 0,-127.5"/>
<text text-anchor="middle" x="40" y="-172.5" font-family="Helvetica,sans-Serif" font-size="10.00">BufferedImage</text>
<polyline fill="none" stroke="#bfbfbf" points="0,-165.5 80,-165.5 "/>
<text text-anchor="middle" x="40" y="-153.5" font-family="Helvetica,sans-Serif" font-size="10.00"> </text>
<polyline fill="none" stroke="#bfbfbf" points="0,-146.5 80,-146.5 "/>
<text text-anchor="middle" x="40" y="-134.5" font-family="Helvetica,sans-Serif" font-size="10.00"> </text>
</g>
<!-- Node2&#45;&gt;Node1 -->
<g id="edge1" class="edge"><title>Node2&#45;&gt;Node1</title>
<path fill="none" stroke="#404040" d="M39.595,-127.428C40.1866,-117.881 41.6854,-107.259 45,-98 45.903,-95.4776 46.9454,-92.9614 48.0961,-90.4693"/>
<polygon fill="none" stroke="#404040" points="48.1469,-90.3728 47.4029,-83.2002 53.7377,-79.7547 54.4816,-86.9273 48.1469,-90.3728"/>
<text text-anchor="middle" x="76" y="-101" font-family="Helvetica,sans-Serif" font-size="10.00"> +screenCopy</text>
</g>
<!-- Node3 -->
<g id="node3" class="node"><title>Node3</title>
<polygon fill="none" stroke="#bfbfbf" points="98.5,-127.5 98.5,-184.5 159.5,-184.5 159.5,-127.5 98.5,-127.5"/>
<text text-anchor="middle" x="129" y="-172.5" font-family="Helvetica,sans-Serif" font-size="10.00">Rectangle</text>
<polyline fill="none" stroke="#bfbfbf" points="98.5,-165.5 159.5,-165.5 "/>
<text text-anchor="middle" x="129" y="-153.5" font-family="Helvetica,sans-Serif" font-size="10.00"> </text>
<polyline fill="none" stroke="#bfbfbf" points="98.5,-146.5 159.5,-146.5 "/>
<text text-anchor="middle" x="129" y="-134.5" font-family="Helvetica,sans-Serif" font-size="10.00"> </text>
</g>
<!-- Node3&#45;&gt;Node1 -->
<g id="edge2" class="edge"><title>Node3&#45;&gt;Node1</title>
<path fill="none" stroke="#404040" d="M118.454,-127.425C114.851,-118.072 110.778,-107.571 107,-98 106.082,-95.6736 105.139,-93.2955 104.184,-90.8945"/>
<polygon fill="none" stroke="#404040" points="104.123,-90.7437 98.1816,-86.6576 99.6681,-79.6014 105.61,-83.6875 104.123,-90.7437"/>
<text text-anchor="middle" x="143.5" y="-101" font-family="Helvetica,sans-Serif" font-size="10.00"> ~captureRect</text>
</g>
</g>
</svg>
