<?xml version="1.0" encoding="UTF-8" standalone="no"?>
<!DOCTYPE svg PUBLIC "-//W3C//DTD SVG 1.1//EN"
 "http://www.w3.org/Graphics/SVG/1.1/DTD/svg11.dtd">
<!-- Generated by graphviz version 2.38.0 (20140413.2041)
 -->
<!-- Title: IA Pages: 1 -->
<svg width="156pt" height="661pt"
 viewBox="0.00 0.00 155.50 661.00" xmlns="http://www.w3.org/2000/svg" xmlns:xlink="http://www.w3.org/1999/xlink">
<g id="graph0" class="graph" transform="scale(1 1) rotate(0) translate(4 657)">
<title>IA</title>
<!-- Node1 -->
<g id="node1" class="node"><title>Node1</title>
<polygon fill="#bfbfbf" stroke="black" points="17.5,-0.5 17.5,-211.5 114.5,-211.5 114.5,-0.5 17.5,-0.5"/>
<text text-anchor="middle" x="66" y="-199.5" font-family="Helvetica,sans-Serif" font-size="10.00">IA</text>
<polyline fill="none" stroke="black" points="17.5,-192.5 114.5,-192.5 "/>
<text text-anchor="start" x="25.5" y="-180.5" font-family="Helvetica,sans-Serif" font-size="10.00">+ xOr</text>
<text text-anchor="start" x="25.5" y="-169.5" font-family="Helvetica,sans-Serif" font-size="10.00">+ yOr</text>
<text text-anchor="start" x="25.5" y="-158.5" font-family="Helvetica,sans-Serif" font-size="10.00">&#45; width</text>
<text text-anchor="start" x="25.5" y="-147.5" font-family="Helvetica,sans-Serif" font-size="10.00">&#45; height</text>
<text text-anchor="start" x="25.5" y="-136.5" font-family="Helvetica,sans-Serif" font-size="10.00">&#45; zones</text>
<text text-anchor="start" x="25.5" y="-125.5" font-family="Helvetica,sans-Serif" font-size="10.00">&#45; bulles</text>
<text text-anchor="start" x="25.5" y="-114.5" font-family="Helvetica,sans-Serif" font-size="10.00">&#45; sushiReference</text>
<text text-anchor="start" x="25.5" y="-103.5" font-family="Helvetica,sans-Serif" font-size="10.00">&#45; serialVersionUID</text>
<text text-anchor="start" x="25.5" y="-92.5" font-family="Helvetica,sans-Serif" font-size="10.00">&#45; spriteCount</text>
<polyline fill="none" stroke="black" points="17.5,-85.5 114.5,-85.5 "/>
<text text-anchor="start" x="25.5" y="-73.5" font-family="Helvetica,sans-Serif" font-size="10.00">+ IA()</text>
<text text-anchor="start" x="25.5" y="-62.5" font-family="Helvetica,sans-Serif" font-size="10.00">+ click()</text>
<text text-anchor="start" x="25.5" y="-51.5" font-family="Helvetica,sans-Serif" font-size="10.00">+ initiateGame()</text>
<text text-anchor="start" x="25.5" y="-40.5" font-family="Helvetica,sans-Serif" font-size="10.00">+ getZone()</text>
<text text-anchor="start" x="25.5" y="-29.5" font-family="Helvetica,sans-Serif" font-size="10.00">+ saveSprites()</text>
<text text-anchor="start" x="25.5" y="-18.5" font-family="Helvetica,sans-Serif" font-size="10.00">+ loadSprites()</text>
<text text-anchor="start" x="25.5" y="-7.5" font-family="Helvetica,sans-Serif" font-size="10.00">+ getSushi()</text>
</g>
<!-- Node2 -->
<g id="node2" class="node"><title>Node2</title>
<g id="a_node2"><a xlink:href="classToolBox.html" target="_top" xlink:title="{ToolBox\n|+ ga\l~ terminate\l&#45; w\l&#45; h\l&#45; snap\l&#45; detect\l&#45; launch\l&#45; Auto\l&#45; startBot\l&#45; saveSprites\l&#45; makeSushi\l&#45; txt\l&#45; countScreen\l&#45; manager\l&#45; scan\l&#45; serialVersionUID\l|+ ToolBox()\l+ ToolBox()\l+ Capture()\l+ CaptureGame()\l+ Launch()\l+ Run()\l+ Serve()\l+ actionPerformed()\l+ clicBar()\l}">
<polygon fill="none" stroke="black" points="14.5,-248.5 14.5,-558.5 117.5,-558.5 117.5,-248.5 14.5,-248.5"/>
<text text-anchor="middle" x="66" y="-546.5" font-family="Helvetica,sans-Serif" font-size="10.00">ToolBox</text>
<polyline fill="none" stroke="black" points="14.5,-539.5 117.5,-539.5 "/>
<text text-anchor="start" x="22.5" y="-527.5" font-family="Helvetica,sans-Serif" font-size="10.00">+ ga</text>
<text text-anchor="start" x="22.5" y="-516.5" font-family="Helvetica,sans-Serif" font-size="10.00">~ terminate</text>
<text text-anchor="start" x="22.5" y="-505.5" font-family="Helvetica,sans-Serif" font-size="10.00">&#45; w</text>
<text text-anchor="start" x="22.5" y="-494.5" font-family="Helvetica,sans-Serif" font-size="10.00">&#45; h</text>
<text text-anchor="start" x="22.5" y="-483.5" font-family="Helvetica,sans-Serif" font-size="10.00">&#45; snap</text>
<text text-anchor="start" x="22.5" y="-472.5" font-family="Helvetica,sans-Serif" font-size="10.00">&#45; detect</text>
<text text-anchor="start" x="22.5" y="-461.5" font-family="Helvetica,sans-Serif" font-size="10.00">&#45; launch</text>
<text text-anchor="start" x="22.5" y="-450.5" font-family="Helvetica,sans-Serif" font-size="10.00">&#45; Auto</text>
<text text-anchor="start" x="22.5" y="-439.5" font-family="Helvetica,sans-Serif" font-size="10.00">&#45; startBot</text>
<text text-anchor="start" x="22.5" y="-428.5" font-family="Helvetica,sans-Serif" font-size="10.00">&#45; saveSprites</text>
<text text-anchor="start" x="22.5" y="-417.5" font-family="Helvetica,sans-Serif" font-size="10.00">&#45; makeSushi</text>
<text text-anchor="start" x="22.5" y="-406.5" font-family="Helvetica,sans-Serif" font-size="10.00">&#45; txt</text>
<text text-anchor="start" x="22.5" y="-395.5" font-family="Helvetica,sans-Serif" font-size="10.00">&#45; countScreen</text>
<text text-anchor="start" x="22.5" y="-384.5" font-family="Helvetica,sans-Serif" font-size="10.00">&#45; manager</text>
<text text-anchor="start" x="22.5" y="-373.5" font-family="Helvetica,sans-Serif" font-size="10.00">&#45; scan</text>
<text text-anchor="start" x="22.5" y="-362.5" font-family="Helvetica,sans-Serif" font-size="10.00">&#45; serialVersionUID</text>
<polyline fill="none" stroke="black" points="14.5,-355.5 117.5,-355.5 "/>
<text text-anchor="start" x="22.5" y="-343.5" font-family="Helvetica,sans-Serif" font-size="10.00">+ ToolBox()</text>
<text text-anchor="start" x="22.5" y="-332.5" font-family="Helvetica,sans-Serif" font-size="10.00">+ ToolBox()</text>
<text text-anchor="start" x="22.5" y="-321.5" font-family="Helvetica,sans-Serif" font-size="10.00">+ Capture()</text>
<text text-anchor="start" x="22.5" y="-310.5" font-family="Helvetica,sans-Serif" font-size="10.00">+ CaptureGame()</text>
<text text-anchor="start" x="22.5" y="-299.5" font-family="Helvetica,sans-Serif" font-size="10.00">+ Launch()</text>
<text text-anchor="start" x="22.5" y="-288.5" font-family="Helvetica,sans-Serif" font-size="10.00">+ Run()</text>
<text text-anchor="start" x="22.5" y="-277.5" font-family="Helvetica,sans-Serif" font-size="10.00">+ Serve()</text>
<text text-anchor="start" x="22.5" y="-266.5" font-family="Helvetica,sans-Serif" font-size="10.00">+ actionPerformed()</text>
<text text-anchor="start" x="22.5" y="-255.5" font-family="Helvetica,sans-Serif" font-size="10.00">+ clicBar()</text>
</a>
</g>
</g>
<!-- Node2&#45;&gt;Node1 -->
<g id="edge1" class="edge"><title>Node2&#45;&gt;Node1</title>
<path fill="none" stroke="midnightblue" d="M66,-238.178C66,-229.273 66,-220.449 66,-211.839"/>
<polygon fill="none" stroke="midnightblue" points="62.5001,-238.259 66,-248.259 69.5001,-238.259 62.5001,-238.259"/>
</g>
<!-- Node3 -->
<g id="node3" class="node"><title>Node3</title>
<polygon fill="none" stroke="#bfbfbf" points="0,-595.5 0,-652.5 50,-652.5 50,-595.5 0,-595.5"/>
<text text-anchor="middle" x="25" y="-640.5" font-family="Helvetica,sans-Serif" font-size="10.00">JFrame</text>
<polyline fill="none" stroke="#bfbfbf" points="0,-633.5 50,-633.5 "/>
<text text-anchor="middle" x="25" y="-621.5" font-family="Helvetica,sans-Serif" font-size="10.00"> </text>
<polyline fill="none" stroke="#bfbfbf" points="0,-614.5 50,-614.5 "/>
<text text-anchor="middle" x="25" y="-602.5" font-family="Helvetica,sans-Serif" font-size="10.00"> </text>
</g>
<!-- Node3&#45;&gt;Node2 -->
<g id="edge2" class="edge"><title>Node3&#45;&gt;Node2</title>
<path fill="none" stroke="midnightblue" d="M32.0777,-585.281C33.5925,-577.208 35.2818,-568.205 37.0753,-558.648"/>
<polygon fill="none" stroke="midnightblue" points="28.597,-584.853 30.1927,-595.327 35.477,-586.144 28.597,-584.853"/>
</g>
<!-- Node4 -->
<g id="node4" class="node"><title>Node4</title>
<polygon fill="none" stroke="#bfbfbf" points="68.5,-595.5 68.5,-652.5 147.5,-652.5 147.5,-595.5 68.5,-595.5"/>
<text text-anchor="middle" x="108" y="-640.5" font-family="Helvetica,sans-Serif" font-size="10.00">ActionListener</text>
<polyline fill="none" stroke="#bfbfbf" points="68.5,-633.5 147.5,-633.5 "/>
<text text-anchor="middle" x="108" y="-621.5" font-family="Helvetica,sans-Serif" font-size="10.00"> </text>
<polyline fill="none" stroke="#bfbfbf" points="68.5,-614.5 147.5,-614.5 "/>
<text text-anchor="middle" x="108" y="-602.5" font-family="Helvetica,sans-Serif" font-size="10.00"> </text>
</g>
<!-- Node4&#45;&gt;Node2 -->
<g id="edge3" class="edge"><title>Node4&#45;&gt;Node2</title>
<path fill="none" stroke="midnightblue" d="M100.75,-585.281C99.1979,-577.208 97.4674,-568.205 95.6302,-558.648"/>
<polygon fill="none" stroke="midnightblue" points="97.3559,-586.167 102.681,-595.327 104.23,-584.846 97.3559,-586.167"/>
</g>
</g>
</svg>
