<?xml version="1.0" encoding="UTF-8" standalone="no"?>
<!DOCTYPE svg PUBLIC "-//W3C//DTD SVG 1.1//EN"
 "http://www.w3.org/Graphics/SVG/1.1/DTD/svg11.dtd">
<!-- Generated by graphviz version 2.38.0 (20140413.2041)
 -->
<!-- Title: TestSushi.src.Suchi.ScreenCaptureRectangle Pages: 1 -->
<svg width="182pt" height="204pt"
 viewBox="0.00 0.00 182.00 204.00" xmlns="http://www.w3.org/2000/svg" xmlns:xlink="http://www.w3.org/1999/xlink">
<g id="graph0" class="graph" transform="scale(1 1) rotate(0) translate(4 200)">
<title>TestSushi.src.Suchi.ScreenCaptureRectangle</title>
<!-- Node1 -->
<g id="node1" class="node"><title>Node1</title>
<polygon fill="#bfbfbf" stroke="black" points="13.5,-0.5 13.5,-90.5 154.5,-90.5 154.5,-0.5 13.5,-0.5"/>
<text text-anchor="start" x="21.5" y="-78.5" font-family="Helvetica,sans-Serif" font-size="10.00">TestSushi.src.Suchi.Screen</text>
<text text-anchor="middle" x="84" y="-67.5" font-family="Helvetica,sans-Serif" font-size="10.00">CaptureRectangle</text>
<polyline fill="none" stroke="black" points="13.5,-60.5 154.5,-60.5 "/>
<text text-anchor="middle" x="84" y="-48.5" font-family="Helvetica,sans-Serif" font-size="10.00"> </text>
<polyline fill="none" stroke="black" points="13.5,-41.5 154.5,-41.5 "/>
<text text-anchor="start" x="21.5" y="-29.5" font-family="Helvetica,sans-Serif" font-size="10.00">+ repaint()</text>
<text text-anchor="start" x="21.5" y="-18.5" font-family="Helvetica,sans-Serif" font-size="10.00">+ main()</text>
<text text-anchor="start" x="21.5" y="-7.5" font-family="Helvetica,sans-Serif" font-size="10.00">~ ScreenCaptureRectangle()</text>
</g>
<!-- Node2 -->
<g id="node2" class="node"><title>Node2</title>
<polygon fill="none" stroke="#bfbfbf" points="0,-138.5 0,-195.5 80,-195.5 80,-138.5 0,-138.5"/>
<text text-anchor="middle" x="40" y="-183.5" font-family="Helvetica,sans-Serif" font-size="10.00">BufferedImage</text>
<polyline fill="none" stroke="#bfbfbf" points="0,-176.5 80,-176.5 "/>
<text text-anchor="middle" x="40" y="-164.5" font-family="Helvetica,sans-Serif" font-size="10.00"> </text>
<polyline fill="none" stroke="#bfbfbf" points="0,-157.5 80,-157.5 "/>
<text text-anchor="middle" x="40" y="-145.5" font-family="Helvetica,sans-Serif" font-size="10.00"> </text>
</g>
<!-- Node2&#45;&gt;Node1 -->
<g id="edge1" class="edge"><title>Node2&#45;&gt;Node1</title>
<path fill="none" stroke="#404040" d="M39.8349,-138.215C40.4565,-128.75 41.9128,-118.233 45,-109 45.808,-106.584 46.7264,-104.165 47.7332,-101.758"/>
<polygon fill="none" stroke="#404040" points="47.8617,-101.488 46.8201,-94.352 53.0061,-90.6461 54.0477,-97.7816 47.8617,-101.488"/>
<text text-anchor="middle" x="76" y="-112" font-family="Helvetica,sans-Serif" font-size="10.00"> +screenCopy</text>
</g>
<!-- Node3 -->
<g id="node3" class="node"><title>Node3</title>
<polygon fill="none" stroke="#bfbfbf" points="98.5,-138.5 98.5,-195.5 159.5,-195.5 159.5,-138.5 98.5,-138.5"/>
<text text-anchor="middle" x="129" y="-183.5" font-family="Helvetica,sans-Serif" font-size="10.00">Rectangle</text>
<polyline fill="none" stroke="#bfbfbf" points="98.5,-176.5 159.5,-176.5 "/>
<text text-anchor="middle" x="129" y="-164.5" font-family="Helvetica,sans-Serif" font-size="10.00"> </text>
<polyline fill="none" stroke="#bfbfbf" points="98.5,-157.5 159.5,-157.5 "/>
<text text-anchor="middle" x="129" y="-145.5" font-family="Helvetica,sans-Serif" font-size="10.00"> </text>
</g>
<!-- Node3&#45;&gt;Node1 -->
<g id="edge2" class="edge"><title>Node3&#45;&gt;Node1</title>
<path fill="none" stroke="#404040" d="M118.563,-138.284C114.508,-127.515 109.71,-114.775 105.001,-102.269"/>
<polygon fill="none" stroke="#404040" points="104.953,-102.143 99.0955,-97.9372 100.724,-90.9125 106.582,-95.1179 104.953,-102.143"/>
<text text-anchor="middle" x="142.5" y="-112" font-family="Helvetica,sans-Serif" font-size="10.00"> ~captureRect</text>
</g>
</g>
</svg>
