<?xml version="1.0" encoding="UTF-8" standalone="no"?>
<!DOCTYPE svg PUBLIC "-//W3C//DTD SVG 1.1//EN"
 "http://www.w3.org/Graphics/SVG/1.1/DTD/svg11.dtd">
<!-- Generated by graphviz version 2.38.0 (20140413.2041)
 -->
<!-- Title: Graphe hiérarchique des classes Pages: 1 -->
<svg width="165pt" height="66pt"
 viewBox="0.00 0.00 165.00 66.00" xmlns="http://www.w3.org/2000/svg" xmlns:xlink="http://www.w3.org/1999/xlink">
<g id="graph0" class="graph" transform="scale(1 1) rotate(0) translate(4 62)">
<title>Graphe hiérarchique des classes</title>
<!-- Node1 -->
<g id="node1" class="node"><title>Node1</title>
<polygon fill="none" stroke="#bfbfbf" points="0,-19.5 0,-38.5 47,-38.5 47,-19.5 0,-19.5"/>
<text text-anchor="middle" x="23.5" y="-26.5" font-family="Helvetica,sans-Serif" font-size="10.00">Thread</text>
</g>
<!-- Node2 -->
<g id="node2" class="node"><title>Node2</title>
<g id="a_node2"><a xlink:href="classmain_1_1Service.html" target="_top" xlink:title="main.Service">
<polygon fill="none" stroke="black" points="83,-38.5 83,-57.5 157,-57.5 157,-38.5 83,-38.5"/>
<text text-anchor="middle" x="120" y="-45.5" font-family="Helvetica,sans-Serif" font-size="10.00">main.Service</text>
</a>
</g>
</g>
<!-- Node1&#45;&gt;Node2 -->
<g id="edge1" class="edge"><title>Node1&#45;&gt;Node2</title>
<path fill="none" stroke="midnightblue" d="M57.3249,-35.5997C65.5163,-37.2467 74.3474,-39.0222 82.6961,-40.7008"/>
<polygon fill="midnightblue" stroke="midnightblue" points="57.8695,-32.1393 47.3758,-33.5994 56.4897,-39.0019 57.8695,-32.1393"/>
</g>
<!-- Node3 -->
<g id="node3" class="node"><title>Node3</title>
<g id="a_node3"><a xlink:href="classService.html" target="_top" xlink:title="Service">
<polygon fill="none" stroke="black" points="95,-0.5 95,-19.5 145,-19.5 145,-0.5 95,-0.5"/>
<text text-anchor="middle" x="120" y="-7.5" font-family="Helvetica,sans-Serif" font-size="10.00">Service</text>
</a>
</g>
</g>
<!-- Node1&#45;&gt;Node3 -->
<g id="edge2" class="edge"><title>Node1&#45;&gt;Node3</title>
<path fill="none" stroke="midnightblue" d="M57.2743,-22.4105C69.5621,-19.9399 83.2956,-17.1787 94.6831,-14.8891"/>
<polygon fill="midnightblue" stroke="midnightblue" points="56.4897,-18.9981 47.3758,-24.4006 57.8695,-25.8607 56.4897,-18.9981"/>
</g>
</g>
</svg>
