<?xml version="1.0" encoding="UTF-8" standalone="no"?>
<!DOCTYPE svg PUBLIC "-//W3C//DTD SVG 1.1//EN"
 "http://www.w3.org/Graphics/SVG/1.1/DTD/svg11.dtd">
<!-- Generated by graphviz version 2.38.0 (20140413.2041)
 -->
<!-- Title: Graphe hiérarchique des classes Pages: 1 -->
<svg width="374pt" height="268pt"
 viewBox="0.00 0.00 374.00 268.00" xmlns="http://www.w3.org/2000/svg" xmlns:xlink="http://www.w3.org/1999/xlink">
<g id="graph0" class="graph" transform="scale(1 1) rotate(0) translate(4 264)">
<title>Graphe hiérarchique des classes</title>
<!-- Node1 -->
<g id="node1" class="node"><title>Node1</title>
<polygon fill="none" stroke="#bfbfbf" points="0,-126.5 0,-145.5 79,-145.5 79,-126.5 0,-126.5"/>
<text text-anchor="middle" x="39.5" y="-133.5" font-family="Helvetica,sans-Serif" font-size="10.00">ActionListener</text>
</g>
<!-- Node2 -->
<g id="node2" class="node"><title>Node2</title>
<g id="a_node2"><a xlink:href="classmain_1_1ToolBox.html" target="_top" xlink:title="main.ToolBox">
<polygon fill="none" stroke="black" points="146,-164.5 146,-183.5 223,-183.5 223,-164.5 146,-164.5"/>
<text text-anchor="middle" x="184.5" y="-171.5" font-family="Helvetica,sans-Serif" font-size="10.00">main.ToolBox</text>
</a>
</g>
</g>
<!-- Node1&#45;&gt;Node2 -->
<g id="edge1" class="edge"><title>Node1&#45;&gt;Node2</title>
<path fill="none" stroke="midnightblue" d="M86.3133,-148.174C106.087,-153.429 128.884,-159.487 147.427,-164.414"/>
<polygon fill="midnightblue" stroke="midnightblue" points="87.1484,-144.775 76.5849,-145.589 85.3506,-151.54 87.1484,-144.775"/>
</g>
<!-- Node4 -->
<g id="node4" class="node"><title>Node4</title>
<g id="a_node4"><a xlink:href="classSuchi_1_1ScreenMouse.html" target="_top" xlink:title="Suchi.ScreenMouse">
<polygon fill="none" stroke="black" points="132.5,-0.5 132.5,-19.5 236.5,-19.5 236.5,-0.5 132.5,-0.5"/>
<text text-anchor="middle" x="184.5" y="-7.5" font-family="Helvetica,sans-Serif" font-size="10.00">Suchi.ScreenMouse</text>
</a>
</g>
</g>
<!-- Node1&#45;&gt;Node4 -->
<g id="edge3" class="edge"><title>Node1&#45;&gt;Node4</title>
<path fill="none" stroke="midnightblue" d="M48.6192,-117.16C59.9644,-93.0807 82.8434,-51.7911 115,-29 120.437,-25.1464 126.628,-22.0731 133.014,-19.6224"/>
<polygon fill="midnightblue" stroke="midnightblue" points="45.4071,-115.769 44.4697,-126.322 51.7836,-118.657 45.4071,-115.769"/>
</g>
<!-- Node5 -->
<g id="node5" class="node"><title>Node5</title>
<g id="a_node5"><a xlink:href="classSuchi_1_1Toolbox.html" target="_top" xlink:title="Suchi.Toolbox">
<polygon fill="none" stroke="black" points="145,-126.5 145,-145.5 224,-145.5 224,-126.5 145,-126.5"/>
<text text-anchor="middle" x="184.5" y="-133.5" font-family="Helvetica,sans-Serif" font-size="10.00">Suchi.Toolbox</text>
</a>
</g>
</g>
<!-- Node1&#45;&gt;Node5 -->
<g id="edge4" class="edge"><title>Node1&#45;&gt;Node5</title>
<path fill="none" stroke="midnightblue" d="M89.2854,-136C107.397,-136 127.678,-136 144.771,-136"/>
<polygon fill="midnightblue" stroke="midnightblue" points="89.1979,-132.5 79.1979,-136 89.1978,-139.5 89.1979,-132.5"/>
</g>
<!-- Node6 -->
<g id="node6" class="node"><title>Node6</title>
<g id="a_node6"><a xlink:href="classSuchi_1_1ToolBox.html" target="_top" xlink:title="Suchi.ToolBox">
<polygon fill="none" stroke="black" points="144.5,-88.5 144.5,-107.5 224.5,-107.5 224.5,-88.5 144.5,-88.5"/>
<text text-anchor="middle" x="184.5" y="-95.5" font-family="Helvetica,sans-Serif" font-size="10.00">Suchi.ToolBox</text>
</a>
</g>
</g>
<!-- Node1&#45;&gt;Node6 -->
<g id="edge5" class="edge"><title>Node1&#45;&gt;Node6</title>
<path fill="none" stroke="midnightblue" d="M86.3133,-123.826C106.087,-118.571 128.884,-112.513 147.427,-107.586"/>
<polygon fill="midnightblue" stroke="midnightblue" points="85.3506,-120.46 76.5849,-126.411 87.1484,-127.225 85.3506,-120.46"/>
</g>
<!-- Node7 -->
<g id="node7" class="node"><title>Node7</title>
<g id="a_node7"><a xlink:href="classSushis_1_1src_1_1ToolBox.html" target="_top" xlink:title="Sushis.src.ToolBox">
<polygon fill="none" stroke="black" points="133.5,-240.5 133.5,-259.5 235.5,-259.5 235.5,-240.5 133.5,-240.5"/>
<text text-anchor="middle" x="184.5" y="-247.5" font-family="Helvetica,sans-Serif" font-size="10.00">Sushis.src.ToolBox</text>
</a>
</g>
</g>
<!-- Node1&#45;&gt;Node7 -->
<g id="edge6" class="edge"><title>Node1&#45;&gt;Node7</title>
<path fill="none" stroke="midnightblue" d="M74.5526,-151.072C76.1319,-152.297 77.6276,-153.605 79,-155 105.215,-181.64 86.4014,-206.936 115,-231 120.383,-235.529 126.764,-238.983 133.433,-241.617"/>
<polygon fill="midnightblue" stroke="midnightblue" points="76.439,-148.124 66.1428,-145.626 72.6338,-153.999 76.439,-148.124"/>
</g>
<!-- Node9 -->
<g id="node9" class="node"><title>Node9</title>
<g id="a_node9"><a xlink:href="classTestSushi_1_1src_1_1Suchi_1_1ScreenMouse.html" target="_top" xlink:title="TestSushi.src.Suchi.Screen\lMouse">
<polygon fill="none" stroke="black" points="115,-39 115,-69 254,-69 254,-39 115,-39"/>
<text text-anchor="start" x="123" y="-57" font-family="Helvetica,sans-Serif" font-size="10.00">TestSushi.src.Suchi.Screen</text>
<text text-anchor="middle" x="184.5" y="-46" font-family="Helvetica,sans-Serif" font-size="10.00">Mouse</text>
</a>
</g>
</g>
<!-- Node1&#45;&gt;Node9 -->
<g id="edge8" class="edge"><title>Node1&#45;&gt;Node9</title>
<path fill="none" stroke="midnightblue" d="M58.5591,-119.664C73.0111,-107.236 94.2293,-90.3881 115,-79 121.66,-75.3483 128.962,-72.035 136.237,-69.1021"/>
<polygon fill="midnightblue" stroke="midnightblue" points="56.0953,-117.169 50.8864,-126.395 60.7118,-122.431 56.0953,-117.169"/>
</g>
<!-- Node10 -->
<g id="node10" class="node"><title>Node10</title>
<g id="a_node10"><a xlink:href="classToolBox.html" target="_top" xlink:title="ToolBox">
<polygon fill="none" stroke="black" points="158,-202.5 158,-221.5 211,-221.5 211,-202.5 158,-202.5"/>
<text text-anchor="middle" x="184.5" y="-209.5" font-family="Helvetica,sans-Serif" font-size="10.00">ToolBox</text>
</a>
</g>
</g>
<!-- Node1&#45;&gt;Node10 -->
<g id="edge9" class="edge"><title>Node1&#45;&gt;Node10</title>
<path fill="none" stroke="midnightblue" d="M72.3437,-150.57C74.6553,-151.971 76.9004,-153.452 79,-155 97.7236,-168.808 95.0638,-181.009 115,-193 128.008,-200.824 144.33,-205.516 157.777,-208.279"/>
<polygon fill="midnightblue" stroke="midnightblue" points="73.7142,-147.329 63.2656,-145.575 70.3397,-153.462 73.7142,-147.329"/>
</g>
<!-- Node3 -->
<g id="node3" class="node"><title>Node3</title>
<g id="a_node3"><a xlink:href="classmain_1_1IA.html" target="_top" xlink:title="main.IA">
<polygon fill="none" stroke="black" points="303,-164.5 303,-183.5 353,-183.5 353,-164.5 303,-164.5"/>
<text text-anchor="middle" x="328" y="-171.5" font-family="Helvetica,sans-Serif" font-size="10.00">main.IA</text>
</a>
</g>
</g>
<!-- Node2&#45;&gt;Node3 -->
<g id="edge2" class="edge"><title>Node2&#45;&gt;Node3</title>
<path fill="none" stroke="midnightblue" d="M233.125,-174C256.467,-174 283.583,-174 302.653,-174"/>
<polygon fill="midnightblue" stroke="midnightblue" points="233.048,-170.5 223.048,-174 233.048,-177.5 233.048,-170.5"/>
</g>
<!-- Node8 -->
<g id="node8" class="node"><title>Node8</title>
<g id="a_node8"><a xlink:href="classSushis_1_1src_1_1IA.html" target="_top" xlink:title="Sushis.src.IA">
<polygon fill="none" stroke="black" points="290,-240.5 290,-259.5 366,-259.5 366,-240.5 290,-240.5"/>
<text text-anchor="middle" x="328" y="-247.5" font-family="Helvetica,sans-Serif" font-size="10.00">Sushis.src.IA</text>
</a>
</g>
</g>
<!-- Node7&#45;&gt;Node8 -->
<g id="edge7" class="edge"><title>Node7&#45;&gt;Node8</title>
<path fill="none" stroke="midnightblue" d="M245.961,-250C260.849,-250 276.359,-250 289.776,-250"/>
<polygon fill="midnightblue" stroke="midnightblue" points="245.786,-246.5 235.786,-250 245.786,-253.5 245.786,-246.5"/>
</g>
<!-- Node11 -->
<g id="node11" class="node"><title>Node11</title>
<g id="a_node11"><a xlink:href="classIA.html" target="_top" xlink:title="IA">
<polygon fill="none" stroke="black" points="313.5,-202.5 313.5,-221.5 342.5,-221.5 342.5,-202.5 313.5,-202.5"/>
<text text-anchor="middle" x="328" y="-209.5" font-family="Helvetica,sans-Serif" font-size="10.00">IA</text>
</a>
</g>
</g>
<!-- Node10&#45;&gt;Node11 -->
<g id="edge10" class="edge"><title>Node10&#45;&gt;Node11</title>
<path fill="none" stroke="midnightblue" d="M221.166,-212C251.015,-212 292.017,-212 313.155,-212"/>
<polygon fill="midnightblue" stroke="midnightblue" points="221.125,-208.5 211.125,-212 221.125,-215.5 221.125,-208.5"/>
</g>
<!-- Node12 -->
<g id="node12" class="node"><title>Node12</title>
<polygon fill="none" stroke="#bfbfbf" points="14.5,-164.5 14.5,-183.5 64.5,-183.5 64.5,-164.5 14.5,-164.5"/>
<text text-anchor="middle" x="39.5" y="-171.5" font-family="Helvetica,sans-Serif" font-size="10.00">JFrame</text>
</g>
<!-- Node12&#45;&gt;Node2 -->
<g id="edge11" class="edge"><title>Node12&#45;&gt;Node2</title>
<path fill="none" stroke="midnightblue" d="M75.0327,-174C96.4462,-174 123.962,-174 145.921,-174"/>
<polygon fill="midnightblue" stroke="midnightblue" points="74.758,-170.5 64.758,-174 74.758,-177.5 74.758,-170.5"/>
</g>
<!-- Node12&#45;&gt;Node5 -->
<g id="edge12" class="edge"><title>Node12&#45;&gt;Node5</title>
<path fill="none" stroke="midnightblue" d="M74.6674,-164.921C96.6691,-159.074 125.226,-151.485 147.566,-145.549"/>
<polygon fill="midnightblue" stroke="midnightblue" points="73.5237,-161.603 64.758,-167.554 75.3215,-168.368 73.5237,-161.603"/>
</g>
<!-- Node12&#45;&gt;Node6 -->
<g id="edge13" class="edge"><title>Node12&#45;&gt;Node6</title>
<path fill="none" stroke="midnightblue" d="M72.3437,-159.43C74.6553,-158.029 76.9004,-156.548 79,-155 97.7236,-141.192 95.0638,-128.991 115,-117 123.884,-111.657 134.313,-107.774 144.316,-104.969"/>
<polygon fill="midnightblue" stroke="midnightblue" points="70.3397,-156.538 63.2656,-164.425 73.7142,-162.671 70.3397,-156.538"/>
</g>
<!-- Node12&#45;&gt;Node7 -->
<g id="edge14" class="edge"><title>Node12&#45;&gt;Node7</title>
<path fill="none" stroke="midnightblue" d="M58.3155,-190.802C72.635,-203.483 93.7939,-220.445 115,-231 122.623,-234.794 131.114,-237.924 139.45,-240.471"/>
<polygon fill="midnightblue" stroke="midnightblue" points="60.4825,-188.042 50.7261,-183.912 55.777,-193.225 60.4825,-188.042"/>
</g>
<!-- Node12&#45;&gt;Node10 -->
<g id="edge15" class="edge"><title>Node12&#45;&gt;Node10</title>
<path fill="none" stroke="midnightblue" d="M74.7397,-183.099C100.222,-189.87 134.466,-198.97 157.671,-205.136"/>
<polygon fill="midnightblue" stroke="midnightblue" points="75.3215,-179.632 64.758,-180.446 73.5237,-186.397 75.3215,-179.632"/>
</g>
<!-- Node13 -->
<g id="node13" class="node"><title>Node13</title>
<polygon fill="none" stroke="#bfbfbf" points="17.5,-22.5 17.5,-41.5 61.5,-41.5 61.5,-22.5 17.5,-22.5"/>
<text text-anchor="middle" x="39.5" y="-29.5" font-family="Helvetica,sans-Serif" font-size="10.00">Applet</text>
</g>
<!-- Node13&#45;&gt;Node4 -->
<g id="edge16" class="edge"><title>Node13&#45;&gt;Node4</title>
<path fill="none" stroke="midnightblue" d="M71.9278,-27.165C89.6214,-24.4429 112.15,-20.9769 132.325,-17.8731"/>
<polygon fill="midnightblue" stroke="midnightblue" points="70.9516,-23.7739 61.6001,-28.7538 72.0161,-30.6925 70.9516,-23.7739"/>
</g>
<!-- Node13&#45;&gt;Node9 -->
<g id="edge17" class="edge"><title>Node13&#45;&gt;Node9</title>
<path fill="none" stroke="midnightblue" d="M71.6474,-36.7919C84.3913,-38.7525 99.6781,-41.1043 114.798,-43.4304"/>
<polygon fill="midnightblue" stroke="midnightblue" points="72.0161,-33.3075 61.6001,-35.2462 70.9516,-40.2261 72.0161,-33.3075"/>
</g>
</g>
</svg>
