<?xml version="1.0" encoding="UTF-8" standalone="no"?>
<!DOCTYPE svg PUBLIC "-//W3C//DTD SVG 1.1//EN"
 "http://www.w3.org/Graphics/SVG/1.1/DTD/svg11.dtd">
<!-- Generated by graphviz version 2.38.0 (20140413.2041)
 -->
<!-- Title: Graphe hiérarchique des classes Pages: 1 -->
<svg width="149pt" height="104pt"
 viewBox="0.00 0.00 149.00 104.00" xmlns="http://www.w3.org/2000/svg" xmlns:xlink="http://www.w3.org/1999/xlink">
<g id="graph0" class="graph" transform="scale(1 1) rotate(0) translate(4 100)">
<title>Graphe hiérarchique des classes</title>
<!-- Node1 -->
<g id="node1" class="node"><title>Node1</title>
<polygon fill="none" stroke="#bfbfbf" points="10.5,-76.5 10.5,-95.5 57.5,-95.5 57.5,-76.5 10.5,-76.5"/>
<text text-anchor="middle" x="34" y="-83.5" font-family="Helvetica,sans-Serif" font-size="10.00">JPanel</text>
</g>
<!-- Node2 -->
<g id="node2" class="node"><title>Node2</title>
<g id="a_node2"><a xlink:href="classStop.html" target="_top" xlink:title="Stop">
<polygon fill="none" stroke="black" points="104,-38.5 104,-57.5 141,-57.5 141,-38.5 104,-38.5"/>
<text text-anchor="middle" x="122.5" y="-45.5" font-family="Helvetica,sans-Serif" font-size="10.00">Stop</text>
</a>
</g>
</g>
<!-- Node1&#45;&gt;Node2 -->
<g id="edge1" class="edge"><title>Node1&#45;&gt;Node2</title>
<path fill="none" stroke="midnightblue" d="M66.1252,-72.3265C78.7717,-66.7708 92.9229,-60.5541 103.754,-55.7959"/>
<polygon fill="midnightblue" stroke="midnightblue" points="64.5754,-69.1844 56.8276,-76.411 67.3908,-75.5933 64.5754,-69.1844"/>
</g>
<!-- Node3 -->
<g id="node3" class="node"><title>Node3</title>
<polygon fill="none" stroke="#bfbfbf" points="0,-38.5 0,-57.5 68,-57.5 68,-38.5 0,-38.5"/>
<text text-anchor="middle" x="34" y="-45.5" font-family="Helvetica,sans-Serif" font-size="10.00">KeyListener</text>
</g>
<!-- Node3&#45;&gt;Node2 -->
<g id="edge2" class="edge"><title>Node3&#45;&gt;Node2</title>
<path fill="none" stroke="midnightblue" d="M78.3688,-48C87.4522,-48 96.5286,-48 103.995,-48"/>
<polygon fill="midnightblue" stroke="midnightblue" points="78.1958,-44.5001 68.1958,-48 78.1957,-51.5001 78.1958,-44.5001"/>
</g>
<!-- Node4 -->
<g id="node4" class="node"><title>Node4</title>
<polygon fill="none" stroke="#bfbfbf" points="5,-0.5 5,-19.5 63,-19.5 63,-0.5 5,-0.5"/>
<text text-anchor="middle" x="34" y="-7.5" font-family="Helvetica,sans-Serif" font-size="10.00">Runnable</text>
</g>
<!-- Node4&#45;&gt;Node2 -->
<g id="edge3" class="edge"><title>Node4&#45;&gt;Node2</title>
<path fill="none" stroke="midnightblue" d="M66.1252,-23.6735C78.7717,-29.2292 92.9229,-35.4459 103.754,-40.2041"/>
<polygon fill="midnightblue" stroke="midnightblue" points="67.3908,-20.4067 56.8276,-19.589 64.5754,-26.8156 67.3908,-20.4067"/>
</g>
</g>
</svg>
