<?xml version="1.0" encoding="UTF-8" standalone="no"?>
<!DOCTYPE svg PUBLIC "-//W3C//DTD SVG 1.1//EN"
 "http://www.w3.org/Graphics/SVG/1.1/DTD/svg11.dtd">
<!-- Generated by graphviz version 2.38.0 (20140413.2041)
 -->
<!-- Title: Graphe hiérarchique des classes Pages: 1 -->
<svg width="338pt" height="180pt"
 viewBox="0.00 0.00 338.00 180.00" xmlns="http://www.w3.org/2000/svg" xmlns:xlink="http://www.w3.org/1999/xlink">
<g id="graph0" class="graph" transform="scale(1 1) rotate(0) translate(4 176)">
<title>Graphe hiérarchique des classes</title>
<!-- Node1 -->
<g id="node1" class="node"><title>Node1</title>
<g id="a_node1"><a xlink:href="classTestSushi_1_1src_1_1Suchi_1_1Recette.html" target="_top" xlink:title="TestSushi.src.Suchi.Recette">
<polygon fill="none" stroke="black" points="0,-76.5 0,-95.5 143,-95.5 143,-76.5 0,-76.5"/>
<text text-anchor="middle" x="71.5" y="-83.5" font-family="Helvetica,sans-Serif" font-size="10.00">TestSushi.src.Suchi.Recette</text>
</a>
</g>
</g>
<!-- Node2 -->
<g id="node2" class="node"><title>Node2</title>
<g id="a_node2"><a xlink:href="classTestSushi_1_1src_1_1Suchi_1_1California.html" target="_top" xlink:title="TestSushi.src.Suchi.California">
<polygon fill="none" stroke="black" points="180,-152.5 180,-171.5 329,-171.5 329,-152.5 180,-152.5"/>
<text text-anchor="middle" x="254.5" y="-159.5" font-family="Helvetica,sans-Serif" font-size="10.00">TestSushi.src.Suchi.California</text>
</a>
</g>
</g>
<!-- Node1&#45;&gt;Node2 -->
<g id="edge1" class="edge"><title>Node1&#45;&gt;Node2</title>
<path fill="none" stroke="midnightblue" d="M96.0544,-100.753C117.127,-113.422 149.201,-131.423 179,-143 188.456,-146.674 198.863,-149.841 208.824,-152.478"/>
<polygon fill="midnightblue" stroke="midnightblue" points="97.8252,-97.7331 87.4649,-95.5166 94.1817,-103.71 97.8252,-97.7331"/>
</g>
<!-- Node3 -->
<g id="node3" class="node"><title>Node3</title>
<g id="a_node3"><a xlink:href="classTestSushi_1_1src_1_1Suchi_1_1Maki.html" target="_top" xlink:title="TestSushi.src.Suchi.Maki">
<polygon fill="none" stroke="black" points="190,-114.5 190,-133.5 319,-133.5 319,-114.5 190,-114.5"/>
<text text-anchor="middle" x="254.5" y="-121.5" font-family="Helvetica,sans-Serif" font-size="10.00">TestSushi.src.Suchi.Maki</text>
</a>
</g>
</g>
<!-- Node1&#45;&gt;Node3 -->
<g id="edge2" class="edge"><title>Node1&#45;&gt;Node3</title>
<path fill="none" stroke="midnightblue" d="M128.138,-97.681C153.807,-103.07 183.891,-109.386 208.154,-114.48"/>
<polygon fill="midnightblue" stroke="midnightblue" points="128.68,-94.2184 118.174,-95.589 127.241,-101.069 128.68,-94.2184"/>
</g>
<!-- Node4 -->
<g id="node4" class="node"><title>Node4</title>
<g id="a_node4"><a xlink:href="classTestSushi_1_1src_1_1Suchi_1_1Onigiri.html" target="_top" xlink:title="TestSushi.src.Suchi.Onigiri">
<polygon fill="none" stroke="black" points="186.5,-76.5 186.5,-95.5 322.5,-95.5 322.5,-76.5 186.5,-76.5"/>
<text text-anchor="middle" x="254.5" y="-83.5" font-family="Helvetica,sans-Serif" font-size="10.00">TestSushi.src.Suchi.Onigiri</text>
</a>
</g>
</g>
<!-- Node1&#45;&gt;Node4 -->
<g id="edge3" class="edge"><title>Node1&#45;&gt;Node4</title>
<path fill="none" stroke="midnightblue" d="M153.319,-86C164.356,-86 175.587,-86 186.346,-86"/>
<polygon fill="midnightblue" stroke="midnightblue" points="153.257,-82.5001 143.257,-86 153.257,-89.5001 153.257,-82.5001"/>
</g>
<!-- Node5 -->
<g id="node5" class="node"><title>Node5</title>
<g id="a_node5"><a xlink:href="classTestSushi_1_1src_1_1Suchi_1_1Salmon.html" target="_top" xlink:title="TestSushi.src.Suchi.Salmon">
<polygon fill="none" stroke="black" points="184,-38.5 184,-57.5 325,-57.5 325,-38.5 184,-38.5"/>
<text text-anchor="middle" x="254.5" y="-45.5" font-family="Helvetica,sans-Serif" font-size="10.00">TestSushi.src.Suchi.Salmon</text>
</a>
</g>
</g>
<!-- Node1&#45;&gt;Node5 -->
<g id="edge4" class="edge"><title>Node1&#45;&gt;Node5</title>
<path fill="none" stroke="midnightblue" d="M128.138,-74.319C153.807,-68.9301 183.891,-62.6139 208.154,-57.5201"/>
<polygon fill="midnightblue" stroke="midnightblue" points="127.241,-70.9309 118.174,-76.411 128.68,-77.7816 127.241,-70.9309"/>
</g>
<!-- Node6 -->
<g id="node6" class="node"><title>Node6</title>
<g id="a_node6"><a xlink:href="classTestSushi_1_1src_1_1Suchi_1_1ShrimpSh.html" target="_top" xlink:title="TestSushi.src.Suchi.ShrimpSh">
<polygon fill="none" stroke="black" points="179,-0.5 179,-19.5 330,-19.5 330,-0.5 179,-0.5"/>
<text text-anchor="middle" x="254.5" y="-7.5" font-family="Helvetica,sans-Serif" font-size="10.00">TestSushi.src.Suchi.ShrimpSh</text>
</a>
</g>
</g>
<!-- Node1&#45;&gt;Node6 -->
<g id="edge5" class="edge"><title>Node1&#45;&gt;Node6</title>
<path fill="none" stroke="midnightblue" d="M96.0544,-71.2474C117.127,-58.5782 149.201,-40.5772 179,-29 188.456,-25.3263 198.863,-22.1592 208.824,-19.5219"/>
<polygon fill="midnightblue" stroke="midnightblue" points="94.1817,-68.2899 87.4649,-76.4834 97.8252,-74.2669 94.1817,-68.2899"/>
</g>
</g>
</svg>
