<?xml version="1.0" encoding="UTF-8" standalone="no"?>
<!DOCTYPE svg PUBLIC "-//W3C//DTD SVG 1.1//EN"
 "http://www.w3.org/Graphics/SVG/1.1/DTD/svg11.dtd">
<!-- Generated by graphviz version 2.38.0 (20140413.2041)
 -->
<!-- Title: Graphe hiérarchique des classes Pages: 1 -->
<svg width="210pt" height="180pt"
 viewBox="0.00 0.00 210.00 180.00" xmlns="http://www.w3.org/2000/svg" xmlns:xlink="http://www.w3.org/1999/xlink">
<g id="graph0" class="graph" transform="scale(1 1) rotate(0) translate(4 176)">
<title>Graphe hiérarchique des classes</title>
<!-- Node1 -->
<g id="node1" class="node"><title>Node1</title>
<g id="a_node1"><a xlink:href="classSuchi_1_1Recette.html" target="_top" xlink:title="Suchi.Recette">
<polygon fill="none" stroke="black" points="0,-76.5 0,-95.5 79,-95.5 79,-76.5 0,-76.5"/>
<text text-anchor="middle" x="39.5" y="-83.5" font-family="Helvetica,sans-Serif" font-size="10.00">Suchi.Recette</text>
</a>
</g>
</g>
<!-- Node2 -->
<g id="node2" class="node"><title>Node2</title>
<g id="a_node2"><a xlink:href="classSuchi_1_1California.html" target="_top" xlink:title="Suchi.California">
<polygon fill="none" stroke="black" points="115.5,-152.5 115.5,-171.5 201.5,-171.5 201.5,-152.5 115.5,-152.5"/>
<text text-anchor="middle" x="158.5" y="-159.5" font-family="Helvetica,sans-Serif" font-size="10.00">Suchi.California</text>
</a>
</g>
</g>
<!-- Node1&#45;&gt;Node2 -->
<g id="edge1" class="edge"><title>Node1&#45;&gt;Node2</title>
<path fill="none" stroke="midnightblue" d="M59.296,-102.354C73.8576,-114.522 94.8773,-131.027 115,-143 120.834,-146.472 127.416,-149.711 133.626,-152.496"/>
<polygon fill="midnightblue" stroke="midnightblue" points="61.4131,-99.56 51.5243,-95.7571 56.8833,-104.897 61.4131,-99.56"/>
</g>
<!-- Node3 -->
<g id="node3" class="node"><title>Node3</title>
<g id="a_node3"><a xlink:href="classSuchi_1_1Maki.html" target="_top" xlink:title="Suchi.Maki">
<polygon fill="none" stroke="black" points="126,-114.5 126,-133.5 191,-133.5 191,-114.5 126,-114.5"/>
<text text-anchor="middle" x="158.5" y="-121.5" font-family="Helvetica,sans-Serif" font-size="10.00">Suchi.Maki</text>
</a>
</g>
</g>
<!-- Node1&#45;&gt;Node3 -->
<g id="edge2" class="edge"><title>Node1&#45;&gt;Node3</title>
<path fill="none" stroke="midnightblue" d="M79.5424,-98.6804C95.3509,-103.815 113.299,-109.644 127.985,-114.414"/>
<polygon fill="midnightblue" stroke="midnightblue" points="80.6162,-95.3493 70.024,-95.589 78.4538,-102.007 80.6162,-95.3493"/>
</g>
<!-- Node4 -->
<g id="node4" class="node"><title>Node4</title>
<g id="a_node4"><a xlink:href="classSuchi_1_1Onigiri.html" target="_top" xlink:title="Suchi.Onigiri">
<polygon fill="none" stroke="black" points="122.5,-76.5 122.5,-95.5 194.5,-95.5 194.5,-76.5 122.5,-76.5"/>
<text text-anchor="middle" x="158.5" y="-83.5" font-family="Helvetica,sans-Serif" font-size="10.00">Suchi.Onigiri</text>
</a>
</g>
</g>
<!-- Node1&#45;&gt;Node4 -->
<g id="edge3" class="edge"><title>Node1&#45;&gt;Node4</title>
<path fill="none" stroke="midnightblue" d="M89.1972,-86C100.357,-86 112.007,-86 122.459,-86"/>
<polygon fill="midnightblue" stroke="midnightblue" points="89.1345,-82.5001 79.1344,-86 89.1344,-89.5001 89.1345,-82.5001"/>
</g>
<!-- Node5 -->
<g id="node5" class="node"><title>Node5</title>
<g id="a_node5"><a xlink:href="classSuchi_1_1Salmon.html" target="_top" xlink:title="Suchi.Salmon">
<polygon fill="none" stroke="black" points="120,-38.5 120,-57.5 197,-57.5 197,-38.5 120,-38.5"/>
<text text-anchor="middle" x="158.5" y="-45.5" font-family="Helvetica,sans-Serif" font-size="10.00">Suchi.Salmon</text>
</a>
</g>
</g>
<!-- Node1&#45;&gt;Node5 -->
<g id="edge4" class="edge"><title>Node1&#45;&gt;Node5</title>
<path fill="none" stroke="midnightblue" d="M79.5424,-73.3196C95.3509,-68.1852 113.299,-62.3559 127.985,-57.5859"/>
<polygon fill="midnightblue" stroke="midnightblue" points="78.4538,-69.9931 70.024,-76.411 80.6162,-76.6507 78.4538,-69.9931"/>
</g>
<!-- Node6 -->
<g id="node6" class="node"><title>Node6</title>
<g id="a_node6"><a xlink:href="classSuchi_1_1ShrimpSh.html" target="_top" xlink:title="Suchi.ShrimpSh">
<polygon fill="none" stroke="black" points="115,-0.5 115,-19.5 202,-19.5 202,-0.5 115,-0.5"/>
<text text-anchor="middle" x="158.5" y="-7.5" font-family="Helvetica,sans-Serif" font-size="10.00">Suchi.ShrimpSh</text>
</a>
</g>
</g>
<!-- Node1&#45;&gt;Node6 -->
<g id="edge5" class="edge"><title>Node1&#45;&gt;Node6</title>
<path fill="none" stroke="midnightblue" d="M59.296,-69.6462C73.8576,-57.4776 94.8773,-40.9734 115,-29 120.834,-25.5284 127.416,-22.2894 133.626,-19.5041"/>
<polygon fill="midnightblue" stroke="midnightblue" points="56.8833,-67.1033 51.5243,-76.2429 61.4131,-72.44 56.8833,-67.1033"/>
</g>
</g>
</svg>
